%
M48
M72
T01C0.0118
T02C0.0236
T03C0.0320
T04C0.0354
T05C0.0394
T06C0.0400
T07C0.0440
T08C0.0472
T09C0.0600
T10C0.0630
T11C0.0709
T12C0.0906
T13C0.1181
T14C0.1500
%
T01
X17139Y7914
X18039Y9914
X24039Y8114
X26039Y7514
X27439Y7714
X27439Y6814
X28739Y8114
X29239Y8114
X30221Y9333
X29239Y10114
X29739Y10414
X30239Y10714
X30739Y10914
X31639Y10714
X30239Y11814
X29739Y11814
X29239Y11814
X32623Y8978
X32589Y8524
X31489Y8364
X31939Y6814
X33339Y6814
X33339Y5614
X31939Y5714
X30039Y3714
X30339Y3414
X31039Y3514
X32239Y3014
X29239Y6214
X26389Y3464
X26389Y2964
X34439Y8414
X34139Y9114
X33539Y9614
X35239Y9614
X35239Y8314
X36739Y10114
X35639Y10914
X34839Y11014
X34439Y11914
X35439Y12214
X36259Y11954
X37139Y11914
X36939Y13914
X36639Y14214
X36339Y13914
X36339Y14532
X36939Y14532
X36239Y16114
X36639Y16314
X35739Y16114
X35239Y15814
X34739Y15814
X34839Y16314
X34339Y16314
X34739Y15314
X35239Y15314
X34939Y13914
X34239Y13714
X33239Y13414
X33239Y12414
X33239Y11414
X39539Y15414
X40039Y15414
X37439Y17314
X36739Y17314
X35499Y17434
X36339Y18914
X36639Y19214
X36939Y18914
X36939Y19532
X36339Y19532
X34839Y19514
X34239Y19514
X34239Y20114
X34839Y20114
X34839Y20714
X34239Y20714
X33639Y21614
X33039Y21314
X32539Y21814
X33639Y22514
X32539Y23314
X31539Y24614
X31539Y25114
X31039Y25114
X31039Y24614
X31039Y25614
X31539Y25614
X33839Y27114
X35839Y26214
X36299Y26194
X36839Y26394
X36639Y27314
X37339Y27214
X36939Y28914
X36639Y29214
X36339Y28914
X36339Y29532
X36939Y29532
X36739Y31154
X36259Y31134
X35812Y31065
X33839Y29614
X31206Y30435
X27239Y28614
X26719Y29534
X26579Y30354
X25479Y30354
X23139Y28714
X22139Y28714
X21139Y28714
X20139Y28714
X19139Y28714
X18139Y28714
X18139Y27714
X19139Y27714
X20139Y27714
X20139Y26714
X19139Y26714
X18139Y26714
X18139Y25814
X19139Y25714
X19139Y24714
X18139Y24714
X18139Y23714
X17139Y23714
X16139Y23714
X16139Y24714
X17139Y24714
X17139Y25714
X16139Y25714
X17139Y26714
X17139Y27714
X17139Y28714
X17139Y29714
X18139Y29714
X19139Y29714
X20139Y29714
X21139Y29714
X22139Y29714
X22139Y30714
X21139Y30714
X20139Y30714
X19139Y30714
X18139Y30714
X17139Y30714
X12049Y27294
X12039Y26794
X12029Y26304
X12039Y25784
X11509Y25794
X11509Y26304
X11509Y26804
X11409Y27404
X11009Y27404
X10609Y27404
X10209Y27404
X10209Y27804
X10209Y28194
X10609Y28194
X10609Y27804
X11009Y27804
X11009Y28194
X11409Y28194
X11409Y27804
X7780Y25750
X6639Y25750
X3729Y25794
X3729Y26294
X3229Y26294
X3229Y25794
X3829Y27084
X3839Y27684
X6169Y28104
X6419Y28704
X6919Y28704
X6919Y29104
X6679Y29494
X6419Y29104
X6669Y29964
X6419Y30504
X5809Y30504
X5799Y31004
X6419Y31004
X7019Y31004
X7619Y31004
X7619Y30504
X7019Y30504
X4039Y30524
X4059Y30964
X3589Y31024
X3109Y31034
X3939Y22814
X4539Y22814
X5139Y22814
X4539Y22214
X3939Y22214
X3339Y22214
X2739Y22214
X15139Y23714
X15139Y24714
X16139Y22714
X17139Y22714
X21139Y20014
X21539Y20014
X21939Y20014
X22439Y20014
X22439Y19614
X22439Y19214
X21739Y18814
X21339Y18814
X20939Y18814
X23439Y18114
X24079Y21514
X25139Y23014
X25139Y23514
X25739Y23514
X25739Y23014
X26339Y23014
X26339Y23514
X25739Y24114
X25139Y24114
X24539Y23514
X22139Y23314
X21539Y23314
X21539Y23914
X22139Y23914
X22139Y24514
X21539Y24514
X22139Y25114
X22139Y22714
X21539Y22714
X27339Y23514
X27639Y22614
X28139Y22614
X28839Y22214
X31039Y20614
X31539Y20614
X31539Y20114
X31039Y20114
X31039Y19614
X31539Y19614
X32639Y18314
X31539Y17514
X31039Y17514
X31239Y17114
X30739Y17114
X30739Y16614
X32339Y16814
X33039Y17014
X35839Y21114
X36239Y21314
X36739Y21314
X36639Y22214
X37139Y22314
X35739Y22414
X36339Y23914
X36639Y24214
X36939Y23914
X36939Y24532
X36339Y24532
X34839Y24514
X34239Y24514
X34239Y25114
X34839Y25114
X34839Y25714
X34239Y25714
X39539Y25514
X40039Y25514
X40039Y21014
X39539Y21014
X39539Y30114
X40039Y30114
X27639Y24514
X25739Y27314
T02
X19639Y9014
T03
X5182Y4514
X7387Y4514
X9591Y4514
X9591Y6514
X7387Y6514
X5182Y6514
T04
X13079Y28459
X13079Y29444
X13079Y30428
X14379Y30428
X14379Y29444
X14379Y28459
T05
X3139Y24214
X3139Y23214
X4381Y14665
X2881Y13665
X5881Y9165
X4381Y7665
X7032Y3372
X8607Y3372
X9198Y1065
X7623Y1065
X16678Y5207
X17662Y5207
X18450Y5207
X19434Y5207
T06
X20939Y6414
X21939Y6414
X22939Y6414
X23939Y6414
X24939Y6414
X25939Y6414
X28139Y1914
X29139Y1914
X30139Y1914
X31139Y1914
X32139Y1914
X34639Y4414
X35639Y4414
X36639Y4414
X37639Y4414
X38639Y4414
X39639Y4414
X39639Y6714
X38639Y6714
X37639Y6714
X36639Y6714
X35639Y6714
X34639Y6714
X38017Y10514
X39017Y10514
X40017Y10514
X28439Y11314
X28439Y12314
X28439Y13314
X28439Y14314
X28439Y15314
X28439Y16314
X28439Y17314
X28439Y18314
X28439Y19314
X14839Y8014
X14839Y7014
X14839Y6014
T07
X13439Y8514
X12439Y8514
X11439Y8514
T08
X2189Y27824
X2189Y30403
T09
X38331Y29612
X38331Y28112
X38331Y24927
X38331Y23427
X38331Y19809
X38331Y18309
X38331Y14927
X38331Y13427
T10
X2859Y15750
X2820Y19018
T11
X4591Y19018
X10576Y24333
X10576Y26498
T12
X15469Y4136
X20643Y4136
T13
X10576Y29372
T14
X7639Y20214
X12439Y15414
X12639Y2214
X38639Y2214
X31339Y28814
M30
