G75*
%MOIN*%
%OFA0B0*%
%FSLAX24Y24*%
%IPPOS*%
%LPD*%
%AMOC8*
5,1,8,0,0,1.08239X$1,22.5*
%
%ADD10C,0.0000*%
D10*
X001639Y000514D02*
X001639Y032010D01*
X041009Y032010D01*
X041009Y000514D01*
X001639Y000514D01*
X011889Y002214D02*
X011891Y002268D01*
X011897Y002322D01*
X011907Y002375D01*
X011920Y002428D01*
X011937Y002479D01*
X011958Y002529D01*
X011983Y002577D01*
X012011Y002624D01*
X012042Y002668D01*
X012076Y002710D01*
X012113Y002749D01*
X012153Y002786D01*
X012196Y002819D01*
X012241Y002850D01*
X012288Y002877D01*
X012336Y002900D01*
X012387Y002920D01*
X012438Y002937D01*
X012491Y002949D01*
X012544Y002958D01*
X012598Y002963D01*
X012653Y002964D01*
X012707Y002961D01*
X012760Y002954D01*
X012813Y002943D01*
X012866Y002929D01*
X012917Y002911D01*
X012966Y002889D01*
X013014Y002864D01*
X013060Y002835D01*
X013104Y002803D01*
X013145Y002768D01*
X013183Y002730D01*
X013219Y002689D01*
X013252Y002646D01*
X013282Y002601D01*
X013308Y002553D01*
X013331Y002504D01*
X013350Y002453D01*
X013365Y002402D01*
X013377Y002349D01*
X013385Y002295D01*
X013389Y002241D01*
X013389Y002187D01*
X013385Y002133D01*
X013377Y002079D01*
X013365Y002026D01*
X013350Y001975D01*
X013331Y001924D01*
X013308Y001875D01*
X013282Y001827D01*
X013252Y001782D01*
X013219Y001739D01*
X013183Y001698D01*
X013145Y001660D01*
X013104Y001625D01*
X013060Y001593D01*
X013014Y001564D01*
X012966Y001539D01*
X012917Y001517D01*
X012866Y001499D01*
X012813Y001485D01*
X012760Y001474D01*
X012707Y001467D01*
X012653Y001464D01*
X012598Y001465D01*
X012544Y001470D01*
X012491Y001479D01*
X012438Y001491D01*
X012387Y001508D01*
X012336Y001528D01*
X012288Y001551D01*
X012241Y001578D01*
X012196Y001609D01*
X012153Y001642D01*
X012113Y001679D01*
X012076Y001718D01*
X012042Y001760D01*
X012011Y001804D01*
X011983Y001851D01*
X011958Y001899D01*
X011937Y001949D01*
X011920Y002000D01*
X011907Y002053D01*
X011897Y002106D01*
X011891Y002160D01*
X011889Y002214D01*
X011689Y015414D02*
X011691Y015468D01*
X011697Y015522D01*
X011707Y015575D01*
X011720Y015628D01*
X011737Y015679D01*
X011758Y015729D01*
X011783Y015777D01*
X011811Y015824D01*
X011842Y015868D01*
X011876Y015910D01*
X011913Y015949D01*
X011953Y015986D01*
X011996Y016019D01*
X012041Y016050D01*
X012088Y016077D01*
X012136Y016100D01*
X012187Y016120D01*
X012238Y016137D01*
X012291Y016149D01*
X012344Y016158D01*
X012398Y016163D01*
X012453Y016164D01*
X012507Y016161D01*
X012560Y016154D01*
X012613Y016143D01*
X012666Y016129D01*
X012717Y016111D01*
X012766Y016089D01*
X012814Y016064D01*
X012860Y016035D01*
X012904Y016003D01*
X012945Y015968D01*
X012983Y015930D01*
X013019Y015889D01*
X013052Y015846D01*
X013082Y015801D01*
X013108Y015753D01*
X013131Y015704D01*
X013150Y015653D01*
X013165Y015602D01*
X013177Y015549D01*
X013185Y015495D01*
X013189Y015441D01*
X013189Y015387D01*
X013185Y015333D01*
X013177Y015279D01*
X013165Y015226D01*
X013150Y015175D01*
X013131Y015124D01*
X013108Y015075D01*
X013082Y015027D01*
X013052Y014982D01*
X013019Y014939D01*
X012983Y014898D01*
X012945Y014860D01*
X012904Y014825D01*
X012860Y014793D01*
X012814Y014764D01*
X012766Y014739D01*
X012717Y014717D01*
X012666Y014699D01*
X012613Y014685D01*
X012560Y014674D01*
X012507Y014667D01*
X012453Y014664D01*
X012398Y014665D01*
X012344Y014670D01*
X012291Y014679D01*
X012238Y014691D01*
X012187Y014708D01*
X012136Y014728D01*
X012088Y014751D01*
X012041Y014778D01*
X011996Y014809D01*
X011953Y014842D01*
X011913Y014879D01*
X011876Y014918D01*
X011842Y014960D01*
X011811Y015004D01*
X011783Y015051D01*
X011758Y015099D01*
X011737Y015149D01*
X011720Y015200D01*
X011707Y015253D01*
X011697Y015306D01*
X011691Y015360D01*
X011689Y015414D01*
X006889Y020214D02*
X006891Y020268D01*
X006897Y020322D01*
X006907Y020375D01*
X006920Y020428D01*
X006937Y020479D01*
X006958Y020529D01*
X006983Y020577D01*
X007011Y020624D01*
X007042Y020668D01*
X007076Y020710D01*
X007113Y020749D01*
X007153Y020786D01*
X007196Y020819D01*
X007241Y020850D01*
X007288Y020877D01*
X007336Y020900D01*
X007387Y020920D01*
X007438Y020937D01*
X007491Y020949D01*
X007544Y020958D01*
X007598Y020963D01*
X007653Y020964D01*
X007707Y020961D01*
X007760Y020954D01*
X007813Y020943D01*
X007866Y020929D01*
X007917Y020911D01*
X007966Y020889D01*
X008014Y020864D01*
X008060Y020835D01*
X008104Y020803D01*
X008145Y020768D01*
X008183Y020730D01*
X008219Y020689D01*
X008252Y020646D01*
X008282Y020601D01*
X008308Y020553D01*
X008331Y020504D01*
X008350Y020453D01*
X008365Y020402D01*
X008377Y020349D01*
X008385Y020295D01*
X008389Y020241D01*
X008389Y020187D01*
X008385Y020133D01*
X008377Y020079D01*
X008365Y020026D01*
X008350Y019975D01*
X008331Y019924D01*
X008308Y019875D01*
X008282Y019827D01*
X008252Y019782D01*
X008219Y019739D01*
X008183Y019698D01*
X008145Y019660D01*
X008104Y019625D01*
X008060Y019593D01*
X008014Y019564D01*
X007966Y019539D01*
X007917Y019517D01*
X007866Y019499D01*
X007813Y019485D01*
X007760Y019474D01*
X007707Y019467D01*
X007653Y019464D01*
X007598Y019465D01*
X007544Y019470D01*
X007491Y019479D01*
X007438Y019491D01*
X007387Y019508D01*
X007336Y019528D01*
X007288Y019551D01*
X007241Y019578D01*
X007196Y019609D01*
X007153Y019642D01*
X007113Y019679D01*
X007076Y019718D01*
X007042Y019760D01*
X007011Y019804D01*
X006983Y019851D01*
X006958Y019899D01*
X006937Y019949D01*
X006920Y020000D01*
X006907Y020053D01*
X006897Y020106D01*
X006891Y020160D01*
X006889Y020214D01*
X004237Y019018D02*
X004239Y019055D01*
X004245Y019092D01*
X004254Y019127D01*
X004268Y019162D01*
X004284Y019195D01*
X004305Y019226D01*
X004328Y019255D01*
X004354Y019281D01*
X004383Y019304D01*
X004414Y019325D01*
X004447Y019341D01*
X004482Y019355D01*
X004517Y019364D01*
X004554Y019370D01*
X004591Y019372D01*
X004628Y019370D01*
X004665Y019364D01*
X004700Y019355D01*
X004735Y019341D01*
X004768Y019325D01*
X004799Y019304D01*
X004828Y019281D01*
X004854Y019255D01*
X004877Y019226D01*
X004898Y019195D01*
X004914Y019162D01*
X004928Y019127D01*
X004937Y019092D01*
X004943Y019055D01*
X004945Y019018D01*
X004943Y018981D01*
X004937Y018944D01*
X004928Y018909D01*
X004914Y018874D01*
X004898Y018841D01*
X004877Y018810D01*
X004854Y018781D01*
X004828Y018755D01*
X004799Y018732D01*
X004768Y018711D01*
X004735Y018695D01*
X004700Y018681D01*
X004665Y018672D01*
X004628Y018666D01*
X004591Y018664D01*
X004554Y018666D01*
X004517Y018672D01*
X004482Y018681D01*
X004447Y018695D01*
X004414Y018711D01*
X004383Y018732D01*
X004354Y018755D01*
X004328Y018781D01*
X004305Y018810D01*
X004284Y018841D01*
X004268Y018874D01*
X004254Y018909D01*
X004245Y018944D01*
X004239Y018981D01*
X004237Y019018D01*
X002505Y019018D02*
X002507Y019053D01*
X002513Y019088D01*
X002523Y019122D01*
X002536Y019155D01*
X002553Y019186D01*
X002574Y019214D01*
X002597Y019241D01*
X002624Y019264D01*
X002652Y019285D01*
X002683Y019302D01*
X002716Y019315D01*
X002750Y019325D01*
X002785Y019331D01*
X002820Y019333D01*
X002855Y019331D01*
X002890Y019325D01*
X002924Y019315D01*
X002957Y019302D01*
X002988Y019285D01*
X003016Y019264D01*
X003043Y019241D01*
X003066Y019214D01*
X003087Y019186D01*
X003104Y019155D01*
X003117Y019122D01*
X003127Y019088D01*
X003133Y019053D01*
X003135Y019018D01*
X003133Y018983D01*
X003127Y018948D01*
X003117Y018914D01*
X003104Y018881D01*
X003087Y018850D01*
X003066Y018822D01*
X003043Y018795D01*
X003016Y018772D01*
X002988Y018751D01*
X002957Y018734D01*
X002924Y018721D01*
X002890Y018711D01*
X002855Y018705D01*
X002820Y018703D01*
X002785Y018705D01*
X002750Y018711D01*
X002716Y018721D01*
X002683Y018734D01*
X002652Y018751D01*
X002624Y018772D01*
X002597Y018795D01*
X002574Y018822D01*
X002553Y018850D01*
X002536Y018881D01*
X002523Y018914D01*
X002513Y018948D01*
X002507Y018983D01*
X002505Y019018D01*
X009985Y029372D02*
X009987Y029420D01*
X009993Y029468D01*
X010003Y029515D01*
X010016Y029561D01*
X010034Y029606D01*
X010054Y029650D01*
X010079Y029692D01*
X010107Y029731D01*
X010137Y029768D01*
X010171Y029802D01*
X010208Y029834D01*
X010246Y029863D01*
X010287Y029888D01*
X010330Y029910D01*
X010375Y029928D01*
X010421Y029942D01*
X010468Y029953D01*
X010516Y029960D01*
X010564Y029963D01*
X010612Y029962D01*
X010660Y029957D01*
X010708Y029948D01*
X010754Y029936D01*
X010799Y029919D01*
X010843Y029899D01*
X010885Y029876D01*
X010925Y029849D01*
X010963Y029819D01*
X010998Y029786D01*
X011030Y029750D01*
X011060Y029712D01*
X011086Y029671D01*
X011108Y029628D01*
X011128Y029584D01*
X011143Y029539D01*
X011155Y029492D01*
X011163Y029444D01*
X011167Y029396D01*
X011167Y029348D01*
X011163Y029300D01*
X011155Y029252D01*
X011143Y029205D01*
X011128Y029160D01*
X011108Y029116D01*
X011086Y029073D01*
X011060Y029032D01*
X011030Y028994D01*
X010998Y028958D01*
X010963Y028925D01*
X010925Y028895D01*
X010885Y028868D01*
X010843Y028845D01*
X010799Y028825D01*
X010754Y028808D01*
X010708Y028796D01*
X010660Y028787D01*
X010612Y028782D01*
X010564Y028781D01*
X010516Y028784D01*
X010468Y028791D01*
X010421Y028802D01*
X010375Y028816D01*
X010330Y028834D01*
X010287Y028856D01*
X010246Y028881D01*
X010208Y028910D01*
X010171Y028942D01*
X010137Y028976D01*
X010107Y029013D01*
X010079Y029052D01*
X010054Y029094D01*
X010034Y029138D01*
X010016Y029183D01*
X010003Y029229D01*
X009993Y029276D01*
X009987Y029324D01*
X009985Y029372D01*
X030589Y028814D02*
X030591Y028868D01*
X030597Y028922D01*
X030607Y028975D01*
X030620Y029028D01*
X030637Y029079D01*
X030658Y029129D01*
X030683Y029177D01*
X030711Y029224D01*
X030742Y029268D01*
X030776Y029310D01*
X030813Y029349D01*
X030853Y029386D01*
X030896Y029419D01*
X030941Y029450D01*
X030988Y029477D01*
X031036Y029500D01*
X031087Y029520D01*
X031138Y029537D01*
X031191Y029549D01*
X031244Y029558D01*
X031298Y029563D01*
X031353Y029564D01*
X031407Y029561D01*
X031460Y029554D01*
X031513Y029543D01*
X031566Y029529D01*
X031617Y029511D01*
X031666Y029489D01*
X031714Y029464D01*
X031760Y029435D01*
X031804Y029403D01*
X031845Y029368D01*
X031883Y029330D01*
X031919Y029289D01*
X031952Y029246D01*
X031982Y029201D01*
X032008Y029153D01*
X032031Y029104D01*
X032050Y029053D01*
X032065Y029002D01*
X032077Y028949D01*
X032085Y028895D01*
X032089Y028841D01*
X032089Y028787D01*
X032085Y028733D01*
X032077Y028679D01*
X032065Y028626D01*
X032050Y028575D01*
X032031Y028524D01*
X032008Y028475D01*
X031982Y028427D01*
X031952Y028382D01*
X031919Y028339D01*
X031883Y028298D01*
X031845Y028260D01*
X031804Y028225D01*
X031760Y028193D01*
X031714Y028164D01*
X031666Y028139D01*
X031617Y028117D01*
X031566Y028099D01*
X031513Y028085D01*
X031460Y028074D01*
X031407Y028067D01*
X031353Y028064D01*
X031298Y028065D01*
X031244Y028070D01*
X031191Y028079D01*
X031138Y028091D01*
X031087Y028108D01*
X031036Y028128D01*
X030988Y028151D01*
X030941Y028178D01*
X030896Y028209D01*
X030853Y028242D01*
X030813Y028279D01*
X030776Y028318D01*
X030742Y028360D01*
X030711Y028404D01*
X030683Y028451D01*
X030658Y028499D01*
X030637Y028549D01*
X030620Y028600D01*
X030607Y028653D01*
X030597Y028706D01*
X030591Y028760D01*
X030589Y028814D01*
X037889Y002214D02*
X037891Y002268D01*
X037897Y002322D01*
X037907Y002375D01*
X037920Y002428D01*
X037937Y002479D01*
X037958Y002529D01*
X037983Y002577D01*
X038011Y002624D01*
X038042Y002668D01*
X038076Y002710D01*
X038113Y002749D01*
X038153Y002786D01*
X038196Y002819D01*
X038241Y002850D01*
X038288Y002877D01*
X038336Y002900D01*
X038387Y002920D01*
X038438Y002937D01*
X038491Y002949D01*
X038544Y002958D01*
X038598Y002963D01*
X038653Y002964D01*
X038707Y002961D01*
X038760Y002954D01*
X038813Y002943D01*
X038866Y002929D01*
X038917Y002911D01*
X038966Y002889D01*
X039014Y002864D01*
X039060Y002835D01*
X039104Y002803D01*
X039145Y002768D01*
X039183Y002730D01*
X039219Y002689D01*
X039252Y002646D01*
X039282Y002601D01*
X039308Y002553D01*
X039331Y002504D01*
X039350Y002453D01*
X039365Y002402D01*
X039377Y002349D01*
X039385Y002295D01*
X039389Y002241D01*
X039389Y002187D01*
X039385Y002133D01*
X039377Y002079D01*
X039365Y002026D01*
X039350Y001975D01*
X039331Y001924D01*
X039308Y001875D01*
X039282Y001827D01*
X039252Y001782D01*
X039219Y001739D01*
X039183Y001698D01*
X039145Y001660D01*
X039104Y001625D01*
X039060Y001593D01*
X039014Y001564D01*
X038966Y001539D01*
X038917Y001517D01*
X038866Y001499D01*
X038813Y001485D01*
X038760Y001474D01*
X038707Y001467D01*
X038653Y001464D01*
X038598Y001465D01*
X038544Y001470D01*
X038491Y001479D01*
X038438Y001491D01*
X038387Y001508D01*
X038336Y001528D01*
X038288Y001551D01*
X038241Y001578D01*
X038196Y001609D01*
X038153Y001642D01*
X038113Y001679D01*
X038076Y001718D01*
X038042Y001760D01*
X038011Y001804D01*
X037983Y001851D01*
X037958Y001899D01*
X037937Y001949D01*
X037920Y002000D01*
X037907Y002053D01*
X037897Y002106D01*
X037891Y002160D01*
X037889Y002214D01*
M02*
