G75*
%MOIN*%
%OFA0B0*%
%FSLAX24Y24*%
%IPPOS*%
%LPD*%
%AMOC8*
5,1,8,0,0,1.08239X$1,22.5*
%
%ADD10C,0.0060*%
%ADD11C,0.0080*%
%ADD12C,0.0160*%
%ADD13R,0.0394X0.0098*%
%ADD14C,0.0020*%
%ADD15C,0.0040*%
%ADD16C,0.0050*%
%ADD17R,0.0059X0.0079*%
%ADD18R,0.0020X0.0020*%
%ADD19R,0.0148X0.0020*%
%ADD20R,0.0118X0.0079*%
%ADD21R,0.0089X0.0354*%
%ADD22R,0.0197X0.0079*%
%ADD23R,0.0089X0.0217*%
%ADD24R,0.0039X0.0039*%
%ADD25R,0.0160X0.0340*%
%ADD26R,0.0551X0.0256*%
%ADD27C,0.0039*%
%ADD28R,0.0200X0.0200*%
%ADD29C,0.0079*%
%ADD30C,0.0118*%
%ADD31R,0.0340X0.0160*%
%ADD32R,0.0300X0.0250*%
%ADD33R,0.0500X0.1100*%
%ADD34R,0.0300X0.0750*%
%ADD35C,0.0120*%
%ADD36R,0.0079X0.0059*%
%ADD37R,0.0020X0.0148*%
%ADD38R,0.0079X0.0118*%
%ADD39R,0.0354X0.0089*%
%ADD40R,0.0079X0.0197*%
%ADD41R,0.0217X0.0089*%
%ADD42R,0.0197X0.0374*%
%ADD43R,0.0571X0.0295*%
%ADD44R,0.1024X0.0295*%
%ADD45R,0.0374X0.0197*%
%ADD46R,0.0866X0.0059*%
%ADD47R,0.1240X0.0197*%
%ADD48R,0.0295X0.0571*%
D10*
X004482Y004164D02*
X004482Y006864D01*
X004484Y006881D01*
X004488Y006898D01*
X004495Y006914D01*
X004505Y006928D01*
X004518Y006941D01*
X004532Y006951D01*
X004548Y006958D01*
X004565Y006962D01*
X004582Y006964D01*
X005782Y006964D01*
X005799Y006962D01*
X005816Y006958D01*
X005832Y006951D01*
X005846Y006941D01*
X005859Y006928D01*
X005869Y006914D01*
X005876Y006898D01*
X005880Y006881D01*
X005882Y006864D01*
X005882Y004164D01*
X005880Y004147D01*
X005876Y004130D01*
X005869Y004114D01*
X005859Y004100D01*
X005846Y004087D01*
X005832Y004077D01*
X005816Y004070D01*
X005799Y004066D01*
X005782Y004064D01*
X004582Y004064D01*
X004565Y004066D01*
X004548Y004070D01*
X004532Y004077D01*
X004518Y004087D01*
X004505Y004100D01*
X004495Y004114D01*
X004488Y004130D01*
X004484Y004147D01*
X004482Y004164D01*
X005182Y004914D02*
X005182Y005384D01*
X005182Y005634D02*
X005182Y006114D01*
X006687Y006864D02*
X006687Y004164D01*
X006689Y004147D01*
X006693Y004130D01*
X006700Y004114D01*
X006710Y004100D01*
X006723Y004087D01*
X006737Y004077D01*
X006753Y004070D01*
X006770Y004066D01*
X006787Y004064D01*
X007987Y004064D01*
X008004Y004066D01*
X008021Y004070D01*
X008037Y004077D01*
X008051Y004087D01*
X008064Y004100D01*
X008074Y004114D01*
X008081Y004130D01*
X008085Y004147D01*
X008087Y004164D01*
X008087Y006864D01*
X008085Y006881D01*
X008081Y006898D01*
X008074Y006914D01*
X008064Y006928D01*
X008051Y006941D01*
X008037Y006951D01*
X008021Y006958D01*
X008004Y006962D01*
X007987Y006964D01*
X006787Y006964D01*
X006770Y006962D01*
X006753Y006958D01*
X006737Y006951D01*
X006723Y006941D01*
X006710Y006928D01*
X006700Y006914D01*
X006693Y006898D01*
X006689Y006881D01*
X006687Y006864D01*
X007387Y006114D02*
X007387Y005634D01*
X007387Y005384D02*
X007387Y004914D01*
X008891Y004164D02*
X008891Y006864D01*
X008893Y006881D01*
X008897Y006898D01*
X008904Y006914D01*
X008914Y006928D01*
X008927Y006941D01*
X008941Y006951D01*
X008957Y006958D01*
X008974Y006962D01*
X008991Y006964D01*
X010191Y006964D01*
X010208Y006962D01*
X010225Y006958D01*
X010241Y006951D01*
X010255Y006941D01*
X010268Y006928D01*
X010278Y006914D01*
X010285Y006898D01*
X010289Y006881D01*
X010291Y006864D01*
X010291Y004164D01*
X010289Y004147D01*
X010285Y004130D01*
X010278Y004114D01*
X010268Y004100D01*
X010255Y004087D01*
X010241Y004077D01*
X010225Y004070D01*
X010208Y004066D01*
X010191Y004064D01*
X008991Y004064D01*
X008974Y004066D01*
X008957Y004070D01*
X008941Y004077D01*
X008927Y004087D01*
X008914Y004100D01*
X008904Y004114D01*
X008897Y004130D01*
X008893Y004147D01*
X008891Y004164D01*
X009591Y004914D02*
X009591Y005384D01*
X009591Y005634D02*
X009591Y006114D01*
X013832Y006654D02*
X013832Y006781D01*
X013875Y006824D01*
X013960Y006824D01*
X014002Y006781D01*
X014002Y006654D01*
X014087Y006654D02*
X013832Y006654D01*
X013832Y006944D02*
X014087Y006944D01*
X014002Y007029D01*
X014087Y007114D01*
X013832Y007114D01*
X013832Y007234D02*
X013917Y007319D01*
X013832Y007404D01*
X014087Y007404D01*
X014087Y007234D02*
X013832Y007234D01*
X014669Y009574D02*
X015009Y009574D01*
X015009Y009854D02*
X014669Y009854D01*
X017398Y008984D02*
X017398Y008644D01*
X017679Y008644D02*
X017679Y008984D01*
X020790Y005699D02*
X020747Y005656D01*
X020790Y005699D02*
X020875Y005699D01*
X020917Y005656D01*
X020917Y005614D01*
X020747Y005444D01*
X020917Y005444D01*
X021037Y005571D02*
X021207Y005571D01*
X021165Y005444D02*
X021165Y005699D01*
X021037Y005571D01*
X021708Y005656D02*
X021750Y005699D01*
X021836Y005699D01*
X021878Y005656D01*
X021878Y005614D01*
X021708Y005444D01*
X021878Y005444D01*
X021998Y005486D02*
X022040Y005444D01*
X022126Y005444D01*
X022168Y005486D01*
X022168Y005571D01*
X022126Y005614D01*
X022083Y005614D01*
X021998Y005571D01*
X021998Y005699D01*
X022168Y005699D01*
X022708Y005656D02*
X022750Y005699D01*
X022836Y005699D01*
X022878Y005656D01*
X022878Y005614D01*
X022708Y005444D01*
X022878Y005444D01*
X022998Y005486D02*
X023040Y005444D01*
X023126Y005444D01*
X023168Y005486D01*
X023168Y005529D01*
X023126Y005571D01*
X022998Y005571D01*
X022998Y005486D01*
X022998Y005571D02*
X023083Y005656D01*
X023168Y005699D01*
X023708Y005656D02*
X023750Y005699D01*
X023836Y005699D01*
X023878Y005656D01*
X023878Y005614D01*
X023708Y005444D01*
X023878Y005444D01*
X023998Y005444D02*
X023998Y005486D01*
X024168Y005656D01*
X024168Y005699D01*
X023998Y005699D01*
X024708Y005656D02*
X024750Y005699D01*
X024836Y005699D01*
X024878Y005656D01*
X024878Y005614D01*
X024708Y005444D01*
X024878Y005444D01*
X024998Y005486D02*
X024998Y005529D01*
X025040Y005571D01*
X025126Y005571D01*
X025168Y005529D01*
X025168Y005486D01*
X025126Y005444D01*
X025040Y005444D01*
X024998Y005486D01*
X025040Y005571D02*
X024998Y005614D01*
X024998Y005656D01*
X025040Y005699D01*
X025126Y005699D01*
X025168Y005656D01*
X025168Y005614D01*
X025126Y005571D01*
X025687Y005656D02*
X025729Y005699D01*
X025814Y005699D01*
X025857Y005656D01*
X025857Y005614D01*
X025687Y005444D01*
X025857Y005444D01*
X025977Y005486D02*
X026019Y005444D01*
X026104Y005444D01*
X026147Y005486D01*
X026147Y005656D01*
X026104Y005699D01*
X026019Y005699D01*
X025977Y005656D01*
X025977Y005614D01*
X026019Y005571D01*
X026147Y005571D01*
X021412Y002763D02*
X021157Y002763D01*
X021157Y002848D02*
X021157Y002677D01*
X021157Y002558D02*
X021369Y002558D01*
X021412Y002515D01*
X021412Y002430D01*
X021369Y002387D01*
X021157Y002387D01*
X021199Y002268D02*
X021157Y002225D01*
X021157Y002140D01*
X021199Y002097D01*
X021369Y002097D01*
X021412Y002140D01*
X021412Y002225D01*
X021369Y002268D01*
X021199Y002268D01*
X021199Y001688D02*
X021242Y001688D01*
X021284Y001645D01*
X021284Y001517D01*
X021327Y001398D02*
X021369Y001398D01*
X021412Y001355D01*
X021412Y001270D01*
X021369Y001227D01*
X021284Y001270D02*
X021284Y001355D01*
X021327Y001398D01*
X021199Y001398D02*
X021157Y001355D01*
X021157Y001270D01*
X021199Y001227D01*
X021242Y001227D01*
X021284Y001270D01*
X021369Y001108D02*
X021157Y001108D01*
X021157Y000937D02*
X021369Y000937D01*
X021412Y000980D01*
X021412Y001065D01*
X021369Y001108D01*
X021412Y001517D02*
X021412Y001645D01*
X021369Y001688D01*
X021327Y001688D01*
X021284Y001645D01*
X021199Y001688D02*
X021157Y001645D01*
X021157Y001517D01*
X021412Y001517D01*
X031609Y009246D02*
X031609Y009459D01*
X031779Y009459D02*
X031779Y009246D01*
X031736Y009204D01*
X031651Y009204D01*
X031609Y009246D01*
X031899Y009246D02*
X031941Y009204D01*
X032026Y009204D01*
X032069Y009246D01*
X032069Y009289D01*
X032026Y009331D01*
X031941Y009331D01*
X031899Y009374D01*
X031899Y009416D01*
X031941Y009459D01*
X032026Y009459D01*
X032069Y009416D01*
X032189Y009459D02*
X032189Y009204D01*
X032316Y009204D01*
X032359Y009246D01*
X032359Y009289D01*
X032316Y009331D01*
X032189Y009331D01*
X032316Y009331D02*
X032359Y009374D01*
X032359Y009416D01*
X032316Y009459D01*
X032189Y009459D01*
X032169Y009674D02*
X032509Y009674D01*
X032521Y009459D02*
X032521Y009204D01*
X032479Y009204D02*
X032564Y009204D01*
X032672Y009204D02*
X032800Y009204D01*
X032842Y009246D01*
X032842Y009416D01*
X032800Y009459D01*
X032672Y009459D01*
X032672Y009204D01*
X032564Y009459D02*
X032479Y009459D01*
X032509Y009954D02*
X032169Y009954D01*
X032309Y011274D02*
X031969Y011274D01*
X031969Y011554D02*
X032309Y011554D01*
X032309Y012274D02*
X031969Y012274D01*
X031969Y012554D02*
X032309Y012554D01*
X032309Y013274D02*
X031969Y013274D01*
X031969Y013554D02*
X032309Y013554D01*
X032309Y014374D02*
X031969Y014374D01*
X031969Y014654D02*
X032309Y014654D01*
X034898Y013184D02*
X034898Y012844D01*
X035179Y012844D02*
X035179Y013184D01*
X038253Y014171D02*
X038381Y014044D01*
X038381Y014214D01*
X038509Y014171D02*
X038253Y014171D01*
X034809Y017674D02*
X034469Y017674D01*
X034469Y017954D02*
X034809Y017954D01*
X038253Y018986D02*
X038253Y019071D01*
X038296Y019114D01*
X038338Y019114D01*
X038381Y019071D01*
X038424Y019114D01*
X038466Y019114D01*
X038509Y019071D01*
X038509Y018986D01*
X038466Y018944D01*
X038381Y019029D02*
X038381Y019071D01*
X038296Y018944D02*
X038253Y018986D01*
X035009Y022674D02*
X034669Y022674D01*
X034669Y022954D02*
X035009Y022954D01*
X038253Y024086D02*
X038296Y024044D01*
X038253Y024086D02*
X038253Y024171D01*
X038296Y024214D01*
X038338Y024214D01*
X038509Y024044D01*
X038509Y024214D01*
X034709Y027974D02*
X034369Y027974D01*
X034369Y028254D02*
X034709Y028254D01*
X038253Y028829D02*
X038509Y028829D01*
X038509Y028744D02*
X038509Y028914D01*
X038338Y028744D02*
X038253Y028829D01*
X029379Y027884D02*
X029379Y027544D01*
X029098Y027544D02*
X029098Y027884D01*
X028379Y027884D02*
X028379Y027544D01*
X028098Y027544D02*
X028098Y027884D01*
X026159Y029744D02*
X026159Y030084D01*
X025878Y030084D02*
X025878Y029744D01*
X023879Y030344D02*
X023879Y030684D01*
X023598Y030684D02*
X023598Y030344D01*
X028669Y030454D02*
X029009Y030454D01*
X029009Y030174D02*
X028669Y030174D01*
X022979Y023784D02*
X022979Y023444D01*
X022698Y023444D02*
X022698Y023784D01*
X023569Y022354D02*
X023909Y022354D01*
X023909Y022074D02*
X023569Y022074D01*
X022566Y018085D02*
X022566Y017745D01*
X022286Y017745D02*
X022286Y018085D01*
X021046Y012957D02*
X021046Y012616D01*
X020766Y012616D02*
X020766Y012957D01*
X009429Y022644D02*
X009429Y022814D01*
X009429Y022729D02*
X009514Y022814D01*
X009556Y022814D01*
X009309Y022771D02*
X009309Y022729D01*
X009139Y022729D01*
X009139Y022771D02*
X009181Y022814D01*
X009266Y022814D01*
X009309Y022771D01*
X009266Y022644D02*
X009181Y022644D01*
X009139Y022686D01*
X009139Y022771D01*
X009019Y022814D02*
X009019Y022686D01*
X008976Y022644D01*
X008934Y022686D01*
X008891Y022644D01*
X008849Y022686D01*
X008849Y022814D01*
X008729Y022771D02*
X008686Y022814D01*
X008601Y022814D01*
X008559Y022771D01*
X008559Y022686D01*
X008601Y022644D01*
X008686Y022644D01*
X008729Y022686D01*
X008729Y022771D01*
X008439Y022771D02*
X008396Y022729D01*
X008269Y022729D01*
X008269Y022644D02*
X008269Y022899D01*
X008396Y022899D01*
X008439Y022856D01*
X008439Y022771D01*
X009175Y023559D02*
X009218Y023559D01*
X009260Y023601D01*
X009260Y023814D01*
X009133Y023814D01*
X009090Y023771D01*
X009090Y023686D01*
X009133Y023644D01*
X009260Y023644D01*
X008976Y023814D02*
X008934Y023814D01*
X008849Y023729D01*
X008849Y023644D02*
X008849Y023814D01*
X008729Y023771D02*
X008729Y023644D01*
X008729Y023771D02*
X008686Y023814D01*
X008601Y023814D01*
X008559Y023771D01*
X008559Y023644D02*
X008559Y023899D01*
X008439Y023856D02*
X008396Y023899D01*
X008311Y023899D01*
X008269Y023856D01*
X008269Y023686D01*
X008311Y023644D01*
X008396Y023644D01*
X008439Y023686D01*
X008396Y024644D02*
X008439Y024686D01*
X008439Y024856D01*
X008396Y024899D01*
X008269Y024899D01*
X008269Y024644D01*
X008396Y024644D01*
X008559Y024686D02*
X008601Y024644D01*
X008686Y024644D01*
X008729Y024686D01*
X008729Y024771D01*
X008686Y024814D01*
X008601Y024814D01*
X008559Y024771D01*
X008559Y024686D01*
X008849Y024644D02*
X008849Y024814D01*
X008976Y024814D01*
X009019Y024771D01*
X009019Y024644D01*
X009139Y024686D02*
X009139Y024771D01*
X009181Y024814D01*
X009266Y024814D01*
X009309Y024771D01*
X009309Y024729D01*
X009139Y024729D01*
X009139Y024686D02*
X009181Y024644D01*
X009266Y024644D01*
X008029Y026552D02*
X008029Y026875D01*
X007529Y026875D02*
X007529Y026552D01*
X006889Y026552D02*
X006889Y026875D01*
X006389Y026875D02*
X006389Y026552D01*
X006945Y027427D02*
X006988Y027427D01*
X007030Y027470D01*
X007030Y027682D01*
X006903Y027682D01*
X006860Y027640D01*
X006860Y027555D01*
X006903Y027512D01*
X007030Y027512D01*
X006740Y027555D02*
X006740Y027640D01*
X006698Y027682D01*
X006613Y027682D01*
X006570Y027640D01*
X006570Y027555D01*
X006613Y027512D01*
X006698Y027512D01*
X006740Y027555D01*
X006456Y027682D02*
X006414Y027682D01*
X006329Y027597D01*
X006329Y027512D02*
X006329Y027682D01*
X006209Y027640D02*
X006166Y027597D01*
X006039Y027597D01*
X006039Y027512D02*
X006039Y027767D01*
X006166Y027767D01*
X006209Y027725D01*
X006209Y027640D01*
X007299Y027767D02*
X007469Y027767D01*
X007384Y027767D02*
X007384Y027512D01*
X007589Y027512D02*
X007589Y027767D01*
X007631Y027682D02*
X007716Y027682D01*
X007759Y027640D01*
X007759Y027512D01*
X007879Y027555D02*
X007879Y027640D01*
X007921Y027682D01*
X008006Y027682D01*
X008049Y027640D01*
X008049Y027597D01*
X007879Y027597D01*
X007879Y027555D02*
X007921Y027512D01*
X008006Y027512D01*
X008169Y027512D02*
X008169Y027682D01*
X008169Y027597D02*
X008254Y027682D01*
X008296Y027682D01*
X008410Y027682D02*
X008453Y027682D01*
X008495Y027640D01*
X008538Y027682D01*
X008580Y027640D01*
X008580Y027512D01*
X008495Y027512D02*
X008495Y027640D01*
X008410Y027682D02*
X008410Y027512D01*
X009013Y027549D02*
X009013Y027719D01*
X009013Y027634D02*
X009269Y027634D01*
X009269Y027429D02*
X009098Y027429D01*
X009013Y027344D01*
X009098Y027259D01*
X009269Y027259D01*
X009226Y027139D02*
X009269Y027097D01*
X009269Y026969D01*
X009013Y026969D01*
X009013Y027097D01*
X009056Y027139D01*
X009098Y027139D01*
X009141Y027097D01*
X009141Y026969D01*
X009141Y027097D02*
X009184Y027139D01*
X009226Y027139D01*
X009141Y027259D02*
X009141Y027429D01*
X009013Y027839D02*
X009013Y028009D01*
X009013Y027924D02*
X009269Y027924D01*
X009269Y028129D02*
X009013Y028129D01*
X009013Y028299D01*
X009013Y028419D02*
X009013Y028547D01*
X009056Y028589D01*
X009141Y028589D01*
X009184Y028547D01*
X009184Y028419D01*
X009269Y028419D02*
X009013Y028419D01*
X009184Y028504D02*
X009269Y028589D01*
X009269Y028794D02*
X009141Y028794D01*
X009056Y028879D01*
X009013Y028879D01*
X009141Y028794D02*
X009056Y028709D01*
X009013Y028709D01*
X009269Y028299D02*
X009269Y028129D01*
X009141Y028129D02*
X009141Y028214D01*
X007631Y027682D02*
X007589Y027640D01*
X006415Y024945D02*
X006075Y024945D01*
X006075Y024665D02*
X006415Y024665D01*
X006415Y023961D02*
X006075Y023961D01*
X006075Y023681D02*
X006415Y023681D01*
X006415Y022937D02*
X006075Y022937D01*
X006075Y022657D02*
X006415Y022657D01*
X005732Y022151D02*
X005732Y021981D01*
X005647Y021896D01*
X005562Y021981D01*
X005562Y022151D01*
X005442Y022151D02*
X005272Y022151D01*
X005272Y022024D01*
X005357Y022066D01*
X005399Y022066D01*
X005442Y022024D01*
X005442Y021939D01*
X005399Y021896D01*
X005314Y021896D01*
X005272Y021939D01*
X004862Y022024D02*
X004692Y022024D01*
X004282Y022024D02*
X004239Y021981D01*
X004112Y021981D01*
X004197Y021981D02*
X004282Y021896D01*
X004282Y022024D02*
X004282Y022109D01*
X004239Y022151D01*
X004112Y022151D01*
X004112Y021896D01*
X003992Y021896D02*
X003992Y022151D01*
X003822Y022151D02*
X003822Y021896D01*
X003907Y021981D01*
X003992Y021896D01*
X003702Y022024D02*
X003659Y021981D01*
X003532Y021981D01*
X003532Y021896D02*
X003532Y022151D01*
X003659Y022151D01*
X003702Y022109D01*
X003702Y022024D01*
X003122Y022151D02*
X002952Y022151D01*
X003037Y022151D02*
X003037Y021896D01*
X002832Y021896D02*
X002662Y022151D01*
X002542Y022151D02*
X002372Y022151D01*
X002372Y021896D01*
X002542Y021896D01*
X002662Y021896D02*
X002832Y022151D01*
X002457Y022024D02*
X002372Y022024D01*
X002347Y023142D02*
X002347Y023312D01*
X002305Y023312D02*
X002475Y023312D01*
X002432Y023432D02*
X002475Y023475D01*
X002475Y023560D01*
X002432Y023602D01*
X002220Y023602D01*
X002220Y023722D02*
X002475Y023892D01*
X002475Y023722D02*
X002220Y023892D01*
X002220Y024302D02*
X002220Y024387D01*
X002220Y024345D02*
X002475Y024345D01*
X002475Y024387D02*
X002475Y024302D01*
X002475Y024496D02*
X002220Y024496D01*
X002475Y024666D01*
X002220Y024666D01*
X002889Y024714D02*
X003389Y024714D01*
X002432Y023432D02*
X002220Y023432D01*
X002305Y023312D02*
X002220Y023227D01*
X002305Y023142D01*
X002475Y023142D01*
X002485Y026882D02*
X002612Y026882D01*
X002655Y026925D01*
X002655Y026967D01*
X002612Y027010D01*
X002485Y027010D01*
X002365Y026967D02*
X002365Y026925D01*
X002322Y026882D01*
X002237Y026882D01*
X002195Y026925D01*
X002237Y027010D02*
X002322Y027010D01*
X002365Y026967D01*
X002365Y027095D02*
X002322Y027137D01*
X002237Y027137D01*
X002195Y027095D01*
X002195Y027052D01*
X002237Y027010D01*
X002075Y026925D02*
X002075Y027137D01*
X001905Y027137D02*
X001905Y026925D01*
X001947Y026882D01*
X002032Y026882D01*
X002075Y026925D01*
X002485Y026882D02*
X002485Y027137D01*
X002612Y027137D01*
X002655Y027095D01*
X002655Y027052D01*
X002612Y027010D01*
X003065Y026967D02*
X003192Y026967D01*
X003235Y027010D01*
X003235Y027095D01*
X003192Y027137D01*
X003065Y027137D01*
X003065Y026882D01*
X003355Y026882D02*
X003355Y027137D01*
X003525Y027137D02*
X003525Y026882D01*
X003440Y026967D01*
X003355Y026882D01*
X003645Y026882D02*
X003645Y027137D01*
X003772Y027137D01*
X003815Y027095D01*
X003815Y027010D01*
X003772Y026967D01*
X003645Y026967D01*
X003730Y026967D02*
X003815Y026882D01*
X015228Y028134D02*
X015228Y028474D01*
X015509Y028474D02*
X015509Y028134D01*
X015434Y029280D02*
X015476Y029322D01*
X015476Y029408D01*
X015434Y029450D01*
X015264Y029450D01*
X015221Y029408D01*
X015221Y029322D01*
X015264Y029280D01*
X015434Y029280D01*
X015476Y029570D02*
X015306Y029570D01*
X015306Y029698D01*
X015349Y029740D01*
X015476Y029740D01*
X015476Y029860D02*
X015221Y030030D01*
X015264Y030150D02*
X015221Y030193D01*
X015221Y030278D01*
X015264Y030320D01*
X015434Y030320D01*
X015476Y030278D01*
X015476Y030193D01*
X015434Y030150D01*
X015264Y030150D01*
X015349Y030440D02*
X015349Y030525D01*
X015264Y030483D02*
X015221Y030525D01*
X015264Y030483D02*
X015476Y030483D01*
X015476Y030676D02*
X015264Y030676D01*
X015221Y030718D01*
X015349Y030718D02*
X015349Y030633D01*
X037969Y009599D02*
X037969Y009344D01*
X038139Y009344D01*
X038549Y009386D02*
X038591Y009344D01*
X038676Y009344D01*
X038719Y009386D01*
X038719Y009471D01*
X038634Y009471D01*
X038719Y009556D02*
X038676Y009599D01*
X038591Y009599D01*
X038549Y009556D01*
X038549Y009386D01*
X039129Y009344D02*
X039129Y009599D01*
X039256Y009599D01*
X039299Y009556D01*
X039299Y009471D01*
X039256Y009429D01*
X039129Y009429D01*
X039214Y009429D02*
X039299Y009344D01*
X039097Y008899D02*
X039012Y008899D01*
X039055Y008899D02*
X039055Y008644D01*
X039097Y008644D02*
X039012Y008644D01*
X039205Y008644D02*
X039205Y008814D01*
X039333Y008814D01*
X039375Y008771D01*
X039375Y008644D01*
X038602Y008686D02*
X038602Y008771D01*
X038560Y008814D01*
X038474Y008814D01*
X038432Y008771D01*
X038432Y008686D01*
X038474Y008644D01*
X038560Y008644D01*
X038602Y008686D01*
X038324Y008644D02*
X038239Y008644D01*
X038281Y008644D02*
X038281Y008814D01*
X038239Y008814D01*
X038281Y008899D02*
X038281Y008941D01*
X038119Y008899D02*
X038119Y008644D01*
X037991Y008644D01*
X037949Y008686D01*
X037949Y008771D01*
X037991Y008814D01*
X038119Y008814D01*
X037829Y008814D02*
X037829Y008644D01*
X037701Y008644D01*
X037659Y008686D01*
X037659Y008814D01*
X037539Y008814D02*
X037539Y008644D01*
X037539Y008771D02*
X037369Y008771D01*
X037369Y008814D02*
X037454Y008899D01*
X037539Y008814D01*
X037369Y008814D02*
X037369Y008644D01*
X037496Y007599D02*
X037369Y007471D01*
X037539Y007471D01*
X037659Y007471D02*
X037786Y007471D01*
X037829Y007429D01*
X037829Y007386D01*
X037786Y007344D01*
X037701Y007344D01*
X037659Y007386D01*
X037659Y007471D01*
X037744Y007556D01*
X037829Y007599D01*
X037496Y007599D02*
X037496Y007344D01*
X036829Y007386D02*
X036786Y007344D01*
X036701Y007344D01*
X036659Y007386D01*
X036659Y007471D02*
X036744Y007514D01*
X036786Y007514D01*
X036829Y007471D01*
X036829Y007386D01*
X036659Y007471D02*
X036659Y007599D01*
X036829Y007599D01*
X036539Y007471D02*
X036369Y007471D01*
X036496Y007599D01*
X036496Y007344D01*
X035829Y007471D02*
X035659Y007471D01*
X035786Y007599D01*
X035786Y007344D01*
X035539Y007471D02*
X035369Y007471D01*
X035496Y007599D01*
X035496Y007344D01*
X034829Y007386D02*
X034786Y007344D01*
X034701Y007344D01*
X034659Y007386D01*
X034744Y007471D02*
X034786Y007471D01*
X034829Y007429D01*
X034829Y007386D01*
X034786Y007471D02*
X034829Y007514D01*
X034829Y007556D01*
X034786Y007599D01*
X034701Y007599D01*
X034659Y007556D01*
X034539Y007471D02*
X034369Y007471D01*
X034496Y007599D01*
X034496Y007344D01*
X034496Y005299D02*
X034539Y005256D01*
X034539Y005214D01*
X034496Y005171D01*
X034539Y005129D01*
X034539Y005086D01*
X034496Y005044D01*
X034411Y005044D01*
X034369Y005086D01*
X034454Y005171D02*
X034496Y005171D01*
X034496Y005299D02*
X034411Y005299D01*
X034369Y005256D01*
X034659Y005299D02*
X034829Y005299D01*
X034829Y005256D01*
X034659Y005086D01*
X034659Y005044D01*
X035369Y005086D02*
X035411Y005044D01*
X035496Y005044D01*
X035539Y005086D01*
X035539Y005129D01*
X035496Y005171D01*
X035454Y005171D01*
X035496Y005171D02*
X035539Y005214D01*
X035539Y005256D01*
X035496Y005299D01*
X035411Y005299D01*
X035369Y005256D01*
X035659Y005256D02*
X035659Y005214D01*
X035701Y005171D01*
X035786Y005171D01*
X035829Y005129D01*
X035829Y005086D01*
X035786Y005044D01*
X035701Y005044D01*
X035659Y005086D01*
X035659Y005129D01*
X035701Y005171D01*
X035786Y005171D02*
X035829Y005214D01*
X035829Y005256D01*
X035786Y005299D01*
X035701Y005299D01*
X035659Y005256D01*
X036369Y005256D02*
X036411Y005299D01*
X036496Y005299D01*
X036539Y005256D01*
X036539Y005214D01*
X036496Y005171D01*
X036539Y005129D01*
X036539Y005086D01*
X036496Y005044D01*
X036411Y005044D01*
X036369Y005086D01*
X036454Y005171D02*
X036496Y005171D01*
X036659Y005214D02*
X036701Y005171D01*
X036829Y005171D01*
X036829Y005086D02*
X036829Y005256D01*
X036786Y005299D01*
X036701Y005299D01*
X036659Y005256D01*
X036659Y005214D01*
X036659Y005086D02*
X036701Y005044D01*
X036786Y005044D01*
X036829Y005086D01*
X037369Y005171D02*
X037539Y005171D01*
X037496Y005044D02*
X037496Y005299D01*
X037369Y005171D01*
X037659Y005086D02*
X037829Y005256D01*
X037829Y005086D01*
X037786Y005044D01*
X037701Y005044D01*
X037659Y005086D01*
X037659Y005256D01*
X037701Y005299D01*
X037786Y005299D01*
X037829Y005256D01*
X038369Y005171D02*
X038539Y005171D01*
X038659Y005214D02*
X038744Y005299D01*
X038744Y005044D01*
X038659Y005044D02*
X038829Y005044D01*
X038496Y005044D02*
X038496Y005299D01*
X038369Y005171D01*
X039369Y005171D02*
X039539Y005171D01*
X039496Y005044D02*
X039496Y005299D01*
X039369Y005171D01*
X039659Y005256D02*
X039701Y005299D01*
X039786Y005299D01*
X039829Y005256D01*
X039829Y005214D01*
X039659Y005044D01*
X039829Y005044D01*
X039786Y007344D02*
X039701Y007344D01*
X039659Y007386D01*
X039659Y007429D01*
X039701Y007471D01*
X039786Y007471D01*
X039829Y007429D01*
X039829Y007386D01*
X039786Y007344D01*
X039786Y007471D02*
X039829Y007514D01*
X039829Y007556D01*
X039786Y007599D01*
X039701Y007599D01*
X039659Y007556D01*
X039659Y007514D01*
X039701Y007471D01*
X039539Y007471D02*
X039369Y007471D01*
X039496Y007599D01*
X039496Y007344D01*
X038829Y007556D02*
X038659Y007386D01*
X038659Y007344D01*
X038496Y007344D02*
X038496Y007599D01*
X038369Y007471D01*
X038539Y007471D01*
X038659Y007599D02*
X038829Y007599D01*
X038829Y007556D01*
X033309Y004354D02*
X032969Y004354D01*
X032969Y004074D02*
X033309Y004074D01*
X033309Y003154D02*
X032969Y003154D01*
X032969Y002874D02*
X033309Y002874D01*
X033949Y002261D02*
X033949Y002219D01*
X033991Y002176D01*
X034076Y002176D01*
X034119Y002134D01*
X034119Y002091D01*
X034076Y002049D01*
X033991Y002049D01*
X033949Y002091D01*
X033949Y002261D02*
X033991Y002304D01*
X034076Y002304D01*
X034119Y002261D01*
X034239Y002176D02*
X034281Y002219D01*
X034366Y002219D01*
X034409Y002176D01*
X034409Y002134D01*
X034239Y002134D01*
X034239Y002176D02*
X034239Y002091D01*
X034281Y002049D01*
X034366Y002049D01*
X034529Y002049D02*
X034614Y002049D01*
X034571Y002049D02*
X034571Y002304D01*
X034529Y002304D01*
X034722Y002176D02*
X034764Y002219D01*
X034850Y002219D01*
X034892Y002176D01*
X034892Y002134D01*
X034722Y002134D01*
X034722Y002176D02*
X034722Y002091D01*
X034764Y002049D01*
X034850Y002049D01*
X035012Y002091D02*
X035054Y002049D01*
X035182Y002049D01*
X035344Y002091D02*
X035387Y002049D01*
X035344Y002091D02*
X035344Y002261D01*
X035302Y002219D02*
X035387Y002219D01*
X035495Y002176D02*
X035538Y002219D01*
X035623Y002219D01*
X035665Y002176D01*
X035665Y002134D01*
X035495Y002134D01*
X035495Y002176D02*
X035495Y002091D01*
X035538Y002049D01*
X035623Y002049D01*
X035785Y002091D02*
X035785Y002176D01*
X035828Y002219D01*
X035955Y002219D01*
X035955Y002304D02*
X035955Y002049D01*
X035828Y002049D01*
X035785Y002091D01*
X035538Y001874D02*
X035538Y001831D01*
X035538Y001746D02*
X035538Y001576D01*
X035580Y001576D02*
X035495Y001576D01*
X035495Y001746D02*
X035538Y001746D01*
X035689Y001746D02*
X035816Y001746D01*
X035859Y001704D01*
X035859Y001576D01*
X035979Y001576D02*
X036106Y001576D01*
X036149Y001619D01*
X036106Y001661D01*
X036021Y001661D01*
X035979Y001704D01*
X036021Y001746D01*
X036149Y001746D01*
X035689Y001746D02*
X035689Y001576D01*
X035375Y001704D02*
X035333Y001661D01*
X035205Y001661D01*
X035205Y001576D02*
X035205Y001831D01*
X035333Y001831D01*
X035375Y001789D01*
X035375Y001704D01*
X035012Y002091D02*
X035012Y002176D01*
X035054Y002219D01*
X035182Y002219D01*
X034795Y001789D02*
X034753Y001831D01*
X034668Y001831D01*
X034625Y001789D01*
X034625Y001619D01*
X034668Y001576D01*
X034753Y001576D01*
X034795Y001619D01*
X034795Y001789D01*
X034517Y001831D02*
X034432Y001831D01*
X034474Y001831D02*
X034474Y001576D01*
X034432Y001576D02*
X034517Y001576D01*
X034312Y001619D02*
X034270Y001576D01*
X034184Y001576D01*
X034142Y001619D01*
X034142Y001789D01*
X034184Y001831D01*
X034270Y001831D01*
X034312Y001789D01*
X034312Y001619D01*
X034034Y001576D02*
X033949Y001576D01*
X033991Y001576D02*
X033991Y001831D01*
X033949Y001831D02*
X034034Y001831D01*
X034076Y001359D02*
X034119Y001316D01*
X034119Y001274D01*
X034076Y001231D01*
X033949Y001231D01*
X034076Y001231D02*
X034119Y001189D01*
X034119Y001146D01*
X034076Y001104D01*
X033949Y001104D01*
X033949Y001359D01*
X034076Y001359D01*
X034239Y001274D02*
X034239Y001104D01*
X034239Y001189D02*
X034324Y001274D01*
X034366Y001274D01*
X034480Y001231D02*
X034480Y001146D01*
X034523Y001104D01*
X034608Y001104D01*
X034650Y001146D01*
X034650Y001231D01*
X034608Y001274D01*
X034523Y001274D01*
X034480Y001231D01*
X034770Y001189D02*
X034898Y001274D01*
X035012Y001231D02*
X035054Y001274D01*
X035140Y001274D01*
X035182Y001231D01*
X035182Y001189D01*
X035012Y001189D01*
X035012Y001231D02*
X035012Y001146D01*
X035054Y001104D01*
X035140Y001104D01*
X035302Y001104D02*
X035302Y001274D01*
X035430Y001274D01*
X035472Y001231D01*
X035472Y001104D01*
X035882Y001146D02*
X035925Y001104D01*
X036010Y001104D01*
X036052Y001146D01*
X036052Y001231D01*
X036010Y001274D01*
X035925Y001274D01*
X035882Y001231D01*
X035882Y001146D01*
X036172Y001146D02*
X036215Y001104D01*
X036342Y001104D01*
X036342Y001274D01*
X036462Y001274D02*
X036547Y001274D01*
X036505Y001316D02*
X036505Y001146D01*
X036547Y001104D01*
X036172Y001146D02*
X036172Y001274D01*
X034898Y001104D02*
X034770Y001189D01*
X034770Y001104D02*
X034770Y001359D01*
D11*
X002400Y001695D02*
X002348Y001748D01*
X002348Y001957D01*
X002400Y002009D01*
X002505Y002009D01*
X002557Y001957D01*
X002557Y001748D01*
X002505Y001695D01*
X002400Y001695D01*
X002710Y001748D02*
X002763Y001695D01*
X002920Y001695D01*
X002920Y001905D01*
X003073Y001905D02*
X003178Y001905D01*
X003125Y001957D02*
X003125Y001748D01*
X003178Y001695D01*
X003315Y001695D02*
X003472Y001695D01*
X003524Y001748D01*
X003524Y001852D01*
X003472Y001905D01*
X003315Y001905D01*
X003315Y001591D01*
X003677Y001748D02*
X003729Y001695D01*
X003886Y001695D01*
X003886Y001905D01*
X004040Y001905D02*
X004144Y001905D01*
X004092Y001957D02*
X004092Y001748D01*
X004144Y001695D01*
X003677Y001748D02*
X003677Y001905D01*
X003645Y002286D02*
X003488Y002286D01*
X003435Y002338D01*
X003435Y002443D01*
X003488Y002495D01*
X003645Y002495D01*
X003645Y002600D02*
X003645Y002286D01*
X003282Y002286D02*
X003125Y002286D01*
X003073Y002338D01*
X003125Y002391D01*
X003282Y002391D01*
X003282Y002443D02*
X003282Y002286D01*
X003282Y002443D02*
X003230Y002495D01*
X003125Y002495D01*
X002920Y002443D02*
X002867Y002391D01*
X002710Y002391D01*
X002710Y002286D02*
X002710Y002600D01*
X002867Y002600D01*
X002920Y002548D01*
X002920Y002443D01*
X002557Y002600D02*
X002348Y002600D01*
X002453Y002600D02*
X002453Y002286D01*
X002710Y001905D02*
X002710Y001748D01*
X003073Y005016D02*
X003073Y005330D01*
X003230Y005330D01*
X003282Y005278D01*
X003282Y005173D01*
X003230Y005121D01*
X003073Y005121D01*
X002920Y005121D02*
X002763Y005121D01*
X002710Y005173D01*
X002763Y005225D01*
X002920Y005225D01*
X002920Y005278D02*
X002920Y005121D01*
X002920Y005278D02*
X002867Y005330D01*
X002763Y005330D01*
X002557Y005382D02*
X002505Y005435D01*
X002400Y005435D01*
X002348Y005382D01*
X002348Y005173D01*
X002400Y005121D01*
X002505Y005121D01*
X002557Y005173D01*
X002557Y005711D02*
X002557Y005921D01*
X002453Y006025D01*
X002348Y005921D01*
X002348Y005711D01*
X002348Y005868D02*
X002557Y005868D01*
X002710Y005868D02*
X002763Y005921D01*
X002920Y005921D01*
X002920Y006025D02*
X002920Y005711D01*
X002763Y005711D01*
X002710Y005764D01*
X002710Y005868D01*
X003073Y005607D02*
X003125Y005607D01*
X003178Y005659D01*
X003178Y005921D01*
X003178Y006025D02*
X003178Y006078D01*
X003315Y005764D02*
X003367Y005764D01*
X003367Y005711D01*
X003315Y005711D01*
X003315Y005764D01*
X003488Y005330D02*
X003645Y005330D01*
X003592Y005225D02*
X003488Y005225D01*
X003435Y005278D01*
X003488Y005330D01*
X003592Y005225D02*
X003645Y005173D01*
X003592Y005121D01*
X003435Y005121D01*
X014339Y005764D02*
X014589Y005514D01*
X015089Y005514D01*
X015339Y005764D01*
X015339Y006264D01*
X015089Y006514D01*
X015339Y006764D01*
X015339Y007264D01*
X015089Y007514D01*
X015339Y007764D01*
X015339Y008264D01*
X015089Y008514D01*
X014589Y008514D01*
X014339Y008264D01*
X014339Y007764D01*
X014589Y007514D01*
X014339Y007264D01*
X014339Y006764D01*
X014589Y006514D01*
X014339Y006264D01*
X014339Y005764D01*
X020439Y006164D02*
X020689Y005914D01*
X021189Y005914D01*
X021439Y006164D01*
X021689Y005914D01*
X022189Y005914D01*
X022439Y006164D01*
X022689Y005914D01*
X023189Y005914D01*
X023439Y006164D01*
X023689Y005914D01*
X024189Y005914D01*
X024439Y006164D01*
X024689Y005914D01*
X025189Y005914D01*
X025439Y006164D01*
X025689Y005914D01*
X026189Y005914D01*
X026439Y006164D01*
X026439Y006664D01*
X026189Y006914D01*
X025689Y006914D01*
X025439Y006664D01*
X025189Y006914D01*
X024689Y006914D01*
X024439Y006664D01*
X024189Y006914D01*
X023689Y006914D01*
X023439Y006664D01*
X023189Y006914D01*
X022689Y006914D01*
X022439Y006664D01*
X022189Y006914D01*
X021689Y006914D01*
X021439Y006664D01*
X021189Y006914D01*
X020689Y006914D01*
X020439Y006664D01*
X020439Y006164D01*
X027639Y002164D02*
X027639Y001664D01*
X027889Y001414D01*
X028389Y001414D01*
X028639Y001664D01*
X028889Y001414D01*
X029389Y001414D01*
X029639Y001664D01*
X029889Y001414D01*
X030389Y001414D01*
X030639Y001664D01*
X030889Y001414D01*
X031389Y001414D01*
X031639Y001664D01*
X031889Y001414D01*
X032389Y001414D01*
X032639Y001664D01*
X032639Y002164D01*
X032389Y002414D01*
X031889Y002414D01*
X031639Y002164D01*
X031389Y002414D01*
X030889Y002414D01*
X030639Y002164D01*
X030389Y002414D01*
X029889Y002414D01*
X029639Y002164D01*
X029389Y002414D01*
X028889Y002414D01*
X028639Y002164D01*
X028389Y002414D01*
X027889Y002414D01*
X027639Y002164D01*
X028270Y004645D02*
X028270Y008582D01*
X032207Y008582D01*
X032207Y004645D01*
X028270Y004645D01*
X028624Y004606D02*
X028231Y005000D01*
X031853Y004606D02*
X032246Y004606D01*
X032246Y005000D01*
X034139Y004664D02*
X034139Y004164D01*
X034389Y003914D01*
X034889Y003914D01*
X035139Y004164D01*
X035389Y003914D01*
X035889Y003914D01*
X036139Y004164D01*
X036389Y003914D01*
X036889Y003914D01*
X037139Y004164D01*
X037389Y003914D01*
X037889Y003914D01*
X038139Y004164D01*
X038389Y003914D01*
X038889Y003914D01*
X039139Y004164D01*
X039389Y003914D01*
X039889Y003914D01*
X040139Y004164D01*
X040139Y004664D01*
X039889Y004914D01*
X039389Y004914D01*
X039139Y004664D01*
X038889Y004914D01*
X038389Y004914D01*
X038139Y004664D01*
X037889Y004914D01*
X037389Y004914D01*
X037139Y004664D01*
X036889Y004914D01*
X036389Y004914D01*
X036139Y004664D01*
X035889Y004914D01*
X035389Y004914D01*
X035139Y004664D01*
X034889Y004914D01*
X034389Y004914D01*
X034139Y004664D01*
X034389Y006214D02*
X034139Y006464D01*
X034139Y006964D01*
X034389Y007214D01*
X034889Y007214D01*
X035139Y006964D01*
X035389Y007214D01*
X035889Y007214D01*
X036139Y006964D01*
X036389Y007214D01*
X036889Y007214D01*
X037139Y006964D01*
X037389Y007214D01*
X037889Y007214D01*
X038139Y006964D01*
X038389Y007214D01*
X038889Y007214D01*
X039139Y006964D01*
X039389Y007214D01*
X039889Y007214D01*
X040139Y006964D01*
X040139Y006464D01*
X039889Y006214D01*
X039389Y006214D01*
X039139Y006464D01*
X038889Y006214D01*
X038389Y006214D01*
X038139Y006464D01*
X037889Y006214D01*
X037389Y006214D01*
X037139Y006464D01*
X036889Y006214D01*
X036389Y006214D01*
X036139Y006464D01*
X035889Y006214D01*
X035389Y006214D01*
X035139Y006464D01*
X034889Y006214D01*
X034389Y006214D01*
X032246Y008228D02*
X032246Y008622D01*
X031853Y008622D01*
X028624Y008622D02*
X028231Y008622D01*
X028231Y008228D01*
X028189Y010814D02*
X028689Y010814D01*
X028939Y011064D01*
X028939Y011564D01*
X028689Y011814D01*
X028939Y012064D01*
X028939Y012564D01*
X028689Y012814D01*
X028939Y013064D01*
X028939Y013564D01*
X028689Y013814D01*
X028189Y013814D01*
X027939Y014064D01*
X027939Y014564D01*
X028189Y014814D01*
X027939Y015064D01*
X027939Y015564D01*
X028189Y015814D01*
X027939Y016064D01*
X027939Y016564D01*
X028189Y016814D01*
X028689Y016814D01*
X028939Y016564D01*
X028939Y016064D01*
X028689Y015814D01*
X028939Y015564D01*
X028939Y015064D01*
X028689Y014814D01*
X028939Y014564D01*
X028939Y014064D01*
X028689Y013814D01*
X028189Y013814D01*
X027939Y013564D01*
X027939Y013064D01*
X028189Y012814D01*
X027939Y012564D01*
X027939Y012064D01*
X028189Y011814D01*
X027939Y011564D01*
X027939Y011064D01*
X028189Y010814D01*
X028189Y016814D02*
X027939Y017064D01*
X027939Y017564D01*
X028189Y017814D01*
X027939Y018064D01*
X027939Y018564D01*
X028189Y018814D01*
X027939Y019064D01*
X027939Y019564D01*
X028189Y019814D01*
X028689Y019814D01*
X028939Y019564D01*
X028939Y019064D01*
X028689Y018814D01*
X028939Y018564D01*
X028939Y018064D01*
X028689Y017814D01*
X028939Y017564D01*
X028939Y017064D01*
X028689Y016814D01*
X028189Y016814D01*
X019809Y018184D02*
X019809Y021404D01*
X016409Y021404D01*
X016409Y018184D01*
X019809Y018184D01*
X007190Y028663D02*
X006087Y028663D01*
X006087Y029765D01*
X007190Y029765D01*
X007190Y028663D01*
X006442Y029529D02*
X006206Y029529D01*
X006208Y029549D01*
X006213Y029569D01*
X006222Y029588D01*
X006234Y029605D01*
X006248Y029619D01*
X006265Y029631D01*
X006284Y029640D01*
X006304Y029645D01*
X006324Y029647D01*
X006344Y029645D01*
X006364Y029640D01*
X006383Y029631D01*
X006400Y029619D01*
X006414Y029605D01*
X006426Y029588D01*
X006435Y029569D01*
X006440Y029549D01*
X006442Y029529D01*
X037517Y010764D02*
X037517Y010264D01*
X037767Y010014D01*
X038267Y010014D01*
X038517Y010264D01*
X038767Y010014D01*
X039267Y010014D01*
X039517Y010264D01*
X039767Y010014D01*
X040267Y010014D01*
X040517Y010264D01*
X040517Y010764D01*
X040267Y011014D01*
X039767Y011014D01*
X039517Y010764D01*
X039267Y011014D01*
X038767Y011014D01*
X038517Y010764D01*
X038267Y011014D01*
X037767Y011014D01*
X037517Y010764D01*
D12*
X011399Y006014D02*
X011402Y005565D01*
X011405Y005172D02*
X011408Y004724D01*
X011411Y004330D02*
X011414Y003882D01*
X011417Y003488D02*
X011421Y003040D01*
X011423Y002646D02*
X011427Y002198D01*
X011074Y002246D02*
X010656Y002246D01*
X011429Y001804D02*
X011433Y001356D01*
X011435Y000962D02*
X011439Y000514D01*
X005641Y002246D02*
X005223Y002246D01*
X005432Y002037D02*
X005432Y002456D01*
X011123Y006416D02*
X011399Y006014D01*
X010900Y006741D02*
X010624Y007144D01*
X010131Y007148D01*
X009737Y007152D02*
X009244Y007157D01*
X008850Y007161D02*
X008357Y007166D01*
X007964Y007170D02*
X007471Y007174D01*
X007077Y007178D02*
X006584Y007183D01*
X006248Y007534D01*
X005975Y007818D02*
X005639Y008168D01*
X005134Y008168D01*
X004740Y008168D02*
X004235Y008168D01*
X003841Y008168D02*
X003336Y008168D01*
X002942Y008168D02*
X002437Y008168D01*
X002044Y008168D02*
X001539Y008168D01*
D13*
X005851Y028820D03*
X005851Y029017D03*
X005851Y029213D03*
X005851Y029410D03*
X005851Y029607D03*
X007426Y029608D03*
X007426Y029411D03*
X007426Y029214D03*
X007426Y029017D03*
X007426Y028820D03*
D14*
X007830Y024913D02*
X007810Y024911D01*
X007791Y024906D01*
X007773Y024897D01*
X007757Y024885D01*
X007744Y024870D01*
X007733Y024853D01*
X007726Y024835D01*
X007722Y024815D01*
X007722Y024795D01*
X007726Y024775D01*
X007733Y024757D01*
X007744Y024740D01*
X007757Y024725D01*
X007773Y024713D01*
X007791Y024704D01*
X007810Y024699D01*
X007830Y024697D01*
X007229Y024667D02*
X007231Y024677D01*
X007236Y024686D01*
X007244Y024693D01*
X007254Y024697D01*
X007264Y024697D01*
X007274Y024693D01*
X007282Y024686D01*
X007287Y024677D01*
X007289Y024667D01*
X007287Y024657D01*
X007282Y024648D01*
X007274Y024641D01*
X007264Y024637D01*
X007254Y024637D01*
X007244Y024641D01*
X007236Y024648D01*
X007231Y024657D01*
X007229Y024667D01*
X007229Y023683D02*
X007231Y023693D01*
X007236Y023702D01*
X007244Y023709D01*
X007254Y023713D01*
X007264Y023713D01*
X007274Y023709D01*
X007282Y023702D01*
X007287Y023693D01*
X007289Y023683D01*
X007287Y023673D01*
X007282Y023664D01*
X007274Y023657D01*
X007264Y023653D01*
X007254Y023653D01*
X007244Y023657D01*
X007236Y023664D01*
X007231Y023673D01*
X007229Y023683D01*
X007830Y023713D02*
X007810Y023715D01*
X007791Y023720D01*
X007773Y023729D01*
X007757Y023741D01*
X007744Y023756D01*
X007733Y023773D01*
X007726Y023791D01*
X007722Y023811D01*
X007722Y023831D01*
X007726Y023851D01*
X007733Y023869D01*
X007744Y023886D01*
X007757Y023901D01*
X007773Y023913D01*
X007791Y023922D01*
X007810Y023927D01*
X007830Y023929D01*
X007830Y022905D02*
X007810Y022903D01*
X007791Y022898D01*
X007773Y022889D01*
X007757Y022877D01*
X007744Y022862D01*
X007733Y022845D01*
X007726Y022827D01*
X007722Y022807D01*
X007722Y022787D01*
X007726Y022767D01*
X007733Y022749D01*
X007744Y022732D01*
X007757Y022717D01*
X007773Y022705D01*
X007791Y022696D01*
X007810Y022691D01*
X007830Y022689D01*
X007229Y022659D02*
X007231Y022669D01*
X007236Y022678D01*
X007244Y022685D01*
X007254Y022689D01*
X007264Y022689D01*
X007274Y022685D01*
X007282Y022678D01*
X007287Y022669D01*
X007289Y022659D01*
X007287Y022649D01*
X007282Y022640D01*
X007274Y022633D01*
X007264Y022629D01*
X007254Y022629D01*
X007244Y022633D01*
X007236Y022640D01*
X007231Y022649D01*
X007229Y022659D01*
X010639Y014014D02*
X010639Y010764D01*
X014239Y010764D01*
X014239Y014014D01*
X010639Y014014D01*
X020739Y011801D02*
X020741Y011811D01*
X020746Y011820D01*
X020754Y011827D01*
X020764Y011831D01*
X020774Y011831D01*
X020784Y011827D01*
X020792Y011820D01*
X020797Y011811D01*
X020799Y011801D01*
X020797Y011791D01*
X020792Y011782D01*
X020784Y011775D01*
X020774Y011771D01*
X020764Y011771D01*
X020754Y011775D01*
X020746Y011782D01*
X020741Y011791D01*
X020739Y011801D01*
X020798Y011230D02*
X020800Y011250D01*
X020805Y011269D01*
X020814Y011287D01*
X020826Y011303D01*
X020841Y011316D01*
X020858Y011327D01*
X020876Y011334D01*
X020896Y011338D01*
X020916Y011338D01*
X020936Y011334D01*
X020954Y011327D01*
X020971Y011316D01*
X020986Y011303D01*
X020998Y011287D01*
X021007Y011269D01*
X021012Y011250D01*
X021014Y011230D01*
X030863Y009676D02*
X030865Y009686D01*
X030870Y009695D01*
X030878Y009702D01*
X030888Y009706D01*
X030898Y009706D01*
X030908Y009702D01*
X030916Y009695D01*
X030921Y009686D01*
X030923Y009676D01*
X030921Y009666D01*
X030916Y009657D01*
X030908Y009650D01*
X030898Y009646D01*
X030888Y009646D01*
X030878Y009650D01*
X030870Y009657D01*
X030865Y009666D01*
X030863Y009676D01*
X031463Y009706D02*
X031443Y009708D01*
X031424Y009713D01*
X031406Y009722D01*
X031390Y009734D01*
X031377Y009749D01*
X031366Y009766D01*
X031359Y009784D01*
X031355Y009804D01*
X031355Y009824D01*
X031359Y009844D01*
X031366Y009862D01*
X031377Y009879D01*
X031390Y009894D01*
X031406Y009906D01*
X031424Y009915D01*
X031443Y009920D01*
X031463Y009922D01*
X036114Y010706D02*
X036134Y010708D01*
X036153Y010713D01*
X036171Y010722D01*
X036187Y010734D01*
X036200Y010749D01*
X036211Y010766D01*
X036218Y010784D01*
X036222Y010804D01*
X036222Y010824D01*
X036218Y010844D01*
X036211Y010862D01*
X036200Y010879D01*
X036187Y010894D01*
X036171Y010906D01*
X036153Y010915D01*
X036134Y010920D01*
X036114Y010922D01*
X036655Y010952D02*
X036657Y010962D01*
X036662Y010971D01*
X036670Y010978D01*
X036680Y010982D01*
X036690Y010982D01*
X036700Y010978D01*
X036708Y010971D01*
X036713Y010962D01*
X036715Y010952D01*
X036713Y010942D01*
X036708Y010933D01*
X036700Y010926D01*
X036690Y010922D01*
X036680Y010922D01*
X036670Y010926D01*
X036662Y010933D01*
X036657Y010942D01*
X036655Y010952D01*
X032747Y017289D02*
X032745Y017309D01*
X032740Y017328D01*
X032731Y017346D01*
X032719Y017362D01*
X032704Y017375D01*
X032687Y017386D01*
X032669Y017393D01*
X032649Y017397D01*
X032629Y017397D01*
X032609Y017393D01*
X032591Y017386D01*
X032574Y017375D01*
X032559Y017362D01*
X032547Y017346D01*
X032538Y017328D01*
X032533Y017309D01*
X032531Y017289D01*
X032471Y017860D02*
X032473Y017870D01*
X032478Y017879D01*
X032486Y017886D01*
X032496Y017890D01*
X032506Y017890D01*
X032516Y017886D01*
X032524Y017879D01*
X032529Y017870D01*
X032531Y017860D01*
X032529Y017850D01*
X032524Y017841D01*
X032516Y017834D01*
X032506Y017830D01*
X032496Y017830D01*
X032486Y017834D01*
X032478Y017841D01*
X032473Y017850D01*
X032471Y017860D01*
X032431Y022289D02*
X032433Y022309D01*
X032438Y022328D01*
X032447Y022346D01*
X032459Y022362D01*
X032474Y022375D01*
X032491Y022386D01*
X032509Y022393D01*
X032529Y022397D01*
X032549Y022397D01*
X032569Y022393D01*
X032587Y022386D01*
X032604Y022375D01*
X032619Y022362D01*
X032631Y022346D01*
X032640Y022328D01*
X032645Y022309D01*
X032647Y022289D01*
X032371Y022860D02*
X032373Y022870D01*
X032378Y022879D01*
X032386Y022886D01*
X032396Y022890D01*
X032406Y022890D01*
X032416Y022886D01*
X032424Y022879D01*
X032429Y022870D01*
X032431Y022860D01*
X032429Y022850D01*
X032424Y022841D01*
X032416Y022834D01*
X032406Y022830D01*
X032396Y022830D01*
X032386Y022834D01*
X032378Y022841D01*
X032373Y022850D01*
X032371Y022860D01*
X034263Y029476D02*
X034265Y029486D01*
X034270Y029495D01*
X034278Y029502D01*
X034288Y029506D01*
X034298Y029506D01*
X034308Y029502D01*
X034316Y029495D01*
X034321Y029486D01*
X034323Y029476D01*
X034321Y029466D01*
X034316Y029457D01*
X034308Y029450D01*
X034298Y029446D01*
X034288Y029446D01*
X034278Y029450D01*
X034270Y029457D01*
X034265Y029466D01*
X034263Y029476D01*
X034863Y029506D02*
X034843Y029508D01*
X034824Y029513D01*
X034806Y029522D01*
X034790Y029534D01*
X034777Y029549D01*
X034766Y029566D01*
X034759Y029584D01*
X034755Y029604D01*
X034755Y029624D01*
X034759Y029644D01*
X034766Y029662D01*
X034777Y029679D01*
X034790Y029694D01*
X034806Y029706D01*
X034824Y029715D01*
X034843Y029720D01*
X034863Y029722D01*
D15*
X034676Y029771D02*
X034401Y029771D01*
X034223Y029733D02*
X034244Y029729D01*
X034263Y029722D01*
X034281Y029712D01*
X034297Y029698D01*
X034310Y029682D01*
X034321Y029664D01*
X034328Y029645D01*
X034332Y029624D01*
X034332Y029604D01*
X034328Y029583D01*
X034321Y029564D01*
X034310Y029546D01*
X034297Y029530D01*
X034281Y029516D01*
X034263Y029506D01*
X034244Y029499D01*
X034223Y029495D01*
X034391Y029456D02*
X034676Y029456D01*
X032379Y030175D02*
X032079Y030175D01*
X032079Y030695D02*
X032369Y030695D01*
X032369Y031052D02*
X032089Y031052D01*
X032089Y031387D02*
X032369Y031387D01*
X029722Y029237D02*
X029722Y028956D01*
X029387Y028956D02*
X029387Y029237D01*
X028393Y029168D02*
X028113Y029168D01*
X028113Y029503D02*
X028393Y029503D01*
X027684Y030152D02*
X027404Y030152D01*
X027404Y030487D02*
X027684Y030487D01*
X027591Y027859D02*
X027591Y027578D01*
X027256Y027578D02*
X027256Y027859D01*
X024102Y024778D02*
X023821Y024778D01*
X023821Y024443D02*
X024102Y024443D01*
X025280Y022443D02*
X026501Y022443D01*
X026501Y020238D01*
X025280Y020238D01*
X025280Y022443D01*
X027133Y021721D02*
X027133Y020961D01*
X028113Y020961D02*
X028113Y021721D01*
X028583Y021491D02*
X028583Y021191D01*
X029103Y021200D02*
X029103Y021491D01*
X032381Y022476D02*
X032381Y022761D01*
X032420Y022929D02*
X032424Y022908D01*
X032431Y022889D01*
X032441Y022871D01*
X032455Y022855D01*
X032471Y022842D01*
X032489Y022831D01*
X032508Y022824D01*
X032529Y022820D01*
X032549Y022820D01*
X032570Y022824D01*
X032589Y022831D01*
X032607Y022842D01*
X032623Y022855D01*
X032637Y022871D01*
X032647Y022889D01*
X032654Y022908D01*
X032658Y022929D01*
X032696Y022752D02*
X032696Y022476D01*
X032758Y017929D02*
X032754Y017908D01*
X032747Y017889D01*
X032737Y017871D01*
X032723Y017855D01*
X032707Y017842D01*
X032689Y017831D01*
X032670Y017824D01*
X032649Y017820D01*
X032629Y017820D01*
X032608Y017824D01*
X032589Y017831D01*
X032571Y017842D01*
X032555Y017855D01*
X032541Y017871D01*
X032531Y017889D01*
X032524Y017908D01*
X032520Y017929D01*
X032481Y017761D02*
X032481Y017476D01*
X032796Y017476D02*
X032796Y017752D01*
X039387Y019980D02*
X039387Y020260D01*
X039722Y020260D02*
X039722Y019980D01*
X040096Y019980D02*
X040096Y020260D01*
X040431Y020260D02*
X040431Y019980D01*
X040431Y024389D02*
X040431Y024670D01*
X040096Y024670D02*
X040096Y024389D01*
X039722Y024389D02*
X039722Y024670D01*
X039387Y024670D02*
X039387Y024389D01*
X039348Y029074D02*
X039348Y029355D01*
X039683Y029355D02*
X039683Y029074D01*
X040056Y029074D02*
X040056Y029355D01*
X040391Y029355D02*
X040391Y029074D01*
X022596Y016638D02*
X022596Y016358D01*
X022261Y016358D02*
X022261Y016638D01*
X021025Y011870D02*
X021021Y011849D01*
X021014Y011830D01*
X021004Y011812D01*
X020990Y011796D01*
X020974Y011783D01*
X020956Y011772D01*
X020937Y011765D01*
X020916Y011761D01*
X020896Y011761D01*
X020875Y011765D01*
X020856Y011772D01*
X020838Y011783D01*
X020822Y011796D01*
X020808Y011812D01*
X020798Y011830D01*
X020791Y011849D01*
X020787Y011870D01*
X020749Y011702D02*
X020749Y011417D01*
X021064Y011417D02*
X021064Y011692D01*
X024806Y008789D02*
X025086Y008789D01*
X025086Y008454D02*
X024806Y008454D01*
X024796Y007781D02*
X025086Y007781D01*
X025096Y007262D02*
X024796Y007262D01*
X025282Y010724D02*
X025282Y011484D01*
X026262Y011484D02*
X026262Y010724D01*
X026536Y011112D02*
X026536Y011402D01*
X027056Y011412D02*
X027056Y011112D01*
X030823Y009933D02*
X030844Y009929D01*
X030863Y009922D01*
X030881Y009912D01*
X030897Y009898D01*
X030910Y009882D01*
X030921Y009864D01*
X030928Y009845D01*
X030932Y009824D01*
X030932Y009804D01*
X030928Y009783D01*
X030921Y009764D01*
X030910Y009746D01*
X030897Y009730D01*
X030881Y009716D01*
X030863Y009706D01*
X030844Y009699D01*
X030823Y009695D01*
X030991Y009656D02*
X031276Y009656D01*
X031276Y009971D02*
X031001Y009971D01*
X033309Y008794D02*
X033590Y008794D01*
X033590Y008459D02*
X033309Y008459D01*
X036301Y010656D02*
X036576Y010656D01*
X036754Y010695D02*
X036733Y010699D01*
X036714Y010706D01*
X036696Y010716D01*
X036680Y010730D01*
X036667Y010746D01*
X036656Y010764D01*
X036649Y010783D01*
X036645Y010804D01*
X036645Y010824D01*
X036649Y010845D01*
X036656Y010864D01*
X036667Y010882D01*
X036680Y010898D01*
X036696Y010912D01*
X036714Y010922D01*
X036733Y010929D01*
X036754Y010933D01*
X036586Y010971D02*
X036301Y010971D01*
X039387Y014153D02*
X039387Y014433D01*
X039722Y014433D02*
X039722Y014153D01*
X040096Y014153D02*
X040096Y014433D01*
X040431Y014433D02*
X040431Y014153D01*
X016100Y007032D02*
X016100Y006752D01*
X015765Y006752D02*
X015765Y007032D01*
X014926Y020396D02*
X013706Y020396D01*
X013706Y022600D01*
X014926Y022600D01*
X014926Y020396D01*
X013113Y021079D02*
X013113Y021839D01*
X012133Y021839D02*
X012133Y021079D01*
X007643Y022640D02*
X007357Y022640D01*
X007189Y022678D02*
X007210Y022682D01*
X007229Y022689D01*
X007247Y022699D01*
X007263Y022713D01*
X007276Y022729D01*
X007287Y022747D01*
X007294Y022766D01*
X007298Y022787D01*
X007298Y022807D01*
X007294Y022828D01*
X007287Y022847D01*
X007276Y022865D01*
X007263Y022881D01*
X007247Y022895D01*
X007229Y022905D01*
X007210Y022912D01*
X007189Y022916D01*
X007367Y022955D02*
X007643Y022955D01*
X007643Y023663D02*
X007357Y023663D01*
X007189Y023702D02*
X007210Y023706D01*
X007229Y023713D01*
X007247Y023723D01*
X007263Y023737D01*
X007276Y023753D01*
X007287Y023771D01*
X007294Y023790D01*
X007298Y023811D01*
X007298Y023831D01*
X007294Y023852D01*
X007287Y023871D01*
X007276Y023889D01*
X007263Y023905D01*
X007247Y023919D01*
X007229Y023929D01*
X007210Y023936D01*
X007189Y023940D01*
X007367Y023978D02*
X007643Y023978D01*
X007643Y024648D02*
X007357Y024648D01*
X007189Y024686D02*
X007210Y024690D01*
X007229Y024697D01*
X007247Y024707D01*
X007263Y024721D01*
X007276Y024737D01*
X007287Y024755D01*
X007294Y024774D01*
X007298Y024795D01*
X007298Y024815D01*
X007294Y024836D01*
X007287Y024855D01*
X007276Y024873D01*
X007263Y024889D01*
X007247Y024903D01*
X007229Y024913D01*
X007210Y024920D01*
X007189Y024924D01*
X007367Y024963D02*
X007643Y024963D01*
X007993Y029970D02*
X007993Y030270D01*
X008513Y030270D02*
X008513Y029980D01*
X005087Y029980D02*
X005087Y030270D01*
X004568Y030270D02*
X004568Y029970D01*
D16*
X009513Y031970D02*
X009513Y026931D01*
X011639Y026931D01*
X011639Y031970D01*
X011658Y031970D01*
X011639Y031970D02*
X009513Y031970D01*
X013079Y031215D02*
X013079Y027672D01*
X014379Y027672D01*
X014379Y031215D01*
X013079Y031215D01*
X008005Y025055D02*
X007005Y025055D01*
X007005Y024555D01*
X008005Y024555D01*
X008005Y025055D01*
X007583Y024963D02*
X007426Y024805D01*
X007583Y024648D01*
X007583Y024963D01*
X007426Y024963D02*
X007426Y024805D01*
X007426Y024648D01*
X007426Y023978D02*
X007426Y023821D01*
X007583Y023978D01*
X007583Y023663D01*
X007426Y023821D01*
X007426Y023663D01*
X007005Y023571D02*
X007005Y024071D01*
X008005Y024071D01*
X008005Y023571D01*
X007005Y023571D01*
X007005Y023047D02*
X007005Y022547D01*
X008005Y022547D01*
X008005Y023047D01*
X007005Y023047D01*
X007426Y022955D02*
X007426Y022797D01*
X007583Y022955D01*
X007583Y022640D01*
X007426Y022797D01*
X007426Y022640D01*
X006839Y018014D02*
X018039Y018014D01*
X018039Y010514D01*
X014489Y010514D01*
X014489Y015414D01*
X014139Y015414D01*
X014139Y016014D01*
X014489Y016014D01*
X014489Y016764D01*
X010389Y016764D01*
X010389Y016014D01*
X010739Y016014D01*
X010739Y015414D01*
X010389Y015414D01*
X010389Y010514D01*
X006839Y010514D01*
X006839Y018014D01*
X006381Y015165D02*
X004381Y015165D01*
X002381Y015165D01*
X002381Y007165D01*
X004381Y007165D01*
X004381Y009165D01*
X005381Y009165D01*
X005381Y013165D01*
X004381Y013165D01*
X003381Y013165D01*
X003381Y009165D01*
X004381Y009165D01*
X004381Y007165D02*
X006381Y007165D01*
X006381Y015165D01*
X004381Y015165D02*
X004381Y013165D01*
X010389Y010514D02*
X014489Y010514D01*
X013514Y011114D02*
X013439Y011039D01*
X013289Y011039D01*
X013214Y011114D01*
X013289Y011264D02*
X013439Y011264D01*
X013514Y011189D01*
X013514Y011114D01*
X013289Y011264D02*
X013214Y011339D01*
X013214Y011414D01*
X013289Y011489D01*
X013439Y011489D01*
X013514Y011414D01*
X012514Y011414D02*
X012514Y011114D01*
X012439Y011039D01*
X012214Y011039D01*
X012214Y011489D01*
X012439Y011489D01*
X012514Y011414D01*
X011514Y011414D02*
X011439Y011489D01*
X011289Y011489D01*
X011214Y011414D01*
X011214Y011114D01*
X011289Y011039D01*
X011439Y011039D01*
X011514Y011114D01*
X011514Y011264D01*
X011364Y011264D01*
X015548Y008463D02*
X015550Y008478D01*
X015556Y008493D01*
X015565Y008505D01*
X015577Y008515D01*
X015591Y008522D01*
X015606Y008525D01*
X015622Y008524D01*
X015636Y008519D01*
X015650Y008511D01*
X015660Y008499D01*
X015668Y008486D01*
X015672Y008471D01*
X015672Y008455D01*
X015668Y008440D01*
X015660Y008427D01*
X015650Y008415D01*
X015636Y008407D01*
X015622Y008402D01*
X015606Y008401D01*
X015591Y008404D01*
X015577Y008411D01*
X015565Y008421D01*
X015556Y008433D01*
X015550Y008448D01*
X015548Y008463D01*
X015728Y008659D02*
X015728Y009368D01*
X016949Y009368D01*
X016949Y008659D01*
X015728Y008659D01*
X020656Y011055D02*
X021156Y011055D01*
X021156Y012055D01*
X020656Y012055D01*
X020656Y011055D01*
X020749Y011476D02*
X021064Y011476D01*
X020906Y011633D01*
X020749Y011476D01*
X020749Y011633D02*
X020906Y011633D01*
X021064Y011633D01*
X021646Y015411D02*
X020071Y015411D01*
X020071Y018482D01*
X021646Y018482D01*
X021646Y015411D01*
X019447Y015805D02*
X019447Y016671D01*
X019762Y016671D01*
X019526Y016810D02*
X019368Y016810D01*
X019340Y016858D02*
X019554Y016858D01*
X019582Y016907D02*
X019313Y016907D01*
X019285Y016955D02*
X019610Y016955D01*
X019637Y017004D02*
X019257Y017004D01*
X019229Y017052D02*
X019665Y017052D01*
X019693Y017101D02*
X019202Y017101D01*
X019174Y017149D02*
X019720Y017149D01*
X019748Y017198D02*
X019146Y017198D01*
X019132Y017222D02*
X019447Y016671D01*
X019132Y016671D01*
X019396Y016761D02*
X019499Y016761D01*
X019471Y016713D02*
X019423Y016713D01*
X019447Y016671D02*
X019762Y017222D01*
X019447Y017222D01*
X019447Y018010D01*
X019447Y017222D01*
X019132Y017222D01*
X011729Y015414D02*
X011731Y015467D01*
X011737Y015520D01*
X011747Y015572D01*
X011761Y015623D01*
X011778Y015673D01*
X011799Y015722D01*
X011824Y015769D01*
X011852Y015814D01*
X011884Y015857D01*
X011919Y015897D01*
X011956Y015934D01*
X011996Y015969D01*
X012039Y016001D01*
X012084Y016029D01*
X012131Y016054D01*
X012180Y016075D01*
X012230Y016092D01*
X012281Y016106D01*
X012333Y016116D01*
X012386Y016122D01*
X012439Y016124D01*
X012492Y016122D01*
X012545Y016116D01*
X012597Y016106D01*
X012648Y016092D01*
X012698Y016075D01*
X012747Y016054D01*
X012794Y016029D01*
X012839Y016001D01*
X012882Y015969D01*
X012922Y015934D01*
X012959Y015897D01*
X012994Y015857D01*
X013026Y015814D01*
X013054Y015769D01*
X013079Y015722D01*
X013100Y015673D01*
X013117Y015623D01*
X013131Y015572D01*
X013141Y015520D01*
X013147Y015467D01*
X013149Y015414D01*
X013147Y015361D01*
X013141Y015308D01*
X013131Y015256D01*
X013117Y015205D01*
X013100Y015155D01*
X013079Y015106D01*
X013054Y015059D01*
X013026Y015014D01*
X012994Y014971D01*
X012959Y014931D01*
X012922Y014894D01*
X012882Y014859D01*
X012839Y014827D01*
X012794Y014799D01*
X012747Y014774D01*
X012698Y014753D01*
X012648Y014736D01*
X012597Y014722D01*
X012545Y014712D01*
X012492Y014706D01*
X012439Y014704D01*
X012386Y014706D01*
X012333Y014712D01*
X012281Y014722D01*
X012230Y014736D01*
X012180Y014753D01*
X012131Y014774D01*
X012084Y014799D01*
X012039Y014827D01*
X011996Y014859D01*
X011956Y014894D01*
X011919Y014931D01*
X011884Y014971D01*
X011852Y015014D01*
X011824Y015059D01*
X011799Y015106D01*
X011778Y015155D01*
X011761Y015205D01*
X011747Y015256D01*
X011737Y015308D01*
X011731Y015361D01*
X011729Y015414D01*
X030639Y010064D02*
X030639Y009564D01*
X031639Y009564D01*
X031639Y010064D01*
X030639Y010064D01*
X031060Y009971D02*
X031060Y009814D01*
X031217Y009971D01*
X031217Y009656D01*
X031060Y009814D01*
X031060Y009656D01*
X035939Y010564D02*
X035939Y011064D01*
X036939Y011064D01*
X036939Y010564D01*
X035939Y010564D01*
X036360Y010656D02*
X036517Y010814D01*
X036360Y010971D01*
X036360Y010656D01*
X036517Y010656D02*
X036517Y010814D01*
X036517Y010971D01*
X037831Y012927D02*
X037831Y015427D01*
X038831Y015427D01*
X038831Y012927D01*
X037831Y012927D01*
X032889Y017114D02*
X032389Y017114D01*
X032389Y018114D01*
X032889Y018114D01*
X032889Y017114D01*
X032796Y017535D02*
X032481Y017535D01*
X032639Y017692D01*
X032796Y017535D01*
X032796Y017692D02*
X032639Y017692D01*
X032481Y017692D01*
X037831Y017809D02*
X037831Y020309D01*
X038831Y020309D01*
X038831Y017809D01*
X037831Y017809D01*
X032789Y022114D02*
X032289Y022114D01*
X032289Y023114D01*
X032789Y023114D01*
X032789Y022114D01*
X032696Y022535D02*
X032381Y022535D01*
X032539Y022692D01*
X032696Y022535D01*
X032696Y022692D02*
X032539Y022692D01*
X032381Y022692D01*
X037831Y022927D02*
X037831Y025427D01*
X038831Y025427D01*
X038831Y022927D01*
X037831Y022927D01*
X037831Y027612D02*
X037831Y030112D01*
X038831Y030112D01*
X038831Y027612D01*
X037831Y027612D01*
X035039Y029364D02*
X035039Y029864D01*
X034039Y029864D01*
X034039Y029364D01*
X035039Y029364D01*
X034617Y029456D02*
X034617Y029771D01*
X034460Y029614D01*
X034617Y029456D01*
X034460Y029456D02*
X034460Y029614D01*
X034460Y029771D01*
D17*
X034233Y029476D03*
X036744Y010952D03*
X030833Y009676D03*
X007200Y022659D03*
X007200Y023683D03*
X007200Y024667D03*
D18*
X007278Y024707D03*
X007278Y023722D03*
X007278Y022699D03*
X020808Y011781D03*
X030912Y009715D03*
X036665Y010912D03*
X032540Y017840D03*
X032440Y022840D03*
X034312Y029515D03*
D19*
X034327Y029446D03*
X036650Y010981D03*
X030927Y009646D03*
X007293Y022630D03*
X007293Y023653D03*
X007293Y024638D03*
D20*
X007229Y024943D03*
X007229Y023959D03*
X007229Y022935D03*
X030863Y009952D03*
X036714Y010676D03*
X034263Y029752D03*
D21*
X034356Y029614D03*
X036621Y010814D03*
X030956Y009814D03*
X007323Y022797D03*
X007323Y023821D03*
X007323Y024805D03*
D22*
X007741Y024667D03*
X007741Y024943D03*
X007741Y023959D03*
X007741Y023683D03*
X007741Y022935D03*
X007741Y022659D03*
X031375Y009952D03*
X031375Y009676D03*
X036202Y010676D03*
X036202Y010952D03*
X034775Y029476D03*
X034775Y029752D03*
D23*
X034721Y029614D03*
X036256Y010814D03*
X031321Y009814D03*
X007687Y022797D03*
X007687Y023821D03*
X007687Y024805D03*
D24*
X007741Y024716D03*
X007741Y024894D03*
X007741Y023909D03*
X007741Y023732D03*
X007741Y022886D03*
X007741Y022709D03*
X020818Y011318D03*
X020995Y011318D03*
X031375Y009902D03*
X031375Y009725D03*
X036202Y010725D03*
X036202Y010902D03*
X032727Y017378D03*
X032550Y017378D03*
X032627Y022378D03*
X032450Y022378D03*
X034775Y029525D03*
X034775Y029702D03*
D25*
X034789Y028114D03*
X034289Y028114D03*
X029089Y030314D03*
X028589Y030314D03*
X034589Y022814D03*
X035089Y022814D03*
X034889Y017814D03*
X034389Y017814D03*
X032389Y014514D03*
X031889Y014514D03*
X031889Y013414D03*
X032389Y013414D03*
X032389Y012414D03*
X031889Y012414D03*
X031889Y011414D03*
X032389Y011414D03*
X032589Y009814D03*
X032089Y009814D03*
X032889Y004214D03*
X033389Y004214D03*
X033389Y003014D03*
X032889Y003014D03*
X015089Y009714D03*
X014589Y009714D03*
X023489Y022214D03*
X023989Y022214D03*
X006495Y022797D03*
X005995Y022797D03*
X005995Y023821D03*
X006495Y023821D03*
X006495Y024805D03*
X005995Y024805D03*
D26*
X006638Y026422D03*
X006638Y027002D03*
X007778Y027002D03*
X007778Y026422D03*
D27*
X003488Y027598D02*
X003488Y030629D01*
X001362Y030629D01*
X001362Y027598D01*
X003488Y027598D01*
X003488Y028298D02*
X003488Y028394D01*
X002769Y027598D02*
X002661Y027598D01*
X001618Y027145D02*
X001618Y031082D01*
X002661Y030629D02*
X002769Y030629D01*
X003488Y029930D02*
X003488Y029833D01*
X003450Y020789D02*
X004552Y020789D01*
X005851Y020789D02*
X006284Y020789D01*
X006284Y019608D01*
X006481Y019608D01*
X006481Y018427D01*
X006678Y018427D01*
X006678Y017246D01*
X005851Y017246D01*
X004552Y017246D02*
X003450Y017246D01*
X002150Y017246D02*
X000851Y017246D01*
X000851Y020789D01*
X002150Y020789D01*
X021186Y020770D02*
X021186Y021675D01*
X022091Y021675D01*
X022091Y020770D01*
X021186Y020770D01*
X021186Y021498D02*
X021186Y021596D01*
X022091Y021596D02*
X022091Y021498D01*
X022213Y021970D02*
X022215Y021984D01*
X022221Y021998D01*
X022229Y022010D01*
X022241Y022018D01*
X022255Y022024D01*
X022269Y022026D01*
X022283Y022024D01*
X022297Y022018D01*
X022309Y022010D01*
X022317Y021998D01*
X022323Y021984D01*
X022325Y021970D01*
X022323Y021956D01*
X022317Y021942D01*
X022309Y021930D01*
X022297Y021922D01*
X022283Y021916D01*
X022269Y021914D01*
X022255Y021916D01*
X022241Y021922D01*
X022229Y021930D01*
X022221Y021942D01*
X022215Y021956D01*
X022213Y021970D01*
X022803Y020356D02*
X022805Y020370D01*
X022811Y020384D01*
X022819Y020396D01*
X022831Y020404D01*
X022845Y020410D01*
X022859Y020412D01*
X022873Y020410D01*
X022887Y020404D01*
X022899Y020396D01*
X022907Y020384D01*
X022913Y020370D01*
X022915Y020356D01*
X022913Y020342D01*
X022907Y020328D01*
X022899Y020316D01*
X022887Y020308D01*
X022873Y020302D01*
X022859Y020300D01*
X022845Y020302D01*
X022831Y020308D01*
X022819Y020316D01*
X022811Y020328D01*
X022805Y020342D01*
X022803Y020356D01*
X023154Y020179D02*
X023154Y019274D01*
X024060Y019274D01*
X024060Y020179D01*
X023154Y020179D01*
X023233Y020179D02*
X023331Y020179D01*
X023331Y019274D02*
X023233Y019274D01*
X035338Y018229D02*
X035340Y018249D01*
X035346Y018267D01*
X035355Y018285D01*
X035367Y018300D01*
X035382Y018312D01*
X035400Y018321D01*
X035418Y018327D01*
X035438Y018329D01*
X035458Y018327D01*
X035476Y018321D01*
X035494Y018312D01*
X035509Y018300D01*
X035521Y018285D01*
X035530Y018267D01*
X035536Y018249D01*
X035538Y018229D01*
X035536Y018209D01*
X035530Y018191D01*
X035521Y018173D01*
X035509Y018158D01*
X035494Y018146D01*
X035476Y018137D01*
X035458Y018131D01*
X035438Y018129D01*
X035418Y018131D01*
X035400Y018137D01*
X035382Y018146D01*
X035367Y018158D01*
X035355Y018173D01*
X035346Y018191D01*
X035340Y018209D01*
X035338Y018229D01*
X035654Y018348D02*
X035654Y020080D01*
X037623Y020080D01*
X037623Y018348D01*
X035654Y018348D01*
X035654Y015080D02*
X035654Y013348D01*
X037623Y013348D01*
X037623Y015080D01*
X035654Y015080D01*
X035338Y013229D02*
X035340Y013249D01*
X035346Y013267D01*
X035355Y013285D01*
X035367Y013300D01*
X035382Y013312D01*
X035400Y013321D01*
X035418Y013327D01*
X035438Y013329D01*
X035458Y013327D01*
X035476Y013321D01*
X035494Y013312D01*
X035509Y013300D01*
X035521Y013285D01*
X035530Y013267D01*
X035536Y013249D01*
X035538Y013229D01*
X035536Y013209D01*
X035530Y013191D01*
X035521Y013173D01*
X035509Y013158D01*
X035494Y013146D01*
X035476Y013137D01*
X035458Y013131D01*
X035438Y013129D01*
X035418Y013131D01*
X035400Y013137D01*
X035382Y013146D01*
X035367Y013158D01*
X035355Y013173D01*
X035346Y013191D01*
X035340Y013209D01*
X035338Y013229D01*
X035338Y023229D02*
X035340Y023249D01*
X035346Y023267D01*
X035355Y023285D01*
X035367Y023300D01*
X035382Y023312D01*
X035400Y023321D01*
X035418Y023327D01*
X035438Y023329D01*
X035458Y023327D01*
X035476Y023321D01*
X035494Y023312D01*
X035509Y023300D01*
X035521Y023285D01*
X035530Y023267D01*
X035536Y023249D01*
X035538Y023229D01*
X035536Y023209D01*
X035530Y023191D01*
X035521Y023173D01*
X035509Y023158D01*
X035494Y023146D01*
X035476Y023137D01*
X035458Y023131D01*
X035438Y023129D01*
X035418Y023131D01*
X035400Y023137D01*
X035382Y023146D01*
X035367Y023158D01*
X035355Y023173D01*
X035346Y023191D01*
X035340Y023209D01*
X035338Y023229D01*
X035654Y023348D02*
X035654Y025080D01*
X037623Y025080D01*
X037623Y023348D01*
X035654Y023348D01*
X035338Y028229D02*
X035340Y028249D01*
X035346Y028267D01*
X035355Y028285D01*
X035367Y028300D01*
X035382Y028312D01*
X035400Y028321D01*
X035418Y028327D01*
X035438Y028329D01*
X035458Y028327D01*
X035476Y028321D01*
X035494Y028312D01*
X035509Y028300D01*
X035521Y028285D01*
X035530Y028267D01*
X035536Y028249D01*
X035538Y028229D01*
X035536Y028209D01*
X035530Y028191D01*
X035521Y028173D01*
X035509Y028158D01*
X035494Y028146D01*
X035476Y028137D01*
X035458Y028131D01*
X035438Y028129D01*
X035418Y028131D01*
X035400Y028137D01*
X035382Y028146D01*
X035367Y028158D01*
X035355Y028173D01*
X035346Y028191D01*
X035340Y028209D01*
X035338Y028229D01*
X035654Y028348D02*
X035654Y030080D01*
X037623Y030080D01*
X037623Y028348D01*
X035654Y028348D01*
X020643Y005671D02*
X015469Y005671D01*
X015469Y000317D01*
X020643Y000317D01*
X020643Y005671D01*
X020643Y000317D02*
X020645Y000290D01*
X020650Y000264D01*
X020659Y000239D01*
X020671Y000215D01*
X020687Y000193D01*
X020705Y000174D01*
X020725Y000157D01*
X020748Y000143D01*
X020773Y000132D01*
X020798Y000124D01*
X020825Y000121D01*
X020852Y000120D01*
X021206Y000317D02*
X014906Y000317D01*
X015260Y000120D02*
X015287Y000121D01*
X015314Y000124D01*
X015339Y000132D01*
X015364Y000143D01*
X015387Y000157D01*
X015407Y000174D01*
X015425Y000193D01*
X015441Y000215D01*
X015453Y000239D01*
X015462Y000264D01*
X015467Y000290D01*
X015469Y000317D01*
X010300Y000986D02*
X010300Y003451D01*
X010298Y003484D01*
X010293Y003516D01*
X010285Y003548D01*
X010273Y003579D01*
X010258Y003609D01*
X010240Y003636D01*
X010219Y003662D01*
X010196Y003685D01*
X010170Y003706D01*
X010143Y003724D01*
X010113Y003739D01*
X010082Y003751D01*
X010050Y003759D01*
X010018Y003764D01*
X009985Y003766D01*
X006245Y003766D01*
X006212Y003764D01*
X006180Y003759D01*
X006148Y003751D01*
X006117Y003739D01*
X006088Y003724D01*
X006060Y003706D01*
X006034Y003685D01*
X006011Y003662D01*
X005990Y003636D01*
X005972Y003609D01*
X005957Y003579D01*
X005945Y003548D01*
X005937Y003516D01*
X005932Y003484D01*
X005930Y003451D01*
X005930Y000986D01*
X005932Y000953D01*
X005937Y000921D01*
X005945Y000889D01*
X005957Y000858D01*
X005972Y000828D01*
X005990Y000801D01*
X006011Y000775D01*
X006034Y000752D01*
X006060Y000731D01*
X006088Y000713D01*
X006117Y000698D01*
X006148Y000686D01*
X006180Y000678D01*
X006212Y000673D01*
X006245Y000671D01*
X009985Y000671D01*
X010018Y000673D01*
X010050Y000678D01*
X010082Y000686D01*
X010113Y000698D01*
X010143Y000713D01*
X010170Y000731D01*
X010196Y000752D01*
X010219Y000775D01*
X010240Y000801D01*
X010258Y000828D01*
X010273Y000858D01*
X010285Y000889D01*
X010293Y000921D01*
X010298Y000953D01*
X010300Y000986D01*
D28*
X014839Y006014D03*
X014839Y007014D03*
X014839Y008014D03*
X020939Y006414D03*
X021939Y006414D03*
X022939Y006414D03*
X023939Y006414D03*
X024939Y006414D03*
X025939Y006414D03*
X028139Y001914D03*
X029139Y001914D03*
X030139Y001914D03*
X031139Y001914D03*
X032139Y001914D03*
X034639Y004414D03*
X035639Y004414D03*
X036639Y004414D03*
X037639Y004414D03*
X038639Y004414D03*
X039639Y004414D03*
X039639Y006714D03*
X038639Y006714D03*
X037639Y006714D03*
X036639Y006714D03*
X035639Y006714D03*
X034639Y006714D03*
X038017Y010514D03*
X039017Y010514D03*
X040017Y010514D03*
X028439Y011314D03*
X028439Y012314D03*
X028439Y013314D03*
X028439Y014314D03*
X028439Y015314D03*
X028439Y016314D03*
X028439Y017314D03*
X028439Y018314D03*
X028439Y019314D03*
X003139Y023214D03*
X003139Y024214D03*
D29*
X012478Y024765D02*
X012478Y026143D01*
X014959Y026143D01*
X014959Y024765D01*
X012478Y024765D01*
X024646Y026907D02*
X026654Y026907D01*
X026654Y028561D01*
X024646Y028561D01*
X024646Y026907D01*
X024414Y012463D02*
X021934Y012463D01*
X021934Y011085D01*
X024414Y011085D01*
X024414Y012463D01*
D30*
X022165Y011324D02*
X022167Y011339D01*
X022172Y011352D01*
X022181Y011364D01*
X022192Y011374D01*
X022206Y011380D01*
X022220Y011383D01*
X022235Y011382D01*
X022249Y011377D01*
X022262Y011369D01*
X022272Y011359D01*
X022279Y011346D01*
X022283Y011331D01*
X022283Y011317D01*
X022279Y011302D01*
X022272Y011289D01*
X022262Y011279D01*
X022249Y011271D01*
X022235Y011266D01*
X022220Y011265D01*
X022206Y011268D01*
X022192Y011274D01*
X022181Y011284D01*
X022172Y011296D01*
X022167Y011309D01*
X022165Y011324D01*
X014610Y025904D02*
X014612Y025919D01*
X014617Y025932D01*
X014626Y025944D01*
X014637Y025954D01*
X014651Y025960D01*
X014665Y025963D01*
X014680Y025962D01*
X014694Y025957D01*
X014707Y025949D01*
X014717Y025939D01*
X014724Y025926D01*
X014728Y025911D01*
X014728Y025897D01*
X014724Y025882D01*
X014717Y025869D01*
X014707Y025859D01*
X014694Y025851D01*
X014680Y025846D01*
X014665Y025845D01*
X014651Y025848D01*
X014637Y025854D01*
X014626Y025864D01*
X014617Y025876D01*
X014612Y025889D01*
X014610Y025904D01*
X026339Y028285D02*
X026341Y028300D01*
X026346Y028313D01*
X026355Y028325D01*
X026366Y028335D01*
X026380Y028341D01*
X026394Y028344D01*
X026409Y028343D01*
X026423Y028338D01*
X026436Y028330D01*
X026446Y028320D01*
X026453Y028307D01*
X026457Y028292D01*
X026457Y028278D01*
X026453Y028263D01*
X026446Y028250D01*
X026436Y028240D01*
X026423Y028232D01*
X026409Y028227D01*
X026394Y028226D01*
X026380Y028229D01*
X026366Y028235D01*
X026355Y028245D01*
X026346Y028257D01*
X026341Y028270D01*
X026339Y028285D01*
D31*
X026019Y029664D03*
X026019Y030164D03*
X023739Y030264D03*
X023739Y030764D03*
X028239Y027964D03*
X028239Y027464D03*
X029239Y027464D03*
X029239Y027964D03*
X022839Y023864D03*
X022839Y023364D03*
X022426Y018165D03*
X022426Y017665D03*
X020906Y013037D03*
X020906Y012537D03*
X017539Y009064D03*
X017539Y008564D03*
X035039Y012764D03*
X035039Y013264D03*
X015369Y028054D03*
X015369Y028554D03*
D32*
X013439Y009289D03*
X012439Y009289D03*
X011439Y009289D03*
D33*
X011439Y009964D03*
X012439Y009964D03*
X013439Y009964D03*
D34*
X013439Y008789D03*
X012439Y008789D03*
X011439Y008789D03*
D35*
X009841Y005634D02*
X009591Y005634D01*
X009341Y005634D01*
X009341Y005384D02*
X009591Y005384D01*
X009841Y005384D01*
X007637Y005384D02*
X007387Y005384D01*
X007137Y005384D01*
X007137Y005634D02*
X007387Y005634D01*
X007637Y005634D01*
X005432Y005634D02*
X005182Y005634D01*
X004932Y005634D01*
X004932Y005384D02*
X005182Y005384D01*
X005432Y005384D01*
D36*
X020769Y011860D03*
X032501Y017919D03*
X032401Y022919D03*
D37*
X032371Y022825D03*
X032471Y017825D03*
X020739Y011766D03*
D38*
X021044Y011830D03*
X032776Y017889D03*
X032676Y022889D03*
D39*
X032539Y022796D03*
X032639Y017796D03*
X020906Y011737D03*
D40*
X020769Y011318D03*
X021044Y011318D03*
X032501Y017378D03*
X032776Y017378D03*
X032676Y022378D03*
X032401Y022378D03*
D41*
X032539Y022432D03*
X032639Y017432D03*
X020906Y011373D03*
D42*
X024717Y008622D03*
X025177Y008622D03*
X033218Y008626D03*
X033678Y008626D03*
X024190Y024610D03*
X023730Y024610D03*
X028021Y029335D03*
X028481Y029335D03*
X027773Y030319D03*
X027313Y030319D03*
X032001Y031220D03*
X032461Y031220D03*
D43*
X028843Y021628D03*
X028843Y021058D03*
X026797Y011544D03*
X026797Y010974D03*
X008252Y029838D03*
X008252Y030408D03*
X004827Y030408D03*
X004827Y029838D03*
D44*
X012625Y021981D03*
X012621Y020936D03*
X025774Y011627D03*
X025771Y010582D03*
X027621Y020818D03*
X027625Y021863D03*
D45*
X022428Y016730D03*
X022428Y016270D03*
X015932Y007123D03*
X015932Y006663D03*
X039554Y014065D03*
X040263Y014065D03*
X040263Y014525D03*
X039554Y014525D03*
X039554Y019892D03*
X040263Y019892D03*
X040263Y020352D03*
X039554Y020352D03*
X039554Y024301D03*
X039554Y024761D03*
X040263Y024761D03*
X040263Y024301D03*
X040223Y028986D03*
X040223Y029446D03*
X039515Y029446D03*
X039515Y028986D03*
X029554Y028868D03*
X029554Y029328D03*
X027424Y027947D03*
X027424Y027487D03*
D46*
X025891Y022492D03*
X025891Y020189D03*
X014316Y020346D03*
X014316Y022650D03*
D47*
X014316Y020632D03*
X025891Y020474D03*
D48*
X031941Y030435D03*
X032511Y030435D03*
X025228Y007521D03*
X024658Y007521D03*
M02*
