G75*
G70*
%OFA0B0*%
%FSLAX24Y24*%
%IPPOS*%
%LPD*%
%AMOC8*
5,1,8,0,0,1.08239X$1,22.5*
%
%ADD10C,0.0220*%
%ADD11C,0.0060*%
%ADD12C,0.0050*%
%ADD13R,0.0080X0.0010*%
%ADD14R,0.0070X0.0010*%
%ADD15R,0.0060X0.0010*%
%ADD16R,0.0170X0.0010*%
%ADD17R,0.0140X0.0010*%
%ADD18R,0.0350X0.0010*%
%ADD19R,0.0210X0.0010*%
%ADD20R,0.0180X0.0010*%
%ADD21R,0.0220X0.0010*%
%ADD22R,0.0250X0.0010*%
%ADD23R,0.0260X0.0010*%
%ADD24R,0.0290X0.0010*%
%ADD25R,0.0240X0.0010*%
%ADD26R,0.0280X0.0010*%
%ADD27R,0.0310X0.0010*%
%ADD28R,0.0300X0.0010*%
%ADD29R,0.0110X0.0010*%
%ADD30R,0.0090X0.0010*%
%ADD31R,0.0120X0.0010*%
%ADD32R,0.0100X0.0010*%
%ADD33R,0.0050X0.0010*%
%ADD34R,0.0320X0.0010*%
%ADD35R,0.0340X0.0010*%
%ADD36R,0.0330X0.0010*%
%ADD37R,0.0370X0.0010*%
%ADD38R,0.0410X0.0010*%
%ADD39R,0.0360X0.0010*%
%ADD40R,0.0160X0.0010*%
%ADD41R,0.0440X0.0010*%
%ADD42R,0.0490X0.0010*%
%ADD43R,0.0650X0.0010*%
%ADD44R,0.0690X0.0010*%
%ADD45R,0.0510X0.0010*%
%ADD46R,0.0560X0.0010*%
%ADD47R,0.0540X0.0010*%
%ADD48R,0.0600X0.0010*%
%ADD49R,0.0570X0.0010*%
%ADD50R,0.0630X0.0010*%
%ADD51R,0.0590X0.0010*%
%ADD52R,0.0610X0.0010*%
%ADD53R,0.0670X0.0010*%
%ADD54R,0.0680X0.0010*%
%ADD55R,0.0640X0.0010*%
%ADD56R,0.0700X0.0010*%
%ADD57R,0.0660X0.0010*%
%ADD58R,0.0710X0.0010*%
%ADD59R,0.0720X0.0010*%
%ADD60R,0.0730X0.0010*%
%ADD61R,0.0740X0.0010*%
%ADD62R,0.0750X0.0010*%
%ADD63R,0.0200X0.0010*%
%ADD64R,0.0190X0.0010*%
%ADD65R,0.0470X0.0010*%
%ADD66R,0.0620X0.0010*%
%ADD67R,0.0530X0.0010*%
%ADD68R,0.0150X0.0010*%
%ADD69R,0.0780X0.0010*%
%ADD70R,0.0230X0.0010*%
%ADD71R,0.9000X0.0010*%
%ADD72R,0.3520X0.0010*%
%ADD73R,0.0400X0.0010*%
%ADD74R,0.3860X0.0010*%
%ADD75R,0.0390X0.0010*%
%ADD76R,0.0020X0.0010*%
%ADD77R,0.3820X0.0010*%
%ADD78R,0.0380X0.0010*%
%ADD79R,0.3800X0.0010*%
%ADD80R,0.0130X0.0010*%
%ADD81R,0.3780X0.0010*%
%ADD82R,0.3770X0.0010*%
%ADD83R,0.0040X0.0010*%
%ADD84R,0.3760X0.0010*%
%ADD85R,0.3750X0.0010*%
%ADD86R,0.0010X0.0010*%
%ADD87R,0.3740X0.0010*%
%ADD88R,0.3730X0.0010*%
%ADD89R,0.3720X0.0010*%
%ADD90R,0.3710X0.0010*%
%ADD91R,0.3700X0.0010*%
%ADD92R,0.3690X0.0010*%
%ADD93R,0.3680X0.0010*%
%ADD94R,0.3670X0.0010*%
%ADD95R,0.3540X0.0010*%
%ADD96R,0.3660X0.0010*%
%ADD97R,0.3550X0.0010*%
%ADD98R,0.3650X0.0010*%
%ADD99R,0.3570X0.0010*%
%ADD100R,0.3630X0.0010*%
%ADD101R,0.3590X0.0010*%
%ADD102R,0.3610X0.0010*%
%ADD103R,0.3580X0.0010*%
%ADD104R,0.0270X0.0010*%
%ADD105R,0.3790X0.0010*%
%ADD106R,0.0030X0.0010*%
%ADD107R,0.3530X0.0010*%
%ADD108R,0.0430X0.0010*%
%ADD109R,0.0480X0.0010*%
%ADD110R,0.0460X0.0010*%
%ADD111R,0.0450X0.0010*%
%ADD112R,0.0420X0.0010*%
%ADD113R,0.3560X0.0010*%
%ADD114R,0.3640X0.0010*%
%ADD115R,0.3620X0.0010*%
%ADD116R,0.3810X0.0010*%
%ADD117R,0.3600X0.0010*%
%ADD118R,0.3830X0.0010*%
%ADD119R,0.3840X0.0010*%
%ADD120R,0.3850X0.0010*%
%ADD121R,0.3870X0.0010*%
%ADD122R,0.3880X0.0010*%
%ADD123R,0.3900X0.0010*%
%ADD124R,0.3920X0.0010*%
%ADD125R,0.4000X0.0010*%
%ADD126R,0.4010X0.0010*%
%ADD127R,0.3890X0.0010*%
%ADD128R,0.3910X0.0010*%
%ADD129R,0.4030X0.0010*%
%ADD130R,0.0820X0.0010*%
%ADD131R,0.0790X0.0010*%
%ADD132R,0.0520X0.0010*%
%ADD133R,0.4240X0.0010*%
%ADD134R,0.4230X0.0010*%
%ADD135R,0.4220X0.0010*%
%ADD136R,0.0550X0.0010*%
%ADD137R,0.0500X0.0010*%
%ADD138R,0.0580X0.0010*%
%ADD139R,0.0920X0.0010*%
%ADD140R,0.0870X0.0010*%
%ADD141R,0.0810X0.0010*%
%ADD142R,0.0760X0.0010*%
%ADD143R,0.1040X0.0010*%
%ADD144R,0.1010X0.0010*%
%ADD145R,0.0970X0.0010*%
%ADD146R,0.0950X0.0010*%
%ADD147R,0.1240X0.0010*%
%ADD148R,0.1210X0.0010*%
%ADD149R,0.1080X0.0010*%
%ADD150R,0.0990X0.0010*%
%ADD151R,0.1250X0.0010*%
%ADD152R,0.1230X0.0010*%
%ADD153R,0.1260X0.0010*%
%ADD154R,0.1270X0.0010*%
%ADD155R,0.1280X0.0010*%
%ADD156R,0.1290X0.0010*%
%ADD157R,0.1300X0.0010*%
%ADD158R,0.1310X0.0010*%
%ADD159R,0.1320X0.0010*%
%ADD160R,0.1330X0.0010*%
%ADD161R,0.1340X0.0010*%
%ADD162R,0.1190X0.0010*%
%ADD163R,0.1180X0.0010*%
%ADD164R,0.0770X0.0010*%
%ADD165R,0.0800X0.0010*%
%ADD166R,0.1710X0.0010*%
%ADD167R,0.1650X0.0010*%
%ADD168R,0.1550X0.0010*%
%ADD169R,0.1470X0.0010*%
%ADD170R,0.1390X0.0010*%
%ADD171R,0.1360X0.0010*%
%ADD172R,0.1380X0.0010*%
%ADD173R,0.1400X0.0010*%
%ADD174R,0.1200X0.0010*%
%ADD175R,0.1420X0.0010*%
%ADD176R,0.1120X0.0010*%
%ADD177R,0.1440X0.0010*%
%ADD178R,0.1460X0.0010*%
%ADD179R,0.1480X0.0010*%
%ADD180R,0.1500X0.0010*%
%ADD181R,0.1510X0.0010*%
%ADD182R,0.1530X0.0010*%
%ADD183R,0.1220X0.0010*%
%ADD184R,0.1570X0.0010*%
%ADD185R,0.1580X0.0010*%
%ADD186R,0.1600X0.0010*%
%ADD187R,0.0850X0.0010*%
%ADD188R,0.1690X0.0010*%
%ADD189R,0.1660X0.0010*%
%ADD190R,0.1630X0.0010*%
%ADD191R,0.1560X0.0010*%
%ADD192R,0.0930X0.0010*%
%ADD193R,0.0860X0.0010*%
%ADD194R,0.1350X0.0010*%
%ADD195R,0.1370X0.0010*%
%ADD196R,0.1410X0.0010*%
%ADD197R,0.1490X0.0010*%
%ADD198R,0.1140X0.0010*%
%ADD199R,0.1520X0.0010*%
%ADD200R,0.1540X0.0010*%
%ADD201R,0.0880X0.0010*%
%ADD202R,0.0830X0.0010*%
%ADD203R,0.1920X0.0010*%
%ADD204R,0.1900X0.0010*%
%ADD205R,0.1870X0.0010*%
%ADD206R,0.1830X0.0010*%
%ADD207R,0.1810X0.0010*%
%ADD208R,0.1780X0.0010*%
%ADD209R,0.1750X0.0010*%
%ADD210R,0.1720X0.0010*%
%ADD211R,0.1620X0.0010*%
%ADD212R,0.1450X0.0010*%
%ADD213R,0.1430X0.0010*%
D10*
X029700Y034098D02*
X029700Y034122D01*
X031100Y034098D02*
X031100Y034122D01*
X031100Y033022D02*
X031100Y032998D01*
X031200Y035098D02*
X031200Y035122D01*
X026512Y055110D02*
X026488Y055110D01*
X025012Y055110D02*
X024988Y055110D01*
D11*
X024590Y055165D02*
X024547Y055165D01*
X024373Y054992D01*
X024330Y054992D01*
X024330Y054827D02*
X024590Y054827D01*
X024460Y054697D01*
X024460Y054871D01*
X024590Y054992D02*
X024590Y055165D01*
X024503Y055286D02*
X024373Y055286D01*
X024330Y055330D01*
X024330Y055460D01*
X024503Y055460D01*
X024460Y055581D02*
X024460Y055668D01*
X024330Y055581D02*
X024590Y055581D01*
X024590Y055755D01*
X024373Y054593D02*
X024330Y054593D01*
X024330Y054550D01*
X024373Y054550D01*
X024373Y054593D01*
X025430Y054583D02*
X025430Y054670D01*
X025473Y054713D01*
X025430Y054834D02*
X025430Y055008D01*
X025430Y054921D02*
X025690Y054921D01*
X025603Y054834D01*
X025647Y054713D02*
X025690Y054670D01*
X025690Y054583D01*
X025647Y054540D01*
X025473Y054540D01*
X025430Y054583D01*
X025830Y054593D02*
X025830Y054550D01*
X025873Y054550D01*
X025873Y054593D01*
X025830Y054593D01*
X025960Y054697D02*
X025960Y054871D01*
X025830Y054827D02*
X026090Y054827D01*
X025960Y054697D01*
X025873Y054992D02*
X025830Y054992D01*
X025873Y054992D02*
X026047Y055165D01*
X026090Y055165D01*
X026090Y054992D01*
X026003Y055286D02*
X025873Y055286D01*
X025830Y055330D01*
X025830Y055460D01*
X026003Y055460D01*
X025960Y055581D02*
X025960Y055668D01*
X025830Y055581D02*
X026090Y055581D01*
X026090Y055755D01*
X025647Y055303D02*
X025690Y055259D01*
X025690Y055173D01*
X025647Y055129D01*
X025647Y055303D02*
X025603Y055303D01*
X025430Y055129D01*
X025430Y055303D01*
X026930Y055303D02*
X026930Y055129D01*
X026930Y055216D02*
X027190Y055216D01*
X027103Y055129D01*
X026930Y055008D02*
X026930Y054834D01*
X026930Y054921D02*
X027190Y054921D01*
X027103Y054834D01*
X027147Y054713D02*
X027190Y054670D01*
X027190Y054583D01*
X027147Y054540D01*
X026973Y054540D01*
X026930Y054583D01*
X026930Y054670D01*
X026973Y054713D01*
X031970Y050459D02*
X031970Y050285D01*
X031970Y050372D02*
X032230Y050372D01*
X032143Y050285D01*
X032100Y050164D02*
X032100Y049991D01*
X032230Y050121D01*
X031970Y050121D01*
X032013Y049869D02*
X031970Y049826D01*
X031970Y049739D01*
X032013Y049696D01*
X032187Y049696D01*
X032230Y049739D01*
X032230Y049826D01*
X032187Y049869D01*
X032520Y049826D02*
X032520Y049739D01*
X032563Y049696D01*
X032737Y049869D01*
X032563Y049869D01*
X032520Y049826D01*
X032563Y049696D02*
X032737Y049696D01*
X032780Y049739D01*
X032780Y049826D01*
X032737Y049869D01*
X032693Y049991D02*
X032563Y049991D01*
X032520Y050034D01*
X032520Y050164D01*
X032693Y050164D01*
X032650Y050285D02*
X032650Y050372D01*
X032520Y050285D02*
X032780Y050285D01*
X032780Y050459D01*
X032880Y050539D02*
X032923Y050495D01*
X032880Y050539D02*
X032880Y050625D01*
X032923Y050669D01*
X033010Y050669D01*
X033053Y050625D01*
X033053Y050582D01*
X033010Y050495D01*
X033140Y050495D01*
X033140Y050669D01*
X033230Y050495D02*
X033490Y050495D01*
X033490Y050669D01*
X033360Y050582D02*
X033360Y050495D01*
X033403Y050374D02*
X033230Y050374D01*
X033230Y050244D01*
X033273Y050201D01*
X033403Y050201D01*
X033230Y050079D02*
X033230Y049906D01*
X033230Y049993D02*
X033490Y049993D01*
X033403Y049906D01*
X033273Y049802D02*
X033230Y049802D01*
X033230Y049759D01*
X033273Y049759D01*
X033273Y049802D01*
X033273Y049637D02*
X033230Y049594D01*
X033230Y049507D01*
X033273Y049464D01*
X033447Y049637D01*
X033273Y049637D01*
X033273Y049464D02*
X033447Y049464D01*
X033490Y049507D01*
X033490Y049594D01*
X033447Y049637D01*
X033140Y049949D02*
X033097Y049906D01*
X032923Y049906D01*
X032880Y049949D01*
X032880Y050036D01*
X032923Y050079D01*
X033010Y050201D02*
X033010Y050374D01*
X032880Y050331D02*
X033140Y050331D01*
X033010Y050201D01*
X033097Y050079D02*
X033140Y050036D01*
X033140Y049949D01*
X032780Y049488D02*
X032520Y049488D01*
X032520Y049401D02*
X032520Y049575D01*
X032693Y049401D02*
X032780Y049488D01*
X032823Y045679D02*
X032867Y045679D01*
X032910Y045635D01*
X032910Y045505D01*
X032823Y045505D01*
X032780Y045549D01*
X032780Y045635D01*
X032823Y045679D01*
X032997Y045592D02*
X032910Y045505D01*
X032910Y045384D02*
X032910Y045211D01*
X033040Y045341D01*
X032780Y045341D01*
X032750Y045305D02*
X032750Y045479D01*
X032620Y045392D02*
X032620Y045305D01*
X032663Y045184D02*
X032490Y045184D01*
X032490Y045054D01*
X032533Y045011D01*
X032663Y045011D01*
X032780Y045046D02*
X032823Y045089D01*
X032780Y045046D02*
X032780Y044959D01*
X032823Y044916D01*
X032997Y044916D01*
X033040Y044959D01*
X033040Y045046D01*
X032997Y045089D01*
X033130Y045089D02*
X033130Y044916D01*
X033130Y045003D02*
X033390Y045003D01*
X033303Y044916D01*
X033173Y044812D02*
X033130Y044812D01*
X033130Y044769D01*
X033173Y044769D01*
X033173Y044812D01*
X033173Y044647D02*
X033130Y044604D01*
X033130Y044517D01*
X033173Y044474D01*
X033347Y044647D01*
X033173Y044647D01*
X033173Y044474D02*
X033347Y044474D01*
X033390Y044517D01*
X033390Y044604D01*
X033347Y044647D01*
X033303Y045211D02*
X033173Y045211D01*
X033130Y045254D01*
X033130Y045384D01*
X033303Y045384D01*
X033260Y045505D02*
X033260Y045592D01*
X033130Y045505D02*
X033390Y045505D01*
X033390Y045679D01*
X033040Y045679D02*
X032997Y045592D01*
X032750Y045305D02*
X032490Y045305D01*
X032200Y045349D02*
X032157Y045305D01*
X032200Y045349D02*
X032200Y045435D01*
X032157Y045479D01*
X032113Y045479D01*
X031940Y045305D01*
X031940Y045479D01*
X032070Y045184D02*
X032070Y045011D01*
X032200Y045141D01*
X031940Y045141D01*
X031983Y044889D02*
X031940Y044846D01*
X031940Y044759D01*
X031983Y044716D01*
X032157Y044716D01*
X032200Y044759D01*
X032200Y044846D01*
X032157Y044889D01*
X032490Y044846D02*
X032490Y044759D01*
X032533Y044716D01*
X032707Y044889D01*
X032533Y044889D01*
X032490Y044846D01*
X032533Y044716D02*
X032707Y044716D01*
X032750Y044759D01*
X032750Y044846D01*
X032707Y044889D01*
X032490Y044595D02*
X032490Y044421D01*
X032490Y044508D02*
X032750Y044508D01*
X032663Y044421D01*
X032660Y042209D02*
X032660Y042035D01*
X032400Y042035D01*
X032310Y042035D02*
X032310Y042209D01*
X032267Y042209D01*
X032093Y042035D01*
X032050Y042035D01*
X032020Y041999D02*
X032020Y041825D01*
X031760Y041825D01*
X031760Y041704D02*
X031933Y041704D01*
X031890Y041825D02*
X031890Y041912D01*
X032050Y041871D02*
X032310Y041871D01*
X032180Y041741D01*
X032180Y041914D01*
X032400Y041914D02*
X032573Y041914D01*
X032530Y042035D02*
X032530Y042122D01*
X032400Y041914D02*
X032400Y041784D01*
X032443Y041741D01*
X032573Y041741D01*
X032400Y041619D02*
X032400Y041446D01*
X032400Y041533D02*
X032660Y041533D01*
X032573Y041446D01*
X032443Y041342D02*
X032400Y041342D01*
X032400Y041299D01*
X032443Y041299D01*
X032443Y041342D01*
X032443Y041177D02*
X032400Y041134D01*
X032400Y041047D01*
X032443Y041004D01*
X032617Y041177D01*
X032443Y041177D01*
X032443Y041004D02*
X032617Y041004D01*
X032660Y041047D01*
X032660Y041134D01*
X032617Y041177D01*
X032310Y041489D02*
X032267Y041446D01*
X032093Y041446D01*
X032050Y041489D01*
X032050Y041576D01*
X032093Y041619D01*
X032267Y041619D02*
X032310Y041576D01*
X032310Y041489D01*
X032020Y041366D02*
X032020Y041279D01*
X031977Y041236D01*
X031803Y041236D01*
X031977Y041409D01*
X031803Y041409D01*
X031760Y041366D01*
X031760Y041279D01*
X031803Y041236D01*
X031760Y041115D02*
X031760Y040941D01*
X031760Y041028D02*
X032020Y041028D01*
X031933Y040941D01*
X032020Y041366D02*
X031977Y041409D01*
X031933Y041531D02*
X031803Y041531D01*
X031760Y041574D01*
X031760Y041704D01*
X031470Y041661D02*
X031340Y041531D01*
X031340Y041704D01*
X031210Y041661D02*
X031470Y041661D01*
X031427Y041825D02*
X031470Y041869D01*
X031470Y041955D01*
X031427Y041999D01*
X031383Y041999D01*
X031340Y041955D01*
X031297Y041999D01*
X031253Y041999D01*
X031210Y041955D01*
X031210Y041869D01*
X031253Y041825D01*
X031340Y041912D02*
X031340Y041955D01*
X031253Y041409D02*
X031210Y041366D01*
X031210Y041279D01*
X031253Y041236D01*
X031427Y041236D01*
X031470Y041279D01*
X031470Y041366D01*
X031427Y041409D01*
X031421Y034720D02*
X031464Y034677D01*
X031464Y034503D01*
X031421Y034460D01*
X031334Y034460D01*
X031290Y034503D01*
X031169Y034460D02*
X030996Y034460D01*
X031083Y034460D02*
X031083Y034720D01*
X031169Y034633D01*
X031290Y034677D02*
X031334Y034720D01*
X031421Y034720D01*
X030875Y034590D02*
X030745Y034590D01*
X030701Y034547D01*
X030701Y034503D01*
X030745Y034460D01*
X030831Y034460D01*
X030875Y034503D01*
X030875Y034590D01*
X030788Y034677D01*
X030701Y034720D01*
X030735Y033680D02*
X030691Y033637D01*
X030691Y033593D01*
X030735Y033550D01*
X030821Y033550D01*
X030865Y033593D01*
X030865Y033637D01*
X030821Y033680D01*
X030735Y033680D01*
X030735Y033550D02*
X030691Y033507D01*
X030691Y033463D01*
X030735Y033420D01*
X030821Y033420D01*
X030865Y033463D01*
X030865Y033507D01*
X030821Y033550D01*
X030986Y033420D02*
X031159Y033420D01*
X031073Y033420D02*
X031073Y033680D01*
X031159Y033593D01*
X031280Y033637D02*
X031324Y033680D01*
X031411Y033680D01*
X031454Y033637D01*
X031454Y033463D01*
X031411Y033420D01*
X031324Y033420D01*
X031280Y033463D01*
X031324Y032580D02*
X031411Y032580D01*
X031454Y032537D01*
X031454Y032363D01*
X031411Y032320D01*
X031324Y032320D01*
X031280Y032363D01*
X031159Y032320D02*
X030986Y032320D01*
X031073Y032320D02*
X031073Y032580D01*
X031159Y032493D01*
X031280Y032537D02*
X031324Y032580D01*
X030865Y032537D02*
X030865Y032493D01*
X030821Y032450D01*
X030691Y032450D01*
X030691Y032537D02*
X030735Y032580D01*
X030821Y032580D01*
X030865Y032537D01*
X030865Y032363D02*
X030821Y032320D01*
X030735Y032320D01*
X030691Y032363D01*
X030691Y032537D01*
X030127Y033340D02*
X030040Y033340D01*
X029997Y033383D01*
X029875Y033340D02*
X029702Y033340D01*
X029789Y033340D02*
X029789Y033600D01*
X029875Y033513D01*
X029997Y033557D02*
X030040Y033600D01*
X030127Y033600D01*
X030170Y033557D01*
X030170Y033383D01*
X030127Y033340D01*
X029581Y033340D02*
X029581Y033383D01*
X029407Y033557D01*
X029407Y033600D01*
X029581Y033600D01*
X036635Y043620D02*
X036591Y043663D01*
X036591Y043707D01*
X036635Y043750D01*
X036765Y043750D01*
X036765Y043663D01*
X036721Y043620D01*
X036635Y043620D01*
X036765Y043750D02*
X036678Y043837D01*
X036591Y043880D01*
X036765Y043970D02*
X036765Y044230D01*
X036591Y044230D01*
X036678Y044100D02*
X036765Y044100D01*
X036886Y044143D02*
X036886Y043970D01*
X037016Y043970D01*
X037059Y044013D01*
X037059Y044143D01*
X037180Y044143D02*
X037180Y044187D01*
X037224Y044230D01*
X037311Y044230D01*
X037354Y044187D01*
X037180Y044143D02*
X037354Y043970D01*
X037180Y043970D01*
X037224Y043880D02*
X037311Y043880D01*
X037354Y043837D01*
X037354Y043663D01*
X037311Y043620D01*
X037224Y043620D01*
X037180Y043663D01*
X037059Y043663D02*
X037016Y043620D01*
X036929Y043620D01*
X036886Y043663D01*
X036886Y043707D01*
X036929Y043750D01*
X036973Y043750D01*
X036929Y043750D02*
X036886Y043793D01*
X036886Y043837D01*
X036929Y043880D01*
X037016Y043880D01*
X037059Y043837D01*
X037180Y043837D02*
X037224Y043880D01*
X037458Y043970D02*
X037458Y044013D01*
X037501Y044013D01*
X037501Y043970D01*
X037458Y043970D01*
X037622Y043970D02*
X037796Y043970D01*
X037622Y044143D01*
X037622Y044187D01*
X037666Y044230D01*
X037753Y044230D01*
X037796Y044187D01*
X036511Y048420D02*
X036424Y048420D01*
X036380Y048463D01*
X036259Y048463D02*
X036216Y048420D01*
X036129Y048420D01*
X036086Y048463D01*
X036086Y048507D01*
X036129Y048550D01*
X036173Y048550D01*
X036129Y048550D02*
X036086Y048593D01*
X036086Y048637D01*
X036129Y048680D01*
X036216Y048680D01*
X036259Y048637D01*
X036380Y048637D02*
X036424Y048680D01*
X036511Y048680D01*
X036554Y048637D01*
X036554Y048463D01*
X036511Y048420D01*
X036554Y048770D02*
X036380Y048943D01*
X036380Y048987D01*
X036424Y049030D01*
X036511Y049030D01*
X036554Y048987D01*
X036658Y048813D02*
X036658Y048770D01*
X036701Y048770D01*
X036701Y048813D01*
X036658Y048813D01*
X036554Y048770D02*
X036380Y048770D01*
X036259Y048813D02*
X036216Y048770D01*
X036086Y048770D01*
X036086Y048943D01*
X035965Y048900D02*
X035878Y048900D01*
X035965Y049030D02*
X035791Y049030D01*
X035965Y049030D02*
X035965Y048770D01*
X035921Y048680D02*
X035835Y048680D01*
X035791Y048637D01*
X035791Y048593D01*
X035835Y048550D01*
X035791Y048507D01*
X035791Y048463D01*
X035835Y048420D01*
X035921Y048420D01*
X035965Y048463D01*
X035878Y048550D02*
X035835Y048550D01*
X035921Y048680D02*
X035965Y048637D01*
X036259Y048813D02*
X036259Y048943D01*
X036822Y048943D02*
X036822Y048987D01*
X036866Y049030D01*
X036953Y049030D01*
X036996Y048987D01*
X036822Y048943D02*
X036996Y048770D01*
X036822Y048770D01*
X034611Y053620D02*
X034524Y053620D01*
X034480Y053663D01*
X034359Y053663D02*
X034316Y053620D01*
X034229Y053620D01*
X034186Y053663D01*
X034186Y053707D01*
X034229Y053750D01*
X034273Y053750D01*
X034229Y053750D02*
X034186Y053793D01*
X034186Y053837D01*
X034229Y053880D01*
X034316Y053880D01*
X034359Y053837D01*
X034480Y053837D02*
X034524Y053880D01*
X034611Y053880D01*
X034654Y053837D01*
X034654Y053663D01*
X034611Y053620D01*
X034622Y054070D02*
X034796Y054070D01*
X034622Y054243D01*
X034622Y054287D01*
X034666Y054330D01*
X034753Y054330D01*
X034796Y054287D01*
X034501Y054113D02*
X034458Y054113D01*
X034458Y054070D01*
X034501Y054070D01*
X034501Y054113D01*
X034354Y054070D02*
X034180Y054243D01*
X034180Y054287D01*
X034224Y054330D01*
X034311Y054330D01*
X034354Y054287D01*
X034354Y054070D02*
X034180Y054070D01*
X034059Y054113D02*
X034016Y054070D01*
X033886Y054070D01*
X033886Y054243D01*
X033765Y054200D02*
X033678Y054200D01*
X033765Y054330D02*
X033591Y054330D01*
X033765Y054330D02*
X033765Y054070D01*
X033935Y053880D02*
X033891Y053837D01*
X034065Y053663D01*
X034021Y053620D01*
X033935Y053620D01*
X033891Y053663D01*
X033891Y053837D01*
X033935Y053880D02*
X034021Y053880D01*
X034065Y053837D01*
X034065Y053663D01*
X034059Y054113D02*
X034059Y054243D01*
X033997Y057990D02*
X034170Y057990D01*
X033997Y058163D01*
X033997Y058207D01*
X034040Y058250D01*
X034127Y058250D01*
X034170Y058207D01*
X034127Y058340D02*
X034040Y058340D01*
X033997Y058383D01*
X033875Y058340D02*
X033702Y058513D01*
X033702Y058557D01*
X033745Y058600D01*
X033832Y058600D01*
X033875Y058557D01*
X033997Y058557D02*
X034040Y058600D01*
X034127Y058600D01*
X034170Y058557D01*
X034170Y058383D01*
X034127Y058340D01*
X033875Y058340D02*
X033702Y058340D01*
X033685Y058250D02*
X033728Y058207D01*
X033685Y058250D02*
X033598Y058250D01*
X033555Y058207D01*
X033555Y058163D01*
X033728Y057990D01*
X033555Y057990D01*
X033433Y058033D02*
X033390Y057990D01*
X033260Y057990D01*
X033260Y058163D01*
X033139Y058120D02*
X033052Y058120D01*
X033139Y058250D02*
X032965Y058250D01*
X033139Y058250D02*
X033139Y057990D01*
X033433Y058033D02*
X033433Y058163D01*
X033581Y058340D02*
X033581Y058383D01*
X033407Y058557D01*
X033407Y058600D01*
X033581Y058600D01*
X033832Y058033D02*
X033832Y057990D01*
X033875Y057990D01*
X033875Y058033D01*
X033832Y058033D01*
D12*
X034270Y057934D02*
X034270Y058485D01*
X035530Y058485D01*
X035530Y057934D01*
X034270Y057934D01*
X034870Y054285D02*
X034870Y053734D01*
X036130Y053734D01*
X036130Y054285D01*
X034870Y054285D01*
X033546Y052090D02*
X032994Y052090D01*
X032994Y050830D01*
X033546Y050830D01*
X033546Y052090D01*
X032714Y052159D02*
X032714Y050741D01*
X032006Y050741D01*
X032006Y052159D01*
X032714Y052159D01*
X034370Y049085D02*
X034370Y048534D01*
X035630Y048534D01*
X035630Y049085D01*
X034370Y049085D01*
X033446Y047100D02*
X032894Y047100D01*
X032894Y045840D01*
X033446Y045840D01*
X033446Y047100D01*
X032684Y047179D02*
X031976Y047179D01*
X031976Y045761D01*
X032684Y045761D01*
X032684Y047179D01*
X032716Y043630D02*
X032164Y043630D01*
X032164Y042370D01*
X032716Y042370D01*
X032716Y043630D01*
X031954Y043699D02*
X031954Y042281D01*
X031246Y042281D01*
X031246Y043699D01*
X031954Y043699D01*
X035170Y043734D02*
X035170Y044285D01*
X036430Y044285D01*
X036430Y043734D01*
X035170Y043734D01*
D13*
X020565Y047390D03*
X019225Y045720D03*
X019095Y045510D03*
X019105Y045500D03*
X018925Y045500D03*
X019235Y044960D03*
X018805Y044210D03*
X018805Y044200D03*
X018805Y044080D03*
X018805Y044070D03*
X018815Y044060D03*
X018545Y044350D03*
X018545Y044360D03*
X018545Y044370D03*
X018545Y044380D03*
X018545Y044390D03*
X018545Y044400D03*
X018545Y044410D03*
X018545Y044420D03*
X018545Y044430D03*
X018545Y044440D03*
X018545Y044450D03*
X018545Y044460D03*
X018555Y044530D03*
X018555Y044540D03*
X018555Y044550D03*
X018555Y044560D03*
X018555Y044570D03*
X018565Y044600D03*
X018315Y044590D03*
X018305Y044570D03*
X018305Y044560D03*
X018305Y044550D03*
X018295Y044540D03*
X018295Y044530D03*
X018295Y044520D03*
X018285Y044510D03*
X018285Y044500D03*
X018285Y044490D03*
X018285Y044480D03*
X018275Y044460D03*
X018275Y044450D03*
X018275Y044440D03*
X018275Y044430D03*
X018265Y044410D03*
X018265Y044400D03*
X018265Y044390D03*
X018265Y044380D03*
X018075Y044600D03*
X018085Y044630D03*
X018085Y044640D03*
X018085Y044650D03*
X018095Y044660D03*
X018095Y044670D03*
X017935Y044830D03*
X017935Y044840D03*
X017945Y044850D03*
X017955Y044870D03*
X017985Y044900D03*
X017925Y044820D03*
X017975Y045220D03*
X017985Y045230D03*
X017575Y045330D03*
X017545Y044660D03*
X017545Y044650D03*
X017535Y044640D03*
X017535Y044630D03*
X018365Y044790D03*
X018465Y046390D03*
X018175Y046680D03*
X018725Y046940D03*
X018965Y047180D03*
X018825Y047320D03*
X018785Y047290D03*
X016465Y047300D03*
X015365Y047200D03*
X019005Y043060D03*
X018435Y040830D03*
X017745Y040820D03*
X016785Y036730D03*
X016775Y036720D03*
X016775Y036580D03*
X016785Y036570D03*
X016305Y036500D03*
X016295Y036490D03*
X016295Y036580D03*
X016275Y036720D03*
X016285Y036730D03*
X016085Y036690D03*
X016075Y036700D03*
X016085Y036400D03*
X016075Y036390D03*
X015905Y036280D03*
X015755Y036370D03*
X015745Y036380D03*
X015735Y036400D03*
X015555Y036350D03*
X015735Y036690D03*
X015745Y036710D03*
X015755Y036720D03*
X014675Y036700D03*
X014695Y036420D03*
X014685Y036400D03*
X014675Y036390D03*
X014675Y036380D03*
X014515Y036280D03*
X014375Y036360D03*
X014365Y036370D03*
X014355Y036710D03*
X014365Y036720D03*
X014375Y036730D03*
D14*
X014350Y036700D03*
X014340Y036690D03*
X014340Y036680D03*
X014330Y036660D03*
X014330Y036650D03*
X014330Y036450D03*
X014330Y036440D03*
X014340Y036420D03*
X014340Y036410D03*
X014350Y036400D03*
X014350Y036390D03*
X014360Y036380D03*
X014690Y036410D03*
X014700Y036430D03*
X014700Y036440D03*
X014710Y036460D03*
X014710Y036470D03*
X014720Y036520D03*
X014720Y036530D03*
X014720Y036540D03*
X014720Y036550D03*
X014720Y036560D03*
X014710Y036620D03*
X014710Y036630D03*
X014700Y036650D03*
X014700Y036660D03*
X014690Y036670D03*
X014690Y036680D03*
X014680Y036690D03*
X014670Y036710D03*
X014510Y036810D03*
X015340Y036800D03*
X015340Y036790D03*
X015340Y036780D03*
X015340Y036770D03*
X015340Y036760D03*
X015340Y036750D03*
X015340Y036740D03*
X015340Y036730D03*
X015340Y036720D03*
X015340Y036710D03*
X015340Y036700D03*
X015340Y036690D03*
X015340Y036680D03*
X015340Y036670D03*
X015340Y036660D03*
X015340Y036650D03*
X015340Y036640D03*
X015340Y036630D03*
X015340Y036620D03*
X015340Y036610D03*
X015340Y036600D03*
X015340Y036590D03*
X015340Y036580D03*
X015340Y036570D03*
X015340Y036560D03*
X015340Y036550D03*
X015340Y036540D03*
X015340Y036530D03*
X015340Y036520D03*
X015340Y036510D03*
X015340Y036500D03*
X015340Y036490D03*
X015340Y036480D03*
X015340Y036470D03*
X015340Y036460D03*
X015340Y036450D03*
X015340Y036440D03*
X015340Y036430D03*
X015340Y036420D03*
X015340Y036410D03*
X015340Y036400D03*
X015340Y036390D03*
X015350Y036370D03*
X015350Y036360D03*
X015360Y036350D03*
X015460Y036280D03*
X015560Y036360D03*
X015570Y036380D03*
X015570Y036390D03*
X015570Y036400D03*
X015710Y036440D03*
X015710Y036450D03*
X015720Y036430D03*
X015720Y036420D03*
X015730Y036410D03*
X015740Y036390D03*
X015700Y036480D03*
X015700Y036490D03*
X015700Y036500D03*
X015700Y036590D03*
X015700Y036600D03*
X015700Y036610D03*
X015710Y036640D03*
X015720Y036660D03*
X015720Y036670D03*
X015730Y036680D03*
X015740Y036700D03*
X015910Y036810D03*
X016070Y036710D03*
X016090Y036680D03*
X016100Y036670D03*
X016100Y036660D03*
X016110Y036640D03*
X016110Y036630D03*
X016120Y036600D03*
X016120Y036590D03*
X016120Y036580D03*
X016120Y036510D03*
X016120Y036500D03*
X016120Y036490D03*
X016110Y036460D03*
X016110Y036450D03*
X016100Y036430D03*
X016100Y036420D03*
X016090Y036410D03*
X016070Y036380D03*
X016260Y036320D03*
X016260Y036310D03*
X016260Y036300D03*
X016250Y036290D03*
X016280Y036460D03*
X016280Y036470D03*
X016290Y036480D03*
X016280Y036590D03*
X016280Y036600D03*
X016270Y036610D03*
X016260Y036660D03*
X016260Y036670D03*
X016270Y036700D03*
X016270Y036710D03*
X016760Y036700D03*
X016760Y036690D03*
X016760Y036680D03*
X016770Y036710D03*
X016760Y036620D03*
X016760Y036610D03*
X016760Y036600D03*
X016770Y036590D03*
X018420Y040840D03*
X018150Y042720D03*
X018800Y044090D03*
X018800Y044100D03*
X018800Y044110D03*
X018800Y044120D03*
X018800Y044170D03*
X018800Y044180D03*
X018800Y044190D03*
X018550Y044470D03*
X018550Y044480D03*
X018550Y044490D03*
X018550Y044500D03*
X018550Y044510D03*
X018550Y044520D03*
X018280Y044470D03*
X018100Y044680D03*
X018100Y044690D03*
X017950Y044860D03*
X017960Y044880D03*
X017970Y044890D03*
X018000Y045240D03*
X017860Y045480D03*
X018060Y045630D03*
X018390Y044920D03*
X018800Y047300D03*
X018820Y047310D03*
X018970Y047820D03*
X018830Y047910D03*
X019530Y048030D03*
X019530Y048040D03*
X020560Y047500D03*
X017980Y047350D03*
X016530Y048050D03*
X016330Y047250D03*
X015440Y047860D03*
D15*
X014045Y036290D03*
X014045Y036300D03*
X014045Y036310D03*
X014045Y036320D03*
X014045Y036330D03*
X014045Y036340D03*
X014045Y036350D03*
X014045Y036360D03*
X014045Y036370D03*
X014045Y036380D03*
X014045Y036390D03*
X014045Y036400D03*
X014045Y036410D03*
X014045Y036420D03*
X014045Y036430D03*
X014045Y036440D03*
X014045Y036450D03*
X014045Y036460D03*
X014045Y036470D03*
X014045Y036480D03*
X014045Y036490D03*
X014045Y036500D03*
X014045Y036510D03*
X014045Y036520D03*
X014045Y036530D03*
X014045Y036540D03*
X014045Y036550D03*
X014045Y036560D03*
X014045Y036570D03*
X014045Y036580D03*
X014045Y036590D03*
X014045Y036600D03*
X014045Y036610D03*
X014045Y036620D03*
X014045Y036630D03*
X014045Y036640D03*
X014045Y036650D03*
X014045Y036660D03*
X014045Y036670D03*
X014045Y036680D03*
X014045Y036690D03*
X014045Y036700D03*
X014045Y036710D03*
X014045Y036720D03*
X014045Y036730D03*
X014045Y036740D03*
X014335Y036670D03*
X014325Y036480D03*
X014325Y036470D03*
X014325Y036460D03*
X014335Y036430D03*
X014705Y036450D03*
X014715Y036480D03*
X014715Y036490D03*
X014715Y036500D03*
X014715Y036510D03*
X014715Y036570D03*
X014715Y036580D03*
X014715Y036590D03*
X014715Y036600D03*
X014715Y036610D03*
X014705Y036640D03*
X015145Y036640D03*
X015145Y036650D03*
X015145Y036660D03*
X015145Y036670D03*
X015145Y036680D03*
X015145Y036690D03*
X015145Y036700D03*
X015145Y036710D03*
X015145Y036720D03*
X015145Y036730D03*
X015145Y036740D03*
X015145Y036630D03*
X015145Y036620D03*
X015145Y036610D03*
X015145Y036600D03*
X015145Y036590D03*
X015145Y036520D03*
X015145Y036510D03*
X015145Y036500D03*
X015145Y036490D03*
X015145Y036480D03*
X015145Y036470D03*
X015145Y036460D03*
X015145Y036450D03*
X015145Y036440D03*
X015145Y036430D03*
X015145Y036420D03*
X015145Y036410D03*
X015145Y036400D03*
X015145Y036390D03*
X015145Y036380D03*
X015145Y036370D03*
X015145Y036360D03*
X015145Y036350D03*
X015345Y036380D03*
X015565Y036370D03*
X015575Y036410D03*
X015575Y036420D03*
X015575Y036430D03*
X015575Y036440D03*
X015575Y036450D03*
X015705Y036460D03*
X015705Y036470D03*
X015695Y036510D03*
X015695Y036520D03*
X015695Y036530D03*
X015695Y036540D03*
X015695Y036550D03*
X015695Y036560D03*
X015695Y036570D03*
X015695Y036580D03*
X015705Y036620D03*
X015705Y036630D03*
X015715Y036650D03*
X016105Y036650D03*
X016115Y036620D03*
X016115Y036610D03*
X016125Y036570D03*
X016125Y036560D03*
X016125Y036550D03*
X016125Y036540D03*
X016125Y036530D03*
X016125Y036520D03*
X016115Y036480D03*
X016115Y036470D03*
X016105Y036440D03*
X016265Y036390D03*
X016265Y036380D03*
X016265Y036370D03*
X016265Y036360D03*
X016265Y036350D03*
X016265Y036340D03*
X016265Y036330D03*
X016275Y036410D03*
X016275Y036420D03*
X016275Y036430D03*
X016275Y036440D03*
X016275Y036450D03*
X016265Y036620D03*
X016265Y036630D03*
X016265Y036640D03*
X016265Y036650D03*
X016265Y036680D03*
X016265Y036690D03*
X016595Y036690D03*
X016595Y036700D03*
X016595Y036710D03*
X016595Y036720D03*
X016595Y036730D03*
X016595Y036740D03*
X016595Y036680D03*
X016595Y036670D03*
X016595Y036660D03*
X016595Y036650D03*
X016595Y036640D03*
X016595Y036630D03*
X016595Y036620D03*
X016595Y036610D03*
X016595Y036600D03*
X016595Y036590D03*
X016595Y036580D03*
X016595Y036570D03*
X016595Y036500D03*
X016595Y036490D03*
X016595Y036480D03*
X016595Y036470D03*
X016595Y036460D03*
X016595Y036450D03*
X016595Y036440D03*
X016595Y036430D03*
X016595Y036420D03*
X016595Y036410D03*
X016595Y036400D03*
X016595Y036390D03*
X016595Y036380D03*
X016595Y036370D03*
X016595Y036360D03*
X016595Y036350D03*
X016595Y036340D03*
X016595Y036330D03*
X016595Y036320D03*
X016595Y036310D03*
X016595Y036300D03*
X016595Y036290D03*
X016755Y036630D03*
X016755Y036640D03*
X016755Y036650D03*
X016755Y036660D03*
X016755Y036670D03*
X017075Y036670D03*
X017075Y036680D03*
X017075Y036690D03*
X017075Y036700D03*
X017075Y036710D03*
X017075Y036720D03*
X017075Y036730D03*
X017075Y036740D03*
X017075Y036660D03*
X017075Y036650D03*
X017075Y036640D03*
X017075Y036630D03*
X017075Y036620D03*
X017075Y036610D03*
X017075Y036600D03*
X017075Y036590D03*
X017075Y036580D03*
X017075Y036570D03*
X017075Y036560D03*
X017075Y036490D03*
X017075Y036480D03*
X017075Y036470D03*
X017075Y036460D03*
X017075Y036450D03*
X017075Y036440D03*
X017075Y036430D03*
X017075Y036420D03*
X017075Y036410D03*
X017075Y036400D03*
X017075Y036390D03*
X017075Y036380D03*
X017075Y036370D03*
X017075Y036360D03*
X017075Y036350D03*
X017075Y036340D03*
X017075Y036330D03*
X017075Y036320D03*
X017075Y036310D03*
X017075Y036300D03*
X017075Y036290D03*
X018405Y040850D03*
X017545Y041230D03*
X018705Y043340D03*
X018795Y044130D03*
X018795Y044140D03*
X018795Y044150D03*
X018795Y044160D03*
X018365Y044800D03*
X018115Y044730D03*
X018115Y044720D03*
X018105Y044710D03*
X018105Y044700D03*
X018235Y045160D03*
X018005Y045250D03*
X019235Y045710D03*
X019025Y046690D03*
X018725Y046950D03*
X018505Y047040D03*
X018545Y046690D03*
X018785Y047280D03*
X019035Y047240D03*
X019235Y047860D03*
X019305Y048070D03*
X019525Y048020D03*
X019525Y048010D03*
X020555Y047490D03*
X020555Y047480D03*
X020555Y047400D03*
X018065Y047630D03*
X017445Y047770D03*
X017115Y046950D03*
X016935Y046840D03*
X016465Y047310D03*
X015885Y048000D03*
D16*
X015410Y047270D03*
X016280Y046890D03*
X016300Y046900D03*
X016580Y046790D03*
X016590Y046800D03*
X016600Y046810D03*
X016610Y046820D03*
X016630Y046850D03*
X017740Y045350D03*
X018060Y045580D03*
X018280Y045140D03*
X018250Y045120D03*
X018070Y044950D03*
X018060Y044940D03*
X017930Y044160D03*
X017910Y044090D03*
X017910Y044080D03*
X017950Y043900D03*
X017950Y043890D03*
X017950Y043880D03*
X017950Y043870D03*
X017960Y043820D03*
X017960Y043810D03*
X017960Y043800D03*
X017960Y043790D03*
X017960Y043780D03*
X017960Y043770D03*
X017970Y043650D03*
X017970Y043640D03*
X017970Y043630D03*
X017980Y043580D03*
X017980Y043570D03*
X017980Y043560D03*
X017980Y043550D03*
X017980Y043540D03*
X017980Y043530D03*
X017640Y043500D03*
X017640Y043490D03*
X017640Y043480D03*
X017640Y043470D03*
X017680Y043350D03*
X017690Y043330D03*
X017700Y043280D03*
X017710Y043260D03*
X017710Y043250D03*
X017720Y043220D03*
X017720Y043210D03*
X017730Y043180D03*
X017730Y043170D03*
X017830Y042790D03*
X017840Y042770D03*
X017840Y042760D03*
X017850Y042750D03*
X017850Y042740D03*
X017860Y042730D03*
X017860Y042720D03*
X017870Y042700D03*
X017880Y042680D03*
X017890Y042660D03*
X017900Y042640D03*
X017930Y042590D03*
X017950Y042560D03*
X017970Y042530D03*
X018010Y042480D03*
X018140Y042280D03*
X017740Y042210D03*
X017730Y042220D03*
X017670Y042320D03*
X017660Y042340D03*
X018270Y042790D03*
X018230Y042880D03*
X018220Y042890D03*
X018560Y043040D03*
X018570Y043030D03*
X018570Y043020D03*
X018580Y043000D03*
X018630Y042920D03*
X018640Y042910D03*
X019040Y043240D03*
X018850Y043440D03*
X018790Y043510D03*
X018780Y043520D03*
X018770Y043530D03*
X018760Y043540D03*
X018750Y043550D03*
X018740Y043560D03*
X018730Y043570D03*
X018720Y043590D03*
X018710Y043600D03*
X018700Y043610D03*
X018690Y043630D03*
X018670Y043660D03*
X018880Y043950D03*
X018990Y044200D03*
X018970Y044210D03*
X018850Y044300D03*
X018870Y044420D03*
X019180Y044100D03*
X018640Y045040D03*
X019040Y045860D03*
X019020Y046710D03*
X018540Y047060D03*
X019020Y047410D03*
X019260Y048030D03*
X019490Y047170D03*
X019700Y046980D03*
X019950Y046770D03*
X019960Y046760D03*
X019980Y046750D03*
X019990Y046740D03*
X020000Y046730D03*
X020460Y047150D03*
X020470Y047140D03*
X020450Y047170D03*
X020440Y047180D03*
X020430Y047190D03*
X020410Y047220D03*
X020400Y047230D03*
X020390Y047240D03*
X020360Y047280D03*
X020350Y047290D03*
X020340Y047300D03*
X020330Y047310D03*
X020320Y047320D03*
X020610Y047320D03*
X020780Y047170D03*
X020790Y047160D03*
X020800Y047150D03*
X020930Y047360D03*
X020900Y047380D03*
X020990Y047320D03*
X021010Y047310D03*
X021090Y047230D03*
X021120Y047180D03*
X021130Y047170D03*
X021260Y047050D03*
X021320Y047320D03*
X021310Y047330D03*
X021300Y047340D03*
X021290Y047350D03*
X021100Y047530D03*
X021090Y047540D03*
X021080Y047550D03*
X020920Y047690D03*
X020890Y047710D03*
X021060Y047910D03*
X021130Y047860D03*
X021140Y047850D03*
X021150Y047840D03*
X021400Y047640D03*
X020780Y046780D03*
X020680Y046890D03*
X020650Y046930D03*
X020640Y046940D03*
X020630Y046950D03*
X020620Y046960D03*
X018240Y043920D03*
X018240Y043910D03*
X018240Y043900D03*
X018280Y043770D03*
X018290Y043750D03*
X017590Y041210D03*
X017750Y041090D03*
X016480Y037990D03*
X016480Y037980D03*
X016480Y037970D03*
X016520Y037810D03*
X016530Y037800D03*
X016460Y037620D03*
X016450Y037610D03*
X016440Y037580D03*
X016430Y037530D03*
X016430Y037520D03*
X016430Y037510D03*
X016430Y037500D03*
X016430Y037490D03*
X016430Y037480D03*
X016430Y037470D03*
X016430Y037460D03*
X016440Y037450D03*
X016440Y037440D03*
X015910Y036800D03*
X015910Y036290D03*
X014510Y036290D03*
X014510Y036800D03*
X017360Y037240D03*
X017370Y037260D03*
X017370Y037270D03*
X017380Y037290D03*
X017380Y037300D03*
X017390Y037310D03*
X017390Y037320D03*
X017390Y037330D03*
X017400Y037340D03*
X017400Y037350D03*
X017400Y037360D03*
X017410Y037370D03*
X017410Y037380D03*
X017420Y037400D03*
X017420Y037410D03*
X017430Y037430D03*
X017440Y037460D03*
X017450Y037480D03*
X017500Y037620D03*
X018040Y037380D03*
X018060Y037330D03*
X018070Y037300D03*
X018080Y037270D03*
X018090Y037250D03*
X018090Y037240D03*
X019430Y037540D03*
X019430Y037550D03*
X019440Y037520D03*
X019440Y037510D03*
X019450Y037500D03*
X019450Y037490D03*
X019460Y037470D03*
X019420Y037590D03*
X019420Y037600D03*
X019420Y037810D03*
X019420Y037820D03*
X019430Y037860D03*
X019430Y037870D03*
X019440Y037890D03*
X019440Y037900D03*
X019450Y037910D03*
X019450Y037920D03*
X019460Y037940D03*
X020510Y037620D03*
X020460Y037480D03*
X020450Y037460D03*
X020440Y037430D03*
X020430Y037410D03*
X020430Y037400D03*
X020420Y037380D03*
X020420Y037370D03*
X020410Y037360D03*
X020410Y037350D03*
X020410Y037340D03*
X020400Y037330D03*
X020400Y037320D03*
X020400Y037310D03*
X020390Y037300D03*
X020390Y037290D03*
X020380Y037270D03*
X020380Y037260D03*
X020370Y037240D03*
X021050Y037380D03*
X021070Y037330D03*
X021080Y037300D03*
X021090Y037270D03*
X021100Y037250D03*
X021100Y037240D03*
X021250Y037800D03*
X021250Y037810D03*
X021240Y037820D03*
X021240Y037830D03*
X021240Y037840D03*
X021240Y037950D03*
X021240Y037960D03*
X021250Y037980D03*
D17*
X020865Y037880D03*
X020855Y037910D03*
X020845Y037930D03*
X020835Y037960D03*
X020825Y037990D03*
X020815Y038010D03*
X020815Y038020D03*
X020655Y038010D03*
X017855Y037880D03*
X017845Y037910D03*
X017835Y037930D03*
X017825Y037960D03*
X017815Y037990D03*
X017805Y038010D03*
X017805Y038020D03*
X017645Y038010D03*
X015455Y036290D03*
X018055Y040870D03*
X018045Y040880D03*
X017845Y041020D03*
X017815Y041040D03*
X018505Y042520D03*
X018265Y042830D03*
X018265Y042840D03*
X018255Y042850D03*
X018615Y043790D03*
X018605Y043820D03*
X018605Y043830D03*
X018595Y043870D03*
X018595Y043880D03*
X018575Y044030D03*
X018575Y044040D03*
X018575Y044050D03*
X018575Y044060D03*
X018565Y044080D03*
X018565Y044090D03*
X018565Y044100D03*
X018565Y044110D03*
X018565Y044120D03*
X018835Y044320D03*
X018845Y044400D03*
X019065Y044160D03*
X019085Y043540D03*
X018245Y044000D03*
X018245Y044010D03*
X017935Y043930D03*
X017925Y043940D03*
X017925Y043950D03*
X017915Y043990D03*
X017915Y044000D03*
X017915Y044010D03*
X017915Y044020D03*
X017945Y044190D03*
X017955Y044200D03*
X017955Y044210D03*
X017625Y043940D03*
X017625Y043930D03*
X017625Y043920D03*
X017625Y043910D03*
X017625Y043900D03*
X017625Y043890D03*
X017625Y043880D03*
X017625Y043870D03*
X017625Y043860D03*
X017635Y043580D03*
X017635Y043570D03*
X017635Y043560D03*
X017705Y043310D03*
X017875Y044700D03*
X017685Y044940D03*
X017695Y044950D03*
X017705Y044960D03*
X017835Y045090D03*
X017845Y045100D03*
X017855Y045110D03*
X017865Y045120D03*
X017875Y045130D03*
X017515Y045180D03*
X018615Y045030D03*
X018575Y044690D03*
X019145Y045460D03*
X019085Y045830D03*
X019065Y045840D03*
X019525Y047140D03*
X020595Y047340D03*
X020905Y047060D03*
X020915Y047050D03*
X020925Y047040D03*
X020935Y047030D03*
X020945Y047020D03*
X020955Y047010D03*
X020825Y046750D03*
X020915Y046650D03*
X020925Y046640D03*
X020935Y046630D03*
X021285Y046650D03*
X021295Y046640D03*
X021305Y046620D03*
X021485Y046820D03*
X021425Y046890D03*
X021415Y046900D03*
X021405Y046910D03*
X021395Y046920D03*
X021355Y046970D03*
X021345Y046980D03*
X021335Y046990D03*
X021325Y047000D03*
X021315Y047010D03*
X021305Y047020D03*
X021295Y047030D03*
X021455Y047200D03*
X021465Y047190D03*
X021475Y047180D03*
X021485Y047170D03*
X021495Y047160D03*
X021345Y047680D03*
X020975Y047650D03*
X020555Y046650D03*
X020565Y046640D03*
X020575Y046630D03*
X020575Y046620D03*
X018065Y047240D03*
X018045Y047840D03*
X016385Y046960D03*
X016355Y046940D03*
X016345Y046930D03*
X015395Y047250D03*
D18*
X015720Y047200D03*
X015800Y046900D03*
X015780Y046890D03*
X015430Y046690D03*
X015410Y046680D03*
X015910Y047580D03*
X016300Y047430D03*
X016560Y047570D03*
X017010Y047060D03*
X017700Y046080D03*
X018130Y045540D03*
X018120Y045530D03*
X018840Y046250D03*
X019560Y047440D03*
X019580Y047430D03*
X019650Y047760D03*
X019510Y047850D03*
X019820Y047670D03*
X019860Y048020D03*
X019840Y048030D03*
X017060Y048070D03*
X015430Y047980D03*
X018940Y042620D03*
X019100Y041510D03*
X018680Y041040D03*
X018400Y041140D03*
X018500Y041490D03*
X016450Y036770D03*
X016450Y036560D03*
X016450Y036510D03*
X016930Y036550D03*
X016930Y036750D03*
X015000Y036750D03*
X015000Y036760D03*
X015000Y036770D03*
X015000Y036780D03*
X015000Y036790D03*
X015000Y036800D03*
X015000Y036340D03*
X015000Y036330D03*
X015000Y036320D03*
X015000Y036310D03*
X015000Y036300D03*
X015000Y036290D03*
D19*
X015460Y036310D03*
X015910Y036300D03*
X015910Y036790D03*
X016480Y037380D03*
X014510Y036790D03*
X017670Y041150D03*
X017970Y040960D03*
X017720Y041580D03*
X017920Y041970D03*
X017880Y042010D03*
X017790Y042140D03*
X017780Y042150D03*
X017640Y042390D03*
X017560Y042500D03*
X017550Y042510D03*
X017540Y042520D03*
X018010Y042510D03*
X018070Y042430D03*
X018180Y042230D03*
X018190Y042220D03*
X018390Y042040D03*
X018400Y042030D03*
X018630Y041800D03*
X018630Y041790D03*
X018660Y041400D03*
X018780Y041340D03*
X018800Y041330D03*
X018160Y041710D03*
X018600Y042350D03*
X018590Y042360D03*
X018530Y042470D03*
X018390Y042600D03*
X018380Y042630D03*
X018180Y042950D03*
X018170Y042960D03*
X018040Y043250D03*
X018030Y043280D03*
X018030Y043290D03*
X018030Y043300D03*
X018020Y043310D03*
X018020Y043320D03*
X018020Y043330D03*
X017730Y043100D03*
X017730Y043090D03*
X017730Y043080D03*
X017750Y042990D03*
X017760Y042980D03*
X017760Y042970D03*
X017770Y042950D03*
X018470Y043330D03*
X018350Y043560D03*
X018350Y043570D03*
X018340Y043590D03*
X018340Y043600D03*
X018920Y043890D03*
X018970Y043800D03*
X018980Y043790D03*
X018980Y043780D03*
X018950Y043320D03*
X018960Y043310D03*
X018970Y043300D03*
X018680Y042870D03*
X018870Y044270D03*
X018670Y045050D03*
X019150Y045440D03*
X019010Y045880D03*
X019010Y046180D03*
X018860Y046630D03*
X018480Y046660D03*
X018450Y045740D03*
X017560Y045640D03*
X017550Y045630D03*
X017540Y045620D03*
X017530Y045610D03*
X016680Y046880D03*
X016490Y046720D03*
X016460Y046700D03*
X016370Y046630D03*
X016230Y046860D03*
X015540Y047370D03*
X015510Y047350D03*
X015430Y047300D03*
X019240Y048020D03*
X019750Y047330D03*
X019690Y046970D03*
X019880Y046820D03*
X020470Y046730D03*
X020730Y046820D03*
X020740Y046800D03*
X020650Y047270D03*
X020640Y047280D03*
X020830Y047430D03*
X020840Y047420D03*
X021070Y047270D03*
X021170Y047120D03*
X021190Y047800D03*
X021380Y047990D03*
X021370Y048000D03*
X021360Y048010D03*
X021350Y048020D03*
X021340Y048030D03*
X021330Y048040D03*
X021320Y048050D03*
X021310Y048060D03*
X021390Y047980D03*
X021400Y047970D03*
X020960Y047970D03*
X020950Y047980D03*
X020610Y047920D03*
X020600Y047930D03*
X020560Y047960D03*
X020540Y047600D03*
X020250Y047390D03*
X019510Y038000D03*
X019510Y037410D03*
X021280Y037760D03*
X021290Y037750D03*
D20*
X021255Y037790D03*
X021255Y037990D03*
X021255Y038000D03*
X021265Y038010D03*
X020735Y038170D03*
X020735Y038180D03*
X020385Y037280D03*
X020375Y037250D03*
X020365Y037230D03*
X019475Y037450D03*
X019465Y037460D03*
X019455Y037480D03*
X019455Y037930D03*
X019465Y037950D03*
X019475Y037960D03*
X017725Y038170D03*
X017725Y038180D03*
X017375Y037280D03*
X017365Y037250D03*
X017355Y037230D03*
X016455Y037410D03*
X016445Y037420D03*
X016445Y037430D03*
X016465Y037630D03*
X016475Y037640D03*
X016485Y038000D03*
X015455Y036300D03*
X018005Y040920D03*
X017995Y040930D03*
X017905Y040990D03*
X017735Y041100D03*
X017725Y041110D03*
X017645Y041640D03*
X017635Y041650D03*
X017625Y041660D03*
X017625Y041670D03*
X017615Y041680D03*
X017605Y041690D03*
X017595Y041710D03*
X017755Y042190D03*
X017745Y042200D03*
X017665Y042330D03*
X017655Y042350D03*
X018045Y042440D03*
X018115Y042370D03*
X018145Y042270D03*
X018155Y042260D03*
X018525Y042490D03*
X018275Y042780D03*
X018215Y042900D03*
X018205Y042910D03*
X018555Y043050D03*
X018555Y043060D03*
X018645Y042900D03*
X019015Y043260D03*
X019025Y043250D03*
X018855Y043430D03*
X018725Y043580D03*
X018895Y043930D03*
X018885Y043940D03*
X018855Y044290D03*
X018565Y044700D03*
X018195Y045070D03*
X018205Y045080D03*
X018215Y045090D03*
X018225Y045100D03*
X018235Y045110D03*
X018265Y045130D03*
X018285Y045150D03*
X018095Y044970D03*
X018085Y044960D03*
X017745Y045360D03*
X017575Y045240D03*
X017565Y045230D03*
X017555Y045220D03*
X018065Y045570D03*
X019025Y045870D03*
X017925Y044150D03*
X017915Y044140D03*
X017915Y044100D03*
X018235Y043940D03*
X018235Y043930D03*
X018285Y043760D03*
X018295Y043740D03*
X018295Y043730D03*
X018305Y043720D03*
X018305Y043710D03*
X017985Y043520D03*
X017985Y043510D03*
X017985Y043500D03*
X017985Y043490D03*
X017985Y043480D03*
X017995Y043470D03*
X017995Y043460D03*
X017995Y043450D03*
X017995Y043440D03*
X017675Y043360D03*
X017665Y043370D03*
X017665Y043380D03*
X017655Y043400D03*
X017655Y043410D03*
X017655Y043420D03*
X017645Y043440D03*
X017645Y043450D03*
X017645Y043460D03*
X017725Y043160D03*
X017725Y043150D03*
X017805Y042850D03*
X017815Y042830D03*
X017815Y042820D03*
X017825Y042810D03*
X017825Y042800D03*
X017835Y042780D03*
X018645Y041760D03*
X018655Y041750D03*
X018665Y041740D03*
X018675Y041730D03*
X018935Y041900D03*
X018725Y041370D03*
X019935Y046780D03*
X019925Y046790D03*
X019775Y047310D03*
X020455Y047160D03*
X020475Y047130D03*
X020485Y047120D03*
X020575Y047010D03*
X020585Y047000D03*
X020595Y046990D03*
X020605Y046980D03*
X020615Y046970D03*
X020655Y046920D03*
X020665Y046910D03*
X020675Y046900D03*
X020685Y046880D03*
X020695Y046870D03*
X020515Y046690D03*
X020505Y046700D03*
X020765Y047180D03*
X020755Y047190D03*
X020615Y047310D03*
X020885Y047390D03*
X020915Y047370D03*
X021085Y047240D03*
X021135Y047160D03*
X021145Y047150D03*
X021245Y047060D03*
X021275Y047360D03*
X021265Y047370D03*
X021255Y047380D03*
X021245Y047390D03*
X021125Y047500D03*
X021115Y047510D03*
X021105Y047520D03*
X021405Y047630D03*
X020905Y048020D03*
X020895Y048030D03*
X020885Y048040D03*
X016645Y046860D03*
X016625Y046840D03*
X016615Y046830D03*
X016525Y046740D03*
X016265Y046880D03*
X016475Y047050D03*
X015415Y047280D03*
D21*
X015435Y047310D03*
X015485Y047340D03*
X015555Y047380D03*
X015675Y047440D03*
X015695Y047450D03*
X016215Y046850D03*
X016405Y046660D03*
X016395Y046650D03*
X016385Y046640D03*
X016365Y046620D03*
X016425Y046670D03*
X016435Y046680D03*
X016445Y046690D03*
X016475Y046710D03*
X016475Y047060D03*
X016435Y047830D03*
X016455Y047840D03*
X017535Y045980D03*
X017585Y045660D03*
X017575Y045650D03*
X017765Y045380D03*
X017625Y045290D03*
X017615Y045280D03*
X018455Y046370D03*
X018445Y046930D03*
X018295Y047550D03*
X018035Y047830D03*
X018995Y046190D03*
X018995Y045890D03*
X019455Y047200D03*
X019865Y046830D03*
X020455Y046750D03*
X020465Y046740D03*
X020235Y047400D03*
X020225Y047410D03*
X020515Y047620D03*
X020525Y047610D03*
X020655Y047880D03*
X020645Y047890D03*
X020635Y047900D03*
X020625Y047910D03*
X020835Y047740D03*
X020985Y047950D03*
X020975Y047960D03*
X021205Y047790D03*
X021405Y047960D03*
X021415Y047950D03*
X021425Y047940D03*
X021435Y047930D03*
X021445Y047920D03*
X021455Y047910D03*
X021305Y048070D03*
X020815Y047440D03*
X021065Y047280D03*
X021175Y047110D03*
X021185Y047100D03*
X021205Y047080D03*
X018875Y044260D03*
X018925Y043880D03*
X018935Y043870D03*
X018935Y043860D03*
X018945Y043850D03*
X018955Y043830D03*
X018965Y043820D03*
X018965Y043810D03*
X018855Y043410D03*
X018865Y043400D03*
X018875Y043390D03*
X018885Y043380D03*
X018895Y043370D03*
X018905Y043360D03*
X018915Y043350D03*
X018925Y043340D03*
X018935Y043330D03*
X018425Y043390D03*
X018355Y043540D03*
X018355Y043550D03*
X018345Y043580D03*
X018035Y043270D03*
X018035Y043260D03*
X018045Y043240D03*
X018045Y043230D03*
X018045Y043220D03*
X018055Y043210D03*
X018055Y043200D03*
X018065Y043170D03*
X018135Y043020D03*
X018145Y043000D03*
X018155Y042990D03*
X018155Y042980D03*
X018165Y042970D03*
X018275Y042750D03*
X018375Y042650D03*
X018375Y042640D03*
X018385Y042620D03*
X018385Y042610D03*
X018395Y042590D03*
X018535Y042460D03*
X018585Y042370D03*
X018385Y042050D03*
X018465Y041990D03*
X018185Y041700D03*
X018145Y041720D03*
X018125Y041730D03*
X017935Y041960D03*
X017865Y042020D03*
X017795Y042130D03*
X017635Y042400D03*
X017575Y042480D03*
X017565Y042490D03*
X018005Y042520D03*
X018105Y042400D03*
X018115Y042390D03*
X017745Y043000D03*
X017745Y043010D03*
X017735Y043030D03*
X017725Y043070D03*
X017735Y041570D03*
X017615Y041190D03*
X017655Y041160D03*
X017955Y040970D03*
X018965Y042120D03*
X018695Y042860D03*
X017725Y038130D03*
X017725Y038120D03*
X016505Y037660D03*
X014515Y036300D03*
X019515Y037400D03*
X019515Y038010D03*
X020735Y038120D03*
X020735Y038130D03*
D22*
X019550Y038030D03*
X019550Y037380D03*
X019110Y041140D03*
X018860Y041300D03*
X018880Y041620D03*
X018580Y041930D03*
X018570Y041940D03*
X018550Y041950D03*
X018530Y041960D03*
X018510Y041970D03*
X018490Y041980D03*
X018330Y041600D03*
X018340Y041590D03*
X018350Y041580D03*
X018360Y041570D03*
X018080Y041760D03*
X018070Y041780D03*
X018050Y041830D03*
X018040Y041850D03*
X018030Y041870D03*
X017980Y041930D03*
X017840Y042050D03*
X017830Y042070D03*
X017820Y042090D03*
X017620Y042440D03*
X017930Y041410D03*
X018560Y042410D03*
X018550Y042420D03*
X018360Y042690D03*
X018350Y042700D03*
X018340Y042710D03*
X018720Y042840D03*
X018990Y043000D03*
X019000Y042990D03*
X019010Y042980D03*
X018380Y043440D03*
X018380Y043450D03*
X018890Y044240D03*
X018450Y045730D03*
X018980Y045900D03*
X018950Y046210D03*
X019410Y047220D03*
X019440Y047210D03*
X019720Y047350D03*
X020030Y047120D03*
X020040Y047110D03*
X020080Y047080D03*
X020130Y047040D03*
X020140Y047030D03*
X020370Y046880D03*
X020380Y046870D03*
X020380Y046860D03*
X020390Y046850D03*
X020390Y046840D03*
X020400Y046830D03*
X020400Y046820D03*
X020410Y046810D03*
X020190Y047440D03*
X020180Y047450D03*
X020220Y047800D03*
X020160Y047830D03*
X020150Y047840D03*
X020710Y047830D03*
X020760Y047480D03*
X020770Y047470D03*
X021270Y047750D03*
X018890Y042170D03*
X018900Y042160D03*
X017660Y045720D03*
X017670Y045730D03*
X017760Y045790D03*
X017560Y046000D03*
X016710Y046900D03*
X016470Y047070D03*
X016170Y046820D03*
X016070Y047050D03*
X015600Y047410D03*
X015410Y047570D03*
X015380Y047550D03*
X015360Y047540D03*
X015310Y047510D03*
X015560Y047710D03*
X015570Y047720D03*
X016400Y047810D03*
X015910Y036780D03*
X015910Y036310D03*
X015460Y036330D03*
X014510Y036780D03*
D23*
X014515Y036310D03*
X016975Y036500D03*
X016975Y036800D03*
X017725Y038060D03*
X017725Y038070D03*
X017725Y038080D03*
X019095Y041150D03*
X019085Y041160D03*
X018875Y041290D03*
X018955Y041580D03*
X018935Y041590D03*
X018915Y041600D03*
X018895Y041610D03*
X018865Y041630D03*
X018835Y041650D03*
X018625Y041830D03*
X018625Y041840D03*
X018595Y041910D03*
X018585Y041920D03*
X018875Y042180D03*
X018645Y042340D03*
X018545Y042430D03*
X018325Y042720D03*
X018385Y043420D03*
X018385Y043430D03*
X019015Y042970D03*
X019025Y042960D03*
X018895Y044230D03*
X018965Y044520D03*
X018965Y045910D03*
X018925Y045920D03*
X018895Y045930D03*
X018925Y046220D03*
X018565Y046050D03*
X018455Y046360D03*
X017855Y045430D03*
X017775Y045400D03*
X017685Y045740D03*
X017695Y045750D03*
X017555Y046340D03*
X016155Y046810D03*
X016095Y047060D03*
X016115Y047070D03*
X016425Y047500D03*
X016445Y047510D03*
X016465Y047520D03*
X016375Y047800D03*
X015735Y047480D03*
X015615Y047420D03*
X015445Y047330D03*
X015285Y047500D03*
X015265Y047490D03*
X015395Y047560D03*
X015425Y047580D03*
X015465Y047610D03*
X015545Y047690D03*
X015555Y047700D03*
X017825Y042080D03*
X017835Y042060D03*
X017995Y041920D03*
X018025Y041880D03*
X018035Y041860D03*
X018315Y041620D03*
X018325Y041610D03*
X017825Y041500D03*
X017815Y041510D03*
X020735Y038080D03*
X020735Y038070D03*
X020735Y038060D03*
X019795Y046870D03*
X020015Y047130D03*
X020005Y047140D03*
X020155Y047020D03*
X020165Y047460D03*
X020155Y047470D03*
X020475Y047650D03*
X020605Y047580D03*
X020735Y047500D03*
X020745Y047490D03*
X020805Y047750D03*
X020725Y047810D03*
X020715Y047820D03*
X020515Y047980D03*
X020135Y047850D03*
X020115Y047860D03*
X020105Y047870D03*
X019705Y047360D03*
X019335Y047240D03*
D24*
X019670Y047380D03*
X019870Y047280D03*
X019880Y047270D03*
X019900Y047240D03*
X019910Y047230D03*
X019920Y047220D03*
X019930Y047210D03*
X019940Y047200D03*
X019950Y047190D03*
X019960Y047180D03*
X020200Y046990D03*
X020130Y047490D03*
X019980Y047570D03*
X019900Y047610D03*
X020040Y047910D03*
X020030Y047920D03*
X020060Y047900D03*
X020440Y048020D03*
X020460Y048010D03*
X020420Y047690D03*
X020740Y047790D03*
X019060Y044740D03*
X018830Y045950D03*
X018900Y046230D03*
X017890Y045440D03*
X017790Y045410D03*
X017730Y045780D03*
X017610Y046030D03*
X017600Y046370D03*
X016930Y046690D03*
X016850Y046630D03*
X016780Y046940D03*
X016940Y047010D03*
X016500Y047540D03*
X016370Y047470D03*
X016320Y047770D03*
X015760Y047500D03*
X016090Y046760D03*
X016080Y046750D03*
X016070Y046740D03*
X015240Y047480D03*
X018390Y047850D03*
X018760Y042810D03*
X018280Y042730D03*
X018670Y042330D03*
X018810Y042230D03*
X018820Y042220D03*
X018950Y041890D03*
X018800Y041680D03*
X018810Y041670D03*
X019010Y041550D03*
X018930Y041260D03*
X019030Y041200D03*
X019040Y041190D03*
X018490Y041100D03*
X018060Y041310D03*
X018050Y041320D03*
X018040Y041330D03*
X018030Y041340D03*
X018020Y041350D03*
X018010Y041360D03*
X017790Y041550D03*
X019570Y038040D03*
X019570Y037370D03*
X015910Y036770D03*
X015910Y036320D03*
X014510Y036770D03*
D25*
X015455Y036320D03*
X016495Y037370D03*
X017725Y038090D03*
X017725Y038100D03*
X017725Y038110D03*
X018835Y041310D03*
X018625Y041820D03*
X018915Y042150D03*
X018575Y042390D03*
X018565Y042400D03*
X018545Y042440D03*
X018365Y042670D03*
X018365Y042680D03*
X018275Y042740D03*
X018085Y043120D03*
X018405Y043400D03*
X018375Y043460D03*
X018375Y043470D03*
X018375Y043480D03*
X018365Y043500D03*
X018705Y042850D03*
X018975Y043020D03*
X018985Y043010D03*
X018265Y042160D03*
X018275Y042150D03*
X018285Y042140D03*
X018295Y042130D03*
X018225Y042190D03*
X017965Y041940D03*
X018045Y041840D03*
X018055Y041820D03*
X018055Y041810D03*
X018065Y041800D03*
X018065Y041790D03*
X018075Y041770D03*
X018095Y041750D03*
X017835Y041490D03*
X017845Y041480D03*
X017855Y041470D03*
X017865Y041460D03*
X017875Y041450D03*
X017905Y041430D03*
X017915Y041420D03*
X017855Y042040D03*
X017815Y042100D03*
X017625Y042420D03*
X017625Y042430D03*
X017605Y042450D03*
X017595Y042460D03*
X017645Y045310D03*
X017655Y045320D03*
X017765Y045390D03*
X017635Y045700D03*
X017645Y045710D03*
X017785Y045800D03*
X016185Y046830D03*
X015725Y047470D03*
X015585Y047400D03*
X015445Y047320D03*
X015345Y047530D03*
X015325Y047520D03*
X016415Y047820D03*
X016465Y047860D03*
X019375Y047230D03*
X019815Y046860D03*
X020055Y047100D03*
X020065Y047090D03*
X020095Y047070D03*
X020105Y047060D03*
X020115Y047050D03*
X020415Y046800D03*
X020425Y046790D03*
X020425Y046780D03*
X020435Y046770D03*
X020785Y047460D03*
X020485Y047640D03*
X020695Y047840D03*
X020535Y047970D03*
X020175Y047820D03*
X021005Y047930D03*
X021275Y047740D03*
X021485Y047870D03*
X021495Y047860D03*
X020735Y038110D03*
X020735Y038100D03*
X020735Y038090D03*
X021305Y037740D03*
X019535Y038020D03*
X019535Y037390D03*
D26*
X020735Y038040D03*
X020735Y038050D03*
X018915Y041270D03*
X018895Y041280D03*
X018515Y041090D03*
X018065Y041300D03*
X017995Y041370D03*
X017985Y041380D03*
X017805Y041530D03*
X017795Y041540D03*
X017545Y041720D03*
X018015Y041910D03*
X018275Y041660D03*
X018285Y041650D03*
X018295Y041640D03*
X018615Y041870D03*
X018615Y041880D03*
X018605Y041890D03*
X018835Y042210D03*
X018745Y042820D03*
X018905Y044220D03*
X018565Y045320D03*
X018865Y045940D03*
X019775Y046880D03*
X019865Y047290D03*
X019955Y047580D03*
X019935Y047590D03*
X019915Y047600D03*
X020075Y047890D03*
X020475Y048000D03*
X020435Y047680D03*
X020665Y047550D03*
X020185Y047000D03*
X021265Y047760D03*
X018405Y047240D03*
X017585Y046360D03*
X017595Y046020D03*
X017715Y045770D03*
X017705Y045760D03*
X016945Y046700D03*
X016955Y046710D03*
X016965Y046720D03*
X016975Y046730D03*
X016985Y046740D03*
X016915Y047000D03*
X016765Y046930D03*
X016745Y046920D03*
X016335Y047780D03*
X016045Y047040D03*
X016115Y046780D03*
X016105Y046770D03*
X015625Y047430D03*
X015605Y047740D03*
X017725Y038050D03*
X017725Y038040D03*
X016485Y036800D03*
X014515Y036320D03*
D27*
X014510Y036760D03*
X015910Y036760D03*
X015910Y036330D03*
X016470Y036540D03*
X018470Y041110D03*
X018750Y041000D03*
X018770Y040990D03*
X018880Y040920D03*
X019050Y041170D03*
X018980Y041230D03*
X018780Y041700D03*
X018770Y041710D03*
X018240Y041690D03*
X018690Y042320D03*
X018720Y042300D03*
X018750Y042280D03*
X018760Y042270D03*
X018770Y042260D03*
X018780Y042790D03*
X018960Y045530D03*
X018870Y046240D03*
X018080Y045480D03*
X017800Y045420D03*
X017640Y046390D03*
X016970Y047030D03*
X016800Y046950D03*
X016870Y046650D03*
X015960Y046640D03*
X015640Y046810D03*
X015840Y047540D03*
X019550Y047810D03*
X019560Y047800D03*
X019860Y047640D03*
X020010Y047560D03*
X020090Y047520D03*
X020260Y047790D03*
X020350Y047740D03*
X020380Y047720D03*
X020380Y048060D03*
X020370Y048070D03*
X019980Y047950D03*
X019640Y047400D03*
X020680Y047530D03*
X020760Y047760D03*
D28*
X020755Y047770D03*
X020745Y047780D03*
X020675Y047540D03*
X020405Y047700D03*
X020395Y047710D03*
X020425Y048030D03*
X020415Y048040D03*
X020395Y048050D03*
X020015Y047930D03*
X019995Y047940D03*
X019875Y047630D03*
X019885Y047620D03*
X020105Y047510D03*
X020115Y047500D03*
X019885Y047260D03*
X019895Y047250D03*
X019655Y047390D03*
X019745Y046890D03*
X019575Y046650D03*
X020215Y046980D03*
X021265Y047770D03*
X018755Y044830D03*
X018455Y045720D03*
X017625Y046040D03*
X017615Y046380D03*
X016855Y046640D03*
X016845Y046620D03*
X016955Y047020D03*
X016515Y047550D03*
X016355Y047460D03*
X016295Y047760D03*
X015825Y047530D03*
X015625Y047750D03*
X016055Y046730D03*
X016045Y046720D03*
X016035Y046710D03*
X016025Y046700D03*
X016015Y046690D03*
X016005Y046680D03*
X015995Y046670D03*
X015985Y046660D03*
X015975Y046650D03*
X018765Y042800D03*
X019055Y042940D03*
X018785Y042250D03*
X018795Y042240D03*
X019125Y041810D03*
X019035Y041540D03*
X018785Y041690D03*
X018945Y041250D03*
X018965Y041240D03*
X018995Y041220D03*
X019015Y041210D03*
X019045Y041180D03*
X018865Y040930D03*
X018845Y040940D03*
X018835Y040950D03*
X018815Y040960D03*
X018805Y040970D03*
X018785Y040980D03*
X018635Y041050D03*
X018265Y041670D03*
X018255Y041680D03*
X017785Y041560D03*
X017725Y038030D03*
X016955Y036790D03*
X016955Y036510D03*
X014515Y036330D03*
X020735Y038030D03*
D29*
X018090Y040830D03*
X018080Y040840D03*
X017570Y041220D03*
X018490Y042540D03*
X017640Y043640D03*
X017640Y043650D03*
X017640Y043660D03*
X017640Y043670D03*
X017640Y043680D03*
X017640Y043690D03*
X017640Y043700D03*
X017640Y043710D03*
X017640Y043790D03*
X017640Y043800D03*
X017640Y043810D03*
X017660Y044180D03*
X017670Y044220D03*
X017670Y044230D03*
X017680Y044250D03*
X017680Y044260D03*
X017680Y044270D03*
X017680Y044280D03*
X017690Y044290D03*
X017690Y044300D03*
X017690Y044310D03*
X017700Y044330D03*
X017700Y044340D03*
X017710Y044370D03*
X017720Y044400D03*
X017760Y044500D03*
X017770Y044520D03*
X017780Y044540D03*
X017790Y044560D03*
X017800Y044580D03*
X017810Y044600D03*
X017820Y044610D03*
X017830Y044630D03*
X017900Y044760D03*
X017630Y044870D03*
X017630Y044880D03*
X017620Y044860D03*
X017620Y044850D03*
X017610Y044840D03*
X017610Y044830D03*
X017600Y044820D03*
X017600Y044810D03*
X017590Y044790D03*
X017590Y044780D03*
X017580Y044770D03*
X017580Y044760D03*
X017570Y044740D03*
X017510Y044600D03*
X017500Y044590D03*
X017470Y045140D03*
X017470Y045150D03*
X017920Y045170D03*
X017930Y045180D03*
X018360Y045170D03*
X018380Y045180D03*
X018450Y044950D03*
X018430Y044940D03*
X018350Y044670D03*
X018340Y044650D03*
X018580Y044660D03*
X018580Y044670D03*
X018550Y044270D03*
X018550Y044260D03*
X018550Y044250D03*
X018550Y044240D03*
X018550Y044230D03*
X018820Y044340D03*
X018830Y044020D03*
X018250Y044100D03*
X018250Y044110D03*
X018250Y044120D03*
X018250Y044130D03*
X018250Y044140D03*
X018250Y044150D03*
X018250Y044160D03*
X018250Y044170D03*
X018250Y044180D03*
X018250Y044190D03*
X018250Y044200D03*
X018250Y044210D03*
X018250Y044220D03*
X017990Y044290D03*
X017990Y044300D03*
X017980Y044280D03*
X017980Y044270D03*
X018000Y044330D03*
X018280Y045570D03*
X018290Y045580D03*
X018300Y045590D03*
X018450Y045760D03*
X018060Y045610D03*
X018920Y045510D03*
X019170Y045770D03*
X019160Y045780D03*
X019190Y045760D03*
X019020Y046700D03*
X018520Y046680D03*
X018850Y047930D03*
X019560Y047110D03*
X019590Y047090D03*
X019600Y047080D03*
X019610Y047070D03*
X016370Y047930D03*
X016360Y047950D03*
X015380Y047230D03*
X015800Y036750D03*
X016020Y036750D03*
X016020Y036340D03*
X015800Y036340D03*
X014620Y036750D03*
X014400Y036750D03*
D30*
X014650Y036730D03*
X014660Y036720D03*
X014660Y036370D03*
X014650Y036360D03*
X014390Y036350D03*
X015370Y036340D03*
X015540Y036340D03*
X015770Y036360D03*
X015780Y036350D03*
X016050Y036360D03*
X016060Y036370D03*
X016310Y036570D03*
X016060Y036720D03*
X016050Y036730D03*
X015780Y036740D03*
X015770Y036730D03*
X018450Y040820D03*
X018870Y042530D03*
X018690Y043330D03*
X018820Y044050D03*
X018820Y044350D03*
X018550Y044340D03*
X018550Y044330D03*
X018550Y044320D03*
X018550Y044310D03*
X018550Y044300D03*
X018560Y044580D03*
X018560Y044590D03*
X018570Y044610D03*
X018570Y044620D03*
X018570Y044630D03*
X018330Y044630D03*
X018320Y044610D03*
X018320Y044600D03*
X018310Y044580D03*
X018270Y044420D03*
X018260Y044370D03*
X018260Y044360D03*
X018260Y044350D03*
X018260Y044340D03*
X018260Y044330D03*
X018260Y044320D03*
X018260Y044310D03*
X018020Y044390D03*
X018020Y044400D03*
X018030Y044430D03*
X018030Y044440D03*
X018040Y044460D03*
X018040Y044470D03*
X018040Y044480D03*
X018050Y044500D03*
X018050Y044510D03*
X018050Y044520D03*
X018060Y044530D03*
X018060Y044540D03*
X018060Y044550D03*
X018060Y044560D03*
X018070Y044570D03*
X018070Y044580D03*
X018070Y044590D03*
X018080Y044610D03*
X018080Y044620D03*
X017920Y044800D03*
X017920Y044810D03*
X017940Y045190D03*
X017950Y045200D03*
X017960Y045210D03*
X018060Y045620D03*
X018410Y044930D03*
X018010Y044360D03*
X017550Y044670D03*
X017550Y044680D03*
X017520Y044620D03*
X018820Y046460D03*
X018850Y046650D03*
X018840Y047920D03*
X019300Y048060D03*
X019530Y048050D03*
X020570Y047380D03*
X019210Y045740D03*
X019220Y045730D03*
X019120Y045490D03*
X017220Y047930D03*
X015370Y047210D03*
X015360Y047190D03*
D31*
X017485Y045160D03*
X017465Y045130D03*
X017665Y044920D03*
X017655Y044910D03*
X017595Y044800D03*
X017495Y044580D03*
X017485Y044570D03*
X017825Y044620D03*
X017835Y044640D03*
X017845Y044650D03*
X017885Y044720D03*
X017895Y044740D03*
X017895Y044750D03*
X017885Y045140D03*
X017895Y045150D03*
X017905Y045160D03*
X018335Y045160D03*
X018465Y044960D03*
X018485Y044970D03*
X018505Y044980D03*
X018525Y044990D03*
X018545Y045000D03*
X018585Y044680D03*
X018355Y044680D03*
X018555Y044220D03*
X018555Y044210D03*
X018555Y044200D03*
X018555Y044190D03*
X018555Y044180D03*
X018255Y044090D03*
X018255Y044080D03*
X018255Y044070D03*
X018255Y044060D03*
X018255Y044050D03*
X018255Y044040D03*
X018255Y044030D03*
X017965Y044230D03*
X017965Y044240D03*
X017975Y044250D03*
X017975Y044260D03*
X017675Y044240D03*
X017665Y044210D03*
X017665Y044200D03*
X017665Y044190D03*
X017655Y044170D03*
X017655Y044160D03*
X017655Y044150D03*
X017655Y044140D03*
X017655Y044130D03*
X017645Y044110D03*
X017645Y044100D03*
X017645Y044090D03*
X017645Y044080D03*
X017635Y043830D03*
X017635Y043820D03*
X017635Y043630D03*
X017725Y043290D03*
X018495Y042530D03*
X018815Y043090D03*
X018845Y044000D03*
X018835Y044010D03*
X018835Y044380D03*
X019215Y044980D03*
X019135Y045470D03*
X019145Y045790D03*
X019115Y045810D03*
X018705Y046370D03*
X018485Y046940D03*
X018165Y046660D03*
X018945Y047810D03*
X019285Y048050D03*
X019575Y047100D03*
X019625Y047060D03*
X019635Y047050D03*
X019645Y047040D03*
X020585Y047360D03*
X020855Y046730D03*
X020865Y046720D03*
X020865Y046710D03*
X020875Y046700D03*
X020885Y046690D03*
X021085Y046880D03*
X021095Y046870D03*
X021105Y046860D03*
X021115Y046850D03*
X021125Y046840D03*
X021135Y046830D03*
X021145Y046820D03*
X021155Y046810D03*
X021165Y046790D03*
X021175Y046780D03*
X021185Y046770D03*
X021195Y046760D03*
X021205Y046750D03*
X021245Y046700D03*
X021325Y047690D03*
X021315Y047700D03*
X014625Y036340D03*
D32*
X014635Y036350D03*
X014405Y036340D03*
X014385Y036740D03*
X014635Y036740D03*
X016035Y036740D03*
X016295Y036740D03*
X016035Y036350D03*
X016795Y036560D03*
X016795Y036740D03*
X018095Y040820D03*
X018485Y042550D03*
X018475Y042560D03*
X018835Y043080D03*
X018855Y043070D03*
X018865Y043060D03*
X019175Y043780D03*
X018825Y044030D03*
X018825Y044040D03*
X018825Y044360D03*
X018825Y044370D03*
X018545Y044290D03*
X018545Y044280D03*
X018255Y044280D03*
X018255Y044290D03*
X018255Y044300D03*
X018255Y044270D03*
X018255Y044260D03*
X018255Y044250D03*
X018255Y044240D03*
X018255Y044230D03*
X017995Y044310D03*
X017995Y044320D03*
X018005Y044340D03*
X018005Y044350D03*
X018015Y044370D03*
X018015Y044380D03*
X018025Y044410D03*
X018025Y044420D03*
X018035Y044450D03*
X018045Y044490D03*
X017805Y044590D03*
X017795Y044570D03*
X017785Y044550D03*
X017775Y044530D03*
X017765Y044510D03*
X017755Y044490D03*
X017755Y044480D03*
X017745Y044470D03*
X017745Y044460D03*
X017735Y044450D03*
X017735Y044440D03*
X017735Y044430D03*
X017725Y044420D03*
X017725Y044410D03*
X017715Y044390D03*
X017715Y044380D03*
X017705Y044360D03*
X017705Y044350D03*
X017695Y044320D03*
X017515Y044610D03*
X017555Y044690D03*
X017555Y044700D03*
X017565Y044710D03*
X017565Y044720D03*
X017565Y044730D03*
X017575Y044750D03*
X017635Y044890D03*
X017645Y044900D03*
X017905Y044780D03*
X017905Y044770D03*
X017915Y044790D03*
X018325Y044620D03*
X018335Y044640D03*
X018345Y044660D03*
X018375Y044780D03*
X018575Y044650D03*
X018575Y044640D03*
X019225Y044970D03*
X019125Y045480D03*
X019075Y045520D03*
X019195Y045750D03*
X018715Y046930D03*
X018515Y047050D03*
X018165Y046670D03*
X018045Y047640D03*
X017465Y047760D03*
X016475Y047290D03*
X016365Y047940D03*
X015375Y047220D03*
X015365Y047180D03*
X017645Y043780D03*
X017645Y043770D03*
X017645Y043760D03*
X017645Y043750D03*
X017645Y043740D03*
X017645Y043730D03*
X017645Y043720D03*
X020575Y047370D03*
X019535Y048060D03*
D33*
X019660Y047930D03*
X019660Y047920D03*
X019660Y047910D03*
X019660Y047900D03*
X019660Y047890D03*
X019660Y047880D03*
X018980Y047830D03*
X018810Y047900D03*
X018980Y047190D03*
X018040Y047250D03*
X018180Y046690D03*
X018060Y045640D03*
X018040Y045280D03*
X018030Y045270D03*
X018020Y045260D03*
X018240Y045230D03*
X018240Y045220D03*
X018250Y045240D03*
X018250Y045250D03*
X018250Y045260D03*
X018230Y045180D03*
X018230Y045170D03*
X018360Y044820D03*
X018360Y044810D03*
X018120Y044750D03*
X018120Y044740D03*
X017570Y045340D03*
X016470Y047320D03*
X015870Y048010D03*
X015440Y047850D03*
X018120Y042710D03*
X018860Y042520D03*
X018370Y041700D03*
X018520Y041570D03*
X017910Y041570D03*
X017540Y041250D03*
X017540Y041240D03*
X017530Y041260D03*
X017430Y041710D03*
X018390Y040860D03*
X019240Y044950D03*
X019240Y045700D03*
X020550Y047410D03*
X021400Y047790D03*
X016270Y036400D03*
D34*
X016465Y036530D03*
X016465Y036790D03*
X016945Y036780D03*
X016945Y036520D03*
X018915Y040900D03*
X018895Y040910D03*
X018735Y041010D03*
X018445Y041120D03*
X018595Y041410D03*
X018565Y041430D03*
X018425Y041550D03*
X018415Y041560D03*
X018735Y042290D03*
X018705Y042310D03*
X018785Y042780D03*
X019105Y041820D03*
X019055Y041530D03*
X018945Y045540D03*
X018095Y045500D03*
X018085Y045490D03*
X017665Y046060D03*
X017645Y046050D03*
X017665Y046400D03*
X017005Y046750D03*
X016875Y046660D03*
X016815Y046960D03*
X016985Y047040D03*
X016535Y047560D03*
X016335Y047450D03*
X016265Y047750D03*
X015775Y047510D03*
X015645Y047760D03*
X015695Y046840D03*
X015675Y046830D03*
X015655Y046820D03*
X015625Y046800D03*
X015605Y046790D03*
X015585Y046780D03*
X015565Y046770D03*
X015555Y046760D03*
X015535Y046750D03*
X015515Y046740D03*
X015945Y046620D03*
X015955Y046630D03*
X019535Y047820D03*
X019585Y047790D03*
X019845Y047650D03*
X020075Y047530D03*
X020285Y047780D03*
X020305Y047770D03*
X020335Y047750D03*
X020365Y047730D03*
X020685Y047520D03*
X019965Y047960D03*
X019945Y047970D03*
X021265Y047780D03*
D35*
X020065Y047540D03*
X020045Y047550D03*
X019835Y047660D03*
X019625Y047770D03*
X019515Y047840D03*
X019875Y048010D03*
X019895Y048000D03*
X019605Y046630D03*
X018925Y045550D03*
X018835Y045580D03*
X018805Y045590D03*
X018585Y045310D03*
X019005Y044750D03*
X017865Y045810D03*
X016895Y046680D03*
X016885Y046670D03*
X016845Y046980D03*
X016865Y046990D03*
X016315Y047440D03*
X015895Y047570D03*
X015875Y047560D03*
X015785Y047520D03*
X015665Y047770D03*
X015705Y047190D03*
X015665Y047170D03*
X015765Y046880D03*
X015745Y046870D03*
X015465Y046710D03*
X015445Y046700D03*
X015275Y046990D03*
X018285Y047540D03*
X018815Y042750D03*
X018825Y042740D03*
X019065Y041840D03*
X018945Y040880D03*
X018955Y040870D03*
X018425Y041130D03*
X018535Y041460D03*
X018525Y041470D03*
X018515Y041480D03*
X018465Y041520D03*
X016455Y036780D03*
X016455Y036550D03*
X016455Y036520D03*
X016935Y036540D03*
X016935Y036760D03*
D36*
X016940Y036770D03*
X016940Y036530D03*
X015010Y036530D03*
X015010Y036540D03*
X015010Y036550D03*
X015010Y036560D03*
X015010Y036570D03*
X015010Y036580D03*
X018550Y041440D03*
X018540Y041450D03*
X018580Y041420D03*
X018450Y041530D03*
X018440Y041540D03*
X018760Y041720D03*
X019080Y041830D03*
X019080Y041520D03*
X018720Y041020D03*
X018700Y041030D03*
X018930Y040890D03*
X018810Y042760D03*
X018800Y042770D03*
X018970Y044510D03*
X018900Y045560D03*
X018870Y045570D03*
X018790Y045960D03*
X018570Y046040D03*
X018460Y045710D03*
X018110Y045520D03*
X018100Y045510D03*
X017680Y046070D03*
X017000Y047050D03*
X016830Y046970D03*
X015730Y046860D03*
X015710Y046850D03*
X015500Y046730D03*
X015480Y046720D03*
X015690Y047180D03*
X015860Y047550D03*
X019530Y047830D03*
X019600Y047780D03*
X019600Y047420D03*
X019620Y047410D03*
X019720Y046900D03*
X019590Y046640D03*
X020230Y046970D03*
X020320Y047760D03*
X020690Y047510D03*
X019930Y047980D03*
X019910Y047990D03*
D37*
X019800Y048050D03*
X019780Y048060D03*
X019500Y047860D03*
X019810Y047680D03*
X019490Y047470D03*
X019690Y046910D03*
X019620Y046620D03*
X019480Y046670D03*
X019450Y046680D03*
X018470Y045700D03*
X018000Y045890D03*
X017990Y045880D03*
X017970Y045870D03*
X017960Y045860D03*
X017950Y045850D03*
X017930Y045840D03*
X017740Y046100D03*
X017220Y046850D03*
X017230Y046860D03*
X017250Y046870D03*
X017260Y046880D03*
X017280Y046890D03*
X017300Y046900D03*
X017200Y046840D03*
X017060Y047090D03*
X017040Y047080D03*
X016280Y047420D03*
X016060Y047650D03*
X016040Y047640D03*
X016010Y047630D03*
X015990Y047620D03*
X015970Y047610D03*
X015950Y047600D03*
X015930Y047590D03*
X015740Y047210D03*
X015820Y046910D03*
X015360Y046650D03*
X015340Y046640D03*
X015340Y047920D03*
X015360Y047930D03*
X015510Y048030D03*
X016520Y047870D03*
X016730Y047960D03*
X016750Y047980D03*
X017030Y048060D03*
X018490Y044720D03*
X018980Y044500D03*
X018860Y042700D03*
X018870Y042690D03*
X018880Y042670D03*
X018910Y042640D03*
X018970Y042590D03*
X018980Y042580D03*
X018120Y041290D03*
X018380Y041150D03*
X018990Y040850D03*
X016440Y036750D03*
D38*
X014050Y036750D03*
X014050Y036760D03*
X014050Y036770D03*
X014050Y036780D03*
X014050Y036790D03*
X014050Y036800D03*
X018330Y041170D03*
X018480Y045690D03*
X017870Y046150D03*
X017850Y046430D03*
X017560Y046660D03*
X017070Y046780D03*
X017240Y047180D03*
X017260Y047190D03*
X017280Y047200D03*
X016790Y047310D03*
X016770Y047300D03*
X016750Y047290D03*
X016250Y047400D03*
X016020Y047300D03*
X016170Y047720D03*
X015880Y047890D03*
X015850Y047870D03*
X016670Y047930D03*
X017270Y047860D03*
X017310Y047890D03*
X019260Y046990D03*
X019280Y046980D03*
X019750Y047720D03*
D39*
X019675Y047750D03*
X019815Y048040D03*
X019515Y047460D03*
X019535Y047450D03*
X019515Y046660D03*
X020255Y046960D03*
X018765Y045600D03*
X018495Y044730D03*
X018485Y044710D03*
X018135Y045550D03*
X018145Y045560D03*
X017915Y045830D03*
X017895Y045820D03*
X017725Y046090D03*
X017035Y046760D03*
X017025Y047070D03*
X016715Y047950D03*
X016745Y047970D03*
X015495Y048020D03*
X015475Y048010D03*
X015465Y048000D03*
X015445Y047990D03*
X015415Y047970D03*
X015405Y047960D03*
X015385Y047950D03*
X015375Y047940D03*
X015255Y046980D03*
X015395Y046670D03*
X015375Y046660D03*
X018835Y042730D03*
X018845Y042720D03*
X018855Y042710D03*
X018925Y042630D03*
X018945Y042610D03*
X018955Y042600D03*
X019045Y041850D03*
X018975Y040860D03*
X018495Y041500D03*
X018485Y041510D03*
X016445Y036760D03*
D40*
X016085Y037380D03*
X016085Y037390D03*
X016085Y037400D03*
X016085Y037410D03*
X016085Y037420D03*
X016085Y037430D03*
X016085Y037440D03*
X016085Y037450D03*
X016085Y037460D03*
X016085Y037470D03*
X016085Y037480D03*
X016085Y037490D03*
X016085Y037500D03*
X016085Y037510D03*
X016085Y037520D03*
X016085Y037530D03*
X016085Y037540D03*
X016085Y037550D03*
X016085Y037560D03*
X016085Y037570D03*
X016085Y037580D03*
X016085Y037590D03*
X016085Y037600D03*
X016085Y037610D03*
X016085Y037620D03*
X016085Y037630D03*
X016085Y037640D03*
X016085Y037650D03*
X016085Y037660D03*
X016085Y037670D03*
X016085Y037680D03*
X016085Y037690D03*
X016085Y037700D03*
X016085Y037710D03*
X016085Y037720D03*
X016085Y037730D03*
X016085Y037740D03*
X016085Y037750D03*
X016085Y037760D03*
X016085Y037770D03*
X016085Y037780D03*
X016085Y037790D03*
X016085Y037800D03*
X016085Y037810D03*
X016085Y037820D03*
X016085Y037830D03*
X016085Y037840D03*
X016085Y037850D03*
X016085Y037860D03*
X016085Y037870D03*
X016085Y037880D03*
X016085Y037890D03*
X016085Y037900D03*
X016085Y037910D03*
X016085Y037920D03*
X016085Y037930D03*
X016085Y037940D03*
X016085Y037950D03*
X016085Y037960D03*
X016085Y037970D03*
X016085Y037980D03*
X016085Y037990D03*
X016085Y038000D03*
X016085Y038010D03*
X016085Y038020D03*
X016085Y038030D03*
X016085Y038040D03*
X016085Y038050D03*
X016085Y038060D03*
X016085Y038070D03*
X016085Y038080D03*
X016085Y038090D03*
X016085Y038100D03*
X016085Y038110D03*
X016085Y038120D03*
X016085Y038130D03*
X016085Y038140D03*
X016085Y038150D03*
X016085Y038160D03*
X016085Y038170D03*
X016085Y038180D03*
X016475Y037960D03*
X016475Y037950D03*
X016475Y037940D03*
X016475Y037930D03*
X016475Y037920D03*
X016475Y037910D03*
X016475Y037900D03*
X016475Y037890D03*
X016485Y037860D03*
X016495Y037840D03*
X016505Y037830D03*
X016515Y037820D03*
X016445Y037600D03*
X016445Y037590D03*
X016435Y037570D03*
X016435Y037560D03*
X016435Y037550D03*
X016435Y037540D03*
X017055Y037540D03*
X017055Y037550D03*
X017055Y037560D03*
X017055Y037570D03*
X017055Y037580D03*
X017055Y037590D03*
X017055Y037600D03*
X017055Y037610D03*
X017055Y037620D03*
X017055Y037630D03*
X017055Y037640D03*
X017055Y037650D03*
X017055Y037660D03*
X017055Y037790D03*
X017055Y037800D03*
X017055Y037810D03*
X017055Y037820D03*
X017055Y037830D03*
X017055Y037840D03*
X017055Y037850D03*
X017055Y037860D03*
X017055Y037870D03*
X017055Y037880D03*
X017055Y037890D03*
X017055Y037900D03*
X017055Y037910D03*
X017055Y037920D03*
X017055Y037930D03*
X017055Y037940D03*
X017055Y037950D03*
X017055Y037960D03*
X017055Y037970D03*
X017055Y037980D03*
X017055Y037990D03*
X017055Y038000D03*
X017055Y038010D03*
X017055Y038020D03*
X017055Y038030D03*
X017055Y038040D03*
X017055Y037530D03*
X017055Y037520D03*
X017055Y037510D03*
X017055Y037500D03*
X017055Y037490D03*
X017055Y037480D03*
X017055Y037470D03*
X017055Y037460D03*
X017055Y037450D03*
X017055Y037440D03*
X017055Y037430D03*
X017055Y037420D03*
X017055Y037410D03*
X017055Y037400D03*
X017055Y037390D03*
X017055Y037380D03*
X017055Y037370D03*
X017415Y037390D03*
X017425Y037420D03*
X017435Y037440D03*
X017435Y037450D03*
X017445Y037470D03*
X017495Y037610D03*
X017505Y037630D03*
X017505Y037640D03*
X017515Y037650D03*
X017515Y037660D03*
X017515Y037670D03*
X017525Y037680D03*
X017525Y037690D03*
X017535Y037710D03*
X017535Y037720D03*
X017545Y037740D03*
X017555Y037760D03*
X017555Y037770D03*
X017565Y037790D03*
X017565Y037800D03*
X017575Y037820D03*
X017585Y037850D03*
X017895Y037770D03*
X017905Y037740D03*
X017915Y037720D03*
X017925Y037690D03*
X017935Y037660D03*
X017945Y037640D03*
X017945Y037630D03*
X017955Y037610D03*
X018005Y037480D03*
X018005Y037470D03*
X018015Y037460D03*
X018015Y037450D03*
X018015Y037440D03*
X018025Y037430D03*
X018025Y037420D03*
X018025Y037410D03*
X018035Y037400D03*
X018035Y037390D03*
X018045Y037370D03*
X018045Y037360D03*
X018055Y037350D03*
X018055Y037340D03*
X018065Y037320D03*
X018065Y037310D03*
X018075Y037290D03*
X018075Y037280D03*
X018085Y037260D03*
X018095Y037230D03*
X018465Y037230D03*
X018465Y037240D03*
X018465Y037250D03*
X018465Y037260D03*
X018465Y037270D03*
X018465Y037280D03*
X018465Y037290D03*
X018465Y037300D03*
X018465Y037310D03*
X018465Y037320D03*
X018465Y037330D03*
X018465Y037340D03*
X018465Y037350D03*
X018465Y037360D03*
X018465Y037370D03*
X018465Y037380D03*
X018465Y037390D03*
X018465Y037400D03*
X018465Y037410D03*
X018465Y037420D03*
X018465Y037430D03*
X018465Y037440D03*
X018465Y037450D03*
X018465Y037460D03*
X018465Y037470D03*
X018465Y037480D03*
X018465Y037490D03*
X018465Y037500D03*
X018465Y037510D03*
X018465Y037520D03*
X018465Y037530D03*
X018465Y037540D03*
X018465Y037550D03*
X018465Y037560D03*
X018465Y037570D03*
X018465Y037580D03*
X018465Y037590D03*
X018465Y037600D03*
X018465Y037610D03*
X018465Y037620D03*
X018465Y037630D03*
X018465Y037640D03*
X018465Y037650D03*
X018465Y037660D03*
X018465Y037670D03*
X018465Y037680D03*
X018465Y037690D03*
X018465Y037700D03*
X018465Y037710D03*
X018465Y037720D03*
X018465Y037730D03*
X018465Y037740D03*
X018465Y037750D03*
X018465Y037760D03*
X018465Y037770D03*
X018465Y037780D03*
X018465Y037790D03*
X018465Y037800D03*
X018465Y037810D03*
X018465Y037820D03*
X018465Y037830D03*
X018465Y037840D03*
X018465Y037850D03*
X018465Y037860D03*
X018465Y037870D03*
X018465Y037880D03*
X018465Y037890D03*
X018465Y037900D03*
X018465Y037910D03*
X018465Y037920D03*
X018465Y037930D03*
X018465Y037940D03*
X018465Y037950D03*
X018465Y037960D03*
X018465Y037970D03*
X018465Y037980D03*
X018465Y037990D03*
X018465Y038000D03*
X018465Y038010D03*
X018465Y038020D03*
X018465Y038030D03*
X019425Y037850D03*
X019425Y037840D03*
X019425Y037830D03*
X019415Y037800D03*
X019415Y037790D03*
X019415Y037780D03*
X019415Y037770D03*
X019415Y037760D03*
X019415Y037750D03*
X019415Y037740D03*
X019415Y037730D03*
X019415Y037720D03*
X019415Y037710D03*
X019415Y037700D03*
X019415Y037690D03*
X019415Y037680D03*
X019415Y037670D03*
X019415Y037660D03*
X019415Y037650D03*
X019415Y037640D03*
X019415Y037630D03*
X019415Y037620D03*
X019415Y037610D03*
X019425Y037580D03*
X019425Y037570D03*
X019425Y037560D03*
X019435Y037530D03*
X019435Y037880D03*
X020065Y037880D03*
X020065Y037890D03*
X020065Y037900D03*
X020065Y037910D03*
X020065Y037920D03*
X020065Y037930D03*
X020065Y037940D03*
X020065Y037950D03*
X020065Y037960D03*
X020065Y037970D03*
X020065Y037980D03*
X020065Y037990D03*
X020065Y038000D03*
X020065Y038010D03*
X020065Y038020D03*
X020065Y038030D03*
X020065Y038040D03*
X020065Y037870D03*
X020065Y037860D03*
X020065Y037850D03*
X020065Y037840D03*
X020065Y037830D03*
X020065Y037820D03*
X020065Y037810D03*
X020065Y037800D03*
X020065Y037790D03*
X020065Y037780D03*
X020065Y037770D03*
X020065Y037760D03*
X020065Y037750D03*
X020065Y037740D03*
X020065Y037730D03*
X020065Y037720D03*
X020065Y037710D03*
X020065Y037700D03*
X020065Y037690D03*
X020065Y037680D03*
X020065Y037670D03*
X020065Y037660D03*
X020065Y037650D03*
X020065Y037640D03*
X020065Y037630D03*
X020065Y037620D03*
X020065Y037610D03*
X020065Y037600D03*
X020065Y037590D03*
X020065Y037580D03*
X020065Y037570D03*
X020065Y037560D03*
X020065Y037550D03*
X020065Y037540D03*
X020065Y037530D03*
X020065Y037520D03*
X020065Y037510D03*
X020065Y037500D03*
X020065Y037490D03*
X020065Y037480D03*
X020065Y037470D03*
X020065Y037460D03*
X020065Y037450D03*
X020065Y037440D03*
X020065Y037430D03*
X020065Y037420D03*
X020065Y037410D03*
X020065Y037400D03*
X020065Y037390D03*
X020065Y037380D03*
X020065Y037370D03*
X020425Y037390D03*
X020435Y037420D03*
X020445Y037440D03*
X020445Y037450D03*
X020455Y037470D03*
X020505Y037610D03*
X020515Y037630D03*
X020515Y037640D03*
X020525Y037650D03*
X020525Y037660D03*
X020525Y037670D03*
X020535Y037680D03*
X020535Y037690D03*
X020545Y037710D03*
X020545Y037720D03*
X020555Y037740D03*
X020565Y037760D03*
X020565Y037770D03*
X020575Y037790D03*
X020575Y037800D03*
X020585Y037820D03*
X020595Y037850D03*
X020905Y037770D03*
X020915Y037740D03*
X020925Y037720D03*
X020935Y037690D03*
X020945Y037660D03*
X020955Y037640D03*
X020955Y037630D03*
X020965Y037610D03*
X021015Y037480D03*
X021015Y037470D03*
X021025Y037460D03*
X021025Y037450D03*
X021025Y037440D03*
X021035Y037430D03*
X021035Y037420D03*
X021035Y037410D03*
X021045Y037400D03*
X021045Y037390D03*
X021055Y037370D03*
X021055Y037360D03*
X021065Y037350D03*
X021065Y037340D03*
X021075Y037320D03*
X021075Y037310D03*
X021085Y037290D03*
X021085Y037280D03*
X021095Y037260D03*
X021105Y037230D03*
X021235Y037850D03*
X021235Y037860D03*
X021235Y037870D03*
X021235Y037880D03*
X021235Y037890D03*
X021235Y037900D03*
X021235Y037910D03*
X021235Y037920D03*
X021235Y037930D03*
X021235Y037940D03*
X021245Y037970D03*
X021815Y037970D03*
X021815Y037980D03*
X021815Y037990D03*
X021815Y038000D03*
X021815Y038010D03*
X021815Y038020D03*
X021815Y038030D03*
X021815Y038040D03*
X021815Y037960D03*
X021815Y037950D03*
X021815Y037940D03*
X021815Y037930D03*
X021815Y037920D03*
X021815Y037910D03*
X021815Y037900D03*
X021815Y037890D03*
X021815Y037880D03*
X021815Y037870D03*
X021815Y037860D03*
X021815Y037850D03*
X021815Y037840D03*
X021815Y037830D03*
X021815Y037820D03*
X021815Y037810D03*
X021815Y037800D03*
X021815Y037790D03*
X021815Y037780D03*
X021815Y037770D03*
X021815Y037760D03*
X021815Y037750D03*
X021815Y037740D03*
X021815Y037590D03*
X021815Y037580D03*
X021815Y037570D03*
X021815Y037560D03*
X021815Y037550D03*
X021815Y037540D03*
X021815Y037530D03*
X021815Y037520D03*
X021815Y037510D03*
X021815Y037500D03*
X021815Y037490D03*
X021815Y037480D03*
X021815Y037470D03*
X021815Y037460D03*
X021815Y037450D03*
X021815Y037440D03*
X021815Y037430D03*
X021815Y037420D03*
X021815Y037410D03*
X021815Y037400D03*
X021815Y037390D03*
X021815Y037380D03*
X021815Y037370D03*
X021815Y037360D03*
X021815Y037350D03*
X021815Y037340D03*
X021815Y037330D03*
X021815Y037320D03*
X021815Y037310D03*
X021815Y037300D03*
X021815Y037290D03*
X021815Y037280D03*
X021815Y037270D03*
X021815Y037260D03*
X021815Y037250D03*
X021815Y037240D03*
X021815Y037230D03*
X022425Y037230D03*
X022425Y037240D03*
X022425Y037250D03*
X022425Y037260D03*
X022425Y037270D03*
X022425Y037280D03*
X022425Y037290D03*
X022425Y037300D03*
X022425Y037310D03*
X022425Y037320D03*
X022425Y037330D03*
X022425Y037340D03*
X022425Y037350D03*
X022425Y037360D03*
X022425Y037370D03*
X022425Y037380D03*
X022425Y037390D03*
X022425Y037400D03*
X022425Y037410D03*
X022425Y037420D03*
X022425Y037430D03*
X022425Y037440D03*
X022425Y037450D03*
X022425Y037460D03*
X022425Y037470D03*
X022425Y037480D03*
X022425Y037490D03*
X022425Y037500D03*
X022425Y037510D03*
X022425Y037520D03*
X022425Y037530D03*
X022425Y037540D03*
X022425Y037550D03*
X022425Y037560D03*
X022425Y037570D03*
X022425Y037580D03*
X022425Y037590D03*
X022425Y037600D03*
X022425Y037610D03*
X022425Y037620D03*
X022425Y037630D03*
X022425Y037640D03*
X022425Y037650D03*
X022425Y037660D03*
X022425Y037670D03*
X022425Y037680D03*
X022425Y037690D03*
X022425Y037700D03*
X022425Y037710D03*
X022425Y037720D03*
X022425Y037730D03*
X022425Y037740D03*
X022425Y037750D03*
X022425Y037760D03*
X022425Y037770D03*
X022425Y037780D03*
X022425Y037790D03*
X022425Y037800D03*
X022425Y037810D03*
X022425Y037820D03*
X022425Y037830D03*
X022425Y037840D03*
X022425Y037850D03*
X022425Y037860D03*
X022425Y037870D03*
X022425Y037880D03*
X022425Y037890D03*
X022425Y037900D03*
X022425Y037910D03*
X022425Y037920D03*
X022425Y037930D03*
X022425Y037940D03*
X022425Y037950D03*
X022425Y037960D03*
X022425Y037970D03*
X022425Y037980D03*
X022425Y037990D03*
X022425Y038000D03*
X022425Y038010D03*
X022425Y038020D03*
X022425Y038030D03*
X018625Y042930D03*
X018615Y042940D03*
X018605Y042950D03*
X018605Y042960D03*
X018595Y042970D03*
X018585Y042990D03*
X018575Y043010D03*
X018245Y042860D03*
X018235Y042870D03*
X018275Y042800D03*
X018515Y042500D03*
X018125Y042360D03*
X018125Y042350D03*
X018125Y042340D03*
X018125Y042330D03*
X018125Y042320D03*
X018135Y042300D03*
X018135Y042290D03*
X018015Y042470D03*
X017965Y042540D03*
X017955Y042550D03*
X017945Y042570D03*
X017935Y042580D03*
X017925Y042600D03*
X017915Y042610D03*
X017915Y042620D03*
X017905Y042630D03*
X017895Y042650D03*
X017885Y042670D03*
X017875Y042690D03*
X017865Y042710D03*
X017675Y042310D03*
X017685Y042300D03*
X017685Y042290D03*
X017695Y042280D03*
X017705Y042260D03*
X017715Y042240D03*
X017725Y042230D03*
X017725Y043190D03*
X017725Y043200D03*
X017715Y043230D03*
X017715Y043240D03*
X017705Y043270D03*
X017685Y043340D03*
X017635Y043510D03*
X017975Y043590D03*
X017975Y043600D03*
X017975Y043610D03*
X017975Y043620D03*
X017965Y043660D03*
X017965Y043670D03*
X017965Y043680D03*
X017965Y043690D03*
X017965Y043700D03*
X017965Y043710D03*
X017965Y043720D03*
X017965Y043730D03*
X017965Y043740D03*
X017965Y043750D03*
X017965Y043760D03*
X017955Y043830D03*
X017955Y043840D03*
X017955Y043850D03*
X017955Y043860D03*
X017945Y043910D03*
X017915Y044040D03*
X017915Y044050D03*
X017915Y044060D03*
X017915Y044070D03*
X017935Y044170D03*
X018245Y043890D03*
X018245Y043880D03*
X018245Y043870D03*
X018255Y043860D03*
X018255Y043850D03*
X018255Y043840D03*
X018255Y043830D03*
X018265Y043800D03*
X018275Y043790D03*
X018275Y043780D03*
X018585Y043950D03*
X018645Y043710D03*
X018655Y043690D03*
X018665Y043680D03*
X018665Y043670D03*
X018675Y043650D03*
X018685Y043640D03*
X018695Y043620D03*
X018795Y043500D03*
X018805Y043490D03*
X018815Y043480D03*
X018825Y043470D03*
X018845Y043450D03*
X018875Y043960D03*
X018865Y043970D03*
X019155Y044110D03*
X018855Y044410D03*
X018045Y044930D03*
X017805Y045060D03*
X017795Y045050D03*
X017785Y045040D03*
X017775Y045030D03*
X017765Y045020D03*
X017755Y045010D03*
X017745Y045000D03*
X017735Y044990D03*
X017725Y044980D03*
X017535Y045200D03*
X017545Y045210D03*
X018455Y045750D03*
X018255Y046020D03*
X018465Y046380D03*
X018815Y046470D03*
X019055Y045850D03*
X018915Y045520D03*
X019505Y047160D03*
X019795Y047300D03*
X020015Y046720D03*
X020025Y046710D03*
X020525Y046680D03*
X020535Y046670D03*
X020545Y046660D03*
X020795Y046770D03*
X020845Y047110D03*
X020835Y047120D03*
X020825Y047130D03*
X020815Y047140D03*
X020955Y047340D03*
X020945Y047350D03*
X020975Y047330D03*
X021095Y047220D03*
X021095Y047210D03*
X021105Y047200D03*
X021115Y047190D03*
X021335Y047310D03*
X021345Y047300D03*
X021355Y047290D03*
X021365Y047280D03*
X021375Y047270D03*
X021385Y047650D03*
X021375Y047660D03*
X021075Y047560D03*
X020935Y047680D03*
X020905Y047700D03*
X021125Y047870D03*
X020875Y048050D03*
X020865Y048060D03*
X020855Y048070D03*
X020365Y047270D03*
X020375Y047260D03*
X020385Y047250D03*
X020415Y047210D03*
X020425Y047200D03*
X021535Y046760D03*
X017885Y041000D03*
X017775Y041070D03*
X017765Y041080D03*
X018015Y040910D03*
X018025Y040900D03*
X015295Y038030D03*
X015295Y038020D03*
X015295Y038010D03*
X015295Y038000D03*
X015295Y037990D03*
X015295Y037980D03*
X015295Y037970D03*
X015295Y037960D03*
X015295Y037950D03*
X015295Y037940D03*
X015295Y037930D03*
X015295Y037920D03*
X015295Y037910D03*
X015295Y037900D03*
X015295Y037890D03*
X015295Y037880D03*
X015295Y037870D03*
X015295Y037860D03*
X015295Y037850D03*
X015295Y037840D03*
X015295Y037830D03*
X015295Y037820D03*
X015295Y037810D03*
X015295Y037800D03*
X015295Y037650D03*
X015295Y037640D03*
X015295Y037630D03*
X015295Y037620D03*
X015295Y037610D03*
X015295Y037600D03*
X015295Y037590D03*
X015295Y037580D03*
X015295Y037570D03*
X015295Y037560D03*
X015295Y037550D03*
X015295Y037540D03*
X015295Y037530D03*
X015295Y037520D03*
X015295Y037510D03*
X015295Y037500D03*
X015295Y037490D03*
X015295Y037480D03*
X015295Y037470D03*
X015295Y037460D03*
X015295Y037450D03*
X015295Y037440D03*
X015295Y037430D03*
X015295Y037420D03*
X015295Y037410D03*
X015295Y037400D03*
X015295Y037390D03*
X015295Y037380D03*
X014205Y037380D03*
X014205Y037390D03*
X014205Y037400D03*
X014205Y037410D03*
X014205Y037420D03*
X014205Y037430D03*
X014205Y037440D03*
X014205Y037450D03*
X014205Y037460D03*
X014205Y037470D03*
X014205Y037480D03*
X014205Y037490D03*
X014205Y037500D03*
X014205Y037510D03*
X014205Y037520D03*
X014205Y037530D03*
X014205Y037540D03*
X014205Y037550D03*
X014205Y037560D03*
X014205Y037570D03*
X014205Y037580D03*
X014205Y037590D03*
X014205Y037600D03*
X014205Y037610D03*
X014205Y037620D03*
X014205Y037630D03*
X014205Y037640D03*
X014205Y037650D03*
X014205Y037660D03*
X014205Y037670D03*
X014205Y037680D03*
X014205Y037690D03*
X014205Y037700D03*
X014205Y037710D03*
X014205Y037720D03*
X014205Y037730D03*
X014205Y037740D03*
X014205Y037750D03*
X014205Y037760D03*
X014205Y037770D03*
X014205Y037780D03*
X014205Y037790D03*
X014205Y037800D03*
X014205Y037810D03*
X014205Y037820D03*
X014205Y037830D03*
X014205Y037840D03*
X014205Y037850D03*
X014205Y037860D03*
X014205Y037870D03*
X014205Y037880D03*
X014205Y037890D03*
X014205Y037900D03*
X014205Y037910D03*
X014205Y037920D03*
X014205Y037930D03*
X014205Y037940D03*
X014205Y037950D03*
X014205Y037960D03*
X014205Y037970D03*
X014205Y037980D03*
X014205Y037990D03*
X014205Y038000D03*
X014205Y038010D03*
X014205Y038020D03*
X014205Y038030D03*
X014205Y037370D03*
X014205Y037360D03*
X014205Y037350D03*
X014205Y037340D03*
X014205Y037330D03*
X014205Y037320D03*
X014205Y037310D03*
X014205Y037300D03*
X014205Y037290D03*
X014205Y037280D03*
X014205Y037270D03*
X014205Y037260D03*
X014205Y037250D03*
X014205Y037240D03*
X014205Y037230D03*
X016555Y046760D03*
X016565Y046770D03*
X016575Y046780D03*
X016475Y047040D03*
X016315Y046910D03*
D41*
X016055Y047310D03*
X016215Y047380D03*
X016065Y047950D03*
X016175Y048000D03*
X016185Y048020D03*
X015895Y047900D03*
X015775Y047820D03*
X016855Y047350D03*
X016875Y047360D03*
X017145Y047790D03*
X017245Y047830D03*
X017255Y047840D03*
X017335Y047900D03*
X017505Y047940D03*
X017495Y047290D03*
X017465Y047280D03*
X017445Y047270D03*
X017605Y047000D03*
X017605Y046680D03*
X017955Y046480D03*
X017975Y046490D03*
X017965Y046180D03*
X018495Y045680D03*
X019015Y044470D03*
X018535Y043300D03*
X018555Y043250D03*
X018565Y043240D03*
X018575Y043220D03*
X018175Y041260D03*
X018285Y041190D03*
X019925Y038180D03*
X019925Y037230D03*
X017095Y046800D03*
X016945Y048030D03*
X018275Y047530D03*
X019255Y047560D03*
X019225Y047250D03*
D42*
X019110Y047050D03*
X019040Y047060D03*
X018830Y048020D03*
X017660Y047350D03*
X017360Y046920D03*
X017690Y046710D03*
X018070Y046540D03*
X018520Y045670D03*
X017000Y047740D03*
X016870Y048000D03*
X016890Y048010D03*
X016660Y047610D03*
X016650Y047260D03*
X016960Y047410D03*
X016130Y047330D03*
X018240Y041210D03*
X016890Y037230D03*
D43*
X016810Y037270D03*
X016810Y037770D03*
X015840Y037370D03*
X015840Y037360D03*
X015840Y037350D03*
X015840Y037340D03*
X015840Y037330D03*
X015840Y037320D03*
X015840Y037310D03*
X015840Y037300D03*
X015840Y037290D03*
X015840Y037280D03*
X015840Y037270D03*
X015840Y037260D03*
X015840Y037250D03*
X015840Y037240D03*
X015840Y037230D03*
X018930Y045100D03*
X019180Y046730D03*
X018880Y047370D03*
X017680Y048000D03*
X021570Y038110D03*
X021570Y037670D03*
D44*
X021550Y037710D03*
X021550Y038070D03*
X019800Y038070D03*
X019800Y037340D03*
X016790Y038100D03*
X015030Y037370D03*
X015030Y037360D03*
X015030Y037350D03*
X015030Y037340D03*
X015030Y037330D03*
X015030Y037320D03*
X015030Y037310D03*
X015030Y037300D03*
X015030Y037290D03*
X015030Y037280D03*
X015030Y037270D03*
X015030Y037260D03*
X015030Y037250D03*
X015030Y037240D03*
X015030Y037230D03*
X018480Y046010D03*
X018560Y046320D03*
X018820Y047390D03*
X019020Y047640D03*
X019140Y047940D03*
X019130Y047970D03*
X017370Y047580D03*
D45*
X017000Y047430D03*
X016830Y047990D03*
X017370Y046930D03*
X017720Y046720D03*
X018090Y046550D03*
X018630Y047410D03*
X018840Y045180D03*
X018870Y045170D03*
X015560Y047160D03*
X016880Y038180D03*
X019890Y038170D03*
X019890Y037240D03*
D46*
X016855Y037240D03*
X018655Y045250D03*
X018185Y046240D03*
X019005Y047330D03*
X019115Y047610D03*
X019225Y047920D03*
X019335Y047880D03*
X017585Y047970D03*
X017195Y047510D03*
X017165Y047500D03*
X016925Y047710D03*
X016715Y047630D03*
D47*
X016595Y047920D03*
X017095Y047470D03*
X017115Y047480D03*
X017375Y046940D03*
X017675Y047020D03*
X017755Y046730D03*
X018565Y046350D03*
X018095Y045900D03*
X016125Y047980D03*
X016125Y047990D03*
X019875Y038160D03*
X019875Y037250D03*
D48*
X016835Y037250D03*
X016835Y038160D03*
X018665Y045240D03*
X018135Y045910D03*
X018235Y046250D03*
X018845Y046550D03*
X018255Y047510D03*
X017605Y047980D03*
X017275Y047540D03*
X016875Y047690D03*
X016565Y047240D03*
X016545Y047230D03*
X016525Y047220D03*
X016505Y047210D03*
X016475Y047190D03*
X016455Y047180D03*
X016445Y047170D03*
X016425Y047160D03*
X016415Y047150D03*
X016385Y047130D03*
X016355Y047110D03*
X016325Y047090D03*
X016305Y047080D03*
D49*
X016130Y047960D03*
X017220Y047520D03*
X017790Y046740D03*
X018350Y046630D03*
X018970Y046490D03*
X018990Y046480D03*
X018900Y045140D03*
X018770Y044790D03*
X019250Y047910D03*
X019860Y038150D03*
X019860Y037260D03*
X021610Y037620D03*
X021610Y038160D03*
X016850Y038170D03*
D50*
X016820Y037760D03*
X016820Y037260D03*
X019830Y037290D03*
X019830Y038120D03*
X021580Y038130D03*
X021580Y037650D03*
X018780Y044780D03*
X018920Y045110D03*
X018580Y045630D03*
X018170Y045930D03*
X017840Y047390D03*
X018910Y047360D03*
D51*
X018970Y047340D03*
X019090Y047620D03*
X019280Y047900D03*
X018270Y046920D03*
X018860Y046540D03*
X018910Y045130D03*
X017250Y047530D03*
X016900Y047700D03*
X016770Y047650D03*
X016400Y047140D03*
X016370Y047120D03*
X016340Y047100D03*
X019850Y038140D03*
X019850Y037270D03*
X021600Y037630D03*
X021600Y038150D03*
D52*
X021590Y038140D03*
X021590Y037640D03*
X019840Y037280D03*
X019840Y038130D03*
X016830Y037750D03*
X016830Y037740D03*
X018920Y045120D03*
X018570Y045640D03*
X017830Y046750D03*
X017750Y047360D03*
X017780Y047370D03*
X016850Y047680D03*
X016820Y047670D03*
X016800Y047660D03*
X016490Y047200D03*
X016280Y048060D03*
X016290Y048070D03*
D53*
X017730Y048010D03*
X018250Y047500D03*
X018850Y047380D03*
X018590Y045610D03*
X019810Y038090D03*
X019810Y037320D03*
X020730Y037540D03*
X021560Y037680D03*
X021560Y037690D03*
X021560Y038090D03*
X017720Y037540D03*
X016800Y037720D03*
X016800Y038120D03*
X016800Y037280D03*
D54*
X016795Y037290D03*
X016795Y037710D03*
X016795Y038110D03*
X017725Y037530D03*
X017725Y037520D03*
X019805Y037330D03*
X019805Y038080D03*
X020735Y037530D03*
X020735Y037520D03*
X021555Y037700D03*
X021555Y038080D03*
X018935Y045090D03*
X018695Y045210D03*
X019145Y046740D03*
X018305Y047220D03*
X019135Y047950D03*
X019135Y047960D03*
X015035Y038180D03*
X015035Y038170D03*
X015035Y038160D03*
X015035Y038150D03*
X015035Y038140D03*
X015035Y038130D03*
X015035Y038120D03*
X015035Y038110D03*
X015035Y038100D03*
X015035Y038090D03*
X015035Y038080D03*
X015035Y038070D03*
X015035Y038060D03*
X015035Y038050D03*
X015035Y038040D03*
D55*
X015055Y037790D03*
X015055Y037780D03*
X015055Y037770D03*
X015055Y037760D03*
X015055Y037750D03*
X015055Y037740D03*
X015055Y037730D03*
X015055Y037720D03*
X015055Y037710D03*
X015055Y037700D03*
X015055Y037690D03*
X015055Y037680D03*
X015055Y037670D03*
X015055Y037660D03*
X016815Y037730D03*
X016815Y038140D03*
X017725Y037590D03*
X017725Y037580D03*
X017725Y037570D03*
X019825Y037300D03*
X019825Y038110D03*
X020735Y037590D03*
X020735Y037580D03*
X020735Y037570D03*
X021575Y037660D03*
X021575Y038120D03*
X018185Y045940D03*
X018565Y046330D03*
X019215Y046720D03*
X019055Y047630D03*
X017915Y047410D03*
X017875Y047400D03*
X017635Y047990D03*
X017325Y047560D03*
D56*
X018785Y047400D03*
X018995Y048010D03*
X019475Y046950D03*
X019485Y046940D03*
X019495Y046930D03*
X019105Y046750D03*
X016785Y038090D03*
X016785Y037700D03*
X016785Y037300D03*
X017725Y037500D03*
X017725Y037510D03*
X019795Y037350D03*
X019795Y038060D03*
X020735Y037510D03*
X020735Y037500D03*
X021545Y037720D03*
X021545Y037730D03*
X021545Y038050D03*
X021545Y038060D03*
D57*
X021565Y038100D03*
X020735Y037560D03*
X020735Y037550D03*
X019815Y037310D03*
X019815Y038100D03*
X017725Y037560D03*
X017725Y037550D03*
X016805Y037780D03*
X016805Y038130D03*
X018685Y045220D03*
X018585Y045620D03*
X017865Y046760D03*
X017345Y047570D03*
X019015Y048000D03*
X019085Y047980D03*
D58*
X019460Y046960D03*
X018700Y045200D03*
X017910Y046770D03*
X017490Y047610D03*
X017780Y048020D03*
X016780Y038080D03*
X016780Y038070D03*
X016780Y037690D03*
X016780Y037310D03*
X017720Y037490D03*
X019790Y037360D03*
X019790Y038050D03*
X020730Y037490D03*
D59*
X016775Y037320D03*
X016775Y037680D03*
X016775Y038050D03*
X016775Y038060D03*
X017785Y047040D03*
X017525Y047620D03*
X017435Y047600D03*
X017395Y047590D03*
X018875Y047660D03*
D60*
X018310Y047210D03*
X018550Y046310D03*
X019060Y046760D03*
X016770Y037670D03*
X016770Y037330D03*
D61*
X016765Y037340D03*
X018245Y047490D03*
X017565Y047630D03*
D62*
X017810Y047050D03*
X016760Y037360D03*
X016760Y037350D03*
D63*
X016465Y037390D03*
X016485Y037650D03*
X016495Y038020D03*
X016505Y038030D03*
X017725Y038140D03*
X017725Y038150D03*
X017725Y038160D03*
X017985Y040940D03*
X017975Y040950D03*
X017695Y041130D03*
X017685Y041140D03*
X017605Y041200D03*
X017705Y041590D03*
X017695Y041600D03*
X017905Y041980D03*
X017885Y042000D03*
X017775Y042160D03*
X017645Y042370D03*
X017645Y042380D03*
X017535Y042530D03*
X017525Y042540D03*
X017525Y042550D03*
X017515Y042560D03*
X017785Y042900D03*
X017785Y042910D03*
X017775Y042930D03*
X017775Y042940D03*
X017765Y042960D03*
X018185Y042940D03*
X018275Y042760D03*
X018005Y042500D03*
X018175Y042240D03*
X018405Y042020D03*
X018435Y042000D03*
X018635Y041780D03*
X018685Y041390D03*
X018665Y042880D03*
X018555Y043070D03*
X018465Y043340D03*
X018335Y043610D03*
X018335Y043620D03*
X018335Y043630D03*
X018325Y043640D03*
X018325Y043650D03*
X018325Y043660D03*
X018315Y043680D03*
X018005Y043390D03*
X018005Y043380D03*
X018015Y043360D03*
X018015Y043350D03*
X018015Y043340D03*
X018985Y043290D03*
X019105Y043210D03*
X018985Y043770D03*
X018915Y043900D03*
X018905Y043910D03*
X018885Y044430D03*
X018535Y045330D03*
X018705Y046360D03*
X019035Y046170D03*
X019055Y046160D03*
X019075Y046150D03*
X019135Y046120D03*
X019155Y046110D03*
X019465Y047190D03*
X019765Y047320D03*
X020255Y047380D03*
X020265Y047370D03*
X020555Y047590D03*
X020625Y047290D03*
X020665Y047260D03*
X020675Y047250D03*
X020855Y047410D03*
X021075Y047260D03*
X021165Y047130D03*
X021225Y047070D03*
X021175Y047450D03*
X021285Y047730D03*
X021035Y047920D03*
X020855Y047730D03*
X020595Y047940D03*
X020515Y047070D03*
X020525Y047060D03*
X020535Y047050D03*
X020545Y047040D03*
X020715Y046840D03*
X020725Y046830D03*
X020735Y046810D03*
X020495Y046710D03*
X020485Y046720D03*
X019895Y046810D03*
X017755Y045370D03*
X017605Y045270D03*
X017595Y045260D03*
X017585Y045250D03*
X017505Y045590D03*
X017515Y045600D03*
X016665Y046870D03*
X016505Y046730D03*
X015525Y047360D03*
X020735Y038160D03*
X020735Y038150D03*
X020735Y038140D03*
X021285Y038030D03*
X019495Y037990D03*
X019495Y037420D03*
D64*
X019490Y037430D03*
X019480Y037440D03*
X019480Y037970D03*
X019490Y037980D03*
X021270Y038020D03*
X021260Y037780D03*
X021270Y037770D03*
X018760Y041350D03*
X018740Y041360D03*
X018710Y041380D03*
X018640Y041770D03*
X018420Y042010D03*
X018160Y042250D03*
X018110Y042380D03*
X018010Y042490D03*
X018270Y042770D03*
X018200Y042920D03*
X018190Y042930D03*
X017810Y042840D03*
X017800Y042860D03*
X017800Y042870D03*
X017790Y042880D03*
X017790Y042890D03*
X017780Y042920D03*
X017730Y043110D03*
X017730Y043120D03*
X017730Y043130D03*
X017730Y043140D03*
X017660Y043390D03*
X017650Y043430D03*
X018000Y043430D03*
X018000Y043420D03*
X018000Y043410D03*
X018000Y043400D03*
X018010Y043370D03*
X018440Y043380D03*
X018450Y043370D03*
X018460Y043360D03*
X018460Y043350D03*
X018320Y043670D03*
X018310Y043690D03*
X018310Y043700D03*
X018230Y043950D03*
X018230Y043960D03*
X018230Y043970D03*
X018220Y043980D03*
X017910Y044110D03*
X017910Y044120D03*
X017910Y044130D03*
X018100Y044980D03*
X018110Y044990D03*
X018120Y045000D03*
X018130Y045010D03*
X018140Y045020D03*
X018150Y045030D03*
X018160Y045040D03*
X018170Y045050D03*
X018180Y045060D03*
X018750Y044840D03*
X018860Y044280D03*
X018900Y043920D03*
X018860Y043420D03*
X018990Y043280D03*
X019000Y043270D03*
X018660Y042890D03*
X018530Y042480D03*
X017890Y041990D03*
X017770Y042170D03*
X017760Y042180D03*
X017650Y042360D03*
X017510Y042570D03*
X017500Y042580D03*
X017600Y041700D03*
X017660Y041630D03*
X017670Y041620D03*
X017680Y041610D03*
X017710Y041120D03*
X016490Y038010D03*
X016550Y037790D03*
X016460Y037400D03*
X019140Y045450D03*
X019110Y046130D03*
X019090Y046140D03*
X019480Y047180D03*
X019910Y046800D03*
X020500Y047090D03*
X020500Y047100D03*
X020490Y047110D03*
X020510Y047080D03*
X020550Y047030D03*
X020560Y047020D03*
X020700Y046860D03*
X020710Y046850D03*
X020760Y046790D03*
X020740Y047200D03*
X020730Y047210D03*
X020720Y047220D03*
X020700Y047230D03*
X020690Y047240D03*
X020620Y047300D03*
X020870Y047400D03*
X021030Y047300D03*
X021080Y047250D03*
X021150Y047140D03*
X021230Y047400D03*
X021220Y047410D03*
X021210Y047420D03*
X021200Y047430D03*
X021190Y047440D03*
X021160Y047460D03*
X021150Y047470D03*
X021140Y047480D03*
X021130Y047490D03*
X021420Y047620D03*
X021430Y047610D03*
X021440Y047600D03*
X021450Y047590D03*
X021460Y047580D03*
X021470Y047570D03*
X021480Y047560D03*
X021490Y047550D03*
X021500Y047540D03*
X021510Y047530D03*
X021520Y047520D03*
X021180Y047810D03*
X021170Y047820D03*
X021160Y047830D03*
X020940Y047990D03*
X020930Y048000D03*
X020920Y048010D03*
X020870Y047720D03*
X020580Y047950D03*
X020280Y047360D03*
X020290Y047350D03*
X020300Y047340D03*
X020310Y047330D03*
X018380Y047860D03*
X018560Y046060D03*
X016250Y046870D03*
X015420Y047290D03*
D65*
X015410Y047030D03*
X015400Y047020D03*
X015740Y047780D03*
X015910Y047910D03*
X016200Y048040D03*
X016570Y047890D03*
X017030Y047750D03*
X017210Y047810D03*
X017370Y047910D03*
X017600Y047330D03*
X017630Y047340D03*
X017660Y046700D03*
X017760Y046410D03*
X018030Y046520D03*
X017120Y046820D03*
X016640Y047250D03*
X016190Y047360D03*
X019180Y047030D03*
X019200Y047580D03*
X019710Y048070D03*
X018220Y041230D03*
X018260Y041200D03*
X021660Y038180D03*
X021660Y037600D03*
D66*
X020735Y037600D03*
X017725Y037600D03*
X016825Y038150D03*
X018675Y045230D03*
X018155Y045920D03*
X018815Y046560D03*
X018295Y047230D03*
X017815Y047380D03*
X017725Y047030D03*
X017295Y047550D03*
X018935Y047350D03*
X019035Y047990D03*
D67*
X018780Y048030D03*
X019150Y047600D03*
X018340Y046640D03*
X018650Y045260D03*
X018810Y045190D03*
X018880Y045160D03*
X017070Y047460D03*
X016690Y047620D03*
X021630Y038170D03*
X021630Y037610D03*
D68*
X020960Y037620D03*
X020950Y037650D03*
X020940Y037670D03*
X020940Y037680D03*
X020930Y037700D03*
X020930Y037710D03*
X020920Y037730D03*
X020910Y037750D03*
X020910Y037760D03*
X020900Y037780D03*
X020900Y037790D03*
X020890Y037800D03*
X020890Y037810D03*
X020890Y037820D03*
X020880Y037830D03*
X020880Y037840D03*
X020880Y037850D03*
X020870Y037860D03*
X020870Y037870D03*
X020860Y037890D03*
X020860Y037900D03*
X020850Y037920D03*
X020840Y037940D03*
X020840Y037950D03*
X020830Y037970D03*
X020830Y037980D03*
X020820Y038000D03*
X020660Y038020D03*
X020650Y038000D03*
X020650Y037990D03*
X020640Y037980D03*
X020640Y037970D03*
X020640Y037960D03*
X020630Y037950D03*
X020630Y037940D03*
X020620Y037930D03*
X020620Y037920D03*
X020620Y037910D03*
X020610Y037900D03*
X020610Y037890D03*
X020610Y037880D03*
X020600Y037870D03*
X020600Y037860D03*
X020590Y037840D03*
X020590Y037830D03*
X020580Y037810D03*
X020570Y037780D03*
X020560Y037750D03*
X020550Y037730D03*
X020540Y037700D03*
X017950Y037620D03*
X017940Y037650D03*
X017930Y037670D03*
X017930Y037680D03*
X017920Y037700D03*
X017920Y037710D03*
X017910Y037730D03*
X017900Y037750D03*
X017900Y037760D03*
X017890Y037780D03*
X017890Y037790D03*
X017880Y037800D03*
X017880Y037810D03*
X017880Y037820D03*
X017870Y037830D03*
X017870Y037840D03*
X017870Y037850D03*
X017860Y037860D03*
X017860Y037870D03*
X017850Y037890D03*
X017850Y037900D03*
X017840Y037920D03*
X017830Y037940D03*
X017830Y037950D03*
X017820Y037970D03*
X017820Y037980D03*
X017810Y038000D03*
X017650Y038020D03*
X017640Y038000D03*
X017640Y037990D03*
X017630Y037980D03*
X017630Y037970D03*
X017630Y037960D03*
X017620Y037950D03*
X017620Y037940D03*
X017610Y037930D03*
X017610Y037920D03*
X017610Y037910D03*
X017600Y037900D03*
X017600Y037890D03*
X017600Y037880D03*
X017590Y037870D03*
X017590Y037860D03*
X017580Y037840D03*
X017580Y037830D03*
X017570Y037810D03*
X017560Y037780D03*
X017550Y037750D03*
X017540Y037730D03*
X017530Y037700D03*
X016490Y037850D03*
X016480Y037870D03*
X016480Y037880D03*
X018030Y040890D03*
X017860Y041010D03*
X017830Y041030D03*
X017800Y041050D03*
X017790Y041060D03*
X017710Y042250D03*
X017700Y042270D03*
X018020Y042460D03*
X018030Y042450D03*
X018130Y042310D03*
X018510Y042510D03*
X018270Y042810D03*
X018270Y042820D03*
X018590Y042980D03*
X018840Y043460D03*
X018650Y043700D03*
X018640Y043720D03*
X018640Y043730D03*
X018630Y043740D03*
X018630Y043750D03*
X018620Y043760D03*
X018620Y043770D03*
X018620Y043780D03*
X018610Y043800D03*
X018610Y043810D03*
X018600Y043840D03*
X018600Y043850D03*
X018600Y043860D03*
X018590Y043890D03*
X018590Y043900D03*
X018590Y043910D03*
X018590Y043920D03*
X018590Y043930D03*
X018590Y043940D03*
X018580Y043960D03*
X018580Y043970D03*
X018580Y043980D03*
X018580Y043990D03*
X018580Y044000D03*
X018580Y044010D03*
X018580Y044020D03*
X018570Y044070D03*
X018860Y043980D03*
X019010Y044190D03*
X019030Y044180D03*
X019050Y044170D03*
X019080Y044150D03*
X019100Y044140D03*
X019120Y044130D03*
X019140Y044120D03*
X018840Y044310D03*
X018240Y043990D03*
X018260Y043820D03*
X018260Y043810D03*
X017940Y043920D03*
X017920Y044030D03*
X017940Y044180D03*
X017640Y043550D03*
X017640Y043540D03*
X017640Y043530D03*
X017640Y043520D03*
X017700Y043320D03*
X018030Y044920D03*
X017820Y045080D03*
X017810Y045070D03*
X017720Y044970D03*
X017520Y045190D03*
X017720Y045330D03*
X017730Y045340D03*
X018060Y045590D03*
X018160Y046650D03*
X018500Y046670D03*
X018860Y046640D03*
X019520Y047150D03*
X019700Y046990D03*
X020030Y046700D03*
X020040Y046690D03*
X020050Y046680D03*
X020060Y046670D03*
X020070Y046660D03*
X020080Y046650D03*
X020090Y046640D03*
X020100Y046630D03*
X020110Y046620D03*
X020600Y047330D03*
X020860Y047100D03*
X020870Y047090D03*
X020880Y047080D03*
X020890Y047070D03*
X020810Y046760D03*
X020940Y046620D03*
X021280Y047040D03*
X021360Y046960D03*
X021370Y046950D03*
X021380Y046940D03*
X021390Y046930D03*
X021430Y046880D03*
X021440Y046870D03*
X021450Y046860D03*
X021460Y046850D03*
X021470Y046840D03*
X021480Y046830D03*
X021490Y046810D03*
X021500Y046800D03*
X021510Y046790D03*
X021520Y046780D03*
X021530Y046770D03*
X021540Y046750D03*
X021440Y047210D03*
X021430Y047220D03*
X021420Y047230D03*
X021410Y047240D03*
X021400Y047250D03*
X021390Y047260D03*
X021360Y047670D03*
X021310Y047720D03*
X021110Y047880D03*
X021100Y047890D03*
X021090Y047900D03*
X020950Y047670D03*
X020960Y047660D03*
X020990Y047640D03*
X021000Y047630D03*
X021010Y047620D03*
X021020Y047610D03*
X021030Y047600D03*
X021040Y047590D03*
X021050Y047580D03*
X021060Y047570D03*
X019270Y048040D03*
X016550Y046750D03*
X016330Y046920D03*
X016470Y047030D03*
X015400Y047260D03*
X019050Y043230D03*
X019060Y043220D03*
D69*
X018465Y038180D03*
X018465Y038170D03*
X018465Y038160D03*
X018465Y038150D03*
X018465Y038140D03*
X018465Y038130D03*
X018465Y038120D03*
X018465Y038110D03*
X018465Y038100D03*
X018465Y038090D03*
X018465Y038080D03*
X018465Y038070D03*
X018465Y038060D03*
X018465Y038050D03*
X018465Y038040D03*
X022425Y038040D03*
X022425Y038050D03*
X022425Y038060D03*
X022425Y038070D03*
X022425Y038080D03*
X022425Y038090D03*
X022425Y038100D03*
X022425Y038110D03*
X022425Y038120D03*
X022425Y038130D03*
X022425Y038140D03*
X022425Y038150D03*
X022425Y038160D03*
X022425Y038170D03*
X022425Y038180D03*
X014205Y038180D03*
X014205Y038170D03*
X014205Y038160D03*
X014205Y038150D03*
X014205Y038140D03*
X014205Y038130D03*
X014205Y038120D03*
X014205Y038110D03*
X014205Y038100D03*
X014205Y038090D03*
X014205Y038080D03*
X014205Y038070D03*
X014205Y038060D03*
X014205Y038050D03*
X014205Y038040D03*
D70*
X016520Y038040D03*
X017950Y040980D03*
X017640Y041170D03*
X017630Y041180D03*
X017890Y041440D03*
X018110Y041740D03*
X017950Y041950D03*
X017860Y042030D03*
X017810Y042110D03*
X017800Y042120D03*
X017630Y042410D03*
X017590Y042470D03*
X018090Y042420D03*
X018100Y042410D03*
X018200Y042210D03*
X018210Y042200D03*
X018240Y042180D03*
X018250Y042170D03*
X018310Y042120D03*
X018320Y042110D03*
X018330Y042100D03*
X018340Y042090D03*
X018350Y042080D03*
X018360Y042070D03*
X018370Y042060D03*
X018630Y041810D03*
X018930Y042140D03*
X018950Y042130D03*
X018580Y042380D03*
X018540Y042450D03*
X018400Y042570D03*
X018400Y042580D03*
X018370Y042660D03*
X018140Y043010D03*
X018130Y043030D03*
X018120Y043040D03*
X018120Y043050D03*
X018110Y043060D03*
X018110Y043070D03*
X018100Y043080D03*
X018100Y043090D03*
X018090Y043100D03*
X018090Y043110D03*
X018080Y043130D03*
X018080Y043140D03*
X018070Y043150D03*
X018070Y043160D03*
X018060Y043180D03*
X018060Y043190D03*
X017730Y043060D03*
X017730Y043050D03*
X017730Y043040D03*
X017740Y043020D03*
X018370Y043490D03*
X018360Y043510D03*
X018360Y043520D03*
X018360Y043530D03*
X018570Y043080D03*
X018940Y043050D03*
X018950Y043040D03*
X018960Y043030D03*
X018950Y043840D03*
X018880Y044250D03*
X017630Y045300D03*
X017600Y045670D03*
X017610Y045680D03*
X017620Y045690D03*
X017550Y045990D03*
X016700Y046890D03*
X016200Y046840D03*
X016460Y047850D03*
X015710Y047460D03*
X015570Y047390D03*
X018970Y046200D03*
X019830Y046850D03*
X019850Y046840D03*
X019740Y047340D03*
X020200Y047430D03*
X020210Y047420D03*
X020500Y047630D03*
X020690Y047850D03*
X020680Y047860D03*
X020670Y047870D03*
X020990Y047940D03*
X021460Y047900D03*
X021470Y047890D03*
X021480Y047880D03*
X021060Y047290D03*
X021190Y047090D03*
X020800Y047450D03*
X020450Y046760D03*
X020190Y047810D03*
X018820Y041320D03*
X021300Y038040D03*
D71*
X018315Y038580D03*
X018315Y038590D03*
X018315Y038600D03*
X018315Y038610D03*
X018315Y038620D03*
X018315Y038630D03*
X018315Y038640D03*
X018315Y038650D03*
X018315Y038660D03*
X018315Y038670D03*
X018315Y038680D03*
X018315Y038690D03*
X018315Y038700D03*
X018315Y038710D03*
X018315Y038720D03*
X018315Y038730D03*
X018315Y038740D03*
X018315Y038750D03*
X018315Y038760D03*
X018315Y038770D03*
X018315Y038780D03*
X018315Y038790D03*
X018315Y038800D03*
X018315Y038810D03*
X018315Y038820D03*
X018315Y038830D03*
X018315Y038840D03*
X018315Y038850D03*
X018315Y038860D03*
X018315Y038870D03*
X018315Y038880D03*
X018315Y038890D03*
X018315Y038900D03*
X018315Y038910D03*
X018315Y038920D03*
X018315Y038930D03*
X018315Y038940D03*
X018315Y038950D03*
X018315Y038960D03*
X018315Y038970D03*
X018315Y038980D03*
X018315Y038990D03*
X018315Y039000D03*
X018315Y039010D03*
X018315Y039020D03*
X018315Y039030D03*
X018315Y039040D03*
X018315Y039050D03*
X018315Y039060D03*
X018315Y039070D03*
X018315Y039080D03*
X018315Y039090D03*
X018315Y039100D03*
X018315Y039110D03*
X018315Y039120D03*
X018315Y039130D03*
X018315Y039140D03*
X018315Y039150D03*
X018315Y039160D03*
X018315Y039170D03*
X018315Y039180D03*
X018315Y039190D03*
X018315Y039200D03*
X018315Y039210D03*
X018315Y039220D03*
X018315Y039230D03*
X018315Y039240D03*
X018315Y039250D03*
X018315Y039260D03*
X018315Y039270D03*
X018315Y039280D03*
X018315Y039290D03*
X018315Y039300D03*
X018315Y039310D03*
X018315Y039320D03*
X018315Y039330D03*
X018315Y039340D03*
X018315Y039350D03*
X018315Y039360D03*
X018315Y039370D03*
X018315Y039380D03*
X018315Y039390D03*
X018315Y039400D03*
X018315Y039410D03*
X018315Y039420D03*
X018315Y039430D03*
X018315Y039440D03*
X018315Y039450D03*
X018315Y039460D03*
X018315Y039470D03*
X018315Y039480D03*
X018315Y039490D03*
X018315Y039500D03*
X018315Y039510D03*
X018315Y039520D03*
X018315Y039530D03*
X018315Y039540D03*
X018315Y039550D03*
X018315Y039560D03*
X018315Y039570D03*
X018315Y039580D03*
X018315Y039590D03*
X018315Y039600D03*
X018315Y039610D03*
X018315Y039620D03*
X018315Y039630D03*
X018315Y039640D03*
X018315Y039650D03*
X018315Y039660D03*
X018315Y039670D03*
X018315Y039680D03*
X018315Y039690D03*
X018315Y039700D03*
X018315Y039710D03*
X018315Y039720D03*
X018315Y039730D03*
X018315Y039740D03*
X018315Y039750D03*
X018315Y039760D03*
X018315Y039770D03*
X018315Y039780D03*
X018315Y039790D03*
X018315Y039800D03*
X018315Y039810D03*
X018315Y039820D03*
X018315Y039830D03*
X018315Y039840D03*
X018315Y039850D03*
X018315Y039860D03*
X018315Y039870D03*
X018315Y039880D03*
X018315Y039890D03*
X018315Y039900D03*
X018315Y039910D03*
X018315Y039920D03*
X018315Y039930D03*
X018315Y039940D03*
X018315Y039950D03*
X018315Y039960D03*
X018315Y039970D03*
X018315Y039980D03*
X018315Y039990D03*
X018315Y040000D03*
X018315Y040010D03*
X018315Y040020D03*
X018315Y040030D03*
X018315Y040040D03*
X018315Y040050D03*
X018315Y040060D03*
X018315Y040070D03*
X018315Y040080D03*
X018315Y040090D03*
X018315Y040100D03*
X018315Y040110D03*
X018315Y040120D03*
X018315Y040130D03*
X018315Y040140D03*
X018315Y040150D03*
X018315Y040160D03*
X018315Y040170D03*
X018315Y040180D03*
X018315Y040190D03*
X018315Y040200D03*
X018315Y040210D03*
X018315Y040220D03*
X018315Y040230D03*
X018315Y040240D03*
X018315Y040250D03*
X018315Y040260D03*
X018315Y040270D03*
X018315Y040280D03*
X018315Y040290D03*
X018315Y040300D03*
X018315Y040310D03*
X018315Y040320D03*
X018315Y040330D03*
X018315Y040340D03*
X018315Y040350D03*
X018315Y040360D03*
X018315Y040370D03*
X018315Y040380D03*
X018315Y040390D03*
X018315Y040400D03*
X018315Y040410D03*
X018315Y040420D03*
X018315Y040430D03*
X018315Y040440D03*
X018315Y040450D03*
X018315Y040460D03*
X018315Y040470D03*
X018315Y040480D03*
X018315Y040490D03*
X018315Y040500D03*
X018315Y040510D03*
X018315Y040520D03*
X018315Y040530D03*
X018315Y040540D03*
X018315Y040550D03*
X018315Y040560D03*
X018315Y040570D03*
X018315Y040580D03*
X018315Y040590D03*
X018315Y040600D03*
X018315Y040610D03*
X018315Y040620D03*
X018315Y040630D03*
X018315Y040640D03*
X018315Y040650D03*
X018315Y040660D03*
X018315Y040670D03*
X018315Y040680D03*
X018315Y040690D03*
X018315Y040700D03*
X018315Y040710D03*
X018315Y040720D03*
X018315Y040730D03*
X018315Y040740D03*
X018315Y040750D03*
X018315Y040760D03*
X018315Y040770D03*
X018315Y040780D03*
X018315Y040790D03*
X018315Y040800D03*
X018315Y040810D03*
X018315Y048080D03*
X018315Y048090D03*
X018315Y048100D03*
X018315Y048110D03*
X018315Y048120D03*
X018315Y048130D03*
X018315Y048140D03*
X018315Y048150D03*
X018315Y048160D03*
X018315Y048170D03*
X018315Y048180D03*
X018315Y048190D03*
X018315Y048200D03*
X018315Y048210D03*
X018315Y048220D03*
X018315Y048230D03*
X018315Y048240D03*
X018315Y048250D03*
X018315Y048260D03*
X018315Y048270D03*
X018315Y048280D03*
X018315Y048290D03*
X018315Y048300D03*
X018315Y048310D03*
X018315Y048320D03*
X018315Y048330D03*
X018315Y048340D03*
X018315Y048350D03*
X018315Y048360D03*
X018315Y048370D03*
X018315Y048380D03*
X018315Y048390D03*
X018315Y048400D03*
X018315Y048410D03*
X018315Y048420D03*
X018315Y048430D03*
X018315Y048440D03*
X018315Y048450D03*
X018315Y048460D03*
X018315Y048470D03*
X018315Y048480D03*
X018315Y048490D03*
X018315Y048500D03*
X018315Y048510D03*
X018315Y048520D03*
X018315Y048530D03*
X018315Y048540D03*
X018315Y048550D03*
X018315Y048560D03*
X018315Y048570D03*
X018315Y048580D03*
X018315Y048590D03*
X018315Y048600D03*
X018315Y048610D03*
X018315Y048620D03*
X018315Y048630D03*
X018315Y048640D03*
X018315Y048650D03*
X018315Y048660D03*
X018315Y048670D03*
X018315Y048680D03*
X018315Y048690D03*
X018315Y048700D03*
X018315Y048710D03*
X018315Y048720D03*
X018315Y048730D03*
X018315Y048740D03*
X018315Y048750D03*
X018315Y048760D03*
X018315Y048770D03*
X018315Y048780D03*
X018315Y048790D03*
X018315Y048800D03*
X018315Y048810D03*
X018315Y048820D03*
X018315Y048830D03*
X018315Y048840D03*
X018315Y048850D03*
X018315Y048860D03*
X018315Y048870D03*
X018315Y048880D03*
X018315Y048890D03*
X018315Y048900D03*
X018315Y048910D03*
X018315Y048920D03*
X018315Y048930D03*
X018315Y048940D03*
X018315Y048950D03*
X018315Y048960D03*
X018315Y048970D03*
X018315Y048980D03*
X018315Y048990D03*
X018315Y049000D03*
X018315Y049010D03*
X018315Y049020D03*
X018315Y049030D03*
X018315Y049040D03*
X018315Y049050D03*
X018315Y049060D03*
X018315Y049070D03*
X018315Y049080D03*
X018315Y049090D03*
X018315Y049100D03*
X018315Y049110D03*
X018315Y049120D03*
X018315Y049130D03*
X018315Y049140D03*
X018315Y049150D03*
X018315Y049160D03*
X018315Y049170D03*
X018315Y049180D03*
X018315Y049190D03*
X018315Y049200D03*
X018315Y049210D03*
X018315Y049220D03*
X018315Y049230D03*
X018315Y049240D03*
X018315Y049250D03*
X018315Y049260D03*
X018315Y049270D03*
X018315Y049280D03*
X018315Y049290D03*
X018315Y049300D03*
X018315Y049310D03*
X018315Y049320D03*
X018315Y049330D03*
X018315Y049340D03*
X018315Y049350D03*
X018315Y049360D03*
X018315Y049370D03*
X018315Y049380D03*
X018315Y049390D03*
X018315Y049400D03*
X018315Y049410D03*
X018315Y049420D03*
X018315Y049430D03*
X018315Y049440D03*
X018315Y049450D03*
X018315Y049460D03*
X018315Y049470D03*
X018315Y049480D03*
X018315Y049490D03*
X018315Y049500D03*
X018315Y049510D03*
X018315Y049520D03*
X018315Y049530D03*
X018315Y049540D03*
X018315Y049550D03*
X018315Y049560D03*
X018315Y049570D03*
X018315Y049580D03*
X018315Y049590D03*
X018315Y049600D03*
X018315Y049610D03*
X018315Y049620D03*
X018315Y049630D03*
X018315Y049640D03*
X018315Y049650D03*
X018315Y049660D03*
X018315Y049670D03*
X018315Y049680D03*
X018315Y049690D03*
X018315Y049700D03*
X018315Y049710D03*
X018315Y049720D03*
X018315Y049730D03*
X018315Y049740D03*
X018315Y049750D03*
X018315Y049760D03*
X018315Y049770D03*
X018315Y049780D03*
X018315Y049790D03*
X018315Y049800D03*
X018315Y049810D03*
X018315Y049820D03*
X018315Y049830D03*
X018315Y049840D03*
X018315Y049850D03*
X018315Y049860D03*
X018315Y049870D03*
X018315Y049880D03*
X018315Y049890D03*
X018315Y049900D03*
X018315Y049910D03*
X018315Y049920D03*
X018315Y049930D03*
X018315Y049940D03*
X018315Y049950D03*
X018315Y049960D03*
X018315Y049970D03*
X018315Y049980D03*
X018315Y049990D03*
X018315Y050000D03*
X018315Y050010D03*
X018315Y050020D03*
X018315Y050030D03*
X018315Y050040D03*
X018315Y050050D03*
X018315Y050060D03*
X018315Y050070D03*
X018315Y050080D03*
X018315Y050090D03*
X018315Y050100D03*
X018315Y050110D03*
X018315Y050120D03*
X018315Y050130D03*
X018315Y050140D03*
X018315Y050150D03*
X018315Y050160D03*
X018315Y050170D03*
X018315Y050180D03*
X018315Y050190D03*
X018315Y050200D03*
X018315Y050210D03*
X018315Y050220D03*
X018315Y050230D03*
X018315Y050240D03*
X018315Y050250D03*
X018315Y050260D03*
X018315Y050270D03*
X018315Y050280D03*
X018315Y050290D03*
X018315Y050300D03*
X018315Y050310D03*
X018315Y050320D03*
X018315Y050330D03*
X018315Y050340D03*
X018315Y050350D03*
X018315Y050360D03*
X018315Y050370D03*
X018315Y050380D03*
X018315Y050390D03*
X018315Y050400D03*
X018315Y050410D03*
X018315Y050420D03*
X018315Y050430D03*
X018315Y050440D03*
X018315Y050450D03*
X018315Y050460D03*
X018315Y050470D03*
X018315Y050480D03*
X018315Y050490D03*
X018315Y050500D03*
X018315Y050510D03*
X018315Y050520D03*
X018315Y050530D03*
X018315Y050540D03*
X018315Y050550D03*
X018315Y050560D03*
X018315Y050570D03*
X018315Y050580D03*
X018315Y050590D03*
X018315Y050600D03*
X018315Y050610D03*
X018315Y050620D03*
X018315Y050630D03*
X018315Y050640D03*
X018315Y050650D03*
X018315Y050660D03*
X018315Y050670D03*
X018315Y050680D03*
X018315Y050690D03*
X018315Y050700D03*
X018315Y050710D03*
X018315Y050720D03*
D72*
X021055Y046610D03*
X021055Y046600D03*
X021055Y046590D03*
X021055Y046580D03*
X021055Y046570D03*
X021055Y046560D03*
X021055Y046550D03*
X021055Y046540D03*
X021055Y046530D03*
X021055Y046520D03*
X021055Y046510D03*
X021055Y046500D03*
X021055Y046490D03*
X021055Y046330D03*
X021055Y046320D03*
X021055Y046310D03*
X021055Y046300D03*
X021055Y046290D03*
X021055Y046280D03*
X021055Y046270D03*
X021055Y046260D03*
X021055Y046250D03*
X021055Y046240D03*
X021055Y046230D03*
X021055Y046220D03*
X021055Y046210D03*
X021055Y046200D03*
X021055Y046190D03*
X021055Y046180D03*
X021055Y046170D03*
X021055Y046160D03*
X021055Y046150D03*
X021055Y046140D03*
X021055Y046130D03*
X021055Y046120D03*
X021055Y046110D03*
X021055Y045960D03*
X021055Y045950D03*
X021055Y045940D03*
X021055Y045930D03*
X021055Y045920D03*
X021055Y045910D03*
X021055Y045900D03*
X021055Y045890D03*
X021055Y045880D03*
X021055Y045870D03*
X021055Y045860D03*
X021055Y045850D03*
X021055Y045840D03*
X021055Y045830D03*
X021055Y045820D03*
X021055Y045810D03*
X021055Y045800D03*
X021055Y045790D03*
X021055Y045780D03*
X021055Y045770D03*
X021055Y045760D03*
X021055Y045750D03*
X021055Y045740D03*
X021055Y045730D03*
X021055Y045720D03*
X021055Y045710D03*
X021055Y045700D03*
X021055Y045690D03*
X021055Y045680D03*
X021055Y045670D03*
X021055Y045660D03*
X021055Y045650D03*
X021055Y045640D03*
X021055Y045630D03*
X021055Y045620D03*
X021055Y045610D03*
X021055Y045600D03*
X021055Y045590D03*
X021055Y045580D03*
X021055Y045570D03*
X021055Y045560D03*
X021055Y045550D03*
X021055Y045540D03*
X021055Y045530D03*
X021055Y045520D03*
X021055Y045510D03*
X021055Y045500D03*
X021055Y045490D03*
X021055Y045480D03*
X021055Y045470D03*
X021055Y045460D03*
X021055Y045450D03*
X021055Y045440D03*
X021055Y045270D03*
X021055Y045260D03*
X021055Y045250D03*
X021055Y045240D03*
X021055Y045230D03*
X021055Y045220D03*
X021055Y045210D03*
X021055Y045200D03*
X021055Y045190D03*
X021055Y045180D03*
X021055Y045170D03*
X021055Y045160D03*
X021055Y045150D03*
X021055Y045140D03*
X021055Y045130D03*
X021055Y045120D03*
X021055Y045110D03*
X021055Y045100D03*
X021055Y044980D03*
X021055Y044970D03*
X021055Y044960D03*
X021055Y044950D03*
X021055Y044940D03*
X021055Y044930D03*
X021055Y044920D03*
X021055Y044910D03*
X021055Y044900D03*
X021055Y044890D03*
X021055Y044880D03*
X021055Y044870D03*
X021055Y044860D03*
X021055Y044850D03*
X021055Y044840D03*
X021055Y044830D03*
X021055Y044820D03*
X021055Y044810D03*
X021055Y044800D03*
X021055Y044790D03*
X021055Y044780D03*
X021055Y044770D03*
X021055Y044760D03*
X021055Y044750D03*
X021055Y044740D03*
X021055Y044730D03*
X021055Y044720D03*
X021055Y044550D03*
X021055Y044540D03*
X021055Y044530D03*
X021055Y044520D03*
X021055Y044510D03*
X021055Y044500D03*
X021055Y044490D03*
X021055Y044480D03*
X021055Y044470D03*
X021055Y044460D03*
X021055Y044300D03*
X021055Y044290D03*
X021055Y044280D03*
X021055Y044270D03*
X021055Y044260D03*
X021055Y044250D03*
X021055Y044240D03*
X021055Y044230D03*
X021055Y044220D03*
X021055Y044210D03*
X021055Y044200D03*
X021055Y044190D03*
X021055Y044180D03*
X021055Y044170D03*
X021055Y044160D03*
X021055Y044150D03*
X021055Y044140D03*
X021055Y044130D03*
X021055Y044120D03*
X021055Y044110D03*
X021055Y044100D03*
X021055Y043990D03*
X021055Y043980D03*
X021055Y043970D03*
X021055Y043960D03*
X021055Y043950D03*
X021055Y043940D03*
X021055Y043930D03*
X021055Y043920D03*
X021055Y043910D03*
X021055Y043900D03*
X021055Y043890D03*
X021055Y043880D03*
X021055Y043870D03*
X021055Y043860D03*
X021055Y043850D03*
X021055Y043840D03*
X021055Y043830D03*
X021055Y043820D03*
X021055Y043810D03*
X021055Y043800D03*
X021055Y043790D03*
X021055Y043780D03*
X021055Y043580D03*
X021055Y043570D03*
X021055Y043560D03*
X021055Y043550D03*
X021055Y043540D03*
X021055Y043360D03*
X021055Y043350D03*
X021055Y043340D03*
X021055Y043330D03*
X021055Y043320D03*
X021055Y043310D03*
X021055Y043300D03*
X021055Y043290D03*
X021055Y043280D03*
X021055Y043270D03*
X021055Y043260D03*
X021055Y043250D03*
X021055Y043240D03*
X021055Y043230D03*
X021055Y043220D03*
X021055Y043210D03*
X021055Y043100D03*
X021055Y043090D03*
X021055Y043080D03*
X021055Y043070D03*
X021055Y043060D03*
X021055Y043050D03*
X021055Y043040D03*
X021055Y043030D03*
X021055Y043020D03*
X021055Y043010D03*
X021055Y043000D03*
X021055Y042990D03*
X021055Y042980D03*
X021055Y042970D03*
X021055Y042960D03*
X021055Y042950D03*
X021055Y042940D03*
X021055Y042770D03*
X021055Y042760D03*
X021055Y042750D03*
X021055Y042740D03*
X021055Y042730D03*
X021055Y042720D03*
X021055Y042710D03*
X021055Y042700D03*
X021055Y042690D03*
X021055Y042680D03*
X021055Y042670D03*
X021055Y042660D03*
X021055Y042650D03*
X021055Y042640D03*
X021055Y042630D03*
X021055Y042620D03*
X021055Y042610D03*
X021055Y042600D03*
X021055Y042590D03*
X021055Y042580D03*
X021055Y042320D03*
X021055Y042310D03*
X021055Y042300D03*
X021055Y042290D03*
X021055Y042280D03*
X021055Y042270D03*
X021055Y042260D03*
X021055Y042250D03*
X021055Y042240D03*
X021055Y042230D03*
X021055Y042220D03*
X021055Y042210D03*
X021055Y042200D03*
X021055Y042190D03*
X021055Y042180D03*
X021055Y042170D03*
X021055Y042160D03*
X021055Y042150D03*
X021055Y042140D03*
X021055Y042130D03*
X021055Y042120D03*
X021055Y041940D03*
X021055Y041930D03*
X021055Y041920D03*
X021055Y041910D03*
X021055Y041900D03*
X021055Y041890D03*
X021055Y041880D03*
X021055Y041870D03*
X021055Y041860D03*
X021055Y041850D03*
X021055Y041840D03*
X021055Y041830D03*
X021055Y041820D03*
X021055Y041650D03*
X021055Y041640D03*
X021055Y041630D03*
X021055Y041620D03*
X021055Y041610D03*
X021055Y041600D03*
X021055Y041590D03*
X021055Y041580D03*
X021055Y041570D03*
X021055Y041560D03*
X021055Y041550D03*
X021055Y041540D03*
X021055Y041530D03*
X021055Y041520D03*
X021055Y041300D03*
X021055Y041290D03*
X021055Y041280D03*
X021055Y041270D03*
X021055Y041260D03*
X021055Y041250D03*
X021055Y041240D03*
X021055Y041230D03*
X021055Y041220D03*
X021055Y041210D03*
X021055Y041200D03*
X021055Y041190D03*
X021055Y041180D03*
X021055Y041170D03*
X021055Y041160D03*
X021055Y041150D03*
X021055Y041140D03*
X021055Y040960D03*
X021055Y040950D03*
X021055Y040940D03*
X021055Y040930D03*
X021055Y040920D03*
X021055Y040910D03*
X021055Y040900D03*
X021055Y040890D03*
X021055Y040880D03*
X021055Y040870D03*
X021055Y040860D03*
X021055Y040850D03*
X021055Y040840D03*
X021055Y040830D03*
X021055Y040820D03*
D73*
X019035Y040820D03*
X019015Y041870D03*
X018995Y042570D03*
X018145Y041280D03*
X018995Y044490D03*
X017845Y046140D03*
X017815Y046130D03*
X017535Y046650D03*
X017515Y046640D03*
X017495Y046630D03*
X017465Y046950D03*
X017545Y046980D03*
X017215Y047170D03*
X017195Y047160D03*
X017175Y047150D03*
X017155Y047140D03*
X017275Y047870D03*
X017485Y047930D03*
X016155Y047710D03*
X016145Y047700D03*
X015865Y047880D03*
X015575Y048070D03*
X015295Y047890D03*
X015775Y047230D03*
X015905Y047270D03*
X015945Y047280D03*
X015985Y047290D03*
X015885Y046950D03*
X015875Y046940D03*
X019135Y047300D03*
X019195Y047270D03*
X019335Y047530D03*
X019785Y047700D03*
X019365Y046710D03*
D74*
X020885Y042530D03*
X020885Y041490D03*
X015745Y041730D03*
X015745Y041740D03*
X015745Y040820D03*
D75*
X018350Y041160D03*
X019020Y040830D03*
X019070Y042110D03*
X018890Y042650D03*
X018550Y043320D03*
X018510Y044740D03*
X018760Y044820D03*
X017790Y046120D03*
X017480Y046620D03*
X017500Y046960D03*
X017520Y046970D03*
X017140Y047130D03*
X017120Y047120D03*
X017050Y046770D03*
X016260Y047410D03*
X016130Y047690D03*
X016010Y047930D03*
X015980Y047920D03*
X015560Y048060D03*
X015310Y047900D03*
X015760Y047220D03*
X015960Y047020D03*
X015970Y047030D03*
X015950Y047010D03*
X015900Y046960D03*
X015320Y047000D03*
X015310Y046620D03*
X017000Y048050D03*
X019160Y047290D03*
X019180Y047280D03*
X019360Y047520D03*
X019720Y047730D03*
X019800Y047690D03*
X020270Y046950D03*
X020280Y046930D03*
X020290Y046910D03*
X020290Y046900D03*
X020300Y046890D03*
D76*
X019545Y047990D03*
X019505Y048000D03*
X018795Y047890D03*
X018785Y047260D03*
X018985Y047200D03*
X019035Y046680D03*
X018085Y047600D03*
X018085Y047610D03*
X017435Y047780D03*
X016665Y048030D03*
X016665Y048040D03*
X016585Y048010D03*
X016735Y046690D03*
X015615Y047550D03*
X015615Y047560D03*
X015505Y047470D03*
X015505Y047460D03*
X015435Y047820D03*
X015435Y047830D03*
X015675Y047940D03*
X015685Y047930D03*
X018065Y045650D03*
X018075Y045310D03*
X018135Y044780D03*
X018355Y044830D03*
X019255Y044930D03*
X018745Y043420D03*
X018675Y042620D03*
X018665Y042570D03*
X018325Y042560D03*
X018365Y041740D03*
X018905Y041160D03*
X018885Y041140D03*
X019245Y041650D03*
X017765Y040830D03*
X017425Y041700D03*
D77*
X015725Y040830D03*
X015725Y046600D03*
X020905Y043680D03*
X020905Y042490D03*
X020905Y041800D03*
X020905Y041450D03*
D78*
X019035Y041860D03*
X018975Y041880D03*
X018885Y042660D03*
X018875Y042680D03*
X019005Y040840D03*
X018595Y045300D03*
X018575Y046030D03*
X017765Y046110D03*
X017095Y047110D03*
X017075Y047100D03*
X016585Y047580D03*
X016695Y047940D03*
X016225Y047740D03*
X016115Y047680D03*
X016095Y047670D03*
X016075Y047660D03*
X015545Y048050D03*
X015525Y048040D03*
X015325Y047910D03*
X015935Y047000D03*
X015925Y046990D03*
X015915Y046980D03*
X015905Y046970D03*
X015855Y046930D03*
X015835Y046920D03*
X015325Y046630D03*
X017285Y047880D03*
X018405Y047840D03*
X019385Y047510D03*
X019415Y047500D03*
X019435Y047490D03*
X019465Y047480D03*
X019695Y047740D03*
X019395Y046700D03*
X019425Y046690D03*
X020275Y046940D03*
X020285Y046920D03*
D79*
X020915Y044710D03*
X020915Y042880D03*
X020915Y042470D03*
X020915Y041790D03*
X020915Y041430D03*
X020915Y041120D03*
X015715Y040840D03*
X015715Y041850D03*
X015715Y045960D03*
X015715Y046290D03*
X015715Y046590D03*
D80*
X015370Y047170D03*
X015390Y047240D03*
X016370Y046950D03*
X016400Y046970D03*
X016410Y046980D03*
X016420Y046990D03*
X016440Y047000D03*
X016450Y047010D03*
X016460Y047020D03*
X017500Y045170D03*
X017680Y044930D03*
X017890Y044730D03*
X017880Y044710D03*
X017870Y044690D03*
X017860Y044680D03*
X017860Y044670D03*
X017850Y044660D03*
X018010Y044910D03*
X018360Y044690D03*
X018370Y044700D03*
X018570Y045010D03*
X018590Y045020D03*
X018400Y045190D03*
X018310Y045600D03*
X018060Y045600D03*
X017480Y044560D03*
X017470Y044550D03*
X017650Y044120D03*
X017640Y044070D03*
X017640Y044060D03*
X017640Y044050D03*
X017640Y044040D03*
X017640Y044030D03*
X017640Y044020D03*
X017630Y044010D03*
X017630Y044000D03*
X017630Y043990D03*
X017630Y043980D03*
X017630Y043970D03*
X017630Y043960D03*
X017630Y043950D03*
X017630Y043850D03*
X017630Y043840D03*
X017640Y043620D03*
X017640Y043610D03*
X017640Y043600D03*
X017640Y043590D03*
X017710Y043300D03*
X017920Y043960D03*
X017920Y043970D03*
X017920Y043980D03*
X017960Y044220D03*
X018250Y044020D03*
X018560Y044130D03*
X018560Y044140D03*
X018560Y044150D03*
X018560Y044160D03*
X018560Y044170D03*
X018830Y044330D03*
X018840Y044390D03*
X018970Y044530D03*
X018850Y043990D03*
X019130Y045800D03*
X019100Y045820D03*
X019220Y046920D03*
X019540Y047130D03*
X019550Y047120D03*
X019660Y047030D03*
X019670Y047020D03*
X019680Y047010D03*
X019690Y047000D03*
X020590Y047350D03*
X020970Y047000D03*
X020980Y046990D03*
X020990Y046980D03*
X021000Y046970D03*
X021010Y046960D03*
X021020Y046950D03*
X021030Y046940D03*
X021040Y046930D03*
X021050Y046920D03*
X021060Y046910D03*
X021070Y046900D03*
X021080Y046890D03*
X021160Y046800D03*
X021210Y046740D03*
X021220Y046730D03*
X021230Y046720D03*
X021240Y046710D03*
X021250Y046690D03*
X021260Y046680D03*
X021270Y046670D03*
X021280Y046660D03*
X021300Y046630D03*
X020910Y046660D03*
X020900Y046670D03*
X020890Y046680D03*
X020840Y046740D03*
X021500Y047150D03*
X021510Y047140D03*
X021520Y047130D03*
X021530Y047120D03*
X021540Y047110D03*
X021550Y047100D03*
X021310Y047710D03*
X018710Y046920D03*
X018060Y040860D03*
X018070Y040850D03*
D81*
X015705Y040850D03*
X015705Y041870D03*
X015705Y042590D03*
X015705Y045580D03*
X015705Y045950D03*
X015705Y046270D03*
X015705Y046570D03*
X020925Y046470D03*
X020925Y044700D03*
X020925Y042460D03*
X020925Y042040D03*
X020925Y041400D03*
D82*
X020930Y041100D03*
X020930Y041780D03*
X020930Y042450D03*
X020930Y042870D03*
X020930Y043190D03*
X020930Y043530D03*
X020930Y043650D03*
X020930Y044430D03*
X015700Y042600D03*
X015700Y041880D03*
X015700Y040860D03*
D83*
X017505Y041300D03*
X017515Y041290D03*
X017515Y041280D03*
X017525Y041270D03*
X017915Y041580D03*
X018355Y040880D03*
X018375Y040870D03*
X019005Y043070D03*
X018125Y044760D03*
X018235Y045190D03*
X018235Y045200D03*
X018235Y045210D03*
X018255Y045270D03*
X018065Y045300D03*
X018055Y045290D03*
X018935Y045490D03*
X019245Y045690D03*
X018725Y046960D03*
X018515Y046950D03*
X018785Y047270D03*
X019335Y047660D03*
X020545Y047470D03*
X018075Y047620D03*
X016665Y048020D03*
X016565Y048030D03*
X015995Y047740D03*
X015635Y047530D03*
X015515Y047440D03*
X015435Y047840D03*
X015605Y047010D03*
X016725Y047000D03*
D84*
X015695Y046560D03*
X015695Y046260D03*
X015695Y045940D03*
X015695Y045570D03*
X015695Y042620D03*
X015695Y042610D03*
X015695Y041890D03*
X015695Y040870D03*
X020935Y042030D03*
X020935Y044690D03*
X020935Y045020D03*
X020935Y045430D03*
D85*
X020940Y045420D03*
X020940Y046100D03*
X020940Y043520D03*
X020940Y043180D03*
X020940Y042440D03*
X020940Y041770D03*
X020940Y041090D03*
X015690Y040880D03*
X015690Y041900D03*
X015690Y042630D03*
X015690Y042640D03*
X015690Y045560D03*
X015690Y046250D03*
X015690Y046550D03*
D86*
X015790Y047040D03*
X015320Y047340D03*
X015670Y047950D03*
X016480Y047340D03*
X016590Y048000D03*
X016670Y048050D03*
X016670Y048060D03*
X017040Y047600D03*
X017430Y047790D03*
X017560Y046890D03*
X017900Y046590D03*
X017940Y046400D03*
X018030Y046300D03*
X018490Y047020D03*
X018990Y047210D03*
X019000Y047220D03*
X019170Y046910D03*
X019550Y047980D03*
X020890Y047920D03*
X019250Y045670D03*
X019050Y045460D03*
X018950Y045480D03*
X018080Y045320D03*
X017650Y045430D03*
X017560Y045360D03*
X018140Y044800D03*
X018140Y044790D03*
X018730Y043430D03*
X018680Y042630D03*
X018450Y041400D03*
X018870Y041110D03*
X018900Y041150D03*
X018340Y040890D03*
D87*
X020945Y041080D03*
X020945Y042430D03*
X020945Y042860D03*
X020945Y043640D03*
X020945Y044680D03*
X020945Y045410D03*
X020945Y046460D03*
X015685Y046240D03*
X015685Y045930D03*
X015685Y045550D03*
X015685Y042660D03*
X015685Y042650D03*
X015685Y041910D03*
X015685Y040890D03*
D88*
X015680Y040900D03*
X015680Y041920D03*
X015680Y042670D03*
X015680Y042680D03*
X015680Y045540D03*
X020950Y045400D03*
X020950Y045010D03*
X020950Y044420D03*
X020950Y043170D03*
X020950Y042020D03*
X020950Y041760D03*
X020950Y046090D03*
D89*
X020955Y046450D03*
X020955Y045390D03*
X020955Y044670D03*
X020955Y043630D03*
X020955Y043510D03*
X020955Y042420D03*
X020955Y041070D03*
X015675Y040910D03*
X015675Y041930D03*
X015675Y042690D03*
X015675Y042700D03*
X015675Y044540D03*
X015675Y045530D03*
X015675Y045920D03*
X015675Y046230D03*
X015675Y046540D03*
D90*
X015670Y046220D03*
X015670Y045910D03*
X015670Y045120D03*
X015670Y045110D03*
X015670Y045100D03*
X015670Y045090D03*
X015670Y044530D03*
X015670Y044520D03*
X015670Y042720D03*
X015670Y042710D03*
X015670Y041950D03*
X015670Y041940D03*
X015670Y040920D03*
X020960Y041750D03*
X020960Y042010D03*
X020960Y042850D03*
X020960Y043770D03*
X020960Y044090D03*
X020960Y044410D03*
X020960Y045000D03*
X020960Y045380D03*
X020960Y046080D03*
D91*
X020965Y046440D03*
X020965Y045370D03*
X020965Y044660D03*
X020965Y043160D03*
X020965Y042410D03*
X020965Y041740D03*
X020965Y041060D03*
X015665Y040930D03*
X015665Y041320D03*
X015665Y041960D03*
X015665Y042730D03*
X015665Y042740D03*
X015665Y042750D03*
X015665Y044490D03*
X015665Y044500D03*
X015665Y044510D03*
X015665Y045050D03*
X015665Y045060D03*
X015665Y045070D03*
X015665Y045080D03*
X015665Y045520D03*
D92*
X015660Y045510D03*
X015660Y045900D03*
X015660Y046210D03*
X015660Y045040D03*
X015660Y045030D03*
X015660Y044480D03*
X015660Y044470D03*
X015660Y042780D03*
X015660Y042770D03*
X015660Y042760D03*
X015660Y041970D03*
X015660Y041330D03*
X015660Y040940D03*
X020970Y042840D03*
X020970Y044080D03*
X020970Y046070D03*
D93*
X020975Y046060D03*
X020975Y046430D03*
X020975Y045360D03*
X020975Y044990D03*
X020975Y044650D03*
X020975Y044400D03*
X020975Y043620D03*
X020975Y043500D03*
X020975Y043150D03*
X020975Y042400D03*
X020975Y042000D03*
X020975Y041730D03*
X020975Y041390D03*
X020975Y041050D03*
X015655Y040950D03*
X015655Y041340D03*
X015655Y041980D03*
X015655Y042790D03*
X015655Y042800D03*
X015655Y042810D03*
X015655Y044450D03*
X015655Y044460D03*
X015655Y045010D03*
X015655Y045020D03*
X015655Y045500D03*
X015655Y046200D03*
X015655Y046530D03*
D94*
X015650Y045890D03*
X015650Y045490D03*
X015650Y045000D03*
X015650Y044990D03*
X015650Y044440D03*
X015650Y044430D03*
X015650Y044420D03*
X015650Y042840D03*
X015650Y042830D03*
X015650Y042820D03*
X015650Y041990D03*
X015650Y041360D03*
X015650Y041350D03*
X015650Y040960D03*
X020980Y041040D03*
X020980Y041720D03*
X020980Y042830D03*
X020980Y043410D03*
X020980Y043420D03*
X020980Y044070D03*
X020980Y044640D03*
X020980Y045350D03*
D95*
X021045Y044560D03*
X021045Y042330D03*
X021045Y040970D03*
D96*
X020985Y042390D03*
X020985Y043400D03*
X020985Y044390D03*
X020985Y046050D03*
X020985Y046420D03*
X015645Y046190D03*
X015645Y045880D03*
X015645Y045480D03*
X015645Y044980D03*
X015645Y044410D03*
X015645Y044400D03*
X015645Y042870D03*
X015645Y042860D03*
X015645Y042850D03*
X015645Y042000D03*
X015645Y041370D03*
X015645Y040970D03*
D97*
X021040Y040980D03*
X021040Y041320D03*
X021040Y042780D03*
X021040Y043110D03*
X021040Y043450D03*
X021040Y044010D03*
X021040Y044320D03*
X021040Y044570D03*
X021040Y045290D03*
X021040Y045980D03*
X021040Y046350D03*
D98*
X020990Y045340D03*
X020990Y044630D03*
X020990Y044380D03*
X020990Y044060D03*
X020990Y043490D03*
X020990Y043430D03*
X020990Y043390D03*
X020990Y043140D03*
X020990Y042820D03*
X020990Y041990D03*
X020990Y041710D03*
X020990Y041380D03*
X020990Y041030D03*
X015640Y040980D03*
X015640Y041380D03*
X015640Y042010D03*
X015640Y042880D03*
X015640Y042890D03*
X015640Y042900D03*
X015640Y042910D03*
X015640Y042920D03*
X015640Y044380D03*
X015640Y044390D03*
X015640Y044970D03*
X015640Y045470D03*
X015640Y046520D03*
D99*
X021030Y045300D03*
X021030Y044580D03*
X021030Y044330D03*
X021030Y044020D03*
X021030Y043460D03*
X021030Y041340D03*
X021030Y040990D03*
D100*
X021000Y041020D03*
X021000Y041370D03*
X021000Y041690D03*
X021000Y044370D03*
X021000Y044620D03*
X021000Y045330D03*
X021000Y046030D03*
X021000Y046400D03*
X015630Y045860D03*
X015630Y045450D03*
X015630Y044940D03*
X015630Y044340D03*
X015630Y044330D03*
X015630Y043010D03*
X015630Y043000D03*
X015630Y042990D03*
X015630Y042980D03*
X015630Y042970D03*
X015630Y042030D03*
X015630Y041410D03*
X015630Y041310D03*
X015630Y040990D03*
D101*
X015610Y041290D03*
X015610Y041460D03*
X015610Y042060D03*
X015610Y043240D03*
X015610Y043250D03*
X015610Y043260D03*
X015610Y043270D03*
X015610Y043280D03*
X015610Y043290D03*
X015610Y043300D03*
X015610Y043310D03*
X015610Y043320D03*
X015610Y043640D03*
X015610Y043650D03*
X015610Y044220D03*
X015610Y044230D03*
X015610Y044240D03*
X015610Y044900D03*
X015610Y045420D03*
X015610Y046160D03*
X021020Y045310D03*
X021020Y044590D03*
X021020Y044030D03*
X021020Y043600D03*
X021020Y043470D03*
X021020Y043120D03*
X021020Y041970D03*
X021020Y041660D03*
X021020Y041350D03*
X021020Y041000D03*
D102*
X021010Y041010D03*
X021010Y041360D03*
X021010Y041680D03*
X021010Y043380D03*
X021010Y043440D03*
X021010Y044360D03*
X021010Y045320D03*
X021010Y046020D03*
X021010Y046390D03*
X015620Y045850D03*
X015620Y045430D03*
X015620Y044920D03*
X015620Y044290D03*
X015620Y044280D03*
X015620Y044270D03*
X015620Y043610D03*
X015620Y043600D03*
X015620Y043140D03*
X015620Y043130D03*
X015620Y043120D03*
X015620Y043110D03*
X015620Y043100D03*
X015620Y043090D03*
X015620Y043080D03*
X015620Y042050D03*
X015620Y041440D03*
X015620Y041430D03*
X015620Y041300D03*
X015620Y041000D03*
D103*
X015605Y041010D03*
X015605Y041020D03*
X015605Y041030D03*
X015605Y041040D03*
X015605Y041050D03*
X015605Y041060D03*
X015605Y041070D03*
X015605Y041080D03*
X015605Y041090D03*
X015605Y041100D03*
X015605Y041110D03*
X015605Y041120D03*
X015605Y041130D03*
X015605Y041140D03*
X015605Y041150D03*
X015605Y041160D03*
X015605Y041170D03*
X015605Y041180D03*
X015605Y041190D03*
X015605Y041200D03*
X015605Y041210D03*
X015605Y041220D03*
X015605Y041230D03*
X015605Y041240D03*
X015605Y041250D03*
X015605Y041260D03*
X015605Y041270D03*
X015605Y041280D03*
X015605Y041470D03*
X015605Y041480D03*
X015605Y041490D03*
X015605Y041500D03*
X015605Y041510D03*
X015605Y041520D03*
X015605Y041530D03*
X015605Y041540D03*
X015605Y041550D03*
X015605Y041560D03*
X015605Y041570D03*
X015605Y041580D03*
X015605Y041590D03*
X015605Y041600D03*
X015605Y041610D03*
X015605Y041620D03*
X015605Y041630D03*
X015605Y041640D03*
X015605Y041650D03*
X015605Y041660D03*
X015605Y041670D03*
X015605Y041680D03*
X015605Y041690D03*
X015605Y041700D03*
X015605Y041710D03*
X015605Y041720D03*
X015605Y042070D03*
X015605Y042080D03*
X015605Y042090D03*
X015605Y042100D03*
X015605Y042110D03*
X015605Y042120D03*
X015605Y042130D03*
X015605Y042140D03*
X015605Y042150D03*
X015605Y042160D03*
X015605Y042170D03*
X015605Y042180D03*
X015605Y042190D03*
X015605Y042200D03*
X015605Y042210D03*
X015605Y042220D03*
X015605Y042230D03*
X015605Y042240D03*
X015605Y042250D03*
X015605Y042260D03*
X015605Y042270D03*
X015605Y042280D03*
X015605Y042290D03*
X015605Y042300D03*
X015605Y042310D03*
X015605Y042320D03*
X015605Y042330D03*
X015605Y042340D03*
X015605Y042350D03*
X015605Y042360D03*
X015605Y042370D03*
X015605Y042380D03*
X015605Y042390D03*
X015605Y042400D03*
X015605Y042410D03*
X015605Y042420D03*
X015605Y042430D03*
X015605Y042440D03*
X015605Y042450D03*
X015605Y042460D03*
X015605Y042470D03*
X015605Y042480D03*
X015605Y042490D03*
X015605Y042500D03*
X015605Y042510D03*
X015605Y042520D03*
X015605Y042530D03*
X015605Y042540D03*
X015605Y042550D03*
X015605Y042560D03*
X015605Y042570D03*
X015605Y042580D03*
X015605Y043330D03*
X015605Y043340D03*
X015605Y043350D03*
X015605Y043360D03*
X015605Y043370D03*
X015605Y043380D03*
X015605Y043390D03*
X015605Y043400D03*
X015605Y043410D03*
X015605Y043420D03*
X015605Y043430D03*
X015605Y043440D03*
X015605Y043450D03*
X015605Y043460D03*
X015605Y043470D03*
X015605Y043480D03*
X015605Y043490D03*
X015605Y043500D03*
X015605Y043510D03*
X015605Y043520D03*
X015605Y043530D03*
X015605Y043540D03*
X015605Y043550D03*
X015605Y043560D03*
X015605Y043570D03*
X015605Y043580D03*
X015605Y043590D03*
X015605Y043660D03*
X015605Y043670D03*
X015605Y043680D03*
X015605Y043690D03*
X015605Y043700D03*
X015605Y043710D03*
X015605Y043720D03*
X015605Y043730D03*
X015605Y043740D03*
X015605Y043750D03*
X015605Y043760D03*
X015605Y043770D03*
X015605Y043780D03*
X015605Y043790D03*
X015605Y043800D03*
X015605Y043810D03*
X015605Y043820D03*
X015605Y043830D03*
X015605Y043840D03*
X015605Y043850D03*
X015605Y043860D03*
X015605Y043870D03*
X015605Y043880D03*
X015605Y043890D03*
X015605Y043900D03*
X015605Y043910D03*
X015605Y043920D03*
X015605Y043930D03*
X015605Y043940D03*
X015605Y043950D03*
X015605Y043960D03*
X015605Y043970D03*
X015605Y043980D03*
X015605Y043990D03*
X015605Y044000D03*
X015605Y044010D03*
X015605Y044020D03*
X015605Y044030D03*
X015605Y044040D03*
X015605Y044050D03*
X015605Y044060D03*
X015605Y044070D03*
X015605Y044080D03*
X015605Y044090D03*
X015605Y044100D03*
X015605Y044110D03*
X015605Y044120D03*
X015605Y044130D03*
X015605Y044140D03*
X015605Y044150D03*
X015605Y044160D03*
X015605Y044170D03*
X015605Y044180D03*
X015605Y044190D03*
X015605Y044200D03*
X015605Y044210D03*
X015605Y044550D03*
X015605Y044560D03*
X015605Y044570D03*
X015605Y044580D03*
X015605Y044590D03*
X015605Y044600D03*
X015605Y044610D03*
X015605Y044620D03*
X015605Y044630D03*
X015605Y044640D03*
X015605Y044650D03*
X015605Y044660D03*
X015605Y044670D03*
X015605Y044680D03*
X015605Y044690D03*
X015605Y044700D03*
X015605Y044710D03*
X015605Y044720D03*
X015605Y044730D03*
X015605Y044740D03*
X015605Y044750D03*
X015605Y044760D03*
X015605Y044770D03*
X015605Y044780D03*
X015605Y044790D03*
X015605Y044800D03*
X015605Y044810D03*
X015605Y044820D03*
X015605Y044830D03*
X015605Y044840D03*
X015605Y044850D03*
X015605Y044860D03*
X015605Y044870D03*
X015605Y044880D03*
X015605Y044890D03*
X015605Y045130D03*
X015605Y045140D03*
X015605Y045150D03*
X015605Y045160D03*
X015605Y045170D03*
X015605Y045180D03*
X015605Y045190D03*
X015605Y045200D03*
X015605Y045210D03*
X015605Y045220D03*
X015605Y045230D03*
X015605Y045240D03*
X015605Y045250D03*
X015605Y045260D03*
X015605Y045270D03*
X015605Y045280D03*
X015605Y045290D03*
X015605Y045300D03*
X015605Y045310D03*
X015605Y045320D03*
X015605Y045330D03*
X015605Y045340D03*
X015605Y045350D03*
X015605Y045360D03*
X015605Y045370D03*
X015605Y045380D03*
X015605Y045390D03*
X015605Y045400D03*
X015605Y045410D03*
X015605Y045590D03*
X015605Y045600D03*
X015605Y045610D03*
X015605Y045620D03*
X015605Y045630D03*
X015605Y045640D03*
X015605Y045650D03*
X015605Y045660D03*
X015605Y045670D03*
X015605Y045680D03*
X015605Y045690D03*
X015605Y045700D03*
X015605Y045710D03*
X015605Y045720D03*
X015605Y045730D03*
X015605Y045740D03*
X015605Y045750D03*
X015605Y045760D03*
X015605Y045770D03*
X015605Y045780D03*
X015605Y045790D03*
X015605Y045800D03*
X015605Y045810D03*
X015605Y045820D03*
X015605Y045830D03*
X015605Y045980D03*
X015605Y045990D03*
X015605Y046000D03*
X015605Y046010D03*
X015605Y046020D03*
X015605Y046030D03*
X015605Y046040D03*
X015605Y046050D03*
X015605Y046060D03*
X015605Y046070D03*
X015605Y046080D03*
X015605Y046090D03*
X015605Y046100D03*
X015605Y046110D03*
X015605Y046120D03*
X015605Y046130D03*
X015605Y046140D03*
X015605Y046150D03*
X015605Y046330D03*
X015605Y046340D03*
X015605Y046350D03*
X015605Y046360D03*
X015605Y046370D03*
X015605Y046380D03*
X015605Y046390D03*
X015605Y046400D03*
X015605Y046410D03*
X015605Y046420D03*
X015605Y046430D03*
X015605Y046440D03*
X015605Y046450D03*
X015605Y046460D03*
X015605Y046470D03*
X015605Y046480D03*
X015605Y046490D03*
X021025Y046370D03*
X021025Y046000D03*
X021025Y044340D03*
X021025Y042790D03*
X021025Y042350D03*
D104*
X019040Y042950D03*
X018730Y042830D03*
X018580Y043090D03*
X018390Y043410D03*
X018850Y042200D03*
X018860Y042190D03*
X018600Y041900D03*
X018620Y041860D03*
X018620Y041850D03*
X018820Y041660D03*
X018850Y041640D03*
X018970Y041570D03*
X018990Y041560D03*
X019130Y041130D03*
X018600Y041060D03*
X018570Y041070D03*
X018540Y041080D03*
X018300Y041630D03*
X018020Y041890D03*
X018020Y041900D03*
X017810Y041520D03*
X017950Y041400D03*
X017970Y041390D03*
X019090Y044730D03*
X019120Y044720D03*
X018460Y046650D03*
X017570Y046350D03*
X017540Y046330D03*
X017580Y046010D03*
X016730Y046910D03*
X016140Y046800D03*
X016130Y046790D03*
X016390Y047480D03*
X016410Y047490D03*
X016480Y047530D03*
X016360Y047790D03*
X015750Y047490D03*
X015540Y047680D03*
X015530Y047670D03*
X015520Y047660D03*
X015510Y047650D03*
X015500Y047640D03*
X015490Y047630D03*
X015480Y047620D03*
X015450Y047600D03*
X015440Y047590D03*
X015590Y047730D03*
X019690Y047370D03*
X019970Y047170D03*
X019980Y047160D03*
X019990Y047150D03*
X020170Y047010D03*
X020140Y047480D03*
X020450Y047670D03*
X020460Y047660D03*
X020630Y047570D03*
X020650Y047560D03*
X020730Y047800D03*
X020490Y047990D03*
X020090Y047880D03*
D105*
X020920Y045030D03*
X020920Y043660D03*
X020920Y043200D03*
X020920Y041420D03*
X020920Y041410D03*
X020920Y041110D03*
X015710Y041860D03*
X015710Y046280D03*
X015710Y046580D03*
D106*
X015510Y047450D03*
X015620Y047540D03*
X015690Y047920D03*
X015960Y047770D03*
X016540Y048040D03*
X016580Y048020D03*
X016470Y047330D03*
X016930Y046850D03*
X017100Y046960D03*
X017560Y046900D03*
X018000Y046930D03*
X018500Y047030D03*
X018830Y046660D03*
X019020Y047230D03*
X018990Y047840D03*
X019460Y047980D03*
X019540Y048000D03*
X019660Y047940D03*
X020540Y047460D03*
X020540Y047450D03*
X020540Y047440D03*
X020540Y047430D03*
X020540Y047420D03*
X019250Y045680D03*
X019250Y044940D03*
X018490Y045340D03*
X018260Y045280D03*
X018130Y044770D03*
X017560Y045350D03*
X018710Y043350D03*
X018670Y042610D03*
X018670Y042600D03*
X018670Y042590D03*
X018670Y042580D03*
X018360Y041780D03*
X018360Y041770D03*
X018360Y041760D03*
X018360Y041750D03*
X018370Y041730D03*
X018370Y041720D03*
X018370Y041710D03*
X017920Y041600D03*
X017920Y041590D03*
X017500Y041310D03*
X018100Y042530D03*
X018110Y042700D03*
X018880Y041130D03*
X018870Y041120D03*
D107*
X021050Y041130D03*
X021050Y041310D03*
X021050Y041510D03*
X021050Y041810D03*
X021050Y041950D03*
X021050Y042110D03*
X021050Y042570D03*
X021050Y043370D03*
X021050Y043590D03*
X021050Y044000D03*
X021050Y044310D03*
X021050Y045090D03*
X021050Y045280D03*
X021050Y045970D03*
X021050Y046340D03*
X021050Y046480D03*
D108*
X019300Y046970D03*
X019240Y047000D03*
X019220Y047010D03*
X019110Y047310D03*
X019090Y047320D03*
X019280Y047550D03*
X018580Y046020D03*
X017930Y046170D03*
X017580Y046670D03*
X017080Y046790D03*
X017370Y047240D03*
X017420Y047260D03*
X017110Y047780D03*
X017080Y047770D03*
X016840Y047340D03*
X016230Y047390D03*
X016180Y047730D03*
X015800Y047840D03*
X015790Y047830D03*
X016550Y047880D03*
X018010Y045470D03*
X017980Y045450D03*
X018610Y045290D03*
X018570Y043230D03*
X018580Y043210D03*
X018590Y043200D03*
X018590Y043190D03*
X018600Y043180D03*
X018610Y043160D03*
X018620Y043150D03*
X018630Y043130D03*
X018640Y043120D03*
X018650Y043100D03*
X018310Y041180D03*
D109*
X018225Y041220D03*
X019025Y044460D03*
X018555Y044750D03*
X018075Y046210D03*
X018045Y046530D03*
X017635Y047010D03*
X017355Y046910D03*
X017135Y046830D03*
X016925Y047390D03*
X016945Y047400D03*
X017195Y047800D03*
X017535Y047950D03*
X016215Y048050D03*
X015535Y047140D03*
X015525Y047130D03*
D110*
X015515Y047120D03*
X015505Y047110D03*
X015435Y047050D03*
X015425Y047040D03*
X016095Y047320D03*
X016205Y047370D03*
X015755Y047790D03*
X016925Y048020D03*
X016905Y047380D03*
X017545Y047310D03*
X017575Y047320D03*
X018035Y046200D03*
X018625Y045280D03*
X018765Y044810D03*
X018535Y043290D03*
X018205Y041240D03*
X019635Y046920D03*
X019225Y047570D03*
D111*
X019200Y047020D03*
X018420Y047830D03*
X017520Y047300D03*
X017230Y047820D03*
X017050Y047760D03*
X016890Y047370D03*
X016630Y047600D03*
X016180Y048010D03*
X016190Y048030D03*
X015770Y047810D03*
X015760Y047800D03*
X015850Y047260D03*
X015810Y047250D03*
X015490Y047100D03*
X015480Y047090D03*
X015470Y047080D03*
X015460Y047070D03*
X015450Y047060D03*
X017110Y046810D03*
X017630Y046690D03*
X017990Y046500D03*
X018010Y046510D03*
X018000Y046190D03*
X018540Y043280D03*
X018550Y043270D03*
X018550Y043260D03*
X018190Y041250D03*
D112*
X018165Y041270D03*
X018645Y043110D03*
X018625Y043140D03*
X018605Y043170D03*
X018545Y043310D03*
X019005Y044480D03*
X017995Y045460D03*
X017905Y046160D03*
X017815Y046420D03*
X017875Y046440D03*
X017895Y046450D03*
X017915Y046460D03*
X017935Y046470D03*
X017575Y046990D03*
X017395Y047250D03*
X017345Y047230D03*
X017325Y047220D03*
X017305Y047210D03*
X016825Y047330D03*
X016805Y047320D03*
X016605Y047590D03*
X016975Y048040D03*
X017265Y047850D03*
X016035Y047940D03*
X015825Y047860D03*
X015815Y047850D03*
X015795Y047240D03*
X015355Y047010D03*
X015275Y047880D03*
X019205Y047260D03*
X019305Y047540D03*
X019775Y047710D03*
D113*
X021035Y046360D03*
X021035Y045990D03*
X021035Y042340D03*
X021035Y041960D03*
X021035Y041330D03*
D114*
X020995Y041700D03*
X020995Y042380D03*
X020995Y043610D03*
X020995Y044050D03*
X020995Y046040D03*
X020995Y046410D03*
X015635Y046180D03*
X015635Y045870D03*
X015635Y045460D03*
X015635Y044960D03*
X015635Y044950D03*
X015635Y044370D03*
X015635Y044360D03*
X015635Y044350D03*
X015635Y042960D03*
X015635Y042950D03*
X015635Y042940D03*
X015635Y042930D03*
X015635Y042020D03*
X015635Y041400D03*
X015635Y041390D03*
D115*
X015625Y041420D03*
X015625Y042040D03*
X015625Y043020D03*
X015625Y043030D03*
X015625Y043040D03*
X015625Y043050D03*
X015625Y043060D03*
X015625Y043070D03*
X015625Y044300D03*
X015625Y044310D03*
X015625Y044320D03*
X015625Y044930D03*
X015625Y045440D03*
X015625Y046170D03*
X015625Y046510D03*
X021005Y044610D03*
X021005Y044040D03*
X021005Y043480D03*
X021005Y043130D03*
X021005Y042810D03*
X021005Y042370D03*
X021005Y041980D03*
D116*
X020910Y042050D03*
X020910Y042480D03*
X020910Y041440D03*
X020910Y043670D03*
X015720Y041840D03*
X015720Y045970D03*
X015720Y046300D03*
D117*
X015615Y046500D03*
X015615Y045840D03*
X015615Y044910D03*
X015615Y044260D03*
X015615Y044250D03*
X015615Y043630D03*
X015615Y043620D03*
X015615Y043230D03*
X015615Y043220D03*
X015615Y043210D03*
X015615Y043200D03*
X015615Y043190D03*
X015615Y043180D03*
X015615Y043170D03*
X015615Y043160D03*
X015615Y043150D03*
X015615Y041450D03*
X021015Y041670D03*
X021015Y042360D03*
X021015Y042800D03*
X021015Y044350D03*
X021015Y044600D03*
X021015Y046010D03*
X021015Y046380D03*
D118*
X020900Y045040D03*
X020900Y042890D03*
X020900Y042500D03*
X020900Y042060D03*
X020900Y041460D03*
X015730Y041830D03*
X015730Y046310D03*
D119*
X015735Y046320D03*
X015735Y046610D03*
X015735Y041820D03*
X015735Y041810D03*
X015735Y041800D03*
X015735Y041790D03*
X020895Y041470D03*
X020895Y042510D03*
X020895Y043690D03*
D120*
X020890Y043700D03*
X020890Y042520D03*
X020890Y042070D03*
X020890Y041480D03*
X015740Y041750D03*
X015740Y041760D03*
X015740Y041770D03*
X015740Y041780D03*
D121*
X020880Y041500D03*
X020880Y042900D03*
X020880Y043710D03*
D122*
X020875Y043720D03*
X020875Y045050D03*
X020875Y042080D03*
D123*
X020865Y042090D03*
X020865Y042920D03*
X020865Y042930D03*
X020865Y043740D03*
D124*
X020855Y043760D03*
X020855Y042100D03*
D125*
X020815Y042540D03*
D126*
X020810Y042550D03*
X020810Y042560D03*
D127*
X020870Y042910D03*
X020870Y043730D03*
D128*
X020860Y043750D03*
D129*
X020800Y044440D03*
X020800Y044450D03*
D130*
X018735Y044760D03*
X018005Y046790D03*
X018375Y046910D03*
X018295Y047820D03*
D131*
X017830Y047060D03*
X018540Y046300D03*
X018980Y046780D03*
X018830Y047070D03*
X018720Y044770D03*
D132*
X018765Y044800D03*
X018145Y046230D03*
X018265Y047520D03*
X017555Y047960D03*
X016975Y047730D03*
X017045Y047450D03*
X017025Y047440D03*
X016675Y047280D03*
X016165Y047340D03*
X016585Y047910D03*
D133*
X020695Y045060D03*
D134*
X020700Y045070D03*
D135*
X020705Y045080D03*
D136*
X018890Y045150D03*
X018540Y045660D03*
X018250Y045960D03*
X018120Y046560D03*
X017140Y047490D03*
X016950Y047720D03*
X016130Y047970D03*
X019210Y047930D03*
D137*
X019175Y047590D03*
X019155Y047040D03*
X018105Y046220D03*
X018635Y045270D03*
X016985Y047420D03*
X016665Y047270D03*
X016185Y047350D03*
X016575Y047900D03*
X017395Y047920D03*
X015545Y047150D03*
D138*
X016745Y047640D03*
X018565Y046340D03*
X018885Y046530D03*
X018905Y046520D03*
X018925Y046510D03*
X018945Y046500D03*
X018225Y045950D03*
X018555Y045650D03*
X019305Y047890D03*
X019395Y047870D03*
D139*
X018315Y047810D03*
X018465Y045970D03*
D140*
X018470Y045980D03*
X018380Y046900D03*
D141*
X017850Y047070D03*
X018240Y047480D03*
X018470Y045990D03*
D142*
X018475Y046000D03*
X017955Y046780D03*
X017605Y047640D03*
X017845Y048030D03*
X018985Y047650D03*
X018795Y047080D03*
D143*
X018445Y046890D03*
X018525Y046600D03*
X018475Y046260D03*
D144*
X018480Y046270D03*
X018230Y047450D03*
D145*
X018480Y046280D03*
D146*
X018480Y046290D03*
X018520Y046620D03*
X018230Y047460D03*
D147*
X018485Y046570D03*
X022195Y046980D03*
X022195Y046990D03*
X022195Y047360D03*
X022195Y047700D03*
X014435Y047610D03*
X014435Y047880D03*
X014435Y047170D03*
X014435Y046780D03*
X014435Y046620D03*
D148*
X018480Y046580D03*
X022210Y046940D03*
X022210Y047330D03*
X022210Y047670D03*
D149*
X018525Y046590D03*
X018225Y047440D03*
D150*
X018520Y046610D03*
D151*
X022190Y046620D03*
X022190Y046630D03*
X022190Y047000D03*
X022190Y047370D03*
X022190Y047710D03*
X014440Y047630D03*
X014440Y047620D03*
X014440Y047180D03*
X014440Y048070D03*
D152*
X014430Y048060D03*
X014430Y048050D03*
X014430Y048040D03*
X014430Y048030D03*
X014430Y048020D03*
X014430Y048010D03*
X014430Y048000D03*
X014430Y047990D03*
X014430Y047980D03*
X014430Y047970D03*
X014430Y047960D03*
X014430Y047950D03*
X014430Y047940D03*
X014430Y047930D03*
X014430Y047920D03*
X014430Y047910D03*
X014430Y047900D03*
X014430Y047890D03*
X014430Y047600D03*
X014430Y047590D03*
X014430Y047580D03*
X014430Y047570D03*
X014430Y047560D03*
X014430Y047550D03*
X014430Y047540D03*
X014430Y047530D03*
X014430Y047520D03*
X014430Y047510D03*
X014430Y047500D03*
X014430Y047490D03*
X014430Y047480D03*
X014430Y047160D03*
X014430Y047150D03*
X014430Y047140D03*
X014430Y047130D03*
X014430Y047120D03*
X014430Y047110D03*
X014430Y047100D03*
X014430Y047090D03*
X014430Y047080D03*
X014430Y047070D03*
X014430Y047060D03*
X014430Y047050D03*
X014430Y047040D03*
X014430Y047030D03*
X014430Y047020D03*
X014430Y047010D03*
X014430Y047000D03*
X014430Y046990D03*
X014430Y046980D03*
X014430Y046770D03*
X014430Y046760D03*
X014430Y046750D03*
X014430Y046740D03*
X014430Y046730D03*
X014430Y046720D03*
X014430Y046710D03*
X014430Y046700D03*
X014430Y046690D03*
X014430Y046680D03*
X014430Y046670D03*
X014430Y046660D03*
X014430Y046650D03*
X014430Y046640D03*
X014430Y046630D03*
X018410Y047160D03*
X022200Y047350D03*
X022200Y047690D03*
X022200Y046970D03*
D153*
X022185Y047010D03*
X022185Y046650D03*
X022185Y046640D03*
X022185Y047380D03*
X022185Y047720D03*
X018495Y046860D03*
X014445Y046790D03*
X014445Y047190D03*
X014445Y047640D03*
D154*
X014450Y047650D03*
X014450Y047200D03*
X018380Y047780D03*
X022180Y047730D03*
X022180Y047390D03*
X022180Y047030D03*
X022180Y047020D03*
X022180Y046660D03*
D155*
X022175Y046670D03*
X022175Y047040D03*
X022175Y047400D03*
X022175Y047740D03*
X022175Y047750D03*
X014455Y047660D03*
X014455Y046800D03*
D156*
X014460Y047210D03*
X014460Y047670D03*
X018390Y047150D03*
X022170Y047050D03*
X022170Y047410D03*
X022170Y047760D03*
X022170Y046680D03*
D157*
X022165Y046690D03*
X022165Y047060D03*
X022165Y047420D03*
X022165Y047770D03*
X022165Y047780D03*
X014465Y047680D03*
X014465Y047220D03*
X014465Y046810D03*
D158*
X014470Y047230D03*
X014470Y047690D03*
X018360Y047770D03*
X022160Y047790D03*
X022160Y047800D03*
X022160Y047430D03*
X022160Y047080D03*
X022160Y047070D03*
X022160Y046710D03*
X022160Y046700D03*
D159*
X022155Y046720D03*
X022155Y047090D03*
X022155Y047440D03*
X022155Y047810D03*
X014475Y047240D03*
X014475Y046820D03*
D160*
X014480Y047250D03*
X014480Y047700D03*
X018500Y046850D03*
X022150Y046730D03*
X022150Y047450D03*
D161*
X022145Y047460D03*
X022145Y047820D03*
X022145Y046740D03*
X014485Y046830D03*
X014485Y047260D03*
D162*
X018410Y047800D03*
X022220Y047650D03*
X022220Y047310D03*
X022220Y046910D03*
X022220Y046900D03*
X022220Y046750D03*
X022220Y048060D03*
D163*
X022225Y048050D03*
X022225Y048040D03*
X022225Y048030D03*
X022225Y048020D03*
X022225Y048010D03*
X022225Y048000D03*
X022225Y047990D03*
X022225Y047980D03*
X022225Y047970D03*
X022225Y047960D03*
X022225Y047950D03*
X022225Y047940D03*
X022225Y047930D03*
X022225Y047920D03*
X022225Y047910D03*
X022225Y047900D03*
X022225Y047890D03*
X022225Y047880D03*
X022225Y047870D03*
X022225Y047860D03*
X022225Y047640D03*
X022225Y047630D03*
X022225Y047620D03*
X022225Y047610D03*
X022225Y047600D03*
X022225Y047590D03*
X022225Y047580D03*
X022225Y047570D03*
X022225Y047560D03*
X022225Y047550D03*
X022225Y047540D03*
X022225Y047530D03*
X022225Y047520D03*
X022225Y047300D03*
X022225Y047290D03*
X022225Y047280D03*
X022225Y047270D03*
X022225Y047260D03*
X022225Y047250D03*
X022225Y047240D03*
X022225Y047230D03*
X022225Y047220D03*
X022225Y047210D03*
X022225Y047200D03*
X022225Y047190D03*
X022225Y047180D03*
X022225Y047170D03*
X022225Y047160D03*
X022225Y047150D03*
X022225Y047140D03*
X022225Y047130D03*
X022225Y047120D03*
X022225Y047110D03*
X022225Y047100D03*
X022225Y046890D03*
X022225Y046880D03*
X022225Y046870D03*
X022225Y046860D03*
X022225Y046850D03*
X022225Y046840D03*
X022225Y046830D03*
X022225Y046820D03*
X022225Y046810D03*
X022225Y046800D03*
X022225Y046790D03*
X022225Y046780D03*
X022225Y046770D03*
X022225Y046760D03*
X018425Y047170D03*
D164*
X019020Y046770D03*
D165*
X018945Y046790D03*
X018315Y047200D03*
D166*
X018470Y046800D03*
D167*
X018470Y046810D03*
D168*
X018490Y046820D03*
X014590Y046940D03*
X014590Y047470D03*
D169*
X014550Y047390D03*
X018270Y048050D03*
X018500Y046830D03*
D170*
X018500Y046840D03*
X022120Y047830D03*
X014510Y047740D03*
X014510Y047310D03*
D171*
X014495Y047280D03*
X014495Y046840D03*
X018365Y047140D03*
X022135Y047490D03*
D172*
X022125Y047510D03*
X018335Y047760D03*
X018295Y048070D03*
X014505Y047730D03*
X014505Y047300D03*
X014505Y046850D03*
D173*
X014515Y046860D03*
X014515Y047320D03*
X014515Y047750D03*
D174*
X018225Y047420D03*
X018485Y046870D03*
X022215Y046920D03*
X022215Y046930D03*
X022215Y047320D03*
X022215Y047660D03*
X022215Y048070D03*
D175*
X022105Y047840D03*
X018285Y048060D03*
X014525Y047770D03*
X014525Y047340D03*
X014525Y046870D03*
D176*
X018475Y046880D03*
D177*
X018335Y047130D03*
X014535Y046880D03*
X014535Y047780D03*
D178*
X014545Y047800D03*
X014545Y046890D03*
D179*
X014555Y046900D03*
X014555Y047370D03*
X014555Y047380D03*
X014555Y047400D03*
X014555Y047810D03*
D180*
X014565Y047830D03*
X014565Y047420D03*
X014565Y047350D03*
X014565Y046910D03*
D181*
X014570Y046920D03*
X014570Y047430D03*
D182*
X014580Y047450D03*
X014580Y047850D03*
X014580Y046930D03*
D183*
X018395Y047790D03*
X022205Y047680D03*
X022205Y047340D03*
X022205Y046960D03*
X022205Y046950D03*
D184*
X014600Y046950D03*
D185*
X014605Y046960D03*
D186*
X014615Y046970D03*
D187*
X017670Y047650D03*
X017880Y047080D03*
D188*
X018300Y047090D03*
D189*
X018285Y047100D03*
X014645Y047870D03*
D190*
X018280Y047110D03*
D191*
X018295Y047120D03*
D192*
X018330Y047180D03*
D193*
X018325Y047190D03*
D194*
X022140Y047470D03*
X022140Y047480D03*
X014490Y047270D03*
D195*
X014500Y047290D03*
X014500Y047710D03*
X014500Y047720D03*
X022130Y047500D03*
D196*
X014520Y047330D03*
X014520Y047760D03*
D197*
X014560Y047820D03*
X014560Y047410D03*
X014560Y047360D03*
D198*
X018225Y047430D03*
D199*
X018265Y048040D03*
X014575Y047840D03*
X014575Y047440D03*
D200*
X014585Y047460D03*
X014585Y047860D03*
D201*
X018235Y047470D03*
D202*
X017690Y047660D03*
D203*
X018255Y047670D03*
D204*
X018255Y047680D03*
D205*
X018260Y047690D03*
D206*
X018260Y047700D03*
D207*
X018260Y047710D03*
D208*
X018265Y047720D03*
D209*
X018260Y047730D03*
D210*
X018255Y047740D03*
D211*
X018215Y047750D03*
D212*
X014540Y047790D03*
D213*
X022100Y047850D03*
M02*
