G75*
G70*
%OFA0B0*%
%FSLAX24Y24*%
%IPPOS*%
%LPD*%
%AMOC8*
5,1,8,0,0,1.08239X$1,22.5*
%
%ADD10C,0.1540*%
%ADD11R,0.1400X0.1200*%
%ADD12C,0.0749*%
%ADD13C,0.0700*%
%ADD14C,0.0631*%
%ADD15R,0.0434X0.0473*%
%ADD16C,0.0780*%
%ADD17R,0.0473X0.0434*%
%ADD18C,0.0634*%
%ADD19C,0.0700*%
%ADD20OC8,0.0560*%
%ADD21C,0.0940*%
%ADD22C,0.1103*%
%ADD23C,0.1221*%
%ADD24C,0.1740*%
%ADD25R,0.0631X0.0552*%
%ADD26OC8,0.1424*%
%ADD27C,0.0512*%
%ADD28C,0.0670*%
D10*
X012700Y029510D03*
X012500Y042710D03*
X007700Y047510D03*
X031400Y056110D03*
X038700Y029510D03*
D11*
X036700Y041510D03*
X036700Y046510D03*
X036700Y051510D03*
X036700Y056510D03*
D12*
X002250Y057699D03*
X002250Y055120D03*
D13*
X003200Y051510D03*
X003200Y050510D03*
D14*
X013141Y055756D03*
X013141Y056740D03*
X013141Y057724D03*
X014440Y057724D03*
X014440Y056740D03*
X014440Y055756D03*
D15*
X025000Y055444D03*
X025000Y054775D03*
X026500Y054775D03*
X026500Y055444D03*
X033270Y051794D03*
X033270Y051125D03*
X033170Y046804D03*
X033170Y046135D03*
X032440Y043334D03*
X032440Y042665D03*
D16*
X028500Y042610D03*
X028500Y041610D03*
X028500Y040610D03*
X028500Y039610D03*
X028500Y038610D03*
X026000Y033710D03*
X025000Y033710D03*
X024000Y033710D03*
X023000Y033710D03*
X022000Y033710D03*
X021000Y033710D03*
X014900Y033310D03*
X014900Y034310D03*
X014900Y035310D03*
X028200Y029210D03*
X029200Y029210D03*
X030200Y029210D03*
X031200Y029210D03*
X032200Y029210D03*
X034700Y031710D03*
X035700Y031710D03*
X036700Y031710D03*
X037700Y031710D03*
X038700Y031710D03*
X039700Y031710D03*
X039700Y034010D03*
X038700Y034010D03*
X037700Y034010D03*
X036700Y034010D03*
X035700Y034010D03*
X034700Y034010D03*
X038100Y037810D03*
X039100Y037810D03*
X040100Y037810D03*
X028500Y043610D03*
X028500Y044610D03*
X028500Y045610D03*
X028500Y046610D03*
D17*
X034665Y048810D03*
X035335Y048810D03*
X035465Y044010D03*
X036135Y044010D03*
X031535Y035110D03*
X030865Y035110D03*
X030765Y034110D03*
X031435Y034110D03*
X031435Y033010D03*
X030765Y033010D03*
X030035Y034110D03*
X029365Y034110D03*
X035165Y054010D03*
X035835Y054010D03*
X035235Y058210D03*
X034565Y058210D03*
D18*
X006100Y035910D03*
X004600Y034410D03*
X003100Y040410D03*
X004600Y041410D03*
D19*
X011500Y036140D02*
X011500Y035480D01*
X012500Y035480D02*
X012500Y036140D01*
X013500Y036140D02*
X013500Y035480D01*
D20*
X009600Y032610D03*
X009600Y030610D03*
X007400Y030610D03*
X007400Y032610D03*
X005200Y032610D03*
X005200Y030610D03*
D21*
X006600Y029210D03*
X008100Y029210D03*
X038400Y040710D03*
X038400Y042210D03*
X038400Y045610D03*
X038400Y047110D03*
X038400Y050710D03*
X038400Y052210D03*
X038400Y055410D03*
X038400Y056910D03*
D22*
X010700Y053810D03*
X010700Y051644D03*
D23*
X010700Y056684D03*
D24*
X005894Y046110D03*
X004713Y044259D03*
X003531Y046110D03*
D25*
X031600Y043364D03*
X031600Y042616D03*
X032330Y046096D03*
X032330Y046844D03*
X032360Y051076D03*
X032360Y051824D03*
D26*
X019944Y028893D03*
X015456Y028893D03*
D27*
X016814Y028893D03*
X018586Y028893D03*
D28*
X018094Y029719D03*
X017306Y029719D03*
X016322Y029719D03*
X019078Y029719D03*
M02*
