G75*
G70*
%OFA0B0*%
%FSLAX24Y24*%
%IPPOS*%
%LPD*%
%AMOC8*
5,1,8,0,0,1.08239X$1,22.5*
%
%ADD10C,0.0709*%
%ADD11C,0.0660*%
%ADD12C,0.0591*%
%ADD13R,0.0394X0.0433*%
%ADD14C,0.0740*%
%ADD15R,0.0433X0.0394*%
%ADD16C,0.0594*%
%ADD17C,0.0660*%
%ADD18OC8,0.0520*%
%ADD19C,0.0900*%
%ADD20C,0.1063*%
%ADD21C,0.1700*%
%ADD22R,0.0591X0.0512*%
%ADD23OC8,0.1384*%
%ADD24C,0.0630*%
%ADD25C,0.0320*%
%ADD26C,0.0100*%
%ADD27C,0.0160*%
%ADD28C,0.0500*%
%ADD29C,0.0080*%
%ADD30C,0.0240*%
%ADD31C,0.0400*%
D10*
X002250Y055120D03*
X002250Y057699D03*
D11*
X003200Y051510D03*
X003200Y050510D03*
D12*
X013141Y055756D03*
X013141Y056740D03*
X013141Y057724D03*
X014440Y057724D03*
X014440Y056740D03*
X014440Y055756D03*
D13*
X025000Y055444D03*
X025000Y054775D03*
X026500Y054775D03*
X026500Y055444D03*
X033270Y051794D03*
X033270Y051125D03*
X033170Y046804D03*
X033170Y046135D03*
X032440Y043334D03*
X032440Y042665D03*
D14*
X028500Y042610D03*
X028500Y041610D03*
X028500Y040610D03*
X028500Y039610D03*
X028500Y038610D03*
X026000Y033710D03*
X025000Y033710D03*
X024000Y033710D03*
X023000Y033710D03*
X022000Y033710D03*
X021000Y033710D03*
X014900Y033310D03*
X014900Y034310D03*
X014900Y035310D03*
X028200Y029210D03*
X029200Y029210D03*
X030200Y029210D03*
X031200Y029210D03*
X032200Y029210D03*
X034700Y031710D03*
X035700Y031710D03*
X036700Y031710D03*
X037700Y031710D03*
X038700Y031710D03*
X039700Y031710D03*
X039700Y034010D03*
X038700Y034010D03*
X037700Y034010D03*
X036700Y034010D03*
X035700Y034010D03*
X034700Y034010D03*
X038100Y037810D03*
X039100Y037810D03*
X040100Y037810D03*
X028500Y043610D03*
X028500Y044610D03*
X028500Y045610D03*
X028500Y046610D03*
D15*
X034665Y048810D03*
X035335Y048810D03*
X035465Y044010D03*
X036135Y044010D03*
X031535Y035110D03*
X030865Y035110D03*
X030765Y034110D03*
X031435Y034110D03*
X031435Y033010D03*
X030765Y033010D03*
X030035Y034110D03*
X029365Y034110D03*
X035165Y054010D03*
X035835Y054010D03*
X035235Y058210D03*
X034565Y058210D03*
D16*
X006100Y035910D03*
X004600Y034410D03*
X003100Y040410D03*
X004600Y041410D03*
D17*
X011500Y036140D02*
X011500Y035480D01*
X012500Y035480D02*
X012500Y036140D01*
X013500Y036140D02*
X013500Y035480D01*
D18*
X009600Y032610D03*
X009600Y030610D03*
X007400Y030610D03*
X007400Y032610D03*
X005200Y032610D03*
X005200Y030610D03*
D19*
X006600Y029210D03*
X008100Y029210D03*
X038400Y040710D03*
X038400Y042210D03*
X038400Y045610D03*
X038400Y047110D03*
X038400Y050710D03*
X038400Y052210D03*
X038400Y055410D03*
X038400Y056910D03*
D20*
X010700Y053810D03*
X010700Y051644D03*
D21*
X005894Y046110D03*
X004713Y044259D03*
X003531Y046110D03*
D22*
X031600Y043364D03*
X031600Y042616D03*
X032330Y046096D03*
X032330Y046844D03*
X032360Y051076D03*
X032360Y051824D03*
D23*
X019944Y028893D03*
X015456Y028893D03*
D24*
X016322Y029719D03*
X017306Y029719D03*
X018094Y029719D03*
X019078Y029719D03*
D25*
X019100Y034910D03*
X019700Y036310D03*
X018100Y037210D03*
X017200Y035210D03*
X023500Y045410D03*
X022500Y046510D03*
X022500Y046910D03*
X022500Y047310D03*
X022000Y047310D03*
X021600Y047310D03*
X021200Y047310D03*
X021000Y046110D03*
X021400Y046110D03*
X021800Y046110D03*
X024140Y048810D03*
X025200Y050310D03*
X025200Y050810D03*
X025200Y051410D03*
X024600Y050810D03*
X025800Y050810D03*
X025800Y050310D03*
X026400Y050310D03*
X026400Y050810D03*
X025800Y051410D03*
X027400Y050810D03*
X027700Y049910D03*
X028200Y049910D03*
X028900Y049510D03*
X027700Y051810D03*
X025800Y054610D03*
X027300Y055910D03*
X026780Y056830D03*
X026640Y057650D03*
X025540Y057650D03*
X023200Y056010D03*
X022200Y056010D03*
X022200Y057010D03*
X022200Y058010D03*
X021200Y058010D03*
X021200Y057010D03*
X021200Y056010D03*
X020200Y056010D03*
X020200Y057010D03*
X020200Y058010D03*
X019200Y058010D03*
X019200Y057010D03*
X019200Y056010D03*
X019200Y055010D03*
X019200Y054010D03*
X020200Y054010D03*
X020200Y055010D03*
X019200Y053010D03*
X019200Y052010D03*
X018200Y052010D03*
X018200Y053110D03*
X018200Y054010D03*
X018200Y055010D03*
X018200Y056010D03*
X018200Y057010D03*
X018200Y058010D03*
X017200Y058010D03*
X017200Y057010D03*
X017200Y056010D03*
X017200Y055010D03*
X017200Y054010D03*
X017200Y053010D03*
X017200Y052010D03*
X016200Y052010D03*
X016200Y053010D03*
X015200Y052010D03*
X015200Y051010D03*
X016200Y051010D03*
X016200Y050010D03*
X017200Y050010D03*
X017200Y051010D03*
X018200Y051010D03*
X021600Y051210D03*
X021600Y051810D03*
X022200Y051810D03*
X022200Y052410D03*
X022200Y051210D03*
X022200Y050610D03*
X021600Y050610D03*
X021600Y050010D03*
X022200Y050010D03*
X029300Y039110D03*
X029800Y039110D03*
X030300Y039110D03*
X030800Y038210D03*
X030300Y038010D03*
X029800Y037710D03*
X029300Y037410D03*
X030260Y036750D03*
X029300Y035410D03*
X028800Y035410D03*
X029300Y033510D03*
X027500Y034110D03*
X027500Y035010D03*
X026100Y034810D03*
X024100Y035410D03*
X026450Y030760D03*
X026450Y030260D03*
X030100Y031010D03*
X030400Y030710D03*
X031100Y030810D03*
X032300Y030310D03*
X032000Y033010D03*
X032000Y034110D03*
X033400Y034110D03*
X033400Y032910D03*
X032650Y035820D03*
X032620Y036260D03*
X031550Y035660D03*
X031700Y038010D03*
X033300Y038710D03*
X033300Y039710D03*
X033300Y040710D03*
X034300Y041010D03*
X035000Y041210D03*
X034800Y042610D03*
X034800Y043110D03*
X035300Y043110D03*
X035300Y042610D03*
X035800Y043410D03*
X036300Y043410D03*
X036700Y043610D03*
X036800Y044610D03*
X037500Y044610D03*
X037000Y046210D03*
X036700Y046510D03*
X036400Y046710D03*
X036400Y046210D03*
X037000Y046710D03*
X036800Y048610D03*
X036300Y048610D03*
X035900Y048410D03*
X034900Y048010D03*
X034900Y047410D03*
X034900Y046810D03*
X034300Y046810D03*
X034300Y047410D03*
X034300Y048010D03*
X033700Y048910D03*
X033100Y048610D03*
X033700Y049810D03*
X032600Y049110D03*
X031600Y047910D03*
X031100Y047910D03*
X031100Y047410D03*
X031600Y047410D03*
X031600Y046910D03*
X031100Y046910D03*
X031100Y044810D03*
X031300Y044410D03*
X031600Y044810D03*
X030800Y044410D03*
X030800Y043910D03*
X032400Y044110D03*
X033100Y044310D03*
X032700Y045610D03*
X034400Y043610D03*
X034900Y043610D03*
X035560Y044730D03*
X036400Y041710D03*
X036700Y041510D03*
X037000Y041710D03*
X037000Y041210D03*
X036400Y041210D03*
X035500Y039510D03*
X036320Y039250D03*
X035700Y038210D03*
X034900Y038310D03*
X034500Y039210D03*
X035300Y036910D03*
X035300Y035610D03*
X034500Y035710D03*
X034200Y036410D03*
X033600Y036910D03*
X036800Y037410D03*
X037200Y039210D03*
X039600Y042710D03*
X040100Y042710D03*
X040100Y048310D03*
X039600Y048310D03*
X037200Y049610D03*
X036700Y049510D03*
X035800Y049710D03*
X036400Y051210D03*
X036700Y051510D03*
X036400Y051710D03*
X037000Y051710D03*
X037000Y051210D03*
X036360Y053490D03*
X035900Y053510D03*
X034900Y053010D03*
X034900Y052410D03*
X034900Y051810D03*
X034300Y051810D03*
X034300Y052410D03*
X034300Y053010D03*
X033900Y054410D03*
X033900Y056910D03*
X035800Y058310D03*
X036320Y058430D03*
X036800Y058450D03*
X037000Y056710D03*
X036700Y056510D03*
X036400Y056710D03*
X036400Y056210D03*
X037000Y056210D03*
X036700Y054610D03*
X037400Y054510D03*
X036900Y053690D03*
X039600Y052810D03*
X040100Y052810D03*
X040100Y057410D03*
X039600Y057410D03*
X032600Y050610D03*
X031600Y051910D03*
X031600Y052410D03*
X031600Y052910D03*
X031100Y052910D03*
X031100Y052410D03*
X031100Y051910D03*
X030600Y057710D03*
X030600Y058510D03*
X012110Y054590D03*
X012100Y054090D03*
X012090Y053600D03*
X012100Y053080D03*
X011570Y053090D03*
X011570Y053600D03*
X011570Y053600D03*
X011570Y054100D03*
X011470Y054700D03*
X011470Y055100D03*
X011470Y055490D03*
X011070Y055490D03*
X011070Y055100D03*
X010670Y055100D03*
X010670Y055490D03*
X010270Y055490D03*
X010270Y055100D03*
X010270Y054700D03*
X010670Y054700D03*
X011070Y054700D03*
X007680Y057800D03*
X007680Y058300D03*
X007080Y058300D03*
X007080Y057800D03*
X006730Y057260D03*
X006740Y056790D03*
X006980Y056400D03*
X006980Y056000D03*
X006480Y056000D03*
X006480Y056400D03*
X006230Y055400D03*
X006480Y057800D03*
X006480Y058300D03*
X005860Y058300D03*
X005870Y057800D03*
X004100Y057820D03*
X004120Y058260D03*
X003650Y058320D03*
X003170Y058330D03*
X003900Y054980D03*
X003890Y054380D03*
X003790Y053590D03*
X003790Y053090D03*
X003290Y053090D03*
X003290Y053590D03*
X004000Y050110D03*
X004000Y049510D03*
X003400Y049510D03*
X002800Y049510D03*
X004600Y049510D03*
X004600Y050110D03*
X005200Y050110D03*
X006460Y052920D03*
X007360Y052910D03*
D26*
X011620Y034402D02*
X011620Y028020D01*
X013900Y028020D01*
X013900Y042710D01*
X013800Y042810D01*
X013460Y042810D01*
X013460Y042519D01*
X013314Y042166D01*
X013044Y041896D01*
X012691Y041750D01*
X012309Y041750D01*
X011956Y041896D01*
X011686Y042166D01*
X011540Y042519D01*
X011540Y042810D01*
X001910Y042810D01*
X001910Y036020D01*
X005597Y036020D01*
X005670Y036197D01*
X005813Y036340D01*
X005999Y036417D01*
X006201Y036417D01*
X006387Y036340D01*
X006530Y036197D01*
X006607Y036011D01*
X006607Y035809D01*
X006530Y035623D01*
X006510Y035603D01*
X006510Y034525D01*
X011497Y034525D01*
X011620Y034402D01*
X011612Y034409D02*
X013900Y034409D01*
X013900Y034311D02*
X011620Y034311D01*
X011620Y034212D02*
X013900Y034212D01*
X013900Y034114D02*
X011620Y034114D01*
X011620Y034015D02*
X013900Y034015D01*
X013900Y033917D02*
X011620Y033917D01*
X011620Y033818D02*
X013900Y033818D01*
X013900Y033720D02*
X011620Y033720D01*
X011620Y033621D02*
X013900Y033621D01*
X013900Y033523D02*
X011620Y033523D01*
X011620Y033424D02*
X013900Y033424D01*
X013900Y033326D02*
X011620Y033326D01*
X011620Y033227D02*
X013900Y033227D01*
X013900Y033129D02*
X011620Y033129D01*
X011620Y033030D02*
X013900Y033030D01*
X013900Y032932D02*
X011620Y032932D01*
X011620Y032833D02*
X013900Y032833D01*
X013900Y032735D02*
X011620Y032735D01*
X011620Y032636D02*
X013900Y032636D01*
X013900Y032538D02*
X011620Y032538D01*
X011620Y032439D02*
X013900Y032439D01*
X013900Y032341D02*
X011620Y032341D01*
X011620Y032242D02*
X013900Y032242D01*
X013900Y032144D02*
X011620Y032144D01*
X011620Y032045D02*
X013900Y032045D01*
X013900Y031947D02*
X011620Y031947D01*
X011620Y031848D02*
X013900Y031848D01*
X013900Y031750D02*
X011620Y031750D01*
X011620Y031651D02*
X013900Y031651D01*
X013900Y031553D02*
X011620Y031553D01*
X011620Y031454D02*
X013900Y031454D01*
X013900Y031356D02*
X011620Y031356D01*
X011620Y031257D02*
X013900Y031257D01*
X013900Y031159D02*
X011620Y031159D01*
X011620Y031060D02*
X013900Y031060D01*
X013900Y030962D02*
X011620Y030962D01*
X011620Y030863D02*
X013900Y030863D01*
X013900Y030765D02*
X011620Y030765D01*
X011620Y030666D02*
X013900Y030666D01*
X013900Y030568D02*
X011620Y030568D01*
X011620Y030469D02*
X012508Y030469D01*
X012509Y030470D02*
X012156Y030324D01*
X011886Y030054D01*
X011740Y029701D01*
X011740Y029319D01*
X011886Y028966D01*
X012156Y028696D01*
X012509Y028550D01*
X012891Y028550D01*
X013244Y028696D01*
X013514Y028966D01*
X013660Y029319D01*
X013660Y029701D01*
X013514Y030054D01*
X013244Y030324D01*
X012891Y030470D01*
X012509Y030470D01*
X012270Y030371D02*
X011620Y030371D01*
X011620Y030272D02*
X012105Y030272D01*
X012006Y030174D02*
X011620Y030174D01*
X011620Y030075D02*
X011908Y030075D01*
X011854Y029977D02*
X011620Y029977D01*
X011620Y029878D02*
X011814Y029878D01*
X011773Y029780D02*
X011620Y029780D01*
X011620Y029681D02*
X011740Y029681D01*
X011740Y029583D02*
X011620Y029583D01*
X011620Y029484D02*
X011740Y029484D01*
X011740Y029386D02*
X011620Y029386D01*
X011620Y029287D02*
X011753Y029287D01*
X011794Y029189D02*
X011620Y029189D01*
X011620Y029090D02*
X011835Y029090D01*
X011875Y028992D02*
X011620Y028992D01*
X011620Y028893D02*
X011959Y028893D01*
X012057Y028795D02*
X011620Y028795D01*
X011620Y028696D02*
X012156Y028696D01*
X012393Y028598D02*
X011620Y028598D01*
X011620Y028499D02*
X013900Y028499D01*
X013900Y028401D02*
X011620Y028401D01*
X011620Y028302D02*
X013900Y028302D01*
X013900Y028204D02*
X011620Y028204D01*
X011620Y028105D02*
X013900Y028105D01*
X013900Y028598D02*
X013007Y028598D01*
X013244Y028696D02*
X013900Y028696D01*
X013900Y028795D02*
X013343Y028795D01*
X013441Y028893D02*
X013900Y028893D01*
X013900Y028992D02*
X013525Y028992D01*
X013565Y029090D02*
X013900Y029090D01*
X013900Y029189D02*
X013606Y029189D01*
X013647Y029287D02*
X013900Y029287D01*
X013900Y029386D02*
X013660Y029386D01*
X013660Y029484D02*
X013900Y029484D01*
X013900Y029583D02*
X013660Y029583D01*
X013660Y029681D02*
X013900Y029681D01*
X013900Y029780D02*
X013627Y029780D01*
X013586Y029878D02*
X013900Y029878D01*
X013900Y029977D02*
X013546Y029977D01*
X013492Y030075D02*
X013900Y030075D01*
X013900Y030174D02*
X013394Y030174D01*
X013295Y030272D02*
X013900Y030272D01*
X013900Y030371D02*
X013130Y030371D01*
X012892Y030469D02*
X013900Y030469D01*
X014900Y034310D02*
X017100Y034310D01*
X018400Y035710D01*
X019700Y036310D02*
X029200Y036310D01*
X029850Y035660D01*
X031550Y035660D01*
X031535Y035110D02*
X031885Y035134D01*
X032650Y035450D01*
X032650Y035800D01*
X032000Y034110D02*
X031435Y034110D01*
X031435Y033010D02*
X032000Y033010D01*
X031100Y030810D02*
X031100Y030010D01*
X031200Y029910D01*
X031200Y029210D01*
X028400Y032210D02*
X028700Y032510D01*
X028700Y034810D01*
X029300Y035410D01*
X028800Y035410D02*
X028500Y035110D01*
X028500Y032610D01*
X028200Y032310D01*
X028200Y032010D01*
X026450Y030760D01*
X026450Y030260D02*
X028400Y031810D01*
X028400Y032210D01*
X029300Y033510D02*
X029365Y033575D01*
X029365Y034110D01*
X027500Y034110D02*
X026100Y034810D01*
X029300Y037410D02*
X029300Y039110D01*
X029800Y039110D02*
X029800Y037710D01*
X030300Y038010D02*
X030300Y039110D01*
X030050Y039383D02*
X030010Y039424D01*
X029874Y039480D01*
X029801Y039480D01*
X029900Y052910D01*
X028500Y052810D01*
X028400Y052910D01*
X028400Y054810D01*
X028600Y055010D01*
X030200Y055010D01*
X030682Y055470D01*
X030856Y055296D01*
X031209Y055150D01*
X031591Y055150D01*
X031944Y055296D01*
X032214Y055566D01*
X032360Y055919D01*
X032360Y056301D01*
X032214Y056654D01*
X032071Y056796D01*
X032400Y057110D01*
X037600Y057110D01*
X037600Y055710D01*
X034100Y055710D01*
X031975Y053400D01*
X030742Y053400D01*
X030636Y053356D01*
X030554Y053274D01*
X030510Y053168D01*
X030510Y051552D01*
X030554Y051446D01*
X030636Y051364D01*
X030742Y051320D01*
X035158Y051320D01*
X035264Y051364D01*
X035346Y051446D01*
X035446Y051546D01*
X035490Y051652D01*
X035490Y052110D01*
X037740Y052110D01*
X037740Y052079D01*
X037800Y051934D01*
X037800Y050986D01*
X037740Y050841D01*
X037740Y050610D01*
X033000Y050610D01*
X032996Y050448D01*
X032953Y050430D01*
X032880Y050357D01*
X032840Y050262D01*
X032840Y049518D01*
X032765Y049442D01*
X032674Y049480D01*
X032526Y049480D01*
X032390Y049424D01*
X032286Y049319D01*
X032230Y049183D01*
X032230Y049036D01*
X032286Y048900D01*
X032390Y048796D01*
X032526Y048740D01*
X032674Y048740D01*
X032770Y048780D01*
X032730Y048683D01*
X032730Y048536D01*
X032758Y048470D01*
X030748Y048470D01*
X030653Y048430D01*
X030580Y048357D01*
X030540Y048262D01*
X030540Y046758D01*
X030580Y046663D01*
X030640Y046602D01*
X030640Y046558D01*
X030680Y046463D01*
X030753Y046389D01*
X030848Y046350D01*
X035252Y046350D01*
X035347Y046389D01*
X035420Y046463D01*
X035460Y046558D01*
X035460Y047361D01*
X037802Y047390D01*
X037740Y047241D01*
X037740Y046979D01*
X037813Y046801D01*
X037803Y045894D01*
X037740Y045741D01*
X037740Y045610D01*
X033400Y045610D01*
X033400Y044973D01*
X032999Y044970D01*
X032948Y044970D01*
X032947Y044969D01*
X032946Y044969D01*
X032900Y044950D01*
X032853Y044930D01*
X032852Y044930D01*
X032851Y044929D01*
X032815Y044893D01*
X032402Y044480D01*
X032360Y044480D01*
X032360Y045262D01*
X032320Y045357D01*
X032247Y045430D01*
X032152Y045470D01*
X030548Y045470D01*
X030453Y045430D01*
X030380Y045357D01*
X030340Y045262D01*
X030340Y043058D01*
X030380Y042963D01*
X030453Y042889D01*
X030548Y042850D01*
X033002Y042850D01*
X033722Y042220D01*
X033753Y042189D01*
X033761Y042186D01*
X033768Y042180D01*
X033808Y042166D01*
X033848Y042150D01*
X033857Y042150D01*
X033866Y042147D01*
X033909Y042150D01*
X035552Y042150D01*
X035647Y042189D01*
X035668Y042210D01*
X037740Y042210D01*
X037740Y042079D01*
X037802Y041929D01*
X037808Y041005D01*
X037740Y040841D01*
X037740Y040660D01*
X035460Y040660D01*
X035460Y040884D01*
X035465Y040910D01*
X037769Y040910D01*
X037740Y040812D02*
X035460Y040812D01*
X035465Y040910D02*
X035460Y040935D01*
X035460Y040962D01*
X035450Y040986D01*
X035445Y041011D01*
X035430Y041033D01*
X035420Y041057D01*
X035402Y041075D01*
X035367Y041128D01*
X035370Y041136D01*
X035370Y041283D01*
X035314Y041419D01*
X035210Y041524D01*
X035074Y041580D01*
X034926Y041580D01*
X034790Y041524D01*
X034686Y041419D01*
X034630Y041283D01*
X034630Y041180D01*
X034614Y041219D01*
X034510Y041324D01*
X034374Y041380D01*
X034226Y041380D01*
X034090Y041324D01*
X034037Y041270D01*
X033548Y041270D01*
X033453Y041230D01*
X033302Y041080D01*
X033226Y041080D01*
X033090Y041024D01*
X032986Y040919D01*
X032930Y040783D01*
X032930Y040636D01*
X032986Y040500D01*
X033017Y040470D01*
X031631Y040470D01*
X031611Y040475D01*
X031580Y040470D01*
X031548Y040470D01*
X031529Y040462D01*
X031508Y040459D01*
X031482Y040442D01*
X031453Y040430D01*
X031438Y040415D01*
X031420Y040405D01*
X031402Y040379D01*
X031380Y040357D01*
X031372Y040338D01*
X030620Y039304D01*
X030614Y039319D01*
X030510Y039424D01*
X030374Y039480D01*
X030226Y039480D01*
X030090Y039424D01*
X030050Y039383D01*
X029987Y039433D02*
X030113Y039433D01*
X029801Y039531D02*
X030785Y039531D01*
X030713Y039433D02*
X030487Y039433D01*
X030599Y039334D02*
X030642Y039334D01*
X030800Y039110D02*
X030800Y038210D01*
X030800Y039110D02*
X031600Y040210D01*
X033600Y040210D01*
X033700Y040110D01*
X033700Y039610D01*
X033800Y039510D01*
X033800Y039210D02*
X033300Y039710D01*
X033800Y039210D02*
X034500Y039210D01*
X034900Y038310D02*
X033700Y038310D01*
X033300Y038710D01*
X032980Y040516D02*
X029808Y040516D01*
X029807Y040418D02*
X031440Y040418D01*
X031358Y040319D02*
X029807Y040319D01*
X029806Y040221D02*
X031287Y040221D01*
X031215Y040122D02*
X029805Y040122D01*
X029805Y040024D02*
X031143Y040024D01*
X031072Y039925D02*
X029804Y039925D01*
X029803Y039827D02*
X031000Y039827D01*
X030928Y039728D02*
X029802Y039728D01*
X029802Y039630D02*
X030857Y039630D01*
X029809Y040615D02*
X032939Y040615D01*
X032930Y040713D02*
X029810Y040713D01*
X029810Y040812D02*
X032942Y040812D01*
X032983Y040910D02*
X029811Y040910D01*
X029812Y041009D02*
X033076Y041009D01*
X033330Y041107D02*
X029813Y041107D01*
X029813Y041206D02*
X033428Y041206D01*
X033600Y041010D02*
X033300Y040710D01*
X033400Y040710D01*
X033600Y041010D02*
X034300Y041010D01*
X034529Y041304D02*
X034639Y041304D01*
X034630Y041206D02*
X034619Y041206D01*
X034679Y041403D02*
X029815Y041403D01*
X029815Y041501D02*
X034768Y041501D01*
X035000Y041210D02*
X035200Y040910D01*
X035200Y040110D01*
X035460Y040713D02*
X037740Y040713D01*
X037808Y041009D02*
X035445Y041009D01*
X035381Y041107D02*
X037807Y041107D01*
X037806Y041206D02*
X035370Y041206D01*
X035361Y041304D02*
X037806Y041304D01*
X037805Y041403D02*
X035321Y041403D01*
X035232Y041501D02*
X037805Y041501D01*
X037804Y041600D02*
X029816Y041600D01*
X029817Y041698D02*
X037803Y041698D01*
X037803Y041797D02*
X029818Y041797D01*
X029818Y041895D02*
X037802Y041895D01*
X037775Y041994D02*
X029819Y041994D01*
X029820Y042092D02*
X037740Y042092D01*
X037740Y042191D02*
X035649Y042191D01*
X035500Y042410D02*
X033900Y042410D01*
X033100Y043110D01*
X032787Y043110D01*
X032787Y043286D01*
X032488Y043286D01*
X032488Y043383D01*
X032392Y043383D01*
X032392Y043701D01*
X032223Y043701D01*
X032185Y043691D01*
X032151Y043671D01*
X032123Y043643D01*
X032103Y043609D01*
X032093Y043571D01*
X032093Y043383D01*
X032392Y043383D01*
X032392Y043286D01*
X032093Y043286D01*
X032093Y043110D01*
X032045Y043110D01*
X032045Y043314D01*
X031650Y043314D01*
X031650Y043414D01*
X031550Y043414D01*
X031550Y043770D01*
X031285Y043770D01*
X031247Y043760D01*
X031213Y043740D01*
X031185Y043712D01*
X031165Y043678D01*
X031155Y043640D01*
X031155Y043414D01*
X031550Y043414D01*
X031550Y043314D01*
X031155Y043314D01*
X031155Y043110D01*
X030600Y043110D01*
X030600Y045210D01*
X032100Y045210D01*
X032100Y044210D01*
X032135Y044175D01*
X032130Y044164D01*
X032130Y044056D01*
X032171Y043957D01*
X032247Y043881D01*
X032346Y043840D01*
X032454Y043840D01*
X032553Y043881D01*
X032629Y043957D01*
X032670Y044056D01*
X032670Y044110D01*
X032918Y044110D01*
X032947Y044081D01*
X033046Y044040D01*
X033154Y044040D01*
X033253Y044081D01*
X033282Y044110D01*
X034800Y044110D01*
X035139Y043771D01*
X035139Y043767D01*
X031926Y043767D01*
X031915Y043770D02*
X031650Y043770D01*
X031650Y043414D01*
X032045Y043414D01*
X032045Y043640D01*
X032035Y043678D01*
X032015Y043712D01*
X031987Y043740D01*
X031953Y043760D01*
X031915Y043770D01*
X032038Y043668D02*
X032148Y043668D01*
X032093Y043570D02*
X032045Y043570D01*
X032045Y043471D02*
X032093Y043471D01*
X032093Y043274D02*
X032045Y043274D01*
X032045Y043176D02*
X032093Y043176D01*
X032392Y043373D02*
X031650Y043373D01*
X031650Y043471D02*
X031550Y043471D01*
X031550Y043373D02*
X030600Y043373D01*
X030600Y043471D02*
X031155Y043471D01*
X031155Y043570D02*
X030600Y043570D01*
X030600Y043668D02*
X031162Y043668D01*
X031274Y043767D02*
X030600Y043767D01*
X030600Y043865D02*
X032285Y043865D01*
X032168Y043964D02*
X030600Y043964D01*
X030600Y044062D02*
X032130Y044062D01*
X032130Y044161D02*
X030600Y044161D01*
X030600Y044259D02*
X032100Y044259D01*
X032100Y044358D02*
X030600Y044358D01*
X030600Y044456D02*
X032100Y044456D01*
X032100Y044555D02*
X030600Y044555D01*
X030600Y044653D02*
X032100Y044653D01*
X032100Y044752D02*
X030600Y044752D01*
X030600Y044850D02*
X032100Y044850D01*
X032100Y044949D02*
X030600Y044949D01*
X030600Y045047D02*
X032100Y045047D01*
X032100Y045146D02*
X030600Y045146D01*
X030340Y045146D02*
X029842Y045146D01*
X029843Y045244D02*
X030340Y045244D01*
X030374Y045343D02*
X029844Y045343D01*
X029845Y045441D02*
X030480Y045441D01*
X030340Y045047D02*
X029842Y045047D01*
X029841Y044949D02*
X030340Y044949D01*
X030340Y044850D02*
X029840Y044850D01*
X029840Y044752D02*
X030340Y044752D01*
X030340Y044653D02*
X029839Y044653D01*
X029838Y044555D02*
X030340Y044555D01*
X030340Y044456D02*
X029837Y044456D01*
X029837Y044358D02*
X030340Y044358D01*
X030340Y044259D02*
X029836Y044259D01*
X029835Y044161D02*
X030340Y044161D01*
X030340Y044062D02*
X029834Y044062D01*
X029834Y043964D02*
X030340Y043964D01*
X030340Y043865D02*
X029833Y043865D01*
X029832Y043767D02*
X030340Y043767D01*
X030340Y043668D02*
X029832Y043668D01*
X029831Y043570D02*
X030340Y043570D01*
X030340Y043471D02*
X029830Y043471D01*
X029829Y043373D02*
X030340Y043373D01*
X030340Y043274D02*
X029829Y043274D01*
X029828Y043176D02*
X030340Y043176D01*
X030340Y043077D02*
X029827Y043077D01*
X029826Y042979D02*
X030373Y042979D01*
X030475Y042880D02*
X029826Y042880D01*
X029825Y042782D02*
X033080Y042782D01*
X033193Y042683D02*
X029824Y042683D01*
X029824Y042585D02*
X033305Y042585D01*
X033418Y042486D02*
X029823Y042486D01*
X029822Y042388D02*
X033530Y042388D01*
X033643Y042289D02*
X029821Y042289D01*
X029821Y042191D02*
X033751Y042191D01*
X033813Y042486D02*
X035500Y042486D01*
X035500Y042410D02*
X035500Y043410D01*
X035207Y043703D01*
X035203Y043703D01*
X035139Y043767D01*
X035044Y043865D02*
X032515Y043865D01*
X032632Y043964D02*
X034946Y043964D01*
X034847Y044062D02*
X033208Y044062D01*
X032992Y044062D02*
X032670Y044062D01*
X032400Y044110D02*
X033000Y044710D01*
X035560Y044730D01*
X035900Y044410D02*
X033200Y044410D01*
X033100Y044310D01*
X032773Y044850D02*
X032360Y044850D01*
X032360Y044752D02*
X032674Y044752D01*
X032576Y044653D02*
X032360Y044653D01*
X032360Y044555D02*
X032477Y044555D01*
X032360Y044949D02*
X032898Y044949D01*
X033400Y045047D02*
X032360Y045047D01*
X032360Y045146D02*
X033400Y045146D01*
X033400Y045244D02*
X032360Y045244D01*
X032326Y045343D02*
X033400Y045343D01*
X033400Y045441D02*
X032220Y045441D01*
X032400Y045610D02*
X032340Y045670D01*
X032340Y046086D01*
X032330Y046096D01*
X032400Y045610D02*
X032700Y045610D01*
X033400Y045540D02*
X029845Y045540D01*
X029846Y045638D02*
X037740Y045638D01*
X037740Y045737D02*
X029847Y045737D01*
X029848Y045835D02*
X037779Y045835D01*
X037804Y045934D02*
X029848Y045934D01*
X029849Y046032D02*
X037805Y046032D01*
X037806Y046131D02*
X029850Y046131D01*
X029851Y046229D02*
X037807Y046229D01*
X037808Y046328D02*
X029851Y046328D01*
X029852Y046426D02*
X030716Y046426D01*
X030654Y046525D02*
X029853Y046525D01*
X029853Y046623D02*
X030619Y046623D01*
X030555Y046722D02*
X029854Y046722D01*
X029855Y046820D02*
X030540Y046820D01*
X030540Y046919D02*
X029856Y046919D01*
X029856Y047017D02*
X030540Y047017D01*
X030540Y047116D02*
X029857Y047116D01*
X029858Y047214D02*
X030540Y047214D01*
X030540Y047313D02*
X029859Y047313D01*
X029859Y047411D02*
X030540Y047411D01*
X030540Y047510D02*
X029860Y047510D01*
X029861Y047608D02*
X030540Y047608D01*
X030540Y047707D02*
X029861Y047707D01*
X029862Y047805D02*
X030540Y047805D01*
X030540Y047904D02*
X029863Y047904D01*
X029864Y048002D02*
X030540Y048002D01*
X030540Y048101D02*
X029864Y048101D01*
X029865Y048199D02*
X030540Y048199D01*
X030555Y048298D02*
X029866Y048298D01*
X029867Y048396D02*
X030619Y048396D01*
X030800Y048210D02*
X035200Y048210D01*
X035200Y046610D01*
X033517Y046610D01*
X033517Y046756D01*
X033218Y046756D01*
X033218Y046853D01*
X033122Y046853D01*
X033122Y047171D01*
X032953Y047171D01*
X032915Y047161D01*
X032881Y047141D01*
X032853Y047113D01*
X032833Y047079D01*
X032823Y047041D01*
X032823Y046853D01*
X033122Y046853D01*
X033122Y046756D01*
X032823Y046756D01*
X032823Y046610D01*
X032775Y046610D01*
X032775Y046794D01*
X032380Y046794D01*
X032380Y046894D01*
X032280Y046894D01*
X032280Y047250D01*
X032015Y047250D01*
X031977Y047240D01*
X031943Y047220D01*
X031915Y047192D01*
X031895Y047158D01*
X031885Y047120D01*
X031885Y046894D01*
X032280Y046894D01*
X032280Y046794D01*
X031885Y046794D01*
X031885Y046610D01*
X030900Y046610D01*
X030900Y046710D01*
X030800Y046810D01*
X030800Y048210D01*
X030800Y048199D02*
X035200Y048199D01*
X035200Y048101D02*
X030800Y048101D01*
X030800Y048002D02*
X035200Y048002D01*
X035200Y047904D02*
X030800Y047904D01*
X030800Y047805D02*
X035200Y047805D01*
X035200Y047707D02*
X030800Y047707D01*
X030800Y047608D02*
X035200Y047608D01*
X035200Y047510D02*
X030800Y047510D01*
X030800Y047411D02*
X035200Y047411D01*
X035200Y047313D02*
X030800Y047313D01*
X030800Y047214D02*
X031937Y047214D01*
X031885Y047116D02*
X030800Y047116D01*
X030800Y047017D02*
X031885Y047017D01*
X031885Y046919D02*
X030800Y046919D01*
X030800Y046820D02*
X032280Y046820D01*
X032280Y046919D02*
X032380Y046919D01*
X032380Y046894D02*
X032380Y047250D01*
X032645Y047250D01*
X032683Y047240D01*
X032717Y047220D01*
X032745Y047192D01*
X032765Y047158D01*
X032775Y047120D01*
X032775Y046894D01*
X032380Y046894D01*
X032380Y046820D02*
X033122Y046820D01*
X033218Y046820D02*
X035200Y046820D01*
X035200Y046722D02*
X033517Y046722D01*
X033517Y046623D02*
X035200Y046623D01*
X035460Y046623D02*
X037811Y046623D01*
X037810Y046525D02*
X035446Y046525D01*
X035384Y046426D02*
X037809Y046426D01*
X037812Y046722D02*
X035460Y046722D01*
X035460Y046820D02*
X037806Y046820D01*
X037765Y046919D02*
X035460Y046919D01*
X035460Y047017D02*
X037740Y047017D01*
X037740Y047116D02*
X035460Y047116D01*
X035460Y047214D02*
X037740Y047214D01*
X037770Y047313D02*
X035460Y047313D01*
X035200Y047214D02*
X032723Y047214D01*
X032775Y047116D02*
X032856Y047116D01*
X032823Y047017D02*
X032775Y047017D01*
X032775Y046919D02*
X032823Y046919D01*
X032823Y046722D02*
X032775Y046722D01*
X032775Y046623D02*
X032823Y046623D01*
X033122Y046919D02*
X033218Y046919D01*
X033218Y046853D02*
X033218Y047171D01*
X033387Y047171D01*
X033425Y047161D01*
X033459Y047141D01*
X033487Y047113D01*
X033507Y047079D01*
X033517Y047041D01*
X033517Y046853D01*
X033218Y046853D01*
X033218Y047017D02*
X033122Y047017D01*
X033122Y047116D02*
X033218Y047116D01*
X033484Y047116D02*
X035200Y047116D01*
X035200Y047017D02*
X033517Y047017D01*
X033517Y046919D02*
X035200Y046919D01*
X036300Y048310D02*
X036900Y047710D01*
X038800Y047710D01*
X038900Y047810D01*
X038900Y048210D01*
X039000Y048310D01*
X039600Y048310D01*
X039900Y048610D02*
X040100Y048410D01*
X040100Y048310D01*
X038900Y048610D02*
X038700Y048410D01*
X038700Y048010D01*
X038600Y047910D01*
X037000Y047910D01*
X036800Y048110D01*
X036800Y048610D01*
X036300Y048610D02*
X036300Y048310D01*
X036100Y049410D02*
X034400Y049410D01*
X034100Y049010D01*
X034100Y048510D01*
X033200Y048510D01*
X033100Y048610D01*
X032730Y048593D02*
X029868Y048593D01*
X029867Y048495D02*
X032747Y048495D01*
X032734Y048692D02*
X029869Y048692D01*
X029869Y048790D02*
X032404Y048790D01*
X032298Y048889D02*
X029870Y048889D01*
X029871Y048987D02*
X032250Y048987D01*
X032230Y049086D02*
X029872Y049086D01*
X029872Y049184D02*
X032230Y049184D01*
X032271Y049283D02*
X029873Y049283D01*
X029874Y049381D02*
X032348Y049381D01*
X032600Y049110D02*
X032800Y049110D01*
X033100Y049410D01*
X033100Y050210D01*
X033900Y050210D01*
X034100Y050010D01*
X034100Y049710D01*
X035800Y049710D01*
X036100Y049410D02*
X036200Y049510D01*
X036700Y049510D01*
X037740Y050662D02*
X029883Y050662D01*
X029884Y050760D02*
X037740Y050760D01*
X037747Y050859D02*
X029885Y050859D01*
X029886Y050957D02*
X037788Y050957D01*
X037800Y051056D02*
X029886Y051056D01*
X029887Y051154D02*
X037800Y051154D01*
X037800Y051253D02*
X029888Y051253D01*
X029888Y051351D02*
X030666Y051351D01*
X030552Y051450D02*
X029889Y051450D01*
X029890Y051548D02*
X030512Y051548D01*
X030510Y051647D02*
X029891Y051647D01*
X029891Y051745D02*
X030510Y051745D01*
X030510Y051844D02*
X029892Y051844D01*
X029893Y051942D02*
X030510Y051942D01*
X030510Y052041D02*
X029894Y052041D01*
X029894Y052139D02*
X030510Y052139D01*
X030510Y052238D02*
X029895Y052238D01*
X029896Y052336D02*
X030510Y052336D01*
X030510Y052435D02*
X029896Y052435D01*
X029897Y052533D02*
X030510Y052533D01*
X030510Y052632D02*
X029898Y052632D01*
X029899Y052730D02*
X030510Y052730D01*
X030510Y052829D02*
X029899Y052829D01*
X030510Y052927D02*
X028400Y052927D01*
X028400Y053026D02*
X030510Y053026D01*
X030510Y053124D02*
X028400Y053124D01*
X028400Y053223D02*
X030533Y053223D01*
X030601Y053321D02*
X028400Y053321D01*
X028400Y053420D02*
X031993Y053420D01*
X032084Y053518D02*
X028400Y053518D01*
X028400Y053617D02*
X032174Y053617D01*
X032265Y053715D02*
X028400Y053715D01*
X028400Y053814D02*
X032356Y053814D01*
X032446Y053912D02*
X028400Y053912D01*
X028400Y054011D02*
X032537Y054011D01*
X032628Y054109D02*
X028400Y054109D01*
X028400Y054208D02*
X032718Y054208D01*
X032809Y054306D02*
X028400Y054306D01*
X028400Y054405D02*
X032899Y054405D01*
X032990Y054503D02*
X028400Y054503D01*
X028400Y054602D02*
X033081Y054602D01*
X033171Y054700D02*
X028400Y054700D01*
X028400Y054799D02*
X033262Y054799D01*
X033353Y054897D02*
X028488Y054897D01*
X028586Y054996D02*
X033443Y054996D01*
X033534Y055094D02*
X030289Y055094D01*
X030392Y055193D02*
X031105Y055193D01*
X030867Y055291D02*
X030495Y055291D01*
X030598Y055390D02*
X030762Y055390D01*
X031695Y055193D02*
X033624Y055193D01*
X033715Y055291D02*
X031933Y055291D01*
X032038Y055390D02*
X033806Y055390D01*
X033896Y055488D02*
X032136Y055488D01*
X032222Y055587D02*
X033987Y055587D01*
X034078Y055685D02*
X032263Y055685D01*
X032304Y055784D02*
X037600Y055784D01*
X037600Y055882D02*
X032345Y055882D01*
X032360Y055981D02*
X037600Y055981D01*
X037600Y056079D02*
X032360Y056079D01*
X032360Y056178D02*
X037600Y056178D01*
X037600Y056276D02*
X032360Y056276D01*
X032329Y056375D02*
X037600Y056375D01*
X037600Y056473D02*
X032288Y056473D01*
X032248Y056572D02*
X037600Y056572D01*
X037600Y056670D02*
X032197Y056670D01*
X032099Y056769D02*
X037600Y056769D01*
X037600Y056867D02*
X032146Y056867D01*
X032249Y056966D02*
X037600Y056966D01*
X037600Y057064D02*
X032352Y057064D01*
X033900Y054410D02*
X036600Y054410D01*
X036700Y054510D01*
X036700Y054610D01*
X036900Y053690D02*
X037200Y053210D01*
X039900Y053210D01*
X040100Y053010D01*
X040100Y052810D01*
X039600Y052810D02*
X039500Y052910D01*
X036800Y052910D01*
X036400Y053310D01*
X036360Y053490D01*
X035900Y053510D02*
X035300Y053510D01*
X035200Y053610D01*
X035200Y053975D01*
X035165Y054010D01*
X035490Y052041D02*
X037756Y052041D01*
X037796Y051942D02*
X035490Y051942D01*
X035490Y051844D02*
X037800Y051844D01*
X037800Y051745D02*
X035490Y051745D01*
X035488Y051647D02*
X037800Y051647D01*
X037800Y051548D02*
X035447Y051548D01*
X035350Y051450D02*
X037800Y051450D01*
X037800Y051351D02*
X035234Y051351D01*
X033700Y049810D02*
X033700Y048910D01*
X032802Y049480D02*
X029875Y049480D01*
X029875Y049578D02*
X032840Y049578D01*
X032840Y049677D02*
X029876Y049677D01*
X029877Y049775D02*
X032840Y049775D01*
X032840Y049874D02*
X029878Y049874D01*
X029878Y049972D02*
X032840Y049972D01*
X032840Y050071D02*
X029879Y050071D01*
X029880Y050169D02*
X032840Y050169D01*
X032843Y050268D02*
X029880Y050268D01*
X029881Y050366D02*
X032889Y050366D01*
X032996Y050465D02*
X029882Y050465D01*
X029883Y050563D02*
X032999Y050563D01*
X032600Y050610D02*
X032400Y050610D01*
X032400Y050910D01*
X032360Y050950D01*
X032360Y051076D01*
X032280Y047214D02*
X032380Y047214D01*
X032380Y047116D02*
X032280Y047116D01*
X032280Y047017D02*
X032380Y047017D01*
X031885Y046722D02*
X030888Y046722D01*
X030900Y046623D02*
X031885Y046623D01*
X031650Y043767D02*
X031550Y043767D01*
X031550Y043668D02*
X031650Y043668D01*
X031650Y043570D02*
X031550Y043570D01*
X031155Y043274D02*
X030600Y043274D01*
X030600Y043176D02*
X031155Y043176D01*
X032392Y043471D02*
X032488Y043471D01*
X032488Y043383D02*
X032488Y043701D01*
X032657Y043701D01*
X032695Y043691D01*
X032729Y043671D01*
X032757Y043643D01*
X032777Y043609D01*
X032787Y043571D01*
X032787Y043383D01*
X032488Y043383D01*
X032488Y043373D02*
X035500Y043373D01*
X035500Y043274D02*
X032787Y043274D01*
X032787Y043176D02*
X035500Y043176D01*
X035500Y043077D02*
X033137Y043077D01*
X033250Y042979D02*
X035500Y042979D01*
X035500Y042880D02*
X033362Y042880D01*
X033475Y042782D02*
X035500Y042782D01*
X035500Y042683D02*
X033587Y042683D01*
X033700Y042585D02*
X035500Y042585D01*
X035800Y043410D02*
X035460Y043735D01*
X035465Y044010D01*
X035241Y043668D02*
X032732Y043668D01*
X032787Y043570D02*
X035340Y043570D01*
X035438Y043471D02*
X032787Y043471D01*
X032488Y043570D02*
X032392Y043570D01*
X032392Y043668D02*
X032488Y043668D01*
X034071Y041304D02*
X029814Y041304D01*
X035500Y039510D02*
X035700Y039310D01*
X035700Y038210D01*
X036800Y037410D02*
X036900Y037410D01*
X036800Y042910D02*
X039500Y042910D01*
X039600Y042810D01*
X039600Y042710D01*
X040100Y042710D02*
X040100Y043010D01*
X039900Y043210D01*
X036900Y043210D01*
X036700Y043410D01*
X036700Y043610D01*
X036300Y043410D02*
X036800Y042910D01*
X036800Y044610D02*
X036100Y044610D01*
X035900Y044410D01*
X028767Y052829D02*
X028481Y052829D01*
X026500Y054775D02*
X026235Y054775D01*
X026100Y054910D01*
X025800Y054910D01*
X025135Y054910D01*
X025000Y054775D01*
X025800Y054910D02*
X025800Y054610D01*
X022800Y048810D02*
X022900Y048710D01*
X022900Y045210D01*
X022700Y045010D01*
X018700Y045010D01*
X018700Y048810D01*
X022800Y048810D01*
X022819Y048790D02*
X018700Y048790D01*
X018700Y048692D02*
X022900Y048692D01*
X022900Y048593D02*
X018700Y048593D01*
X018700Y048495D02*
X022900Y048495D01*
X022900Y048396D02*
X018700Y048396D01*
X018700Y048298D02*
X022900Y048298D01*
X022900Y048199D02*
X018700Y048199D01*
X018700Y048101D02*
X022900Y048101D01*
X022900Y048002D02*
X018700Y048002D01*
X018700Y047904D02*
X022900Y047904D01*
X022900Y047805D02*
X018700Y047805D01*
X018700Y047707D02*
X022900Y047707D01*
X022900Y047608D02*
X018700Y047608D01*
X018700Y047510D02*
X022900Y047510D01*
X022900Y047411D02*
X018700Y047411D01*
X018700Y047313D02*
X022900Y047313D01*
X022900Y047214D02*
X018700Y047214D01*
X018700Y047116D02*
X022900Y047116D01*
X022900Y047017D02*
X018700Y047017D01*
X018700Y046919D02*
X022900Y046919D01*
X022900Y046820D02*
X018700Y046820D01*
X018700Y046722D02*
X022900Y046722D01*
X022900Y046623D02*
X018700Y046623D01*
X018700Y046525D02*
X022900Y046525D01*
X022900Y046426D02*
X018700Y046426D01*
X018700Y046328D02*
X022900Y046328D01*
X022900Y046229D02*
X018700Y046229D01*
X018700Y046131D02*
X022900Y046131D01*
X022900Y046032D02*
X018700Y046032D01*
X018700Y045934D02*
X022900Y045934D01*
X022900Y045835D02*
X018700Y045835D01*
X018700Y045737D02*
X022900Y045737D01*
X022900Y045638D02*
X018700Y045638D01*
X018700Y045540D02*
X022900Y045540D01*
X022900Y045441D02*
X018700Y045441D01*
X018700Y045343D02*
X022900Y045343D01*
X022900Y045244D02*
X018700Y045244D01*
X018700Y045146D02*
X022836Y045146D01*
X022738Y045047D02*
X018700Y045047D01*
X013900Y042683D02*
X013460Y042683D01*
X013460Y042585D02*
X013900Y042585D01*
X013900Y042486D02*
X013447Y042486D01*
X013406Y042388D02*
X013900Y042388D01*
X013900Y042289D02*
X013365Y042289D01*
X013324Y042191D02*
X013900Y042191D01*
X013900Y042092D02*
X013240Y042092D01*
X013142Y041994D02*
X013900Y041994D01*
X013900Y041895D02*
X013042Y041895D01*
X012805Y041797D02*
X013900Y041797D01*
X013900Y041698D02*
X001910Y041698D01*
X001910Y041600D02*
X013900Y041600D01*
X013900Y041501D02*
X001910Y041501D01*
X001910Y041403D02*
X013900Y041403D01*
X013900Y041304D02*
X001910Y041304D01*
X001910Y041206D02*
X013900Y041206D01*
X013900Y041107D02*
X001910Y041107D01*
X001910Y041009D02*
X013900Y041009D01*
X013900Y040910D02*
X003216Y040910D01*
X003201Y040917D02*
X002999Y040917D01*
X002813Y040840D01*
X002670Y040697D01*
X002593Y040511D01*
X002593Y040309D01*
X002670Y040123D01*
X002813Y039980D01*
X002999Y039903D01*
X003201Y039903D01*
X003387Y039980D01*
X003530Y040123D01*
X003607Y040309D01*
X003607Y040511D01*
X003530Y040697D01*
X003387Y040840D01*
X003201Y040917D01*
X002984Y040910D02*
X001910Y040910D01*
X001910Y040812D02*
X002785Y040812D01*
X002687Y040713D02*
X001910Y040713D01*
X001910Y040615D02*
X002636Y040615D01*
X002596Y040516D02*
X001910Y040516D01*
X001910Y040418D02*
X002593Y040418D01*
X002593Y040319D02*
X001910Y040319D01*
X001910Y040221D02*
X002630Y040221D01*
X002671Y040122D02*
X001910Y040122D01*
X001910Y040024D02*
X002769Y040024D01*
X002945Y039925D02*
X001910Y039925D01*
X001910Y039827D02*
X013900Y039827D01*
X013900Y039925D02*
X003255Y039925D01*
X003431Y040024D02*
X013900Y040024D01*
X013900Y040122D02*
X003529Y040122D01*
X003570Y040221D02*
X013900Y040221D01*
X013900Y040319D02*
X003607Y040319D01*
X003607Y040418D02*
X013900Y040418D01*
X013900Y040516D02*
X003604Y040516D01*
X003564Y040615D02*
X013900Y040615D01*
X013900Y040713D02*
X003513Y040713D01*
X003415Y040812D02*
X013900Y040812D01*
X013900Y039728D02*
X001910Y039728D01*
X001910Y039630D02*
X013900Y039630D01*
X013900Y039531D02*
X001910Y039531D01*
X001910Y039433D02*
X013900Y039433D01*
X013900Y039334D02*
X001910Y039334D01*
X001910Y039236D02*
X013900Y039236D01*
X013900Y039137D02*
X001910Y039137D01*
X001910Y039039D02*
X013900Y039039D01*
X013900Y038940D02*
X001910Y038940D01*
X001910Y038842D02*
X013900Y038842D01*
X013900Y038743D02*
X001910Y038743D01*
X001910Y038645D02*
X013900Y038645D01*
X013900Y038546D02*
X001910Y038546D01*
X001910Y038448D02*
X013900Y038448D01*
X013900Y038349D02*
X001910Y038349D01*
X001910Y038251D02*
X013900Y038251D01*
X013900Y038152D02*
X001910Y038152D01*
X001910Y038054D02*
X013900Y038054D01*
X013900Y037955D02*
X001910Y037955D01*
X001910Y037857D02*
X013900Y037857D01*
X013900Y037758D02*
X001910Y037758D01*
X001910Y037660D02*
X013900Y037660D01*
X013900Y037561D02*
X001910Y037561D01*
X001910Y037463D02*
X013900Y037463D01*
X013900Y037364D02*
X001910Y037364D01*
X001910Y037266D02*
X013900Y037266D01*
X013900Y037167D02*
X001910Y037167D01*
X001910Y037069D02*
X013900Y037069D01*
X013900Y036970D02*
X001910Y036970D01*
X001910Y036872D02*
X013900Y036872D01*
X013900Y036773D02*
X001910Y036773D01*
X001910Y036675D02*
X011381Y036675D01*
X011393Y036680D02*
X011194Y036598D01*
X011042Y036446D01*
X010960Y036247D01*
X010960Y035372D01*
X011042Y035174D01*
X011194Y035022D01*
X011393Y034940D01*
X011607Y034940D01*
X011806Y035022D01*
X011958Y035174D01*
X012000Y035276D01*
X012042Y035174D01*
X012194Y035022D01*
X012393Y034940D01*
X012607Y034940D01*
X012806Y035022D01*
X012958Y035174D01*
X013040Y035372D01*
X013040Y036247D01*
X012958Y036446D01*
X012806Y036598D01*
X012607Y036680D01*
X012393Y036680D01*
X012194Y036598D01*
X012042Y036446D01*
X012000Y036344D01*
X011958Y036446D01*
X011806Y036598D01*
X011607Y036680D01*
X011393Y036680D01*
X011619Y036675D02*
X012381Y036675D01*
X012173Y036576D02*
X011827Y036576D01*
X011926Y036478D02*
X012074Y036478D01*
X012015Y036379D02*
X011985Y036379D01*
X011173Y036576D02*
X001910Y036576D01*
X001910Y036478D02*
X011074Y036478D01*
X011015Y036379D02*
X006291Y036379D01*
X006446Y036281D02*
X010974Y036281D01*
X010960Y036182D02*
X006536Y036182D01*
X006577Y036084D02*
X010960Y036084D01*
X010960Y035985D02*
X006607Y035985D01*
X006607Y035887D02*
X010960Y035887D01*
X010960Y035788D02*
X006598Y035788D01*
X006557Y035690D02*
X010960Y035690D01*
X010960Y035591D02*
X006510Y035591D01*
X006510Y035493D02*
X010960Y035493D01*
X010960Y035394D02*
X006510Y035394D01*
X006510Y035296D02*
X010992Y035296D01*
X011033Y035197D02*
X006510Y035197D01*
X006510Y035099D02*
X011117Y035099D01*
X011246Y035000D02*
X006510Y035000D01*
X006510Y034902D02*
X013900Y034902D01*
X013900Y035000D02*
X012754Y035000D01*
X012883Y035099D02*
X013900Y035099D01*
X013900Y035197D02*
X012967Y035197D01*
X013008Y035296D02*
X013900Y035296D01*
X013900Y035394D02*
X013040Y035394D01*
X013040Y035493D02*
X013900Y035493D01*
X013900Y035591D02*
X013040Y035591D01*
X013040Y035690D02*
X013900Y035690D01*
X013900Y035788D02*
X013040Y035788D01*
X013040Y035887D02*
X013900Y035887D01*
X013900Y035985D02*
X013040Y035985D01*
X013040Y036084D02*
X013900Y036084D01*
X013900Y036182D02*
X013040Y036182D01*
X013026Y036281D02*
X013900Y036281D01*
X013900Y036379D02*
X012985Y036379D01*
X012926Y036478D02*
X013900Y036478D01*
X013900Y036576D02*
X012827Y036576D01*
X012619Y036675D02*
X013900Y036675D01*
X013900Y034803D02*
X006510Y034803D01*
X006510Y034705D02*
X013900Y034705D01*
X013900Y034606D02*
X006510Y034606D01*
X005623Y036084D02*
X001910Y036084D01*
X001910Y036182D02*
X005664Y036182D01*
X005754Y036281D02*
X001910Y036281D01*
X001910Y036379D02*
X005909Y036379D01*
X001910Y041797D02*
X012195Y041797D01*
X011958Y041895D02*
X001910Y041895D01*
X001910Y041994D02*
X011858Y041994D01*
X011760Y042092D02*
X001910Y042092D01*
X001910Y042191D02*
X011676Y042191D01*
X011635Y042289D02*
X001910Y042289D01*
X001910Y042388D02*
X011594Y042388D01*
X011553Y042486D02*
X001910Y042486D01*
X001910Y042585D02*
X011540Y042585D01*
X011540Y042683D02*
X001910Y042683D01*
X001910Y042782D02*
X011540Y042782D01*
X013460Y042782D02*
X013828Y042782D01*
X012033Y035197D02*
X011967Y035197D01*
X011883Y035099D02*
X012117Y035099D01*
X012246Y035000D02*
X011754Y035000D01*
X011514Y034508D02*
X013900Y034508D01*
X005140Y049200D02*
X005490Y049550D01*
X007240Y049550D01*
X010200Y052510D01*
X012700Y052510D01*
X012700Y054510D01*
X012200Y055010D01*
X012200Y059156D01*
X001850Y059156D01*
X001850Y058012D01*
X001964Y058127D01*
X002150Y058204D01*
X002350Y058204D01*
X002536Y058127D01*
X002678Y057985D01*
X002754Y057800D01*
X002754Y057599D01*
X002678Y057414D01*
X002536Y057272D01*
X002350Y057195D01*
X002150Y057195D01*
X001964Y057272D01*
X001850Y057386D01*
X001850Y055434D01*
X001964Y055548D01*
X002150Y055625D01*
X002350Y055625D01*
X002536Y055548D01*
X002678Y055406D01*
X002754Y055221D01*
X002754Y055020D01*
X002678Y054835D01*
X002536Y054693D01*
X002350Y054616D01*
X002150Y054616D01*
X001964Y054693D01*
X001850Y054807D01*
X001850Y049200D01*
X005140Y049200D01*
X005223Y049283D02*
X001850Y049283D01*
X001850Y049381D02*
X005322Y049381D01*
X005420Y049480D02*
X001850Y049480D01*
X001850Y049578D02*
X007269Y049578D01*
X007367Y049677D02*
X001850Y049677D01*
X001850Y049775D02*
X007466Y049775D01*
X007564Y049874D02*
X001850Y049874D01*
X001850Y049972D02*
X007663Y049972D01*
X007761Y050071D02*
X001850Y050071D01*
X001850Y050169D02*
X007860Y050169D01*
X007958Y050268D02*
X001850Y050268D01*
X001850Y050366D02*
X008057Y050366D01*
X008155Y050465D02*
X001850Y050465D01*
X001850Y050563D02*
X008254Y050563D01*
X008352Y050662D02*
X001850Y050662D01*
X001850Y050760D02*
X008451Y050760D01*
X008549Y050859D02*
X001850Y050859D01*
X001850Y050957D02*
X008648Y050957D01*
X008746Y051056D02*
X003358Y051056D01*
X003295Y051030D02*
X003472Y051103D01*
X003607Y051238D01*
X003680Y051414D01*
X003680Y051605D01*
X003607Y051782D01*
X003472Y051917D01*
X003295Y051990D01*
X003105Y051990D01*
X002928Y051917D01*
X002793Y051782D01*
X002720Y051605D01*
X002720Y051414D01*
X002793Y051238D01*
X002928Y051103D01*
X003105Y051030D01*
X003295Y051030D01*
X003042Y051056D02*
X001850Y051056D01*
X001850Y051154D02*
X002877Y051154D01*
X002787Y051253D02*
X001850Y051253D01*
X001850Y051351D02*
X002746Y051351D01*
X002720Y051450D02*
X001850Y051450D01*
X001850Y051548D02*
X002720Y051548D01*
X002737Y051647D02*
X001850Y051647D01*
X001850Y051745D02*
X002778Y051745D01*
X002855Y051844D02*
X001850Y051844D01*
X001850Y051942D02*
X002990Y051942D01*
X003410Y051942D02*
X009633Y051942D01*
X009731Y052041D02*
X001850Y052041D01*
X001850Y052139D02*
X009830Y052139D01*
X009928Y052238D02*
X001850Y052238D01*
X001850Y052336D02*
X010027Y052336D01*
X010125Y052435D02*
X001850Y052435D01*
X001850Y052533D02*
X012700Y052533D01*
X012700Y052632D02*
X001850Y052632D01*
X001850Y052730D02*
X012700Y052730D01*
X012700Y052829D02*
X001850Y052829D01*
X001850Y052927D02*
X012700Y052927D01*
X012700Y053026D02*
X001850Y053026D01*
X001850Y053124D02*
X012700Y053124D01*
X012700Y053223D02*
X001850Y053223D01*
X001850Y053321D02*
X012700Y053321D01*
X012700Y053420D02*
X001850Y053420D01*
X001850Y053518D02*
X012700Y053518D01*
X012700Y053617D02*
X001850Y053617D01*
X001850Y053715D02*
X012700Y053715D01*
X012700Y053814D02*
X001850Y053814D01*
X001850Y053912D02*
X012700Y053912D01*
X012700Y054011D02*
X001850Y054011D01*
X001850Y054109D02*
X012700Y054109D01*
X012700Y054208D02*
X001850Y054208D01*
X001850Y054306D02*
X012700Y054306D01*
X012700Y054405D02*
X001850Y054405D01*
X001850Y054503D02*
X012700Y054503D01*
X012608Y054602D02*
X001850Y054602D01*
X001850Y054700D02*
X001957Y054700D01*
X001858Y054799D02*
X001850Y054799D01*
X001850Y055488D02*
X001905Y055488D01*
X001850Y055587D02*
X002058Y055587D01*
X001850Y055685D02*
X012200Y055685D01*
X012200Y055587D02*
X002442Y055587D01*
X002595Y055488D02*
X012200Y055488D01*
X012200Y055390D02*
X002684Y055390D01*
X002725Y055291D02*
X012200Y055291D01*
X012200Y055193D02*
X002754Y055193D01*
X002754Y055094D02*
X012200Y055094D01*
X012214Y054996D02*
X002744Y054996D01*
X002703Y054897D02*
X012312Y054897D01*
X012411Y054799D02*
X002642Y054799D01*
X002543Y054700D02*
X012509Y054700D01*
X012200Y055784D02*
X001850Y055784D01*
X001850Y055882D02*
X012200Y055882D01*
X012200Y055981D02*
X010938Y055981D01*
X010847Y055943D02*
X011119Y056056D01*
X011328Y056264D01*
X011441Y056537D01*
X011441Y056831D01*
X011328Y057103D01*
X011119Y057312D01*
X010847Y057424D01*
X010553Y057424D01*
X010281Y057312D01*
X010072Y057103D01*
X009959Y056831D01*
X009959Y056537D01*
X010072Y056264D01*
X010281Y056056D01*
X010553Y055943D01*
X010847Y055943D01*
X011143Y056079D02*
X012200Y056079D01*
X012200Y056178D02*
X011241Y056178D01*
X011333Y056276D02*
X012200Y056276D01*
X012200Y056375D02*
X011374Y056375D01*
X011414Y056473D02*
X012200Y056473D01*
X012200Y056572D02*
X011441Y056572D01*
X011441Y056670D02*
X012200Y056670D01*
X012200Y056769D02*
X011441Y056769D01*
X011426Y056867D02*
X012200Y056867D01*
X012200Y056966D02*
X011385Y056966D01*
X011344Y057064D02*
X012200Y057064D01*
X012200Y057163D02*
X011268Y057163D01*
X011170Y057261D02*
X012200Y057261D01*
X012200Y057360D02*
X011003Y057360D01*
X010397Y057360D02*
X002624Y057360D01*
X002696Y057458D02*
X012200Y057458D01*
X012200Y057557D02*
X002737Y057557D01*
X002754Y057655D02*
X012200Y057655D01*
X012200Y057754D02*
X002754Y057754D01*
X002732Y057852D02*
X012200Y057852D01*
X012200Y057951D02*
X002692Y057951D01*
X002613Y058049D02*
X012200Y058049D01*
X012200Y058148D02*
X002485Y058148D01*
X002511Y057261D02*
X010230Y057261D01*
X010132Y057163D02*
X001850Y057163D01*
X001850Y057261D02*
X001989Y057261D01*
X001876Y057360D02*
X001850Y057360D01*
X001850Y057064D02*
X010056Y057064D01*
X010015Y056966D02*
X001850Y056966D01*
X001850Y056867D02*
X009974Y056867D01*
X009959Y056769D02*
X001850Y056769D01*
X001850Y056670D02*
X009959Y056670D01*
X009959Y056572D02*
X001850Y056572D01*
X001850Y056473D02*
X009986Y056473D01*
X010026Y056375D02*
X001850Y056375D01*
X001850Y056276D02*
X010067Y056276D01*
X010159Y056178D02*
X001850Y056178D01*
X001850Y056079D02*
X010257Y056079D01*
X010462Y055981D02*
X001850Y055981D01*
X001850Y058049D02*
X001887Y058049D01*
X001850Y058148D02*
X002015Y058148D01*
X001850Y058246D02*
X012200Y058246D01*
X012200Y058345D02*
X001850Y058345D01*
X001850Y058443D02*
X012200Y058443D01*
X012200Y058542D02*
X001850Y058542D01*
X001850Y058640D02*
X012200Y058640D01*
X012200Y058739D02*
X001850Y058739D01*
X001850Y058837D02*
X012200Y058837D01*
X012200Y058936D02*
X001850Y058936D01*
X001850Y059034D02*
X012200Y059034D01*
X012200Y059133D02*
X001850Y059133D01*
X003545Y051844D02*
X009534Y051844D01*
X009436Y051745D02*
X003622Y051745D01*
X003663Y051647D02*
X009337Y051647D01*
X009239Y051548D02*
X003680Y051548D01*
X003680Y051450D02*
X009140Y051450D01*
X009042Y051351D02*
X003654Y051351D01*
X003613Y051253D02*
X008943Y051253D01*
X008845Y051154D02*
X003523Y051154D01*
X035235Y058210D02*
X035700Y058210D01*
X035800Y058310D01*
X036320Y058430D02*
X036600Y058110D01*
X037400Y058010D01*
X039200Y058010D01*
X039600Y057410D01*
X040100Y057410D02*
X040100Y057810D01*
X039700Y058210D01*
X037400Y058210D01*
X037100Y058410D01*
X036800Y058450D01*
D27*
X036550Y058681D02*
X036513Y058718D01*
X036388Y058770D01*
X036252Y058770D01*
X036127Y058718D01*
X036032Y058622D01*
X036013Y058578D01*
X035993Y058598D01*
X035868Y058650D01*
X035732Y058650D01*
X035607Y058598D01*
X035561Y058552D01*
X035526Y058587D01*
X034944Y058587D01*
X034900Y058543D01*
X034892Y058551D01*
X034851Y058574D01*
X034806Y058587D01*
X034584Y058587D01*
X034584Y058228D01*
X034547Y058228D01*
X034547Y058191D01*
X034584Y058191D01*
X034584Y057833D01*
X034806Y057833D01*
X034851Y057845D01*
X034892Y057869D01*
X034900Y057877D01*
X034944Y057833D01*
X035526Y057833D01*
X035631Y057938D01*
X035631Y057980D01*
X035708Y057980D01*
X035732Y057970D01*
X035868Y057970D01*
X035993Y058022D01*
X036088Y058117D01*
X036107Y058162D01*
X036127Y058142D01*
X036252Y058090D01*
X036312Y058090D01*
X036423Y057963D01*
X036477Y057893D01*
X036485Y057892D01*
X036490Y057887D01*
X036578Y057881D01*
X037293Y057791D01*
X037305Y057780D01*
X037386Y057780D01*
X037466Y057770D01*
X037479Y057780D01*
X039077Y057780D01*
X039267Y057495D01*
X039260Y057477D01*
X039260Y057342D01*
X039312Y057217D01*
X039407Y057122D01*
X039532Y057070D01*
X039668Y057070D01*
X039793Y057122D01*
X039850Y057179D01*
X039907Y057122D01*
X040032Y057070D01*
X040168Y057070D01*
X040293Y057122D01*
X040388Y057217D01*
X040440Y057342D01*
X040440Y057477D01*
X040388Y057602D01*
X040330Y057661D01*
X040330Y057905D01*
X040195Y058040D01*
X039795Y058440D01*
X037470Y058440D01*
X037259Y058580D01*
X037225Y058625D01*
X037183Y058631D01*
X037148Y058654D01*
X037092Y058643D01*
X037087Y058644D01*
X036993Y058738D01*
X036868Y058790D01*
X036732Y058790D01*
X036607Y058738D01*
X036550Y058681D01*
X036513Y058717D02*
X036587Y058717D01*
X037013Y058717D02*
X040890Y058717D01*
X040890Y058559D02*
X037291Y058559D01*
X036452Y057925D02*
X035618Y057925D01*
X036054Y058083D02*
X036318Y058083D01*
X036127Y058717D02*
X032200Y058717D01*
X016400Y058717D01*
X016400Y058559D02*
X032200Y058559D01*
X034252Y058559D01*
X034238Y058551D02*
X034205Y058517D01*
X034181Y058476D01*
X034169Y058430D01*
X034169Y058228D01*
X034547Y058228D01*
X034547Y058587D01*
X034325Y058587D01*
X034279Y058574D01*
X034238Y058551D01*
X034169Y058400D02*
X032200Y058400D01*
X016400Y058400D01*
X016400Y058242D02*
X032200Y058242D01*
X034169Y058242D01*
X034169Y058191D02*
X034169Y057989D01*
X034181Y057944D01*
X034205Y057902D01*
X034238Y057869D01*
X034279Y057845D01*
X034325Y057833D01*
X034547Y057833D01*
X034547Y058191D01*
X034169Y058191D01*
X034169Y058083D02*
X032200Y058083D01*
X016400Y058083D01*
X016400Y057925D02*
X032200Y057925D01*
X034192Y057925D01*
X034547Y057925D02*
X034584Y057925D01*
X034584Y058083D02*
X034547Y058083D01*
X034547Y058242D02*
X034584Y058242D01*
X034584Y058400D02*
X034547Y058400D01*
X034547Y058559D02*
X034584Y058559D01*
X034878Y058559D02*
X034916Y058559D01*
X035554Y058559D02*
X035568Y058559D01*
X034300Y055410D02*
X037770Y055455D01*
X037770Y055285D01*
X037866Y055053D01*
X038043Y054876D01*
X038275Y054780D01*
X038525Y054780D01*
X038757Y054876D01*
X038934Y055053D01*
X039030Y055285D01*
X039030Y055535D01*
X038934Y055767D01*
X038757Y055944D01*
X038525Y056040D01*
X038275Y056040D01*
X038122Y055977D01*
X038116Y056345D01*
X038275Y056280D01*
X038525Y056280D01*
X038757Y056376D01*
X038934Y056553D01*
X039030Y056785D01*
X039030Y057035D01*
X038934Y057267D01*
X038757Y057444D01*
X038525Y057540D01*
X038275Y057540D01*
X038043Y057444D01*
X038007Y057408D01*
X032200Y057310D01*
X032200Y059126D01*
X040890Y059126D01*
X040890Y037655D01*
X040800Y037610D01*
X040612Y037610D01*
X040890Y037610D01*
X040890Y027990D01*
X014200Y027990D01*
X014200Y036710D01*
X033319Y036710D01*
X033407Y036622D01*
X033532Y036570D01*
X033668Y036570D01*
X033764Y036610D01*
X035136Y036610D01*
X035232Y036570D01*
X035368Y036570D01*
X035493Y036622D01*
X035588Y036717D01*
X035640Y036842D01*
X035640Y036977D01*
X035588Y037102D01*
X035493Y037198D01*
X035368Y037250D01*
X035232Y037250D01*
X035200Y037236D01*
X035200Y037610D01*
X037588Y037610D01*
X037634Y037498D01*
X037788Y037344D01*
X037991Y037260D01*
X038209Y037260D01*
X038412Y037344D01*
X038566Y037498D01*
X038600Y037580D01*
X038630Y037522D01*
X038680Y037452D01*
X038742Y037390D01*
X038812Y037339D01*
X038889Y037300D01*
X038971Y037273D01*
X039057Y037260D01*
X039080Y037260D01*
X039080Y037610D01*
X039120Y037610D01*
X039120Y037260D01*
X039143Y037260D01*
X039229Y037273D01*
X039311Y037300D01*
X039388Y037339D01*
X039458Y037390D01*
X039520Y037452D01*
X039570Y037522D01*
X039600Y037580D01*
X039634Y037498D01*
X039788Y037344D01*
X039991Y037260D01*
X040209Y037260D01*
X040412Y037344D01*
X040566Y037498D01*
X040612Y037610D01*
X040650Y037700D01*
X040650Y037919D01*
X040566Y038121D01*
X040412Y038276D01*
X040209Y038360D01*
X039991Y038360D01*
X039788Y038276D01*
X039634Y038121D01*
X039600Y038040D01*
X039570Y038098D01*
X039520Y038168D01*
X039458Y038229D01*
X039388Y038280D01*
X039311Y038320D01*
X039229Y038346D01*
X039143Y038360D01*
X039120Y038360D01*
X039120Y037830D01*
X039080Y037830D01*
X039080Y038360D01*
X039057Y038360D01*
X038971Y038346D01*
X038889Y038320D01*
X038812Y038280D01*
X038742Y038229D01*
X038680Y038168D01*
X038630Y038098D01*
X038600Y038040D01*
X038566Y038121D01*
X038412Y038276D01*
X038209Y038360D01*
X037991Y038360D01*
X037788Y038276D01*
X037634Y038121D01*
X037550Y037919D01*
X037550Y037700D01*
X037588Y037610D01*
X035300Y037610D01*
X035000Y037910D01*
X035000Y037983D01*
X035093Y038022D01*
X035188Y038117D01*
X035240Y038242D01*
X035240Y038377D01*
X035188Y038502D01*
X035093Y038598D01*
X035000Y038636D01*
X035000Y039290D01*
X035239Y039290D01*
X035307Y039222D01*
X035000Y039222D01*
X035000Y039063D02*
X035470Y039063D01*
X035470Y039170D02*
X035470Y038461D01*
X035412Y038402D01*
X035360Y038277D01*
X035360Y038142D01*
X035412Y038017D01*
X035507Y037922D01*
X035632Y037870D01*
X035768Y037870D01*
X035893Y037922D01*
X035988Y038017D01*
X036040Y038142D01*
X036040Y038277D01*
X035988Y038402D01*
X035930Y038461D01*
X035930Y039272D01*
X035980Y039234D01*
X035980Y039182D01*
X036032Y039057D01*
X036127Y038962D01*
X036252Y038910D01*
X036388Y038910D01*
X036513Y038962D01*
X036608Y039057D01*
X036660Y039182D01*
X036660Y039317D01*
X036608Y039442D01*
X036513Y039538D01*
X036388Y039590D01*
X036252Y039590D01*
X036243Y039586D01*
X035430Y040211D01*
X035430Y040410D01*
X037842Y040410D01*
X037866Y040353D01*
X038043Y040176D01*
X038275Y040080D01*
X038525Y040080D01*
X038757Y040176D01*
X038934Y040353D01*
X039030Y040585D01*
X039030Y040835D01*
X038934Y041067D01*
X038757Y041244D01*
X038525Y041340D01*
X038275Y041340D01*
X038200Y041309D01*
X038200Y041611D01*
X038275Y041580D01*
X038525Y041580D01*
X038757Y041676D01*
X038934Y041853D01*
X039030Y042085D01*
X039030Y042335D01*
X038934Y042567D01*
X038821Y042680D01*
X039260Y042680D01*
X039260Y042642D01*
X039312Y042517D01*
X039407Y042422D01*
X039532Y042370D01*
X039668Y042370D01*
X039793Y042422D01*
X039850Y042479D01*
X039907Y042422D01*
X040032Y042370D01*
X040168Y042370D01*
X040293Y042422D01*
X040388Y042517D01*
X040440Y042642D01*
X040440Y042777D01*
X040388Y042902D01*
X040330Y042961D01*
X040330Y043105D01*
X040195Y043240D01*
X040130Y043305D01*
X040130Y043305D01*
X039995Y043440D01*
X036998Y043440D01*
X037040Y043542D01*
X037040Y043677D01*
X036988Y043802D01*
X036893Y043898D01*
X036768Y043950D01*
X036632Y043950D01*
X036531Y043908D01*
X036531Y043991D01*
X036153Y043991D01*
X036153Y044028D01*
X036531Y044028D01*
X036531Y044230D01*
X036519Y044276D01*
X036495Y044317D01*
X036462Y044351D01*
X036421Y044374D01*
X036400Y044380D01*
X036549Y044380D01*
X036607Y044322D01*
X036732Y044270D01*
X036868Y044270D01*
X036993Y044322D01*
X037088Y044417D01*
X037140Y044542D01*
X037140Y044677D01*
X037088Y044802D01*
X036993Y044898D01*
X036868Y044950D01*
X036732Y044950D01*
X036607Y044898D01*
X036549Y044840D01*
X036005Y044840D01*
X035900Y044735D01*
X035900Y044797D01*
X035848Y044922D01*
X035753Y045018D01*
X035628Y045070D01*
X035492Y045070D01*
X035367Y045018D01*
X035307Y044958D01*
X033587Y044944D01*
X033600Y045310D01*
X037842Y045310D01*
X037866Y045253D01*
X038043Y045076D01*
X038275Y044980D01*
X038525Y044980D01*
X038757Y045076D01*
X038934Y045253D01*
X039030Y045485D01*
X039030Y045735D01*
X038934Y045967D01*
X038757Y046144D01*
X038525Y046240D01*
X038275Y046240D01*
X038100Y046167D01*
X038100Y046552D01*
X038275Y046480D01*
X038525Y046480D01*
X038757Y046576D01*
X038934Y046753D01*
X039030Y046985D01*
X039030Y047235D01*
X038934Y047467D01*
X038908Y047493D01*
X038995Y047580D01*
X039130Y047715D01*
X039130Y048080D01*
X039349Y048080D01*
X039407Y048022D01*
X039532Y047970D01*
X039668Y047970D01*
X039793Y048022D01*
X039850Y048079D01*
X039907Y048022D01*
X040032Y047970D01*
X040168Y047970D01*
X040293Y048022D01*
X040388Y048117D01*
X040440Y048242D01*
X040440Y048377D01*
X040388Y048502D01*
X040293Y048598D01*
X040198Y048637D01*
X039995Y048840D01*
X039805Y048840D01*
X039795Y048830D01*
X039005Y048830D01*
X038995Y048840D01*
X038805Y048840D01*
X038470Y048505D01*
X038470Y048140D01*
X037095Y048140D01*
X037030Y048205D01*
X037030Y048359D01*
X037088Y048417D01*
X037140Y048542D01*
X037140Y048677D01*
X037088Y048802D01*
X036993Y048898D01*
X036868Y048950D01*
X036732Y048950D01*
X036607Y048898D01*
X036550Y048841D01*
X036493Y048898D01*
X036368Y048950D01*
X036232Y048950D01*
X036107Y048898D01*
X036012Y048802D01*
X035987Y048742D01*
X035968Y048750D01*
X035832Y048750D01*
X035731Y048708D01*
X035731Y048791D01*
X035353Y048791D01*
X035353Y048828D01*
X035731Y048828D01*
X035731Y049030D01*
X035719Y049076D01*
X035695Y049117D01*
X035662Y049151D01*
X035621Y049174D01*
X035600Y049180D01*
X036195Y049180D01*
X036295Y049280D01*
X036449Y049280D01*
X036507Y049222D01*
X036632Y049170D01*
X036768Y049170D01*
X036893Y049222D01*
X036988Y049317D01*
X037040Y049442D01*
X037040Y049577D01*
X036988Y049702D01*
X036893Y049798D01*
X036768Y049850D01*
X036632Y049850D01*
X036507Y049798D01*
X036449Y049740D01*
X036140Y049740D01*
X036140Y049777D01*
X036088Y049902D01*
X035993Y049998D01*
X035868Y050050D01*
X035732Y050050D01*
X035607Y049998D01*
X035549Y049940D01*
X034330Y049940D01*
X034330Y050105D01*
X034130Y050305D01*
X034125Y050310D01*
X037909Y050310D01*
X038043Y050176D01*
X038275Y050080D01*
X038525Y050080D01*
X038757Y050176D01*
X038934Y050353D01*
X039030Y050585D01*
X039030Y050835D01*
X038934Y051067D01*
X038757Y051244D01*
X038525Y051340D01*
X038300Y051340D01*
X038300Y051580D01*
X038525Y051580D01*
X038757Y051676D01*
X038934Y051853D01*
X039030Y052085D01*
X039030Y052335D01*
X038934Y052567D01*
X038821Y052680D01*
X039286Y052680D01*
X039312Y052617D01*
X039407Y052522D01*
X039532Y052470D01*
X039668Y052470D01*
X039793Y052522D01*
X039850Y052579D01*
X039907Y052522D01*
X040032Y052470D01*
X040168Y052470D01*
X040293Y052522D01*
X040388Y052617D01*
X040440Y052742D01*
X040440Y052877D01*
X040388Y053002D01*
X040330Y053061D01*
X040330Y053105D01*
X039995Y053440D01*
X037327Y053440D01*
X037229Y053597D01*
X037240Y053622D01*
X037240Y053757D01*
X037188Y053882D01*
X037093Y053978D01*
X036968Y054030D01*
X036832Y054030D01*
X036707Y053978D01*
X036612Y053882D01*
X036564Y053767D01*
X036553Y053778D01*
X036428Y053830D01*
X036292Y053830D01*
X036231Y053804D01*
X036231Y053991D01*
X035853Y053991D01*
X035853Y054028D01*
X036231Y054028D01*
X036231Y054180D01*
X036695Y054180D01*
X036798Y054282D01*
X036893Y054322D01*
X036988Y054417D01*
X037040Y054542D01*
X037040Y054677D01*
X036988Y054802D01*
X036893Y054898D01*
X036768Y054950D01*
X036632Y054950D01*
X036507Y054898D01*
X036412Y054802D01*
X036360Y054677D01*
X036360Y054640D01*
X034151Y054640D01*
X034093Y054698D01*
X033968Y054750D01*
X033832Y054750D01*
X033707Y054698D01*
X033625Y054615D01*
X034300Y055410D01*
X034282Y055389D02*
X037770Y055389D01*
X037792Y055230D02*
X034147Y055230D01*
X034013Y055072D02*
X037858Y055072D01*
X038006Y054913D02*
X036856Y054913D01*
X037008Y054755D02*
X040890Y054755D01*
X040890Y054913D02*
X038794Y054913D01*
X038942Y055072D02*
X040890Y055072D01*
X040890Y055230D02*
X039008Y055230D01*
X039030Y055389D02*
X040890Y055389D01*
X040890Y055547D02*
X039025Y055547D01*
X038959Y055706D02*
X040890Y055706D01*
X040890Y055864D02*
X038836Y055864D01*
X038566Y056023D02*
X040890Y056023D01*
X040890Y056181D02*
X038119Y056181D01*
X038121Y056023D02*
X038234Y056023D01*
X038130Y056340D02*
X038116Y056340D01*
X038670Y056340D02*
X040890Y056340D01*
X040890Y056498D02*
X038879Y056498D01*
X038977Y056657D02*
X040890Y056657D01*
X040890Y056815D02*
X039030Y056815D01*
X039030Y056974D02*
X040890Y056974D01*
X040890Y057132D02*
X040303Y057132D01*
X040419Y057291D02*
X040890Y057291D01*
X040890Y057449D02*
X040440Y057449D01*
X040383Y057608D02*
X040890Y057608D01*
X040890Y057766D02*
X040330Y057766D01*
X040310Y057925D02*
X040890Y057925D01*
X040890Y058083D02*
X040152Y058083D01*
X039993Y058242D02*
X040890Y058242D01*
X040890Y058400D02*
X039835Y058400D01*
X039803Y057132D02*
X039897Y057132D01*
X039397Y057132D02*
X038990Y057132D01*
X038910Y057291D02*
X039281Y057291D01*
X039260Y057449D02*
X038744Y057449D01*
X039086Y057766D02*
X032200Y057766D01*
X016400Y057766D01*
X016400Y057608D02*
X032200Y057608D01*
X039192Y057608D01*
X038056Y057449D02*
X032200Y057449D01*
X016400Y057449D01*
X016400Y057291D02*
X032180Y057291D01*
X032200Y057310D02*
X031814Y056945D01*
X031585Y057040D01*
X031215Y057040D01*
X030873Y056898D01*
X030612Y056637D01*
X030470Y056295D01*
X030470Y055925D01*
X030544Y055746D01*
X030400Y055610D01*
X021000Y055610D01*
X021000Y052910D01*
X029900Y052810D01*
X029714Y039442D01*
X029607Y039398D01*
X029550Y039341D01*
X029493Y039398D01*
X029368Y039450D01*
X029232Y039450D01*
X029107Y039398D01*
X029012Y039302D01*
X028960Y039177D01*
X028960Y039042D01*
X029012Y038917D01*
X029070Y038859D01*
X029070Y038410D01*
X029012Y038410D01*
X029050Y038500D01*
X029050Y038719D01*
X028966Y038921D01*
X028812Y039076D01*
X028730Y039110D01*
X028812Y039144D01*
X028966Y039298D01*
X029050Y039500D01*
X029050Y039719D01*
X028966Y039921D01*
X028812Y040076D01*
X028730Y040110D01*
X028812Y040144D01*
X028966Y040298D01*
X029050Y040500D01*
X029050Y040719D01*
X028966Y040921D01*
X028812Y041076D01*
X028609Y041160D01*
X028391Y041160D01*
X028188Y041076D01*
X028034Y040921D01*
X027950Y040719D01*
X027950Y040500D01*
X028034Y040298D01*
X028188Y040144D01*
X028270Y040110D01*
X028188Y040076D01*
X028034Y039921D01*
X027950Y039719D01*
X027950Y039500D01*
X028034Y039298D01*
X028188Y039144D01*
X028270Y039110D01*
X028188Y039076D01*
X028034Y038921D01*
X027950Y038719D01*
X027950Y038500D01*
X027988Y038410D01*
X026600Y038410D01*
X024700Y037010D01*
X014200Y037010D01*
X014200Y042910D01*
X013426Y042904D01*
X013288Y043237D01*
X013027Y043498D01*
X012685Y043640D01*
X012315Y043640D01*
X011973Y043498D01*
X011712Y043237D01*
X011570Y042895D01*
X011570Y042889D01*
X001880Y042811D01*
X001880Y047810D01*
X006818Y047810D01*
X006770Y047695D01*
X006770Y047325D01*
X006912Y046983D01*
X007173Y046721D01*
X007515Y046580D01*
X007885Y046580D01*
X008227Y046721D01*
X008488Y046983D01*
X008630Y047325D01*
X008630Y047695D01*
X008488Y048037D01*
X008227Y048298D01*
X007988Y048397D01*
X008500Y048910D01*
X008600Y050110D01*
X009989Y051571D01*
X009989Y051503D01*
X010097Y051241D01*
X010297Y051041D01*
X010558Y050933D01*
X010842Y050933D01*
X011103Y051041D01*
X011303Y051241D01*
X011411Y051503D01*
X011411Y051786D01*
X011303Y052048D01*
X011241Y052110D01*
X012800Y052110D01*
X013200Y052510D01*
X014600Y052510D01*
X016400Y054310D01*
X016400Y059126D01*
X032200Y059126D01*
X032200Y057310D01*
X032012Y057132D02*
X016400Y057132D01*
X016400Y056974D02*
X031056Y056974D01*
X030790Y056815D02*
X016400Y056815D01*
X016400Y056657D02*
X030632Y056657D01*
X030554Y056498D02*
X016400Y056498D01*
X016400Y056340D02*
X030489Y056340D01*
X030470Y056181D02*
X016400Y056181D01*
X016400Y056023D02*
X030470Y056023D01*
X030495Y055864D02*
X016400Y055864D01*
X016400Y055706D02*
X030502Y055706D01*
X031744Y056974D02*
X031844Y056974D01*
X032200Y058876D02*
X040890Y058876D01*
X040890Y059034D02*
X032200Y059034D01*
X016400Y059034D01*
X016400Y058876D02*
X032200Y058876D01*
X033878Y054913D02*
X036544Y054913D01*
X036392Y054755D02*
X033743Y054755D01*
X035200Y053210D02*
X035100Y053110D01*
X030800Y053110D01*
X030800Y051610D01*
X031885Y051610D01*
X031885Y051776D01*
X032312Y051776D01*
X032312Y051872D01*
X032312Y052260D01*
X032041Y052260D01*
X031995Y052247D01*
X031954Y052224D01*
X031921Y052190D01*
X031897Y052149D01*
X031885Y052103D01*
X031885Y051872D01*
X032312Y051872D01*
X032408Y051872D01*
X032408Y052260D01*
X032679Y052260D01*
X032725Y052247D01*
X032766Y052224D01*
X032799Y052190D01*
X032823Y052149D01*
X032835Y052103D01*
X032835Y051872D01*
X032408Y051872D01*
X032408Y051776D01*
X032835Y051776D01*
X032835Y051610D01*
X032893Y051610D01*
X032893Y051776D01*
X033252Y051776D01*
X033252Y051813D01*
X033252Y052191D01*
X033049Y052191D01*
X033004Y052179D01*
X032963Y052155D01*
X032929Y052122D01*
X032905Y052081D01*
X032893Y052035D01*
X032893Y051813D01*
X033252Y051813D01*
X033288Y051813D01*
X033288Y052191D01*
X033491Y052191D01*
X033536Y052179D01*
X033577Y052155D01*
X033611Y052122D01*
X033635Y052081D01*
X033647Y052035D01*
X033647Y051813D01*
X033288Y051813D01*
X033288Y051776D01*
X033647Y051776D01*
X033647Y051610D01*
X035100Y051610D01*
X035200Y051710D01*
X035200Y053210D01*
X035200Y053170D02*
X035160Y053170D01*
X035200Y053011D02*
X030800Y053011D01*
X030800Y052853D02*
X035200Y052853D01*
X035200Y052694D02*
X030800Y052694D01*
X030800Y052536D02*
X035200Y052536D01*
X035200Y052377D02*
X030800Y052377D01*
X030800Y052219D02*
X031949Y052219D01*
X031885Y052060D02*
X030800Y052060D01*
X030800Y051902D02*
X031885Y051902D01*
X031885Y051743D02*
X030800Y051743D01*
X029885Y051743D02*
X028040Y051743D01*
X028040Y051742D02*
X028040Y051877D01*
X027988Y052002D01*
X027893Y052098D01*
X027768Y052150D01*
X027632Y052150D01*
X027507Y052098D01*
X027412Y052002D01*
X027360Y051877D01*
X027360Y051838D01*
X026580Y051057D01*
X026540Y050962D01*
X026540Y050211D01*
X025486Y049070D01*
X024361Y049070D01*
X024333Y049098D01*
X024208Y049150D01*
X024072Y049150D01*
X023947Y049098D01*
X023852Y049002D01*
X023800Y048877D01*
X023800Y048742D01*
X023852Y048617D01*
X023947Y048522D01*
X024072Y048470D01*
X024208Y048470D01*
X024333Y048522D01*
X024361Y048550D01*
X025554Y048550D01*
X025559Y048548D01*
X025605Y048550D01*
X025640Y048550D01*
X025640Y047118D01*
X024192Y045670D01*
X023721Y045670D01*
X023693Y045698D01*
X023568Y045750D01*
X023432Y045750D01*
X023307Y045698D01*
X023212Y045602D01*
X023160Y045477D01*
X023160Y045342D01*
X023212Y045217D01*
X023307Y045122D01*
X023432Y045070D01*
X023568Y045070D01*
X023693Y045122D01*
X023721Y045150D01*
X024352Y045150D01*
X024447Y045189D01*
X026047Y046789D01*
X026120Y046863D01*
X026160Y046958D01*
X026160Y048502D01*
X027347Y049689D01*
X027420Y049763D01*
X027460Y049858D01*
X027460Y050470D01*
X027468Y050470D01*
X027593Y050522D01*
X027688Y050617D01*
X027740Y050742D01*
X027740Y050877D01*
X027688Y051002D01*
X027593Y051098D01*
X027468Y051150D01*
X027408Y051150D01*
X027728Y051470D01*
X027768Y051470D01*
X027893Y051522D01*
X027988Y051617D01*
X028040Y051742D01*
X028030Y051902D02*
X029887Y051902D01*
X029890Y052060D02*
X027930Y052060D01*
X027700Y051810D02*
X026800Y050910D01*
X026800Y050110D01*
X025600Y048810D01*
X024140Y048810D01*
X023898Y049049D02*
X008512Y049049D01*
X008525Y049207D02*
X025613Y049207D01*
X025759Y049366D02*
X008538Y049366D01*
X008551Y049524D02*
X025906Y049524D01*
X026052Y049683D02*
X008564Y049683D01*
X008578Y049841D02*
X026198Y049841D01*
X026345Y050000D02*
X008591Y050000D01*
X008646Y050158D02*
X026491Y050158D01*
X026540Y050317D02*
X008797Y050317D01*
X008947Y050475D02*
X026540Y050475D01*
X026540Y050634D02*
X009098Y050634D01*
X009248Y050792D02*
X026540Y050792D01*
X026540Y050951D02*
X010885Y050951D01*
X011171Y051109D02*
X026632Y051109D01*
X026790Y051268D02*
X011314Y051268D01*
X011380Y051426D02*
X026949Y051426D01*
X027107Y051585D02*
X011411Y051585D01*
X011411Y051743D02*
X027266Y051743D01*
X027370Y051902D02*
X011364Y051902D01*
X011290Y052060D02*
X027470Y052060D01*
X027684Y051426D02*
X029881Y051426D01*
X029879Y051268D02*
X027526Y051268D01*
X027565Y051109D02*
X029876Y051109D01*
X029874Y050951D02*
X027710Y050951D01*
X027740Y050792D02*
X029872Y050792D01*
X029870Y050634D02*
X027695Y050634D01*
X027481Y050475D02*
X029868Y050475D01*
X029865Y050317D02*
X027460Y050317D01*
X027460Y050158D02*
X029863Y050158D01*
X029861Y050000D02*
X027460Y050000D01*
X027453Y049841D02*
X029859Y049841D01*
X029857Y049683D02*
X027341Y049683D01*
X027182Y049524D02*
X029854Y049524D01*
X029852Y049366D02*
X027024Y049366D01*
X026865Y049207D02*
X029850Y049207D01*
X029848Y049049D02*
X026707Y049049D01*
X026548Y048890D02*
X029846Y048890D01*
X029843Y048732D02*
X026390Y048732D01*
X026231Y048573D02*
X029841Y048573D01*
X029839Y048415D02*
X026160Y048415D01*
X026160Y048256D02*
X029837Y048256D01*
X029835Y048098D02*
X026160Y048098D01*
X026160Y047939D02*
X029832Y047939D01*
X029830Y047781D02*
X026160Y047781D01*
X026160Y047622D02*
X029828Y047622D01*
X029826Y047464D02*
X026160Y047464D01*
X026160Y047305D02*
X029824Y047305D01*
X029821Y047147D02*
X028641Y047147D01*
X028609Y047160D02*
X028391Y047160D01*
X028188Y047076D01*
X028034Y046921D01*
X027950Y046719D01*
X027950Y046500D01*
X028034Y046298D01*
X028188Y046144D01*
X028270Y046110D01*
X028188Y046076D01*
X028034Y045921D01*
X027950Y045719D01*
X027950Y045500D01*
X028034Y045298D01*
X028188Y045144D01*
X028270Y045110D01*
X028188Y045076D01*
X028034Y044921D01*
X027950Y044719D01*
X027950Y044500D01*
X028034Y044298D01*
X028188Y044144D01*
X028391Y044060D01*
X028609Y044060D01*
X028812Y044144D01*
X028966Y044298D01*
X029050Y044500D01*
X029050Y044719D01*
X028966Y044921D01*
X028812Y045076D01*
X028730Y045110D01*
X028812Y045144D01*
X028966Y045298D01*
X029050Y045500D01*
X029050Y045719D01*
X028966Y045921D01*
X028812Y046076D01*
X028730Y046110D01*
X028812Y046144D01*
X028966Y046298D01*
X029050Y046500D01*
X029050Y046719D01*
X028966Y046921D01*
X028812Y047076D01*
X028609Y047160D01*
X028359Y047147D02*
X026160Y047147D01*
X026160Y046988D02*
X028101Y046988D01*
X027996Y046830D02*
X026088Y046830D01*
X025929Y046671D02*
X027950Y046671D01*
X027950Y046513D02*
X025771Y046513D01*
X025612Y046354D02*
X028011Y046354D01*
X028136Y046196D02*
X025454Y046196D01*
X025295Y046037D02*
X028150Y046037D01*
X028016Y045879D02*
X025137Y045879D01*
X024978Y045720D02*
X027950Y045720D01*
X027950Y045562D02*
X024820Y045562D01*
X024661Y045403D02*
X027990Y045403D01*
X028087Y045245D02*
X024503Y045245D01*
X024300Y045410D02*
X025900Y047010D01*
X025900Y048610D01*
X027200Y049910D01*
X027200Y050610D01*
X027400Y050810D01*
X027956Y051585D02*
X029883Y051585D01*
X029892Y052219D02*
X012909Y052219D01*
X013068Y052377D02*
X029894Y052377D01*
X029896Y052536D02*
X014626Y052536D01*
X014785Y052694D02*
X029898Y052694D01*
X032312Y052219D02*
X032408Y052219D01*
X032408Y052060D02*
X032312Y052060D01*
X032312Y051902D02*
X032408Y051902D01*
X032835Y051902D02*
X032893Y051902D01*
X032900Y052060D02*
X032835Y052060D01*
X032771Y052219D02*
X035200Y052219D01*
X035200Y052060D02*
X033640Y052060D01*
X033647Y051902D02*
X035200Y051902D01*
X035200Y051743D02*
X033647Y051743D01*
X033288Y051902D02*
X033252Y051902D01*
X033252Y052060D02*
X033288Y052060D01*
X032893Y051743D02*
X032835Y051743D01*
X034277Y050158D02*
X038085Y050158D01*
X038715Y050158D02*
X040890Y050158D01*
X040890Y050000D02*
X035988Y050000D01*
X036114Y049841D02*
X036612Y049841D01*
X036788Y049841D02*
X040890Y049841D01*
X040890Y049683D02*
X036996Y049683D01*
X037040Y049524D02*
X040890Y049524D01*
X040890Y049366D02*
X037008Y049366D01*
X036858Y049207D02*
X040890Y049207D01*
X040890Y049049D02*
X035726Y049049D01*
X035731Y048890D02*
X036100Y048890D01*
X036223Y049207D02*
X036542Y049207D01*
X036500Y048890D02*
X036600Y048890D01*
X037000Y048890D02*
X040890Y048890D01*
X040890Y048732D02*
X040103Y048732D01*
X040317Y048573D02*
X040890Y048573D01*
X040890Y048415D02*
X040425Y048415D01*
X040440Y048256D02*
X040890Y048256D01*
X040890Y048098D02*
X040369Y048098D01*
X040890Y047939D02*
X039130Y047939D01*
X039130Y047781D02*
X040890Y047781D01*
X040890Y047622D02*
X039038Y047622D01*
X038935Y047464D02*
X040890Y047464D01*
X040890Y047305D02*
X039001Y047305D01*
X039030Y047147D02*
X040890Y047147D01*
X040890Y046988D02*
X039030Y046988D01*
X038966Y046830D02*
X040890Y046830D01*
X040890Y046671D02*
X038852Y046671D01*
X038605Y046513D02*
X040890Y046513D01*
X040890Y046354D02*
X038100Y046354D01*
X038100Y046196D02*
X038169Y046196D01*
X038195Y046513D02*
X038100Y046513D01*
X038631Y046196D02*
X040890Y046196D01*
X040890Y046037D02*
X038863Y046037D01*
X038970Y045879D02*
X040890Y045879D01*
X040890Y045720D02*
X039030Y045720D01*
X039030Y045562D02*
X040890Y045562D01*
X040890Y045403D02*
X038996Y045403D01*
X038926Y045245D02*
X040890Y045245D01*
X040890Y045086D02*
X038767Y045086D01*
X038033Y045086D02*
X033592Y045086D01*
X033598Y045245D02*
X037874Y045245D01*
X037102Y044769D02*
X040890Y044769D01*
X040890Y044611D02*
X037140Y044611D01*
X037103Y044452D02*
X040890Y044452D01*
X040890Y044294D02*
X036926Y044294D01*
X036674Y044294D02*
X036509Y044294D01*
X036531Y044135D02*
X040890Y044135D01*
X040890Y043977D02*
X036531Y043977D01*
X036972Y043818D02*
X040890Y043818D01*
X040890Y043660D02*
X037040Y043660D01*
X037023Y043501D02*
X040890Y043501D01*
X040890Y043343D02*
X040092Y043343D01*
X040195Y043240D02*
X040195Y043240D01*
X040251Y043184D02*
X040890Y043184D01*
X040890Y043026D02*
X040330Y043026D01*
X040403Y042867D02*
X040890Y042867D01*
X040890Y042709D02*
X040440Y042709D01*
X040402Y042550D02*
X040890Y042550D01*
X040890Y042392D02*
X040221Y042392D01*
X039979Y042392D02*
X039721Y042392D01*
X039479Y042392D02*
X039007Y042392D01*
X039030Y042233D02*
X040890Y042233D01*
X040890Y042075D02*
X039026Y042075D01*
X038960Y041916D02*
X040890Y041916D01*
X040890Y041758D02*
X038839Y041758D01*
X038572Y041599D02*
X040890Y041599D01*
X040890Y041441D02*
X038200Y041441D01*
X038200Y041599D02*
X038228Y041599D01*
X038664Y041282D02*
X040890Y041282D01*
X040890Y041124D02*
X038877Y041124D01*
X038976Y040965D02*
X040890Y040965D01*
X040890Y040807D02*
X039030Y040807D01*
X039030Y040648D02*
X040890Y040648D01*
X040890Y040490D02*
X038991Y040490D01*
X038912Y040331D02*
X040890Y040331D01*
X040890Y040173D02*
X038750Y040173D01*
X038050Y040173D02*
X035479Y040173D01*
X035430Y040331D02*
X037888Y040331D01*
X036634Y039380D02*
X040890Y039380D01*
X040890Y039222D02*
X036660Y039222D01*
X036611Y039063D02*
X040890Y039063D01*
X040890Y038905D02*
X035930Y038905D01*
X035930Y039063D02*
X036029Y039063D01*
X035980Y039222D02*
X035930Y039222D01*
X035470Y039170D02*
X035432Y039170D01*
X035307Y039222D01*
X035470Y038905D02*
X035000Y038905D01*
X035000Y038746D02*
X035470Y038746D01*
X035470Y038588D02*
X035103Y038588D01*
X035219Y038429D02*
X035439Y038429D01*
X035360Y038271D02*
X035240Y038271D01*
X035183Y038112D02*
X035372Y038112D01*
X035475Y037954D02*
X035000Y037954D01*
X035114Y037795D02*
X037550Y037795D01*
X037564Y037954D02*
X035925Y037954D01*
X036028Y038112D02*
X037630Y038112D01*
X037783Y038271D02*
X036040Y038271D01*
X035961Y038429D02*
X040890Y038429D01*
X040890Y038271D02*
X040417Y038271D01*
X040570Y038112D02*
X040890Y038112D01*
X040890Y037954D02*
X040636Y037954D01*
X040650Y037795D02*
X040890Y037795D01*
X040854Y037637D02*
X040624Y037637D01*
X040546Y037478D02*
X040890Y037478D01*
X040890Y037320D02*
X040354Y037320D01*
X039846Y037320D02*
X039350Y037320D01*
X039120Y037320D02*
X039080Y037320D01*
X039080Y037478D02*
X039120Y037478D01*
X038850Y037320D02*
X038354Y037320D01*
X038546Y037478D02*
X038661Y037478D01*
X039080Y037954D02*
X039120Y037954D01*
X039120Y038112D02*
X039080Y038112D01*
X039080Y038271D02*
X039120Y038271D01*
X039401Y038271D02*
X039783Y038271D01*
X039630Y038112D02*
X039560Y038112D01*
X039539Y037478D02*
X039654Y037478D01*
X038799Y038271D02*
X038417Y038271D01*
X038570Y038112D02*
X038640Y038112D01*
X037846Y037320D02*
X035200Y037320D01*
X035200Y037478D02*
X037654Y037478D01*
X037576Y037637D02*
X035273Y037637D01*
X035529Y037161D02*
X040890Y037161D01*
X040890Y037003D02*
X035629Y037003D01*
X035640Y036844D02*
X040890Y036844D01*
X040890Y036686D02*
X035557Y036686D01*
X035368Y035950D02*
X035232Y035950D01*
X035107Y035898D01*
X035039Y035830D01*
X034818Y035830D01*
X034788Y035902D01*
X034693Y035998D01*
X034568Y036050D01*
X034432Y036050D01*
X034307Y035998D01*
X034212Y035902D01*
X034160Y035777D01*
X034160Y035642D01*
X034212Y035517D01*
X034307Y035422D01*
X034432Y035370D01*
X034568Y035370D01*
X034616Y035390D01*
X035039Y035390D01*
X035107Y035322D01*
X035232Y035270D01*
X035368Y035270D01*
X035493Y035322D01*
X035588Y035417D01*
X035640Y035542D01*
X035640Y035677D01*
X035588Y035802D01*
X035493Y035898D01*
X035368Y035950D01*
X035497Y035893D02*
X040890Y035893D01*
X040890Y035735D02*
X035616Y035735D01*
X035640Y035576D02*
X040890Y035576D01*
X040890Y035418D02*
X035588Y035418D01*
X035591Y034560D02*
X035388Y034476D01*
X035234Y034321D01*
X035200Y034240D01*
X035166Y034321D01*
X035012Y034476D01*
X034809Y034560D01*
X034591Y034560D01*
X034388Y034476D01*
X034234Y034321D01*
X034150Y034119D01*
X034150Y033900D01*
X034234Y033698D01*
X034388Y033544D01*
X034591Y033460D01*
X034809Y033460D01*
X035012Y033544D01*
X035166Y033698D01*
X035200Y033780D01*
X035234Y033698D01*
X035388Y033544D01*
X035591Y033460D01*
X035809Y033460D01*
X036012Y033544D01*
X036166Y033698D01*
X036200Y033780D01*
X036234Y033698D01*
X036388Y033544D01*
X036591Y033460D01*
X036809Y033460D01*
X037012Y033544D01*
X037166Y033698D01*
X037200Y033780D01*
X037234Y033698D01*
X037388Y033544D01*
X037591Y033460D01*
X037809Y033460D01*
X038012Y033544D01*
X038166Y033698D01*
X038200Y033780D01*
X038234Y033698D01*
X038388Y033544D01*
X038591Y033460D01*
X038809Y033460D01*
X039012Y033544D01*
X039166Y033698D01*
X039200Y033780D01*
X039234Y033698D01*
X039388Y033544D01*
X039591Y033460D01*
X039809Y033460D01*
X040012Y033544D01*
X040166Y033698D01*
X040250Y033900D01*
X040250Y034119D01*
X040166Y034321D01*
X040012Y034476D01*
X039809Y034560D01*
X039591Y034560D01*
X039388Y034476D01*
X039234Y034321D01*
X039200Y034240D01*
X039166Y034321D01*
X039012Y034476D01*
X038809Y034560D01*
X038591Y034560D01*
X038388Y034476D01*
X038234Y034321D01*
X038200Y034240D01*
X038166Y034321D01*
X038012Y034476D01*
X037809Y034560D01*
X037591Y034560D01*
X037388Y034476D01*
X037234Y034321D01*
X037200Y034240D01*
X037166Y034321D01*
X037012Y034476D01*
X036809Y034560D01*
X036591Y034560D01*
X036388Y034476D01*
X036234Y034321D01*
X036200Y034240D01*
X036166Y034321D01*
X036012Y034476D01*
X035809Y034560D01*
X035591Y034560D01*
X035379Y034467D02*
X035021Y034467D01*
X035172Y034308D02*
X035228Y034308D01*
X035258Y033674D02*
X035142Y033674D01*
X034945Y033516D02*
X035455Y033516D01*
X035945Y033516D02*
X036455Y033516D01*
X036258Y033674D02*
X036142Y033674D01*
X036172Y034308D02*
X036228Y034308D01*
X036379Y034467D02*
X036021Y034467D01*
X037021Y034467D02*
X037379Y034467D01*
X037228Y034308D02*
X037172Y034308D01*
X037142Y033674D02*
X037258Y033674D01*
X037455Y033516D02*
X036945Y033516D01*
X037945Y033516D02*
X038455Y033516D01*
X038258Y033674D02*
X038142Y033674D01*
X038172Y034308D02*
X038228Y034308D01*
X038379Y034467D02*
X038021Y034467D01*
X039021Y034467D02*
X039379Y034467D01*
X039228Y034308D02*
X039172Y034308D01*
X039142Y033674D02*
X039258Y033674D01*
X039455Y033516D02*
X038945Y033516D01*
X039945Y033516D02*
X040890Y033516D01*
X040890Y033674D02*
X040142Y033674D01*
X040222Y033833D02*
X040890Y033833D01*
X040890Y033991D02*
X040250Y033991D01*
X040237Y034150D02*
X040890Y034150D01*
X040890Y034308D02*
X040172Y034308D01*
X040021Y034467D02*
X040890Y034467D01*
X040890Y034625D02*
X028930Y034625D01*
X028930Y034715D02*
X029285Y035070D01*
X029368Y035070D01*
X029493Y035122D01*
X029588Y035217D01*
X029640Y035342D01*
X029640Y035477D01*
X029593Y035592D01*
X029755Y035430D01*
X030517Y035430D01*
X030505Y035417D01*
X030481Y035376D01*
X030469Y035330D01*
X030469Y035128D01*
X030847Y035128D01*
X030847Y035091D01*
X030884Y035091D01*
X030884Y034733D01*
X031106Y034733D01*
X031151Y034745D01*
X031192Y034769D01*
X031200Y034777D01*
X031244Y034733D01*
X031826Y034733D01*
X031931Y034838D01*
X031931Y034905D01*
X031938Y034908D01*
X031996Y034912D01*
X032023Y034943D01*
X032696Y035220D01*
X032745Y035220D01*
X032780Y035255D01*
X032826Y035273D01*
X032845Y035319D01*
X032880Y035355D01*
X032880Y035404D01*
X032899Y035449D01*
X032880Y035495D01*
X032880Y035569D01*
X032938Y035627D01*
X032990Y035752D01*
X032990Y035887D01*
X032938Y036012D01*
X032843Y036108D01*
X032718Y036160D01*
X032582Y036160D01*
X032457Y036108D01*
X032362Y036012D01*
X032310Y035887D01*
X032310Y035752D01*
X032362Y035627D01*
X032395Y035594D01*
X031916Y035396D01*
X031840Y035472D01*
X031890Y035592D01*
X031890Y035727D01*
X031838Y035852D01*
X031743Y035948D01*
X031618Y036000D01*
X031482Y036000D01*
X031357Y035948D01*
X031299Y035890D01*
X029945Y035890D01*
X029430Y036405D01*
X029295Y036540D01*
X019951Y036540D01*
X019893Y036598D01*
X019768Y036650D01*
X019632Y036650D01*
X019507Y036598D01*
X019412Y036502D01*
X019360Y036377D01*
X019360Y036242D01*
X019412Y036117D01*
X019507Y036022D01*
X019632Y035970D01*
X019768Y035970D01*
X019893Y036022D01*
X019951Y036080D01*
X029105Y036080D01*
X029482Y035702D01*
X029368Y035750D01*
X029232Y035750D01*
X029107Y035698D01*
X029050Y035641D01*
X028993Y035698D01*
X028868Y035750D01*
X028732Y035750D01*
X028607Y035698D01*
X028512Y035602D01*
X028460Y035477D01*
X028460Y035395D01*
X028270Y035205D01*
X028270Y032705D01*
X027970Y032405D01*
X027970Y032128D01*
X026526Y031097D01*
X026518Y031100D01*
X026382Y031100D01*
X026257Y031048D01*
X026162Y030952D01*
X026110Y030827D01*
X026110Y030692D01*
X026162Y030567D01*
X026219Y030510D01*
X026162Y030452D01*
X026110Y030327D01*
X026110Y030192D01*
X026162Y030067D01*
X026257Y029972D01*
X026382Y029920D01*
X026518Y029920D01*
X026643Y029972D01*
X026738Y030067D01*
X026790Y030192D01*
X026790Y030236D01*
X028480Y031580D01*
X028495Y031580D01*
X028553Y031638D01*
X028618Y031689D01*
X028619Y031704D01*
X028630Y031715D01*
X028630Y031797D01*
X028639Y031878D01*
X028630Y031890D01*
X028630Y032115D01*
X028795Y032280D01*
X028795Y032280D01*
X028930Y032415D01*
X028930Y034715D01*
X028999Y034784D02*
X030523Y034784D01*
X030538Y034769D02*
X030579Y034745D01*
X030625Y034733D01*
X030847Y034733D01*
X030847Y035091D01*
X030469Y035091D01*
X030469Y034889D01*
X030481Y034844D01*
X030505Y034802D01*
X030538Y034769D01*
X030469Y034942D02*
X029158Y034942D01*
X029442Y035101D02*
X030847Y035101D01*
X030847Y034942D02*
X030884Y034942D01*
X030884Y034784D02*
X030847Y034784D01*
X030784Y034487D02*
X031006Y034487D01*
X031051Y034474D01*
X031092Y034451D01*
X031100Y034443D01*
X031144Y034487D01*
X031726Y034487D01*
X031812Y034400D01*
X031932Y034450D01*
X032068Y034450D01*
X032193Y034398D01*
X032288Y034302D01*
X032340Y034177D01*
X032340Y034042D01*
X032288Y033917D01*
X032193Y033822D01*
X032068Y033770D01*
X031932Y033770D01*
X031812Y033820D01*
X031726Y033733D01*
X031144Y033733D01*
X031100Y033777D01*
X031092Y033769D01*
X031051Y033745D01*
X031006Y033733D01*
X030784Y033733D01*
X030784Y034091D01*
X030747Y034091D01*
X030747Y033733D01*
X030525Y033733D01*
X030479Y033745D01*
X030438Y033769D01*
X030405Y033802D01*
X030400Y033811D01*
X030395Y033802D01*
X030362Y033769D01*
X030321Y033745D01*
X030275Y033733D01*
X030053Y033733D01*
X030053Y034091D01*
X030016Y034091D01*
X030016Y033733D01*
X029794Y033733D01*
X029749Y033745D01*
X029708Y033769D01*
X029700Y033777D01*
X029656Y033733D01*
X029595Y033733D01*
X029595Y033685D01*
X029640Y033577D01*
X029640Y033442D01*
X029588Y033317D01*
X029493Y033222D01*
X029368Y033170D01*
X029232Y033170D01*
X029107Y033222D01*
X029012Y033317D01*
X028960Y033442D01*
X028960Y033577D01*
X029012Y033702D01*
X029058Y033749D01*
X028969Y033838D01*
X028969Y034381D01*
X029074Y034487D01*
X029656Y034487D01*
X029700Y034443D01*
X029708Y034451D01*
X029749Y034474D01*
X029794Y034487D01*
X030016Y034487D01*
X030016Y034128D01*
X030053Y034128D01*
X030747Y034128D01*
X030747Y034091D01*
X030369Y034091D01*
X030053Y034091D01*
X030053Y034128D01*
X030053Y034487D01*
X030275Y034487D01*
X030321Y034474D01*
X030362Y034451D01*
X030395Y034417D01*
X030400Y034409D01*
X030405Y034417D01*
X030438Y034451D01*
X030479Y034474D01*
X030525Y034487D01*
X030747Y034487D01*
X030747Y034128D01*
X030784Y034128D01*
X030784Y034487D01*
X030784Y034467D02*
X030747Y034467D01*
X030747Y034308D02*
X030784Y034308D01*
X030784Y034150D02*
X030747Y034150D01*
X030747Y033991D02*
X030784Y033991D01*
X030784Y033833D02*
X030747Y033833D01*
X030747Y033387D02*
X030525Y033387D01*
X030479Y033374D01*
X030438Y033351D01*
X030405Y033317D01*
X030381Y033276D01*
X030369Y033230D01*
X030369Y033028D01*
X030747Y033028D01*
X030747Y032991D01*
X030784Y032991D01*
X030784Y032633D01*
X031006Y032633D01*
X031051Y032645D01*
X031092Y032669D01*
X031100Y032677D01*
X031144Y032633D01*
X031726Y032633D01*
X031812Y032720D01*
X031932Y032670D01*
X032068Y032670D01*
X032193Y032722D01*
X032288Y032817D01*
X032340Y032942D01*
X032340Y033077D01*
X032288Y033202D01*
X032193Y033298D01*
X032068Y033350D01*
X031932Y033350D01*
X031812Y033300D01*
X031726Y033387D01*
X031144Y033387D01*
X031100Y033343D01*
X031092Y033351D01*
X031051Y033374D01*
X031006Y033387D01*
X030784Y033387D01*
X030784Y033028D01*
X030747Y033028D01*
X030747Y033387D01*
X030747Y033357D02*
X030784Y033357D01*
X030784Y033199D02*
X030747Y033199D01*
X030747Y033040D02*
X030784Y033040D01*
X030747Y032991D02*
X030369Y032991D01*
X030369Y032789D01*
X030381Y032744D01*
X030405Y032702D01*
X030438Y032669D01*
X030479Y032645D01*
X030525Y032633D01*
X030747Y032633D01*
X030747Y032991D01*
X030747Y032882D02*
X030784Y032882D01*
X030784Y032723D02*
X030747Y032723D01*
X030393Y032723D02*
X028930Y032723D01*
X028930Y032565D02*
X040890Y032565D01*
X040890Y032723D02*
X032194Y032723D01*
X032315Y032882D02*
X040890Y032882D01*
X040890Y033040D02*
X032340Y033040D01*
X032290Y033199D02*
X040890Y033199D01*
X040890Y033357D02*
X031755Y033357D01*
X031114Y033357D02*
X031081Y033357D01*
X030450Y033357D02*
X029605Y033357D01*
X029640Y033516D02*
X034455Y033516D01*
X034258Y033674D02*
X029600Y033674D01*
X030016Y033833D02*
X030053Y033833D01*
X030053Y033991D02*
X030016Y033991D01*
X030016Y034150D02*
X030053Y034150D01*
X030053Y034308D02*
X030016Y034308D01*
X030016Y034467D02*
X030053Y034467D01*
X030334Y034467D02*
X030466Y034467D01*
X030469Y035259D02*
X029606Y035259D01*
X029640Y035418D02*
X030505Y035418D01*
X029942Y035893D02*
X031303Y035893D01*
X031797Y035893D02*
X032312Y035893D01*
X032317Y035735D02*
X031887Y035735D01*
X031883Y035576D02*
X032353Y035576D01*
X031969Y035418D02*
X031895Y035418D01*
X032022Y034942D02*
X040890Y034942D01*
X040890Y034784D02*
X031877Y034784D01*
X031746Y034467D02*
X034379Y034467D01*
X034228Y034308D02*
X032282Y034308D01*
X032340Y034150D02*
X034163Y034150D01*
X034150Y033991D02*
X032319Y033991D01*
X032204Y033833D02*
X034178Y033833D01*
X034316Y035418D02*
X032886Y035418D01*
X032887Y035576D02*
X034187Y035576D01*
X034160Y035735D02*
X032983Y035735D01*
X032988Y035893D02*
X034208Y035893D01*
X034792Y035893D02*
X035103Y035893D01*
X033343Y036686D02*
X014200Y036686D01*
X014200Y036527D02*
X019437Y036527D01*
X019360Y036369D02*
X014200Y036369D01*
X014200Y036210D02*
X019373Y036210D01*
X019477Y036052D02*
X014200Y036052D01*
X014200Y035893D02*
X017465Y035893D01*
X017485Y035918D02*
X017436Y035857D01*
X017380Y035801D01*
X017380Y035787D01*
X017190Y035550D01*
X017132Y035550D01*
X017007Y035498D01*
X016912Y035402D01*
X016860Y035277D01*
X016860Y035142D01*
X016912Y035017D01*
X017007Y034922D01*
X017132Y034870D01*
X017268Y034870D01*
X017330Y034896D01*
X017000Y034540D01*
X015400Y034540D01*
X015366Y034621D01*
X015212Y034776D01*
X015130Y034810D01*
X015212Y034844D01*
X015366Y034998D01*
X015450Y035200D01*
X015450Y035419D01*
X015366Y035621D01*
X015212Y035776D01*
X015009Y035860D01*
X014791Y035860D01*
X014588Y035776D01*
X014434Y035621D01*
X014350Y035419D01*
X014350Y035200D01*
X014434Y034998D01*
X014588Y034844D01*
X014670Y034810D01*
X014588Y034776D01*
X014434Y034621D01*
X014350Y034419D01*
X014350Y034200D01*
X014434Y033998D01*
X014588Y033844D01*
X014670Y033810D01*
X014612Y033780D01*
X014542Y033729D01*
X014480Y033668D01*
X014430Y033598D01*
X014390Y033521D01*
X014364Y033439D01*
X014350Y033353D01*
X014350Y033330D01*
X014880Y033330D01*
X014880Y033290D01*
X014350Y033290D01*
X014350Y033267D01*
X014364Y033181D01*
X014390Y033099D01*
X014430Y033022D01*
X014480Y032952D01*
X014542Y032890D01*
X014612Y032839D01*
X014689Y032800D01*
X014771Y032773D01*
X014857Y032760D01*
X014880Y032760D01*
X014880Y033290D01*
X014920Y033290D01*
X014920Y033330D01*
X015450Y033330D01*
X015450Y033353D01*
X015436Y033439D01*
X015410Y033521D01*
X015370Y033598D01*
X015320Y033668D01*
X015258Y033729D01*
X015188Y033780D01*
X015130Y033810D01*
X015212Y033844D01*
X015366Y033998D01*
X015400Y034080D01*
X017010Y034080D01*
X017013Y034076D01*
X017104Y034080D01*
X017195Y034080D01*
X017199Y034083D01*
X017204Y034084D01*
X017266Y034150D01*
X017330Y034215D01*
X017330Y034220D01*
X018510Y035490D01*
X026709Y035490D01*
X027160Y035039D01*
X027160Y034942D01*
X027212Y034817D01*
X027307Y034722D01*
X027432Y034670D01*
X027568Y034670D01*
X027693Y034722D01*
X027788Y034817D01*
X027840Y034942D01*
X027840Y035077D01*
X027788Y035202D01*
X027693Y035298D01*
X027568Y035350D01*
X027471Y035350D01*
X027020Y035801D01*
X026891Y035930D01*
X018501Y035930D01*
X018487Y035943D01*
X018296Y035936D01*
X018290Y035930D01*
X017677Y035930D01*
X017666Y035939D01*
X017588Y035930D01*
X017509Y035930D01*
X017499Y035920D01*
X017485Y035918D01*
X017338Y035735D02*
X015253Y035735D01*
X015385Y035576D02*
X017211Y035576D01*
X016927Y035418D02*
X015450Y035418D01*
X015450Y035259D02*
X016860Y035259D01*
X016877Y035101D02*
X015409Y035101D01*
X015310Y034942D02*
X016987Y034942D01*
X017226Y034784D02*
X015193Y034784D01*
X015362Y034625D02*
X017079Y034625D01*
X017412Y034308D02*
X018698Y034308D01*
X018698Y034150D02*
X017265Y034150D01*
X017560Y034467D02*
X018698Y034467D01*
X018698Y034625D02*
X017707Y034625D01*
X017854Y034784D02*
X018698Y034784D01*
X018698Y034942D02*
X018001Y034942D01*
X018148Y035101D02*
X018755Y035101D01*
X018756Y035103D02*
X018698Y034963D01*
X018698Y030039D01*
X018658Y030000D01*
X018586Y029825D01*
X018513Y030000D01*
X018374Y030139D01*
X018192Y030214D01*
X017995Y030214D01*
X017813Y030139D01*
X017700Y030026D01*
X017587Y030139D01*
X017405Y030214D01*
X017208Y030214D01*
X017026Y030139D01*
X016887Y030000D01*
X016811Y029818D01*
X016811Y029794D01*
X016805Y029835D01*
X016781Y029909D01*
X016745Y029979D01*
X016700Y030042D01*
X016644Y030097D01*
X016581Y030143D01*
X016512Y030178D01*
X016438Y030202D01*
X016361Y030214D01*
X016340Y030214D01*
X016340Y029738D01*
X016304Y029738D01*
X016304Y030214D01*
X016283Y030214D01*
X016206Y030202D01*
X016132Y030178D01*
X016063Y030143D01*
X016000Y030097D01*
X015945Y030042D01*
X015899Y029979D01*
X015863Y029909D01*
X015839Y029835D01*
X015827Y029758D01*
X015827Y029755D01*
X015817Y029765D01*
X015536Y029765D01*
X015536Y028973D01*
X015376Y028973D01*
X015376Y029765D01*
X015095Y029765D01*
X014584Y029254D01*
X014584Y028973D01*
X015376Y028973D01*
X015376Y028813D01*
X014584Y028813D01*
X014584Y028531D01*
X015095Y028020D01*
X015376Y028020D01*
X015376Y028813D01*
X015536Y028813D01*
X015536Y028973D01*
X016328Y028973D01*
X016328Y029254D01*
X016304Y029278D01*
X016304Y029701D01*
X016340Y029701D01*
X016340Y029224D01*
X016361Y029224D01*
X016438Y029237D01*
X016512Y029261D01*
X016581Y029296D01*
X016644Y029342D01*
X016700Y029397D01*
X016745Y029460D01*
X016781Y029529D01*
X016805Y029603D01*
X016811Y029645D01*
X016811Y029621D01*
X016887Y029439D01*
X017026Y029300D01*
X017208Y029224D01*
X017405Y029224D01*
X017587Y029300D01*
X017700Y029413D01*
X017813Y029300D01*
X017995Y029224D01*
X018192Y029224D01*
X018374Y029300D01*
X018513Y029439D01*
X018586Y029614D01*
X018658Y029439D01*
X018798Y029300D01*
X018979Y029224D01*
X019072Y029224D01*
X019072Y028973D01*
X019864Y028973D01*
X019864Y029765D01*
X019583Y029765D01*
X019573Y029755D01*
X019573Y029818D01*
X019498Y030000D01*
X019458Y030039D01*
X019458Y034781D01*
X019480Y034834D01*
X019480Y034985D01*
X019422Y035125D01*
X019315Y035232D01*
X019176Y035290D01*
X019024Y035290D01*
X018885Y035232D01*
X018756Y035103D01*
X018951Y035259D02*
X018296Y035259D01*
X018443Y035418D02*
X026781Y035418D01*
X026939Y035259D02*
X019249Y035259D01*
X019432Y035101D02*
X025914Y035101D01*
X025907Y035098D02*
X025812Y035002D01*
X025760Y034877D01*
X025760Y034742D01*
X025812Y034617D01*
X025907Y034522D01*
X026032Y034470D01*
X026168Y034470D01*
X026221Y034492D01*
X027170Y034018D01*
X027212Y033917D01*
X027307Y033822D01*
X027432Y033770D01*
X027568Y033770D01*
X027693Y033822D01*
X027788Y033917D01*
X027840Y034042D01*
X027840Y034177D01*
X027788Y034302D01*
X027693Y034398D01*
X027568Y034450D01*
X027432Y034450D01*
X027379Y034428D01*
X026430Y034902D01*
X026388Y035002D01*
X026293Y035098D01*
X026168Y035150D01*
X026032Y035150D01*
X025907Y035098D01*
X025787Y034942D02*
X019480Y034942D01*
X019459Y034784D02*
X025760Y034784D01*
X025808Y034625D02*
X019458Y034625D01*
X019458Y034467D02*
X026272Y034467D01*
X026109Y034260D02*
X025891Y034260D01*
X025688Y034176D01*
X025534Y034021D01*
X025500Y033940D01*
X025466Y034021D01*
X025312Y034176D01*
X025109Y034260D01*
X024891Y034260D01*
X024688Y034176D01*
X024534Y034021D01*
X024500Y033940D01*
X024466Y034021D01*
X024312Y034176D01*
X024109Y034260D01*
X023891Y034260D01*
X023688Y034176D01*
X023534Y034021D01*
X023500Y033940D01*
X023466Y034021D01*
X023312Y034176D01*
X023109Y034260D01*
X022891Y034260D01*
X022688Y034176D01*
X022534Y034021D01*
X022500Y033940D01*
X022466Y034021D01*
X022312Y034176D01*
X022109Y034260D01*
X021891Y034260D01*
X021688Y034176D01*
X021534Y034021D01*
X021500Y033940D01*
X021466Y034021D01*
X021312Y034176D01*
X021109Y034260D01*
X020891Y034260D01*
X020688Y034176D01*
X020534Y034021D01*
X020450Y033819D01*
X020450Y033600D01*
X020534Y033398D01*
X020688Y033244D01*
X020891Y033160D01*
X021109Y033160D01*
X021312Y033244D01*
X021466Y033398D01*
X021500Y033480D01*
X021534Y033398D01*
X021688Y033244D01*
X021891Y033160D01*
X022109Y033160D01*
X022312Y033244D01*
X022466Y033398D01*
X022500Y033480D01*
X022534Y033398D01*
X022688Y033244D01*
X022891Y033160D01*
X023109Y033160D01*
X023312Y033244D01*
X023466Y033398D01*
X023500Y033480D01*
X023534Y033398D01*
X023688Y033244D01*
X023891Y033160D01*
X024109Y033160D01*
X024312Y033244D01*
X024466Y033398D01*
X024500Y033480D01*
X024534Y033398D01*
X024688Y033244D01*
X024891Y033160D01*
X025109Y033160D01*
X025312Y033244D01*
X025466Y033398D01*
X025500Y033480D01*
X025534Y033398D01*
X025688Y033244D01*
X025891Y033160D01*
X026109Y033160D01*
X026312Y033244D01*
X026466Y033398D01*
X026550Y033600D01*
X026550Y033819D01*
X026466Y034021D01*
X026312Y034176D01*
X026109Y034260D01*
X026338Y034150D02*
X026906Y034150D01*
X027181Y033991D02*
X026479Y033991D01*
X026544Y033833D02*
X027296Y033833D01*
X027704Y033833D02*
X028270Y033833D01*
X028270Y033991D02*
X027819Y033991D01*
X027840Y034150D02*
X028270Y034150D01*
X028270Y034308D02*
X027782Y034308D01*
X027755Y034784D02*
X028270Y034784D01*
X028270Y034942D02*
X027840Y034942D01*
X027830Y035101D02*
X028270Y035101D01*
X028324Y035259D02*
X027731Y035259D01*
X027403Y035418D02*
X028460Y035418D01*
X028501Y035576D02*
X027245Y035576D01*
X027086Y035735D02*
X028696Y035735D01*
X028904Y035735D02*
X029196Y035735D01*
X029291Y035893D02*
X026928Y035893D01*
X027098Y035101D02*
X026286Y035101D01*
X026413Y034942D02*
X027160Y034942D01*
X027245Y034784D02*
X026666Y034784D01*
X026983Y034625D02*
X028270Y034625D01*
X028270Y034467D02*
X027300Y034467D01*
X026589Y034308D02*
X019458Y034308D01*
X019458Y034150D02*
X020662Y034150D01*
X020521Y033991D02*
X019458Y033991D01*
X019458Y033833D02*
X020456Y033833D01*
X020450Y033674D02*
X019458Y033674D01*
X019458Y033516D02*
X020485Y033516D01*
X020575Y033357D02*
X019458Y033357D01*
X019458Y033199D02*
X020796Y033199D01*
X021204Y033199D02*
X021796Y033199D01*
X021575Y033357D02*
X021425Y033357D01*
X021479Y033991D02*
X021521Y033991D01*
X021662Y034150D02*
X021338Y034150D01*
X022338Y034150D02*
X022662Y034150D01*
X022521Y033991D02*
X022479Y033991D01*
X022425Y033357D02*
X022575Y033357D01*
X022796Y033199D02*
X022204Y033199D01*
X023204Y033199D02*
X023796Y033199D01*
X023575Y033357D02*
X023425Y033357D01*
X023479Y033991D02*
X023521Y033991D01*
X023662Y034150D02*
X023338Y034150D01*
X024338Y034150D02*
X024662Y034150D01*
X024521Y033991D02*
X024479Y033991D01*
X024425Y033357D02*
X024575Y033357D01*
X024796Y033199D02*
X024204Y033199D01*
X025204Y033199D02*
X025796Y033199D01*
X025575Y033357D02*
X025425Y033357D01*
X025479Y033991D02*
X025521Y033991D01*
X025662Y034150D02*
X025338Y034150D01*
X026204Y033199D02*
X028270Y033199D01*
X028270Y033357D02*
X026425Y033357D01*
X026515Y033516D02*
X028270Y033516D01*
X028270Y033674D02*
X026550Y033674D01*
X027971Y032406D02*
X019458Y032406D01*
X019458Y032248D02*
X027970Y032248D01*
X027916Y032089D02*
X019458Y032089D01*
X019458Y031931D02*
X027694Y031931D01*
X027472Y031772D02*
X019458Y031772D01*
X019458Y031614D02*
X027250Y031614D01*
X027028Y031455D02*
X019458Y031455D01*
X019458Y031297D02*
X026806Y031297D01*
X026584Y031138D02*
X019458Y031138D01*
X019458Y030980D02*
X026189Y030980D01*
X026110Y030821D02*
X019458Y030821D01*
X019458Y030663D02*
X026122Y030663D01*
X026214Y030504D02*
X019458Y030504D01*
X019458Y030346D02*
X026118Y030346D01*
X026112Y030187D02*
X019458Y030187D01*
X019468Y030029D02*
X026200Y030029D01*
X026700Y030029D02*
X030870Y030029D01*
X030870Y029915D02*
X030970Y029815D01*
X030970Y029710D01*
X030888Y029676D01*
X030734Y029521D01*
X030700Y029440D01*
X030670Y029498D01*
X030620Y029568D01*
X030558Y029629D01*
X030488Y029680D01*
X030411Y029720D01*
X030329Y029746D01*
X030243Y029760D01*
X030220Y029760D01*
X030220Y029230D01*
X030180Y029230D01*
X030180Y029760D01*
X030157Y029760D01*
X030071Y029746D01*
X029989Y029720D01*
X029912Y029680D01*
X029842Y029629D01*
X029780Y029568D01*
X029730Y029498D01*
X029700Y029440D01*
X029666Y029521D01*
X029512Y029676D01*
X029309Y029760D01*
X029091Y029760D01*
X028888Y029676D01*
X028734Y029521D01*
X028700Y029440D01*
X028666Y029521D01*
X028512Y029676D01*
X028309Y029760D01*
X028091Y029760D01*
X027888Y029676D01*
X027734Y029521D01*
X027650Y029319D01*
X027650Y029100D01*
X027734Y028898D01*
X027888Y028744D01*
X028091Y028660D01*
X028309Y028660D01*
X028512Y028744D01*
X028666Y028898D01*
X028700Y028980D01*
X028734Y028898D01*
X028888Y028744D01*
X029091Y028660D01*
X029309Y028660D01*
X029512Y028744D01*
X029666Y028898D01*
X029700Y028980D01*
X029730Y028922D01*
X029780Y028852D01*
X029842Y028790D01*
X029912Y028739D01*
X029989Y028700D01*
X030071Y028673D01*
X030157Y028660D01*
X030180Y028660D01*
X030180Y029190D01*
X030220Y029190D01*
X030220Y028660D01*
X030243Y028660D01*
X030329Y028673D01*
X030411Y028700D01*
X030488Y028739D01*
X030558Y028790D01*
X030620Y028852D01*
X030670Y028922D01*
X030700Y028980D01*
X030734Y028898D01*
X030888Y028744D01*
X031091Y028660D01*
X031309Y028660D01*
X031512Y028744D01*
X031666Y028898D01*
X031700Y028980D01*
X031734Y028898D01*
X031888Y028744D01*
X032091Y028660D01*
X032309Y028660D01*
X032512Y028744D01*
X032666Y028898D01*
X032750Y029100D01*
X032750Y029319D01*
X032666Y029521D01*
X032512Y029676D01*
X032309Y029760D01*
X032091Y029760D01*
X031888Y029676D01*
X031734Y029521D01*
X031700Y029440D01*
X031666Y029521D01*
X031512Y029676D01*
X031430Y029710D01*
X031430Y030005D01*
X031330Y030105D01*
X031330Y030559D01*
X031388Y030617D01*
X031440Y030742D01*
X031440Y030859D01*
X031960Y030339D01*
X031960Y030242D01*
X032012Y030117D01*
X032107Y030022D01*
X032232Y029970D01*
X032368Y029970D01*
X032493Y030022D01*
X032588Y030117D01*
X032640Y030242D01*
X032640Y030377D01*
X032588Y030502D01*
X032493Y030598D01*
X032368Y030650D01*
X032271Y030650D01*
X031620Y031301D01*
X031491Y031430D01*
X030209Y031430D01*
X030129Y031350D01*
X030032Y031350D01*
X029907Y031298D01*
X029812Y031202D01*
X029760Y031077D01*
X029760Y030942D01*
X029812Y030817D01*
X029907Y030722D01*
X030032Y030670D01*
X030168Y030670D01*
X030293Y030722D01*
X030388Y030817D01*
X030440Y030942D01*
X030440Y030990D01*
X030807Y030990D01*
X030760Y030877D01*
X030760Y030742D01*
X030812Y030617D01*
X030870Y030559D01*
X030870Y029915D01*
X030914Y029870D02*
X019551Y029870D01*
X019864Y029712D02*
X020024Y029712D01*
X020024Y029765D02*
X020305Y029765D01*
X020816Y029254D01*
X020816Y028973D01*
X020024Y028973D01*
X019864Y028973D01*
X019864Y028813D01*
X019072Y028813D01*
X019072Y028531D01*
X019583Y028020D01*
X019864Y028020D01*
X019864Y028813D01*
X020024Y028813D01*
X020024Y028973D01*
X020024Y029765D01*
X020024Y029553D02*
X019864Y029553D01*
X019864Y029395D02*
X020024Y029395D01*
X020024Y029236D02*
X019864Y029236D01*
X019864Y029078D02*
X020024Y029078D01*
X020024Y028919D02*
X027725Y028919D01*
X027659Y029078D02*
X020816Y029078D01*
X020816Y029236D02*
X027650Y029236D01*
X027681Y029395D02*
X020675Y029395D01*
X020517Y029553D02*
X027766Y029553D01*
X027975Y029712D02*
X020358Y029712D01*
X019864Y028919D02*
X019002Y028919D01*
X019002Y028975D02*
X018939Y029128D01*
X018822Y029245D01*
X018669Y029309D01*
X018503Y029309D01*
X018350Y029245D01*
X018233Y029128D01*
X018170Y028975D01*
X018170Y028810D01*
X018233Y028657D01*
X018350Y028540D01*
X018503Y028476D01*
X018669Y028476D01*
X018822Y028540D01*
X018939Y028657D01*
X019002Y028810D01*
X019002Y028975D01*
X018960Y029078D02*
X019072Y029078D01*
X018950Y029236D02*
X018831Y029236D01*
X018702Y029395D02*
X018469Y029395D01*
X018561Y029553D02*
X018611Y029553D01*
X018605Y029870D02*
X018567Y029870D01*
X018484Y030029D02*
X018688Y030029D01*
X018698Y030187D02*
X018257Y030187D01*
X017930Y030187D02*
X017470Y030187D01*
X017697Y030029D02*
X017703Y030029D01*
X017143Y030187D02*
X016483Y030187D01*
X016340Y030187D02*
X016304Y030187D01*
X016161Y030187D02*
X014200Y030187D01*
X014200Y030029D02*
X015935Y030029D01*
X015851Y029870D02*
X014200Y029870D01*
X014200Y029712D02*
X015042Y029712D01*
X014883Y029553D02*
X014200Y029553D01*
X014200Y029395D02*
X014725Y029395D01*
X014584Y029236D02*
X014200Y029236D01*
X014200Y029078D02*
X014584Y029078D01*
X014584Y028761D02*
X014200Y028761D01*
X014200Y028919D02*
X015376Y028919D01*
X015376Y028761D02*
X015536Y028761D01*
X015536Y028813D02*
X015536Y028020D01*
X015817Y028020D01*
X016328Y028531D01*
X016328Y028813D01*
X015536Y028813D01*
X015536Y028919D02*
X016398Y028919D01*
X016398Y028975D02*
X016398Y028810D01*
X016461Y028657D01*
X016578Y028540D01*
X016731Y028476D01*
X016897Y028476D01*
X017050Y028540D01*
X017167Y028657D01*
X017230Y028810D01*
X017230Y028975D01*
X017167Y029128D01*
X017050Y029245D01*
X016897Y029309D01*
X016731Y029309D01*
X016578Y029245D01*
X016461Y029128D01*
X016398Y028975D01*
X016440Y029078D02*
X016328Y029078D01*
X016328Y029236D02*
X016340Y029236D01*
X016437Y029236D02*
X016569Y029236D01*
X016698Y029395D02*
X016931Y029395D01*
X016839Y029553D02*
X016789Y029553D01*
X016793Y029870D02*
X016833Y029870D01*
X016916Y030029D02*
X016709Y030029D01*
X016340Y030029D02*
X016304Y030029D01*
X016304Y029870D02*
X016340Y029870D01*
X016340Y029553D02*
X016304Y029553D01*
X016304Y029395D02*
X016340Y029395D01*
X016328Y028761D02*
X016418Y028761D01*
X016328Y028602D02*
X016516Y028602D01*
X016241Y028444D02*
X019159Y028444D01*
X019072Y028602D02*
X018884Y028602D01*
X018982Y028761D02*
X019072Y028761D01*
X019318Y028285D02*
X016082Y028285D01*
X015924Y028127D02*
X019476Y028127D01*
X019864Y028127D02*
X020024Y028127D01*
X020024Y028020D02*
X020305Y028020D01*
X020816Y028531D01*
X020816Y028813D01*
X020024Y028813D01*
X020024Y028020D01*
X020024Y028285D02*
X019864Y028285D01*
X019864Y028444D02*
X020024Y028444D01*
X020024Y028602D02*
X019864Y028602D01*
X019864Y028761D02*
X020024Y028761D01*
X020570Y028285D02*
X040890Y028285D01*
X040890Y028127D02*
X020412Y028127D01*
X020729Y028444D02*
X040890Y028444D01*
X040890Y028602D02*
X038939Y028602D01*
X038885Y028580D02*
X039227Y028721D01*
X039488Y028983D01*
X039630Y029325D01*
X039630Y029695D01*
X039488Y030037D01*
X039227Y030298D01*
X038885Y030440D01*
X038515Y030440D01*
X038173Y030298D01*
X037912Y030037D01*
X037770Y029695D01*
X037770Y029325D01*
X037912Y028983D01*
X038173Y028721D01*
X038515Y028580D01*
X038885Y028580D01*
X039266Y028761D02*
X040890Y028761D01*
X040890Y028919D02*
X039425Y028919D01*
X039528Y029078D02*
X040890Y029078D01*
X040890Y029236D02*
X039593Y029236D01*
X039630Y029395D02*
X040890Y029395D01*
X040890Y029553D02*
X039630Y029553D01*
X039623Y029712D02*
X040890Y029712D01*
X040890Y029870D02*
X039557Y029870D01*
X039492Y030029D02*
X040890Y030029D01*
X040890Y030187D02*
X039338Y030187D01*
X039112Y030346D02*
X040890Y030346D01*
X040890Y030504D02*
X032586Y030504D01*
X032640Y030346D02*
X038288Y030346D01*
X038062Y030187D02*
X032617Y030187D01*
X032500Y030029D02*
X037908Y030029D01*
X037843Y029870D02*
X031430Y029870D01*
X031430Y029712D02*
X031975Y029712D01*
X031766Y029553D02*
X031634Y029553D01*
X031406Y030029D02*
X032100Y030029D01*
X031983Y030187D02*
X031330Y030187D01*
X031330Y030346D02*
X031953Y030346D01*
X031794Y030504D02*
X031330Y030504D01*
X031407Y030663D02*
X031636Y030663D01*
X031477Y030821D02*
X031440Y030821D01*
X031783Y031138D02*
X040890Y031138D01*
X040890Y030980D02*
X031941Y030980D01*
X032100Y030821D02*
X040890Y030821D01*
X040890Y030663D02*
X032258Y030663D01*
X031624Y031297D02*
X034335Y031297D01*
X034388Y031244D02*
X034234Y031398D01*
X034150Y031600D01*
X034150Y031819D01*
X034234Y032021D01*
X034388Y032176D01*
X034591Y032260D01*
X034809Y032260D01*
X035012Y032176D01*
X035166Y032021D01*
X035200Y031940D01*
X035234Y032021D01*
X035388Y032176D01*
X035591Y032260D01*
X035809Y032260D01*
X036012Y032176D01*
X036166Y032021D01*
X036200Y031940D01*
X036234Y032021D01*
X036388Y032176D01*
X036591Y032260D01*
X036809Y032260D01*
X037012Y032176D01*
X037166Y032021D01*
X037200Y031940D01*
X037234Y032021D01*
X037388Y032176D01*
X037591Y032260D01*
X037809Y032260D01*
X038012Y032176D01*
X038166Y032021D01*
X038200Y031940D01*
X038234Y032021D01*
X038388Y032176D01*
X038591Y032260D01*
X038809Y032260D01*
X039012Y032176D01*
X039166Y032021D01*
X039200Y031940D01*
X039234Y032021D01*
X039388Y032176D01*
X039591Y032260D01*
X039809Y032260D01*
X040012Y032176D01*
X040166Y032021D01*
X040250Y031819D01*
X040250Y031600D01*
X040166Y031398D01*
X040012Y031244D01*
X039809Y031160D01*
X039591Y031160D01*
X039388Y031244D01*
X039234Y031398D01*
X039200Y031480D01*
X039166Y031398D01*
X039012Y031244D01*
X038809Y031160D01*
X038591Y031160D01*
X038388Y031244D01*
X038234Y031398D01*
X038200Y031480D01*
X038166Y031398D01*
X038012Y031244D01*
X037809Y031160D01*
X037591Y031160D01*
X037388Y031244D01*
X037234Y031398D01*
X037200Y031480D01*
X037166Y031398D01*
X037012Y031244D01*
X036809Y031160D01*
X036591Y031160D01*
X036388Y031244D01*
X036234Y031398D01*
X036200Y031480D01*
X036166Y031398D01*
X036012Y031244D01*
X035809Y031160D01*
X035591Y031160D01*
X035388Y031244D01*
X035234Y031398D01*
X035200Y031480D01*
X035166Y031398D01*
X035012Y031244D01*
X034809Y031160D01*
X034591Y031160D01*
X034388Y031244D01*
X034210Y031455D02*
X028324Y031455D01*
X028124Y031297D02*
X029906Y031297D01*
X029785Y031138D02*
X027925Y031138D01*
X027725Y030980D02*
X029760Y030980D01*
X029810Y030821D02*
X027526Y030821D01*
X027327Y030663D02*
X030793Y030663D01*
X030760Y030821D02*
X030390Y030821D01*
X030440Y030980D02*
X030802Y030980D01*
X030870Y030504D02*
X027127Y030504D01*
X026928Y030346D02*
X030870Y030346D01*
X030870Y030187D02*
X026788Y030187D01*
X027871Y028761D02*
X020816Y028761D01*
X020816Y028602D02*
X038461Y028602D01*
X038134Y028761D02*
X032529Y028761D01*
X032675Y028919D02*
X037975Y028919D01*
X037872Y029078D02*
X032741Y029078D01*
X032750Y029236D02*
X037807Y029236D01*
X037770Y029395D02*
X032719Y029395D01*
X032634Y029553D02*
X037770Y029553D01*
X037777Y029712D02*
X032425Y029712D01*
X031725Y028919D02*
X031675Y028919D01*
X031529Y028761D02*
X031871Y028761D01*
X030871Y028761D02*
X030518Y028761D01*
X030669Y028919D02*
X030725Y028919D01*
X030220Y028919D02*
X030180Y028919D01*
X030180Y028761D02*
X030220Y028761D01*
X030220Y029078D02*
X030180Y029078D01*
X030180Y029236D02*
X030220Y029236D01*
X030220Y029395D02*
X030180Y029395D01*
X030180Y029553D02*
X030220Y029553D01*
X030220Y029712D02*
X030180Y029712D01*
X029974Y029712D02*
X029425Y029712D01*
X029634Y029553D02*
X029770Y029553D01*
X029731Y028919D02*
X029675Y028919D01*
X029529Y028761D02*
X029882Y028761D01*
X030630Y029553D02*
X030766Y029553D01*
X030970Y029712D02*
X030426Y029712D01*
X028975Y029712D02*
X028425Y029712D01*
X028634Y029553D02*
X028766Y029553D01*
X028725Y028919D02*
X028675Y028919D01*
X028529Y028761D02*
X028871Y028761D01*
X028529Y031614D02*
X034150Y031614D01*
X034150Y031772D02*
X028630Y031772D01*
X028630Y031931D02*
X034196Y031931D01*
X034302Y032089D02*
X028630Y032089D01*
X028763Y032248D02*
X034562Y032248D01*
X034838Y032248D02*
X035562Y032248D01*
X035838Y032248D02*
X036562Y032248D01*
X036838Y032248D02*
X037562Y032248D01*
X037838Y032248D02*
X038562Y032248D01*
X038838Y032248D02*
X039562Y032248D01*
X039838Y032248D02*
X040890Y032248D01*
X040890Y032406D02*
X028922Y032406D01*
X028930Y032882D02*
X030369Y032882D01*
X030369Y033040D02*
X028930Y033040D01*
X028930Y033199D02*
X029162Y033199D01*
X028995Y033357D02*
X028930Y033357D01*
X028930Y033516D02*
X028960Y033516D01*
X028930Y033674D02*
X029000Y033674D01*
X028974Y033833D02*
X028930Y033833D01*
X028930Y033991D02*
X028969Y033991D01*
X028969Y034150D02*
X028930Y034150D01*
X028930Y034308D02*
X028969Y034308D01*
X028930Y034467D02*
X029054Y034467D01*
X029676Y034467D02*
X029736Y034467D01*
X029608Y035576D02*
X029599Y035576D01*
X029450Y035735D02*
X029404Y035735D01*
X029133Y036052D02*
X019923Y036052D01*
X018698Y033991D02*
X015359Y033991D01*
X015186Y033833D02*
X018698Y033833D01*
X018698Y033674D02*
X015313Y033674D01*
X015411Y033516D02*
X018698Y033516D01*
X018698Y033357D02*
X015449Y033357D01*
X015450Y033290D02*
X014920Y033290D01*
X014920Y032760D01*
X014943Y032760D01*
X015029Y032773D01*
X015111Y032800D01*
X015188Y032839D01*
X015258Y032890D01*
X015320Y032952D01*
X015370Y033022D01*
X015410Y033099D01*
X015436Y033181D01*
X015450Y033267D01*
X015450Y033290D01*
X015439Y033199D02*
X018698Y033199D01*
X018698Y033040D02*
X015380Y033040D01*
X015247Y032882D02*
X018698Y032882D01*
X018698Y032723D02*
X014200Y032723D01*
X014200Y032565D02*
X018698Y032565D01*
X018698Y032406D02*
X014200Y032406D01*
X014200Y032248D02*
X018698Y032248D01*
X018698Y032089D02*
X014200Y032089D01*
X014200Y031931D02*
X018698Y031931D01*
X018698Y031772D02*
X014200Y031772D01*
X014200Y031614D02*
X018698Y031614D01*
X018698Y031455D02*
X014200Y031455D01*
X014200Y031297D02*
X018698Y031297D01*
X018698Y031138D02*
X014200Y031138D01*
X014200Y030980D02*
X018698Y030980D01*
X018698Y030821D02*
X014200Y030821D01*
X014200Y030663D02*
X018698Y030663D01*
X018698Y030504D02*
X014200Y030504D01*
X014200Y030346D02*
X018698Y030346D01*
X018341Y029236D02*
X018221Y029236D01*
X018212Y029078D02*
X017188Y029078D01*
X017179Y029236D02*
X017059Y029236D01*
X017230Y028919D02*
X018170Y028919D01*
X018190Y028761D02*
X017210Y028761D01*
X017113Y028602D02*
X018287Y028602D01*
X017966Y029236D02*
X017434Y029236D01*
X017682Y029395D02*
X017718Y029395D01*
X015536Y029395D02*
X015376Y029395D01*
X015376Y029553D02*
X015536Y029553D01*
X015536Y029712D02*
X015376Y029712D01*
X015376Y029236D02*
X015536Y029236D01*
X015536Y029078D02*
X015376Y029078D01*
X015376Y028602D02*
X015536Y028602D01*
X015536Y028444D02*
X015376Y028444D01*
X015376Y028285D02*
X015536Y028285D01*
X015536Y028127D02*
X015376Y028127D01*
X014988Y028127D02*
X014200Y028127D01*
X014200Y028285D02*
X014830Y028285D01*
X014671Y028444D02*
X014200Y028444D01*
X014200Y028602D02*
X014584Y028602D01*
X014553Y032882D02*
X014200Y032882D01*
X014200Y033040D02*
X014420Y033040D01*
X014361Y033199D02*
X014200Y033199D01*
X014200Y033357D02*
X014351Y033357D01*
X014389Y033516D02*
X014200Y033516D01*
X014200Y033674D02*
X014487Y033674D01*
X014614Y033833D02*
X014200Y033833D01*
X014200Y033991D02*
X014441Y033991D01*
X014371Y034150D02*
X014200Y034150D01*
X014200Y034308D02*
X014350Y034308D01*
X014370Y034467D02*
X014200Y034467D01*
X014200Y034625D02*
X014438Y034625D01*
X014607Y034784D02*
X014200Y034784D01*
X014200Y034942D02*
X014490Y034942D01*
X014391Y035101D02*
X014200Y035101D01*
X014200Y035259D02*
X014350Y035259D01*
X014350Y035418D02*
X014200Y035418D01*
X014200Y035576D02*
X014415Y035576D01*
X014547Y035735D02*
X014200Y035735D01*
X014200Y037161D02*
X024906Y037161D01*
X025121Y037320D02*
X014200Y037320D01*
X014200Y037478D02*
X025336Y037478D01*
X025551Y037637D02*
X014200Y037637D01*
X014200Y037795D02*
X025766Y037795D01*
X025981Y037954D02*
X014200Y037954D01*
X014200Y038112D02*
X026196Y038112D01*
X026411Y038271D02*
X014200Y038271D01*
X014200Y038429D02*
X027979Y038429D01*
X027950Y038588D02*
X014200Y038588D01*
X014200Y038746D02*
X027961Y038746D01*
X028027Y038905D02*
X014200Y038905D01*
X014200Y039063D02*
X028176Y039063D01*
X028110Y039222D02*
X014200Y039222D01*
X014200Y039380D02*
X028000Y039380D01*
X027950Y039539D02*
X014200Y039539D01*
X014200Y039697D02*
X027950Y039697D01*
X028007Y039856D02*
X014200Y039856D01*
X014200Y040014D02*
X028127Y040014D01*
X028159Y040173D02*
X014200Y040173D01*
X014200Y040331D02*
X028020Y040331D01*
X027954Y040490D02*
X014200Y040490D01*
X014200Y040648D02*
X027950Y040648D01*
X027986Y040807D02*
X014200Y040807D01*
X014200Y040965D02*
X028078Y040965D01*
X028304Y041124D02*
X014200Y041124D01*
X014200Y041282D02*
X029740Y041282D01*
X029738Y041124D02*
X028696Y041124D01*
X028922Y040965D02*
X029735Y040965D01*
X029733Y040807D02*
X029014Y040807D01*
X029050Y040648D02*
X029731Y040648D01*
X029729Y040490D02*
X029046Y040490D01*
X028980Y040331D02*
X029727Y040331D01*
X029724Y040173D02*
X028841Y040173D01*
X028873Y040014D02*
X029722Y040014D01*
X029720Y039856D02*
X028993Y039856D01*
X029050Y039697D02*
X029718Y039697D01*
X029716Y039539D02*
X029050Y039539D01*
X029090Y039380D02*
X029000Y039380D01*
X028978Y039222D02*
X028890Y039222D01*
X028824Y039063D02*
X028960Y039063D01*
X028973Y038905D02*
X029024Y038905D01*
X029039Y038746D02*
X029070Y038746D01*
X029070Y038588D02*
X029050Y038588D01*
X029070Y038429D02*
X029021Y038429D01*
X029510Y039380D02*
X029590Y039380D01*
X029742Y041441D02*
X014200Y041441D01*
X014200Y041599D02*
X029744Y041599D01*
X029747Y041758D02*
X014200Y041758D01*
X014200Y041916D02*
X029749Y041916D01*
X029751Y042075D02*
X014200Y042075D01*
X014200Y042233D02*
X029753Y042233D01*
X029755Y042392D02*
X014200Y042392D01*
X014200Y042550D02*
X029758Y042550D01*
X029760Y042709D02*
X014200Y042709D01*
X014200Y042867D02*
X029762Y042867D01*
X029764Y043026D02*
X013376Y043026D01*
X013310Y043184D02*
X029766Y043184D01*
X029769Y043343D02*
X013182Y043343D01*
X013019Y043501D02*
X029771Y043501D01*
X029773Y043660D02*
X001880Y043660D01*
X001880Y043818D02*
X029775Y043818D01*
X029777Y043977D02*
X001880Y043977D01*
X001880Y044135D02*
X028208Y044135D01*
X028038Y044294D02*
X001880Y044294D01*
X001880Y044452D02*
X027970Y044452D01*
X027950Y044611D02*
X001880Y044611D01*
X001880Y044769D02*
X027971Y044769D01*
X028040Y044928D02*
X022943Y044928D01*
X022995Y044980D02*
X023130Y045115D01*
X023130Y048805D01*
X023030Y048905D01*
X022895Y049040D01*
X018605Y049040D01*
X018470Y048905D01*
X018470Y048515D01*
X018470Y045105D01*
X018470Y044915D01*
X018605Y044780D01*
X022795Y044780D01*
X022995Y044980D01*
X023102Y045086D02*
X023392Y045086D01*
X023608Y045086D02*
X028213Y045086D01*
X028787Y045086D02*
X029793Y045086D01*
X029791Y044928D02*
X028960Y044928D01*
X029029Y044769D02*
X029788Y044769D01*
X029786Y044611D02*
X029050Y044611D01*
X029030Y044452D02*
X029784Y044452D01*
X029782Y044294D02*
X028962Y044294D01*
X028792Y044135D02*
X029780Y044135D01*
X029795Y045245D02*
X028913Y045245D01*
X029010Y045403D02*
X029797Y045403D01*
X029799Y045562D02*
X029050Y045562D01*
X029050Y045720D02*
X029802Y045720D01*
X029804Y045879D02*
X028984Y045879D01*
X028850Y046037D02*
X029806Y046037D01*
X029808Y046196D02*
X028864Y046196D01*
X028989Y046354D02*
X029810Y046354D01*
X029813Y046513D02*
X029050Y046513D01*
X029050Y046671D02*
X029815Y046671D01*
X029817Y046830D02*
X029004Y046830D01*
X028899Y046988D02*
X029819Y046988D01*
X026070Y052853D02*
X014943Y052853D01*
X015102Y053011D02*
X021000Y053011D01*
X021000Y053170D02*
X015260Y053170D01*
X015419Y053328D02*
X021000Y053328D01*
X021000Y053487D02*
X015577Y053487D01*
X015736Y053645D02*
X021000Y053645D01*
X021000Y053804D02*
X015894Y053804D01*
X016053Y053962D02*
X021000Y053962D01*
X021000Y054121D02*
X016211Y054121D01*
X016370Y054279D02*
X021000Y054279D01*
X021000Y054438D02*
X016400Y054438D01*
X016400Y054596D02*
X021000Y054596D01*
X021000Y054755D02*
X016400Y054755D01*
X016400Y054913D02*
X021000Y054913D01*
X021000Y055072D02*
X016400Y055072D01*
X016400Y055230D02*
X021000Y055230D01*
X021000Y055389D02*
X016400Y055389D01*
X016400Y055547D02*
X021000Y055547D01*
X023045Y048890D02*
X023805Y048890D01*
X023804Y048732D02*
X023130Y048732D01*
X023130Y048573D02*
X023896Y048573D01*
X023130Y048415D02*
X025640Y048415D01*
X025640Y048256D02*
X023130Y048256D01*
X023130Y048098D02*
X025640Y048098D01*
X025640Y047939D02*
X023130Y047939D01*
X023130Y047781D02*
X025640Y047781D01*
X025640Y047622D02*
X023130Y047622D01*
X023130Y047464D02*
X025640Y047464D01*
X025640Y047305D02*
X023130Y047305D01*
X023130Y047147D02*
X025640Y047147D01*
X025511Y046988D02*
X023130Y046988D01*
X023130Y046830D02*
X025352Y046830D01*
X025194Y046671D02*
X023130Y046671D01*
X023130Y046513D02*
X025035Y046513D01*
X024877Y046354D02*
X023130Y046354D01*
X023130Y046196D02*
X024718Y046196D01*
X024560Y046037D02*
X023130Y046037D01*
X023130Y045879D02*
X024401Y045879D01*
X024243Y045720D02*
X023639Y045720D01*
X023361Y045720D02*
X023130Y045720D01*
X023130Y045562D02*
X023195Y045562D01*
X023160Y045403D02*
X023130Y045403D01*
X023130Y045245D02*
X023200Y045245D01*
X023500Y045410D02*
X024300Y045410D01*
X018470Y045403D02*
X006644Y045403D01*
X006718Y045477D02*
X006854Y045712D01*
X006924Y045974D01*
X006924Y046245D01*
X006854Y046507D01*
X006718Y046742D01*
X006526Y046934D01*
X006291Y047070D01*
X006029Y047140D01*
X005758Y047140D01*
X005496Y047070D01*
X005261Y046934D01*
X005069Y046742D01*
X004934Y046507D01*
X004864Y046245D01*
X004864Y045974D01*
X004934Y045712D01*
X005069Y045477D01*
X005261Y045286D01*
X005496Y045150D01*
X005758Y045080D01*
X006029Y045080D01*
X006291Y045150D01*
X006526Y045286D01*
X006718Y045477D01*
X006767Y045562D02*
X018470Y045562D01*
X018470Y045720D02*
X006856Y045720D01*
X006898Y045879D02*
X018470Y045879D01*
X018470Y046037D02*
X006924Y046037D01*
X006924Y046196D02*
X018470Y046196D01*
X018470Y046354D02*
X006895Y046354D01*
X006850Y046513D02*
X018470Y046513D01*
X018470Y046671D02*
X008106Y046671D01*
X008335Y046830D02*
X018470Y046830D01*
X018470Y046988D02*
X008491Y046988D01*
X008556Y047147D02*
X018470Y047147D01*
X018470Y047305D02*
X008622Y047305D01*
X008630Y047464D02*
X018470Y047464D01*
X018470Y047622D02*
X008630Y047622D01*
X008594Y047781D02*
X018470Y047781D01*
X018470Y047939D02*
X008529Y047939D01*
X008427Y048098D02*
X018470Y048098D01*
X018470Y048256D02*
X008269Y048256D01*
X008005Y048415D02*
X018470Y048415D01*
X018470Y048573D02*
X008164Y048573D01*
X008322Y048732D02*
X018470Y048732D01*
X018470Y048890D02*
X008481Y048890D01*
X009399Y050951D02*
X010515Y050951D01*
X010229Y051109D02*
X009550Y051109D01*
X009700Y051268D02*
X010086Y051268D01*
X010020Y051426D02*
X009851Y051426D01*
X006806Y047781D02*
X001880Y047781D01*
X001880Y047622D02*
X006770Y047622D01*
X006770Y047464D02*
X001880Y047464D01*
X001880Y047305D02*
X006778Y047305D01*
X006844Y047147D02*
X001880Y047147D01*
X001880Y046988D02*
X005355Y046988D01*
X005157Y046830D02*
X001880Y046830D01*
X001880Y046671D02*
X005029Y046671D01*
X004937Y046513D02*
X001880Y046513D01*
X001880Y046354D02*
X004893Y046354D01*
X004864Y046196D02*
X001880Y046196D01*
X001880Y046037D02*
X004864Y046037D01*
X004889Y045879D02*
X001880Y045879D01*
X001880Y045720D02*
X004932Y045720D01*
X005021Y045562D02*
X001880Y045562D01*
X001880Y045403D02*
X005144Y045403D01*
X005332Y045245D02*
X001880Y045245D01*
X001880Y045086D02*
X005734Y045086D01*
X006054Y045086D02*
X018470Y045086D01*
X018470Y044928D02*
X001880Y044928D01*
X001880Y043501D02*
X011981Y043501D01*
X011818Y043343D02*
X001880Y043343D01*
X001880Y043184D02*
X011690Y043184D01*
X011624Y043026D02*
X001880Y043026D01*
X001880Y042867D02*
X008891Y042867D01*
X006456Y045245D02*
X018470Y045245D01*
X019458Y033040D02*
X028270Y033040D01*
X028270Y032882D02*
X019458Y032882D01*
X019458Y032723D02*
X028270Y032723D01*
X028130Y032565D02*
X019458Y032565D01*
X014920Y032882D02*
X014880Y032882D01*
X014880Y033040D02*
X014920Y033040D01*
X014920Y033199D02*
X014880Y033199D01*
X007294Y046671D02*
X006759Y046671D01*
X006630Y046830D02*
X007065Y046830D01*
X006909Y046988D02*
X006432Y046988D01*
X029308Y036527D02*
X040890Y036527D01*
X040890Y036369D02*
X029466Y036369D01*
X029625Y036210D02*
X040890Y036210D01*
X040890Y036052D02*
X032899Y036052D01*
X032401Y036052D02*
X029783Y036052D01*
X031064Y034467D02*
X031124Y034467D01*
X030369Y033199D02*
X029438Y033199D01*
X031620Y031301D02*
X031620Y031301D01*
X032407Y035101D02*
X040890Y035101D01*
X040890Y035259D02*
X032791Y035259D01*
X035098Y032089D02*
X035302Y032089D01*
X035210Y031455D02*
X035190Y031455D01*
X035065Y031297D02*
X035335Y031297D01*
X036065Y031297D02*
X036335Y031297D01*
X036210Y031455D02*
X036190Y031455D01*
X036098Y032089D02*
X036302Y032089D01*
X037098Y032089D02*
X037302Y032089D01*
X037210Y031455D02*
X037190Y031455D01*
X037065Y031297D02*
X037335Y031297D01*
X038065Y031297D02*
X038335Y031297D01*
X038210Y031455D02*
X038190Y031455D01*
X038098Y032089D02*
X038302Y032089D01*
X039098Y032089D02*
X039302Y032089D01*
X039210Y031455D02*
X039190Y031455D01*
X039065Y031297D02*
X039335Y031297D01*
X040065Y031297D02*
X040890Y031297D01*
X040890Y031455D02*
X040190Y031455D01*
X040250Y031614D02*
X040890Y031614D01*
X040890Y031772D02*
X040250Y031772D01*
X040204Y031931D02*
X040890Y031931D01*
X040890Y032089D02*
X040098Y032089D01*
X040890Y038588D02*
X035930Y038588D01*
X035930Y038746D02*
X040890Y038746D01*
X040890Y039539D02*
X036511Y039539D01*
X036098Y039697D02*
X040890Y039697D01*
X040890Y039856D02*
X035892Y039856D01*
X035686Y040014D02*
X040890Y040014D01*
X039298Y042550D02*
X038941Y042550D01*
X040890Y044928D02*
X036921Y044928D01*
X036679Y044928D02*
X035843Y044928D01*
X035900Y044769D02*
X035934Y044769D01*
X037030Y048256D02*
X038470Y048256D01*
X038470Y048415D02*
X037086Y048415D01*
X037140Y048573D02*
X038538Y048573D01*
X038697Y048732D02*
X037117Y048732D01*
X035789Y048732D02*
X035731Y048732D01*
X035612Y050000D02*
X034330Y050000D01*
X036490Y053804D02*
X036579Y053804D01*
X036692Y053962D02*
X036231Y053962D01*
X036231Y054121D02*
X040890Y054121D01*
X040890Y054279D02*
X036795Y054279D01*
X036997Y054438D02*
X040890Y054438D01*
X040890Y054596D02*
X037040Y054596D01*
X037108Y053962D02*
X040890Y053962D01*
X040890Y053804D02*
X037221Y053804D01*
X037240Y053645D02*
X040890Y053645D01*
X040890Y053487D02*
X037298Y053487D01*
X038537Y051585D02*
X040890Y051585D01*
X040890Y051743D02*
X038824Y051743D01*
X038954Y051902D02*
X040890Y051902D01*
X040890Y052060D02*
X039020Y052060D01*
X039030Y052219D02*
X040890Y052219D01*
X040890Y052377D02*
X039013Y052377D01*
X038947Y052536D02*
X039393Y052536D01*
X039807Y052536D02*
X039893Y052536D01*
X040307Y052536D02*
X040890Y052536D01*
X040890Y052694D02*
X040420Y052694D01*
X040440Y052853D02*
X040890Y052853D01*
X040890Y053011D02*
X040379Y053011D01*
X040265Y053170D02*
X040890Y053170D01*
X040890Y053328D02*
X040107Y053328D01*
X040890Y051426D02*
X038300Y051426D01*
X038699Y051268D02*
X040890Y051268D01*
X040890Y051109D02*
X038891Y051109D01*
X038982Y050951D02*
X040890Y050951D01*
X040890Y050792D02*
X039030Y050792D01*
X039030Y050634D02*
X040890Y050634D01*
X040890Y050475D02*
X038985Y050475D01*
X038898Y050317D02*
X040890Y050317D01*
D28*
X013500Y035810D02*
X013400Y035710D01*
X013400Y034810D01*
X013000Y034410D01*
X012900Y034410D01*
X012600Y034110D01*
X012600Y031110D01*
X012100Y030610D01*
X009600Y030610D01*
X007400Y030610D01*
X005200Y030610D01*
X007400Y030610D02*
X008100Y029910D01*
X008100Y029210D01*
D29*
X004600Y041410D02*
X004600Y044147D01*
X004713Y044259D01*
X017200Y035210D02*
X017600Y035710D01*
X018400Y035710D01*
X026800Y035710D01*
X027500Y035010D01*
X030300Y031210D02*
X030100Y031010D01*
X030300Y031210D02*
X031400Y031210D01*
X032300Y030310D01*
X034600Y035610D02*
X034500Y035710D01*
X034600Y035610D02*
X035300Y035610D01*
X036320Y039250D02*
X035200Y040110D01*
X035500Y039510D02*
X033800Y039510D01*
X034700Y048410D02*
X034665Y048810D01*
X034700Y048410D02*
X035900Y048410D01*
X038900Y048610D02*
X039900Y048610D01*
D30*
X035300Y036910D02*
X033600Y036910D01*
X032600Y038010D01*
X031700Y038010D01*
D31*
X019100Y034910D02*
X019078Y034888D01*
X019078Y029719D01*
M02*
