G75*
G70*
%OFA0B0*%
%FSLAX24Y24*%
%IPPOS*%
%LPD*%
%AMOC8*
5,1,8,0,0,1.08239X$1,22.5*
%
%ADD10C,0.0000*%
%ADD11R,0.0200X0.0200*%
%ADD12R,0.0394X0.0098*%
%ADD13R,0.0315X0.0315*%
%ADD14R,0.0433X0.0394*%
%ADD15R,0.0472X0.0315*%
%ADD16R,0.0787X0.0157*%
%ADD17R,0.0591X0.0669*%
%ADD18C,0.0007*%
%ADD19C,0.0709*%
%ADD20C,0.0660*%
%ADD21R,0.0591X0.0512*%
%ADD22R,0.0472X0.0866*%
%ADD23R,0.1417X0.0866*%
%ADD24C,0.0591*%
%ADD25R,0.0394X0.0433*%
%ADD26R,0.0140X0.0660*%
%ADD27R,0.1142X0.0945*%
%ADD28R,0.0787X0.0472*%
%ADD29R,0.1450X0.2100*%
%ADD30R,0.0547X0.0551*%
%ADD31R,0.1323X0.1913*%
%ADD32R,0.0200X0.0400*%
%ADD33R,0.1280X0.0748*%
%ADD34R,0.0400X0.0200*%
%ADD35R,0.0748X0.1280*%
%ADD36R,0.0087X0.0394*%
%ADD37R,0.0394X0.0087*%
%ADD38C,0.0740*%
%ADD39R,0.0787X0.0591*%
%ADD40R,0.0787X0.1496*%
%ADD41R,0.0512X0.0591*%
%ADD42C,0.0594*%
%ADD43C,0.0660*%
%ADD44OC8,0.0520*%
%ADD45C,0.0900*%
%ADD46R,0.0236X0.0433*%
%ADD47R,0.0165X0.0701*%
%ADD48R,0.1220X0.1181*%
%ADD49C,0.1063*%
%ADD50C,0.1700*%
%ADD51OC8,0.1384*%
%ADD52C,0.0630*%
%ADD53C,0.0100*%
%ADD54C,0.0320*%
%ADD55C,0.0050*%
%ADD56C,0.0160*%
%ADD57C,0.0240*%
%ADD58C,0.0080*%
%ADD59C,0.0400*%
%ADD60C,0.0500*%
D10*
X001700Y027810D02*
X001700Y059306D01*
X041070Y059306D01*
X041070Y027810D01*
X001700Y027810D01*
X011950Y029510D02*
X011952Y029564D01*
X011958Y029618D01*
X011968Y029671D01*
X011981Y029724D01*
X011998Y029775D01*
X012019Y029825D01*
X012044Y029873D01*
X012072Y029920D01*
X012103Y029964D01*
X012137Y030006D01*
X012174Y030045D01*
X012214Y030082D01*
X012257Y030115D01*
X012302Y030146D01*
X012349Y030173D01*
X012397Y030196D01*
X012448Y030216D01*
X012499Y030233D01*
X012552Y030245D01*
X012605Y030254D01*
X012659Y030259D01*
X012714Y030260D01*
X012768Y030257D01*
X012821Y030250D01*
X012874Y030239D01*
X012927Y030225D01*
X012978Y030207D01*
X013027Y030185D01*
X013075Y030160D01*
X013121Y030131D01*
X013165Y030099D01*
X013206Y030064D01*
X013244Y030026D01*
X013280Y029985D01*
X013313Y029942D01*
X013343Y029897D01*
X013369Y029849D01*
X013392Y029800D01*
X013411Y029749D01*
X013426Y029698D01*
X013438Y029645D01*
X013446Y029591D01*
X013450Y029537D01*
X013450Y029483D01*
X013446Y029429D01*
X013438Y029375D01*
X013426Y029322D01*
X013411Y029271D01*
X013392Y029220D01*
X013369Y029171D01*
X013343Y029123D01*
X013313Y029078D01*
X013280Y029035D01*
X013244Y028994D01*
X013206Y028956D01*
X013165Y028921D01*
X013121Y028889D01*
X013075Y028860D01*
X013027Y028835D01*
X012978Y028813D01*
X012927Y028795D01*
X012874Y028781D01*
X012821Y028770D01*
X012768Y028763D01*
X012714Y028760D01*
X012659Y028761D01*
X012605Y028766D01*
X012552Y028775D01*
X012499Y028787D01*
X012448Y028804D01*
X012397Y028824D01*
X012349Y028847D01*
X012302Y028874D01*
X012257Y028905D01*
X012214Y028938D01*
X012174Y028975D01*
X012137Y029014D01*
X012103Y029056D01*
X012072Y029100D01*
X012044Y029147D01*
X012019Y029195D01*
X011998Y029245D01*
X011981Y029296D01*
X011968Y029349D01*
X011958Y029402D01*
X011952Y029456D01*
X011950Y029510D01*
X016578Y028893D02*
X016580Y028923D01*
X016586Y028953D01*
X016595Y028982D01*
X016608Y029009D01*
X016625Y029034D01*
X016644Y029057D01*
X016667Y029078D01*
X016692Y029095D01*
X016718Y029109D01*
X016747Y029119D01*
X016776Y029126D01*
X016806Y029129D01*
X016837Y029128D01*
X016867Y029123D01*
X016896Y029114D01*
X016923Y029102D01*
X016949Y029087D01*
X016973Y029068D01*
X016994Y029046D01*
X017012Y029022D01*
X017027Y028995D01*
X017038Y028967D01*
X017046Y028938D01*
X017050Y028908D01*
X017050Y028878D01*
X017046Y028848D01*
X017038Y028819D01*
X017027Y028791D01*
X017012Y028764D01*
X016994Y028740D01*
X016973Y028718D01*
X016949Y028699D01*
X016923Y028684D01*
X016896Y028672D01*
X016867Y028663D01*
X016837Y028658D01*
X016806Y028657D01*
X016776Y028660D01*
X016747Y028667D01*
X016718Y028677D01*
X016692Y028691D01*
X016667Y028708D01*
X016644Y028729D01*
X016625Y028752D01*
X016608Y028777D01*
X016595Y028804D01*
X016586Y028833D01*
X016580Y028863D01*
X016578Y028893D01*
X018350Y028893D02*
X018352Y028923D01*
X018358Y028953D01*
X018367Y028982D01*
X018380Y029009D01*
X018397Y029034D01*
X018416Y029057D01*
X018439Y029078D01*
X018464Y029095D01*
X018490Y029109D01*
X018519Y029119D01*
X018548Y029126D01*
X018578Y029129D01*
X018609Y029128D01*
X018639Y029123D01*
X018668Y029114D01*
X018695Y029102D01*
X018721Y029087D01*
X018745Y029068D01*
X018766Y029046D01*
X018784Y029022D01*
X018799Y028995D01*
X018810Y028967D01*
X018818Y028938D01*
X018822Y028908D01*
X018822Y028878D01*
X018818Y028848D01*
X018810Y028819D01*
X018799Y028791D01*
X018784Y028764D01*
X018766Y028740D01*
X018745Y028718D01*
X018721Y028699D01*
X018695Y028684D01*
X018668Y028672D01*
X018639Y028663D01*
X018609Y028658D01*
X018578Y028657D01*
X018548Y028660D01*
X018519Y028667D01*
X018490Y028677D01*
X018464Y028691D01*
X018439Y028708D01*
X018416Y028729D01*
X018397Y028752D01*
X018380Y028777D01*
X018367Y028804D01*
X018358Y028833D01*
X018352Y028863D01*
X018350Y028893D01*
X011750Y042710D02*
X011752Y042764D01*
X011758Y042818D01*
X011768Y042871D01*
X011781Y042924D01*
X011798Y042975D01*
X011819Y043025D01*
X011844Y043073D01*
X011872Y043120D01*
X011903Y043164D01*
X011937Y043206D01*
X011974Y043245D01*
X012014Y043282D01*
X012057Y043315D01*
X012102Y043346D01*
X012149Y043373D01*
X012197Y043396D01*
X012248Y043416D01*
X012299Y043433D01*
X012352Y043445D01*
X012405Y043454D01*
X012459Y043459D01*
X012514Y043460D01*
X012568Y043457D01*
X012621Y043450D01*
X012674Y043439D01*
X012727Y043425D01*
X012778Y043407D01*
X012827Y043385D01*
X012875Y043360D01*
X012921Y043331D01*
X012965Y043299D01*
X013006Y043264D01*
X013044Y043226D01*
X013080Y043185D01*
X013113Y043142D01*
X013143Y043097D01*
X013169Y043049D01*
X013192Y043000D01*
X013211Y042949D01*
X013226Y042898D01*
X013238Y042845D01*
X013246Y042791D01*
X013250Y042737D01*
X013250Y042683D01*
X013246Y042629D01*
X013238Y042575D01*
X013226Y042522D01*
X013211Y042471D01*
X013192Y042420D01*
X013169Y042371D01*
X013143Y042323D01*
X013113Y042278D01*
X013080Y042235D01*
X013044Y042194D01*
X013006Y042156D01*
X012965Y042121D01*
X012921Y042089D01*
X012875Y042060D01*
X012827Y042035D01*
X012778Y042013D01*
X012727Y041995D01*
X012674Y041981D01*
X012621Y041970D01*
X012568Y041963D01*
X012514Y041960D01*
X012459Y041961D01*
X012405Y041966D01*
X012352Y041975D01*
X012299Y041987D01*
X012248Y042004D01*
X012197Y042024D01*
X012149Y042047D01*
X012102Y042074D01*
X012057Y042105D01*
X012014Y042138D01*
X011974Y042175D01*
X011937Y042214D01*
X011903Y042256D01*
X011872Y042300D01*
X011844Y042347D01*
X011819Y042395D01*
X011798Y042445D01*
X011781Y042496D01*
X011768Y042549D01*
X011758Y042602D01*
X011752Y042656D01*
X011750Y042710D01*
X006950Y047510D02*
X006952Y047564D01*
X006958Y047618D01*
X006968Y047671D01*
X006981Y047724D01*
X006998Y047775D01*
X007019Y047825D01*
X007044Y047873D01*
X007072Y047920D01*
X007103Y047964D01*
X007137Y048006D01*
X007174Y048045D01*
X007214Y048082D01*
X007257Y048115D01*
X007302Y048146D01*
X007349Y048173D01*
X007397Y048196D01*
X007448Y048216D01*
X007499Y048233D01*
X007552Y048245D01*
X007605Y048254D01*
X007659Y048259D01*
X007714Y048260D01*
X007768Y048257D01*
X007821Y048250D01*
X007874Y048239D01*
X007927Y048225D01*
X007978Y048207D01*
X008027Y048185D01*
X008075Y048160D01*
X008121Y048131D01*
X008165Y048099D01*
X008206Y048064D01*
X008244Y048026D01*
X008280Y047985D01*
X008313Y047942D01*
X008343Y047897D01*
X008369Y047849D01*
X008392Y047800D01*
X008411Y047749D01*
X008426Y047698D01*
X008438Y047645D01*
X008446Y047591D01*
X008450Y047537D01*
X008450Y047483D01*
X008446Y047429D01*
X008438Y047375D01*
X008426Y047322D01*
X008411Y047271D01*
X008392Y047220D01*
X008369Y047171D01*
X008343Y047123D01*
X008313Y047078D01*
X008280Y047035D01*
X008244Y046994D01*
X008206Y046956D01*
X008165Y046921D01*
X008121Y046889D01*
X008075Y046860D01*
X008027Y046835D01*
X007978Y046813D01*
X007927Y046795D01*
X007874Y046781D01*
X007821Y046770D01*
X007768Y046763D01*
X007714Y046760D01*
X007659Y046761D01*
X007605Y046766D01*
X007552Y046775D01*
X007499Y046787D01*
X007448Y046804D01*
X007397Y046824D01*
X007349Y046847D01*
X007302Y046874D01*
X007257Y046905D01*
X007214Y046938D01*
X007174Y046975D01*
X007137Y047014D01*
X007103Y047056D01*
X007072Y047100D01*
X007044Y047147D01*
X007019Y047195D01*
X006998Y047245D01*
X006981Y047296D01*
X006968Y047349D01*
X006958Y047402D01*
X006952Y047456D01*
X006950Y047510D01*
X010109Y056684D02*
X010111Y056732D01*
X010117Y056780D01*
X010127Y056827D01*
X010140Y056873D01*
X010158Y056918D01*
X010178Y056962D01*
X010203Y057004D01*
X010231Y057043D01*
X010261Y057080D01*
X010295Y057114D01*
X010332Y057146D01*
X010370Y057175D01*
X010411Y057200D01*
X010454Y057222D01*
X010499Y057240D01*
X010545Y057254D01*
X010592Y057265D01*
X010640Y057272D01*
X010688Y057275D01*
X010736Y057274D01*
X010784Y057269D01*
X010832Y057260D01*
X010878Y057248D01*
X010923Y057231D01*
X010967Y057211D01*
X011009Y057188D01*
X011049Y057161D01*
X011087Y057131D01*
X011122Y057098D01*
X011154Y057062D01*
X011184Y057024D01*
X011210Y056983D01*
X011232Y056940D01*
X011252Y056896D01*
X011267Y056851D01*
X011279Y056804D01*
X011287Y056756D01*
X011291Y056708D01*
X011291Y056660D01*
X011287Y056612D01*
X011279Y056564D01*
X011267Y056517D01*
X011252Y056472D01*
X011232Y056428D01*
X011210Y056385D01*
X011184Y056344D01*
X011154Y056306D01*
X011122Y056270D01*
X011087Y056237D01*
X011049Y056207D01*
X011009Y056180D01*
X010967Y056157D01*
X010923Y056137D01*
X010878Y056120D01*
X010832Y056108D01*
X010784Y056099D01*
X010736Y056094D01*
X010688Y056093D01*
X010640Y056096D01*
X010592Y056103D01*
X010545Y056114D01*
X010499Y056128D01*
X010454Y056146D01*
X010411Y056168D01*
X010370Y056193D01*
X010332Y056222D01*
X010295Y056254D01*
X010261Y056288D01*
X010231Y056325D01*
X010203Y056364D01*
X010178Y056406D01*
X010158Y056450D01*
X010140Y056495D01*
X010127Y056541D01*
X010117Y056588D01*
X010111Y056636D01*
X010109Y056684D01*
X030650Y056110D02*
X030652Y056164D01*
X030658Y056218D01*
X030668Y056271D01*
X030681Y056324D01*
X030698Y056375D01*
X030719Y056425D01*
X030744Y056473D01*
X030772Y056520D01*
X030803Y056564D01*
X030837Y056606D01*
X030874Y056645D01*
X030914Y056682D01*
X030957Y056715D01*
X031002Y056746D01*
X031049Y056773D01*
X031097Y056796D01*
X031148Y056816D01*
X031199Y056833D01*
X031252Y056845D01*
X031305Y056854D01*
X031359Y056859D01*
X031414Y056860D01*
X031468Y056857D01*
X031521Y056850D01*
X031574Y056839D01*
X031627Y056825D01*
X031678Y056807D01*
X031727Y056785D01*
X031775Y056760D01*
X031821Y056731D01*
X031865Y056699D01*
X031906Y056664D01*
X031944Y056626D01*
X031980Y056585D01*
X032013Y056542D01*
X032043Y056497D01*
X032069Y056449D01*
X032092Y056400D01*
X032111Y056349D01*
X032126Y056298D01*
X032138Y056245D01*
X032146Y056191D01*
X032150Y056137D01*
X032150Y056083D01*
X032146Y056029D01*
X032138Y055975D01*
X032126Y055922D01*
X032111Y055871D01*
X032092Y055820D01*
X032069Y055771D01*
X032043Y055723D01*
X032013Y055678D01*
X031980Y055635D01*
X031944Y055594D01*
X031906Y055556D01*
X031865Y055521D01*
X031821Y055489D01*
X031775Y055460D01*
X031727Y055435D01*
X031678Y055413D01*
X031627Y055395D01*
X031574Y055381D01*
X031521Y055370D01*
X031468Y055363D01*
X031414Y055360D01*
X031359Y055361D01*
X031305Y055366D01*
X031252Y055375D01*
X031199Y055387D01*
X031148Y055404D01*
X031097Y055424D01*
X031049Y055447D01*
X031002Y055474D01*
X030957Y055505D01*
X030914Y055538D01*
X030874Y055575D01*
X030837Y055614D01*
X030803Y055656D01*
X030772Y055700D01*
X030744Y055747D01*
X030719Y055795D01*
X030698Y055845D01*
X030681Y055896D01*
X030668Y055949D01*
X030658Y056002D01*
X030652Y056056D01*
X030650Y056110D01*
X037950Y029510D02*
X037952Y029564D01*
X037958Y029618D01*
X037968Y029671D01*
X037981Y029724D01*
X037998Y029775D01*
X038019Y029825D01*
X038044Y029873D01*
X038072Y029920D01*
X038103Y029964D01*
X038137Y030006D01*
X038174Y030045D01*
X038214Y030082D01*
X038257Y030115D01*
X038302Y030146D01*
X038349Y030173D01*
X038397Y030196D01*
X038448Y030216D01*
X038499Y030233D01*
X038552Y030245D01*
X038605Y030254D01*
X038659Y030259D01*
X038714Y030260D01*
X038768Y030257D01*
X038821Y030250D01*
X038874Y030239D01*
X038927Y030225D01*
X038978Y030207D01*
X039027Y030185D01*
X039075Y030160D01*
X039121Y030131D01*
X039165Y030099D01*
X039206Y030064D01*
X039244Y030026D01*
X039280Y029985D01*
X039313Y029942D01*
X039343Y029897D01*
X039369Y029849D01*
X039392Y029800D01*
X039411Y029749D01*
X039426Y029698D01*
X039438Y029645D01*
X039446Y029591D01*
X039450Y029537D01*
X039450Y029483D01*
X039446Y029429D01*
X039438Y029375D01*
X039426Y029322D01*
X039411Y029271D01*
X039392Y029220D01*
X039369Y029171D01*
X039343Y029123D01*
X039313Y029078D01*
X039280Y029035D01*
X039244Y028994D01*
X039206Y028956D01*
X039165Y028921D01*
X039121Y028889D01*
X039075Y028860D01*
X039027Y028835D01*
X038978Y028813D01*
X038927Y028795D01*
X038874Y028781D01*
X038821Y028770D01*
X038768Y028763D01*
X038714Y028760D01*
X038659Y028761D01*
X038605Y028766D01*
X038552Y028775D01*
X038499Y028787D01*
X038448Y028804D01*
X038397Y028824D01*
X038349Y028847D01*
X038302Y028874D01*
X038257Y028905D01*
X038214Y028938D01*
X038174Y028975D01*
X038137Y029014D01*
X038103Y029056D01*
X038072Y029100D01*
X038044Y029147D01*
X038019Y029195D01*
X037998Y029245D01*
X037981Y029296D01*
X037968Y029349D01*
X037958Y029402D01*
X037952Y029456D01*
X037950Y029510D01*
D11*
X032290Y036180D03*
X032030Y036180D03*
D12*
X007532Y056116D03*
X007532Y056313D03*
X007532Y056510D03*
X007532Y056707D03*
X007532Y056904D03*
X005868Y056904D03*
X005868Y056707D03*
X005868Y056510D03*
X005868Y056313D03*
X005868Y056116D03*
D13*
X007255Y052110D03*
X007845Y052110D03*
X007845Y051110D03*
X007255Y051110D03*
X007255Y050110D03*
X007845Y050110D03*
X020700Y039505D03*
X020700Y038915D03*
X030905Y037110D03*
X031495Y037110D03*
X036205Y038110D03*
X036795Y038110D03*
X032700Y044615D03*
X032700Y045205D03*
X032600Y049615D03*
X032600Y050205D03*
X034305Y056910D03*
X034895Y056910D03*
D14*
X034935Y055410D03*
X034265Y055410D03*
X032635Y058510D03*
X031965Y058510D03*
X029235Y057610D03*
X028565Y057610D03*
X028635Y056610D03*
X027965Y056610D03*
X027935Y057610D03*
X027265Y057610D03*
X024535Y052010D03*
X023865Y052010D03*
X024135Y049510D03*
X023465Y049510D03*
X015235Y037010D03*
X014565Y037010D03*
X006635Y050110D03*
X006635Y051110D03*
X005965Y051110D03*
X005965Y050110D03*
X005965Y052110D03*
X006635Y052110D03*
X024665Y035910D03*
X025335Y035910D03*
X032065Y037110D03*
X032735Y037110D03*
X033165Y035910D03*
X033835Y035910D03*
X032535Y038710D03*
X031865Y038710D03*
X031865Y039710D03*
X032535Y039710D03*
X032535Y040710D03*
X031865Y040710D03*
X031865Y041810D03*
X032535Y041810D03*
X034365Y045110D03*
X035035Y045110D03*
X035235Y050110D03*
X034565Y050110D03*
X033535Y031510D03*
X033535Y030310D03*
X032865Y030310D03*
X032865Y031510D03*
D15*
X029080Y048276D03*
X029080Y048984D03*
X007840Y053656D03*
X007840Y054364D03*
X006700Y054364D03*
X006700Y053656D03*
D16*
X003421Y055902D03*
X003421Y056154D03*
X003421Y056410D03*
X003421Y056666D03*
X003421Y056922D03*
D17*
X003234Y057670D03*
X003234Y055150D03*
D18*
X001879Y055566D02*
X001879Y056308D01*
X002621Y056308D01*
X002621Y055566D01*
X001879Y055566D01*
X001879Y055572D02*
X002621Y055572D01*
X002621Y055578D02*
X001879Y055578D01*
X001879Y055584D02*
X002621Y055584D01*
X002621Y055590D02*
X001879Y055590D01*
X001879Y055596D02*
X002621Y055596D01*
X002621Y055602D02*
X001879Y055602D01*
X001879Y055608D02*
X002621Y055608D01*
X002621Y055614D02*
X001879Y055614D01*
X001879Y055620D02*
X002621Y055620D01*
X002621Y055626D02*
X001879Y055626D01*
X001879Y055632D02*
X002621Y055632D01*
X002621Y055638D02*
X001879Y055638D01*
X001879Y055644D02*
X002621Y055644D01*
X002621Y055650D02*
X001879Y055650D01*
X001879Y055656D02*
X002621Y055656D01*
X002621Y055662D02*
X001879Y055662D01*
X001879Y055668D02*
X002621Y055668D01*
X002621Y055674D02*
X001879Y055674D01*
X001879Y055680D02*
X002621Y055680D01*
X002621Y055686D02*
X001879Y055686D01*
X001879Y055692D02*
X002621Y055692D01*
X002621Y055698D02*
X001879Y055698D01*
X001879Y055704D02*
X002621Y055704D01*
X002621Y055710D02*
X001879Y055710D01*
X001879Y055716D02*
X002621Y055716D01*
X002621Y055722D02*
X001879Y055722D01*
X001879Y055728D02*
X002621Y055728D01*
X002621Y055734D02*
X001879Y055734D01*
X001879Y055740D02*
X002621Y055740D01*
X002621Y055746D02*
X001879Y055746D01*
X001879Y055752D02*
X002621Y055752D01*
X002621Y055758D02*
X001879Y055758D01*
X001879Y055764D02*
X002621Y055764D01*
X002621Y055770D02*
X001879Y055770D01*
X001879Y055776D02*
X002621Y055776D01*
X002621Y055782D02*
X001879Y055782D01*
X001879Y055788D02*
X002621Y055788D01*
X002621Y055794D02*
X001879Y055794D01*
X001879Y055800D02*
X002621Y055800D01*
X002621Y055806D02*
X001879Y055806D01*
X001879Y055812D02*
X002621Y055812D01*
X002621Y055818D02*
X001879Y055818D01*
X001879Y055824D02*
X002621Y055824D01*
X002621Y055830D02*
X001879Y055830D01*
X001879Y055836D02*
X002621Y055836D01*
X002621Y055842D02*
X001879Y055842D01*
X001879Y055848D02*
X002621Y055848D01*
X002621Y055854D02*
X001879Y055854D01*
X001879Y055860D02*
X002621Y055860D01*
X002621Y055866D02*
X001879Y055866D01*
X001879Y055872D02*
X002621Y055872D01*
X002621Y055878D02*
X001879Y055878D01*
X001879Y055884D02*
X002621Y055884D01*
X002621Y055890D02*
X001879Y055890D01*
X001879Y055896D02*
X002621Y055896D01*
X002621Y055902D02*
X001879Y055902D01*
X001879Y055908D02*
X002621Y055908D01*
X002621Y055914D02*
X001879Y055914D01*
X001879Y055920D02*
X002621Y055920D01*
X002621Y055926D02*
X001879Y055926D01*
X001879Y055932D02*
X002621Y055932D01*
X002621Y055938D02*
X001879Y055938D01*
X001879Y055944D02*
X002621Y055944D01*
X002621Y055950D02*
X001879Y055950D01*
X001879Y055956D02*
X002621Y055956D01*
X002621Y055962D02*
X001879Y055962D01*
X001879Y055968D02*
X002621Y055968D01*
X002621Y055974D02*
X001879Y055974D01*
X001879Y055980D02*
X002621Y055980D01*
X002621Y055986D02*
X001879Y055986D01*
X001879Y055992D02*
X002621Y055992D01*
X002621Y055998D02*
X001879Y055998D01*
X001879Y056004D02*
X002621Y056004D01*
X002621Y056010D02*
X001879Y056010D01*
X001879Y056016D02*
X002621Y056016D01*
X002621Y056022D02*
X001879Y056022D01*
X001879Y056028D02*
X002621Y056028D01*
X002621Y056034D02*
X001879Y056034D01*
X001879Y056040D02*
X002621Y056040D01*
X002621Y056046D02*
X001879Y056046D01*
X001879Y056052D02*
X002621Y056052D01*
X002621Y056058D02*
X001879Y056058D01*
X001879Y056064D02*
X002621Y056064D01*
X002621Y056070D02*
X001879Y056070D01*
X001879Y056076D02*
X002621Y056076D01*
X002621Y056082D02*
X001879Y056082D01*
X001879Y056088D02*
X002621Y056088D01*
X002621Y056094D02*
X001879Y056094D01*
X001879Y056100D02*
X002621Y056100D01*
X002621Y056106D02*
X001879Y056106D01*
X001879Y056112D02*
X002621Y056112D01*
X002621Y056118D02*
X001879Y056118D01*
X001879Y056124D02*
X002621Y056124D01*
X002621Y056130D02*
X001879Y056130D01*
X001879Y056136D02*
X002621Y056136D01*
X002621Y056142D02*
X001879Y056142D01*
X001879Y056148D02*
X002621Y056148D01*
X002621Y056154D02*
X001879Y056154D01*
X001879Y056160D02*
X002621Y056160D01*
X002621Y056166D02*
X001879Y056166D01*
X001879Y056172D02*
X002621Y056172D01*
X002621Y056178D02*
X001879Y056178D01*
X001879Y056184D02*
X002621Y056184D01*
X002621Y056190D02*
X001879Y056190D01*
X001879Y056196D02*
X002621Y056196D01*
X002621Y056202D02*
X001879Y056202D01*
X001879Y056208D02*
X002621Y056208D01*
X002621Y056214D02*
X001879Y056214D01*
X001879Y056220D02*
X002621Y056220D01*
X002621Y056226D02*
X001879Y056226D01*
X001879Y056232D02*
X002621Y056232D01*
X002621Y056238D02*
X001879Y056238D01*
X001879Y056244D02*
X002621Y056244D01*
X002621Y056250D02*
X001879Y056250D01*
X001879Y056256D02*
X002621Y056256D01*
X002621Y056262D02*
X001879Y056262D01*
X001879Y056268D02*
X002621Y056268D01*
X002621Y056274D02*
X001879Y056274D01*
X001879Y056280D02*
X002621Y056280D01*
X002621Y056286D02*
X001879Y056286D01*
X001879Y056292D02*
X002621Y056292D01*
X002621Y056298D02*
X001879Y056298D01*
X001879Y056304D02*
X002621Y056304D01*
X001879Y056511D02*
X001879Y057253D01*
X002621Y057253D01*
X002621Y056511D01*
X001879Y056511D01*
X001879Y056517D02*
X002621Y056517D01*
X002621Y056523D02*
X001879Y056523D01*
X001879Y056529D02*
X002621Y056529D01*
X002621Y056535D02*
X001879Y056535D01*
X001879Y056541D02*
X002621Y056541D01*
X002621Y056547D02*
X001879Y056547D01*
X001879Y056553D02*
X002621Y056553D01*
X002621Y056559D02*
X001879Y056559D01*
X001879Y056565D02*
X002621Y056565D01*
X002621Y056571D02*
X001879Y056571D01*
X001879Y056577D02*
X002621Y056577D01*
X002621Y056583D02*
X001879Y056583D01*
X001879Y056589D02*
X002621Y056589D01*
X002621Y056595D02*
X001879Y056595D01*
X001879Y056601D02*
X002621Y056601D01*
X002621Y056607D02*
X001879Y056607D01*
X001879Y056613D02*
X002621Y056613D01*
X002621Y056619D02*
X001879Y056619D01*
X001879Y056625D02*
X002621Y056625D01*
X002621Y056631D02*
X001879Y056631D01*
X001879Y056637D02*
X002621Y056637D01*
X002621Y056643D02*
X001879Y056643D01*
X001879Y056649D02*
X002621Y056649D01*
X002621Y056655D02*
X001879Y056655D01*
X001879Y056661D02*
X002621Y056661D01*
X002621Y056667D02*
X001879Y056667D01*
X001879Y056673D02*
X002621Y056673D01*
X002621Y056679D02*
X001879Y056679D01*
X001879Y056685D02*
X002621Y056685D01*
X002621Y056691D02*
X001879Y056691D01*
X001879Y056697D02*
X002621Y056697D01*
X002621Y056703D02*
X001879Y056703D01*
X001879Y056709D02*
X002621Y056709D01*
X002621Y056715D02*
X001879Y056715D01*
X001879Y056721D02*
X002621Y056721D01*
X002621Y056727D02*
X001879Y056727D01*
X001879Y056733D02*
X002621Y056733D01*
X002621Y056739D02*
X001879Y056739D01*
X001879Y056745D02*
X002621Y056745D01*
X002621Y056751D02*
X001879Y056751D01*
X001879Y056757D02*
X002621Y056757D01*
X002621Y056763D02*
X001879Y056763D01*
X001879Y056769D02*
X002621Y056769D01*
X002621Y056775D02*
X001879Y056775D01*
X001879Y056781D02*
X002621Y056781D01*
X002621Y056787D02*
X001879Y056787D01*
X001879Y056793D02*
X002621Y056793D01*
X002621Y056799D02*
X001879Y056799D01*
X001879Y056805D02*
X002621Y056805D01*
X002621Y056811D02*
X001879Y056811D01*
X001879Y056817D02*
X002621Y056817D01*
X002621Y056823D02*
X001879Y056823D01*
X001879Y056829D02*
X002621Y056829D01*
X002621Y056835D02*
X001879Y056835D01*
X001879Y056841D02*
X002621Y056841D01*
X002621Y056847D02*
X001879Y056847D01*
X001879Y056853D02*
X002621Y056853D01*
X002621Y056859D02*
X001879Y056859D01*
X001879Y056865D02*
X002621Y056865D01*
X002621Y056871D02*
X001879Y056871D01*
X001879Y056877D02*
X002621Y056877D01*
X002621Y056883D02*
X001879Y056883D01*
X001879Y056889D02*
X002621Y056889D01*
X002621Y056895D02*
X001879Y056895D01*
X001879Y056901D02*
X002621Y056901D01*
X002621Y056907D02*
X001879Y056907D01*
X001879Y056913D02*
X002621Y056913D01*
X002621Y056919D02*
X001879Y056919D01*
X001879Y056925D02*
X002621Y056925D01*
X002621Y056931D02*
X001879Y056931D01*
X001879Y056937D02*
X002621Y056937D01*
X002621Y056943D02*
X001879Y056943D01*
X001879Y056949D02*
X002621Y056949D01*
X002621Y056955D02*
X001879Y056955D01*
X001879Y056961D02*
X002621Y056961D01*
X002621Y056967D02*
X001879Y056967D01*
X001879Y056973D02*
X002621Y056973D01*
X002621Y056979D02*
X001879Y056979D01*
X001879Y056985D02*
X002621Y056985D01*
X002621Y056991D02*
X001879Y056991D01*
X001879Y056997D02*
X002621Y056997D01*
X002621Y057003D02*
X001879Y057003D01*
X001879Y057009D02*
X002621Y057009D01*
X002621Y057015D02*
X001879Y057015D01*
X001879Y057021D02*
X002621Y057021D01*
X002621Y057027D02*
X001879Y057027D01*
X001879Y057033D02*
X002621Y057033D01*
X002621Y057039D02*
X001879Y057039D01*
X001879Y057045D02*
X002621Y057045D01*
X002621Y057051D02*
X001879Y057051D01*
X001879Y057057D02*
X002621Y057057D01*
X002621Y057063D02*
X001879Y057063D01*
X001879Y057069D02*
X002621Y057069D01*
X002621Y057075D02*
X001879Y057075D01*
X001879Y057081D02*
X002621Y057081D01*
X002621Y057087D02*
X001879Y057087D01*
X001879Y057093D02*
X002621Y057093D01*
X002621Y057099D02*
X001879Y057099D01*
X001879Y057105D02*
X002621Y057105D01*
X002621Y057111D02*
X001879Y057111D01*
X001879Y057117D02*
X002621Y057117D01*
X002621Y057123D02*
X001879Y057123D01*
X001879Y057129D02*
X002621Y057129D01*
X002621Y057135D02*
X001879Y057135D01*
X001879Y057141D02*
X002621Y057141D01*
X002621Y057147D02*
X001879Y057147D01*
X001879Y057153D02*
X002621Y057153D01*
X002621Y057159D02*
X001879Y057159D01*
X001879Y057165D02*
X002621Y057165D01*
X002621Y057171D02*
X001879Y057171D01*
X001879Y057177D02*
X002621Y057177D01*
X002621Y057183D02*
X001879Y057183D01*
X001879Y057189D02*
X002621Y057189D01*
X002621Y057195D02*
X001879Y057195D01*
X001879Y057201D02*
X002621Y057201D01*
X002621Y057207D02*
X001879Y057207D01*
X001879Y057213D02*
X002621Y057213D01*
X002621Y057219D02*
X001879Y057219D01*
X001879Y057225D02*
X002621Y057225D01*
X002621Y057231D02*
X001879Y057231D01*
X001879Y057237D02*
X002621Y057237D01*
X002621Y057243D02*
X001879Y057243D01*
X001879Y057249D02*
X002621Y057249D01*
D19*
X002250Y057699D03*
X002250Y055120D03*
D20*
X003200Y051510D03*
X003200Y050510D03*
D21*
X004900Y057036D03*
X004900Y057784D03*
X008300Y057784D03*
X008300Y057036D03*
X026620Y038944D03*
X026620Y038196D03*
D22*
X014686Y053970D03*
X013780Y053970D03*
X012874Y053970D03*
D23*
X013780Y051529D03*
D24*
X013141Y055756D03*
X013141Y056740D03*
X013141Y057724D03*
X014440Y057724D03*
X014440Y056740D03*
X014440Y055756D03*
D25*
X015430Y055934D03*
X015430Y055265D03*
X022500Y045544D03*
X022500Y044875D03*
X022500Y044144D03*
X022500Y043475D03*
X020700Y038194D03*
X020700Y037525D03*
X017600Y036444D03*
X017600Y035775D03*
X016000Y034544D03*
X016000Y033875D03*
X022900Y050575D03*
X022900Y051244D03*
X026080Y056875D03*
X026080Y057544D03*
X027300Y055344D03*
X027300Y054675D03*
X028300Y054675D03*
X028300Y055344D03*
X029300Y055344D03*
X029300Y054675D03*
X029600Y056075D03*
X029600Y056744D03*
X023800Y057475D03*
X023800Y058144D03*
X035100Y040644D03*
X035100Y039975D03*
X039600Y041275D03*
X039600Y041944D03*
X040300Y041944D03*
X040300Y041275D03*
X040300Y047075D03*
X040300Y047744D03*
X039600Y047744D03*
X039600Y047075D03*
X039600Y051475D03*
X039600Y052144D03*
X040300Y052144D03*
X040300Y051475D03*
X040300Y056175D03*
X040300Y056844D03*
X039600Y056844D03*
X039600Y056175D03*
D26*
X026600Y056120D03*
X026340Y056120D03*
X026080Y056120D03*
X025830Y056120D03*
X025570Y056120D03*
X025320Y056120D03*
X025060Y056120D03*
X024800Y056120D03*
X024800Y053900D03*
X025060Y053900D03*
X025320Y053900D03*
X025570Y053900D03*
X025830Y053900D03*
X026080Y053900D03*
X026340Y053900D03*
X026600Y053900D03*
D27*
X025960Y049421D03*
X025960Y047019D03*
X014379Y047585D03*
X014379Y049987D03*
D28*
X012690Y049371D03*
X012690Y048111D03*
X025600Y039040D03*
X025600Y037780D03*
X027700Y048080D03*
X027700Y049340D03*
D29*
X019840Y047090D03*
X016490Y047090D03*
D30*
X020558Y045377D03*
X021282Y045377D03*
D31*
X020920Y043810D03*
D32*
X021310Y047840D03*
X021570Y047840D03*
X021830Y047840D03*
X022080Y047840D03*
X022080Y049180D03*
X021830Y049180D03*
X021570Y049180D03*
X021320Y049180D03*
D33*
X021700Y048388D03*
D34*
X023030Y047390D03*
X023030Y047140D03*
X023030Y046880D03*
X023030Y046630D03*
X024370Y046620D03*
X024370Y046880D03*
X024370Y047140D03*
X024370Y047390D03*
D35*
X023822Y047010D03*
D36*
X028824Y036174D03*
X029020Y036174D03*
X029217Y036174D03*
X029414Y036174D03*
X029611Y036174D03*
X029808Y036174D03*
X030005Y036174D03*
X030202Y036174D03*
X030398Y036174D03*
X030595Y036174D03*
X030792Y036174D03*
X030989Y036174D03*
X031186Y036174D03*
X031383Y036174D03*
X031580Y036174D03*
X031776Y036174D03*
X031776Y031646D03*
X031580Y031646D03*
X031383Y031646D03*
X031186Y031646D03*
X030989Y031646D03*
X030792Y031646D03*
X030595Y031646D03*
X030398Y031646D03*
X030202Y031646D03*
X030005Y031646D03*
X029808Y031646D03*
X029611Y031646D03*
X029414Y031646D03*
X029217Y031646D03*
X029020Y031646D03*
X028824Y031646D03*
D37*
X028036Y032433D03*
X028036Y032630D03*
X028036Y032827D03*
X028036Y033024D03*
X028036Y033221D03*
X028036Y033418D03*
X028036Y033615D03*
X028036Y033811D03*
X028036Y034008D03*
X028036Y034205D03*
X028036Y034402D03*
X028036Y034599D03*
X028036Y034796D03*
X028036Y034993D03*
X028036Y035189D03*
X028036Y035386D03*
X032564Y035386D03*
X032564Y035189D03*
X032564Y034993D03*
X032564Y034796D03*
X032564Y034599D03*
X032564Y034402D03*
X032564Y034205D03*
X032564Y034008D03*
X032564Y033811D03*
X032564Y033615D03*
X032564Y033418D03*
X032564Y033221D03*
X032564Y033024D03*
X032564Y032827D03*
X032564Y032630D03*
X032564Y032433D03*
D38*
X034700Y031710D03*
X035700Y031710D03*
X036700Y031710D03*
X037700Y031710D03*
X038700Y031710D03*
X039700Y031710D03*
X039700Y034010D03*
X038700Y034010D03*
X037700Y034010D03*
X036700Y034010D03*
X035700Y034010D03*
X034700Y034010D03*
X032200Y029210D03*
X031200Y029210D03*
X030200Y029210D03*
X029200Y029210D03*
X028200Y029210D03*
X026000Y033710D03*
X025000Y033710D03*
X024000Y033710D03*
X023000Y033710D03*
X022000Y033710D03*
X021000Y033710D03*
X014900Y033310D03*
X014900Y034310D03*
X014900Y035310D03*
X028500Y038610D03*
X028500Y039610D03*
X028500Y040610D03*
X028500Y041610D03*
X028500Y042610D03*
X028500Y043610D03*
X028500Y044610D03*
X028500Y045610D03*
X028500Y046610D03*
X038100Y037810D03*
X039100Y037810D03*
X040100Y037810D03*
D39*
X024240Y037604D03*
X024240Y038510D03*
X024240Y039415D03*
D40*
X021760Y038510D03*
D41*
X024626Y034810D03*
X025374Y034810D03*
X031926Y057710D03*
X032674Y057710D03*
D42*
X006100Y035910D03*
X004600Y034410D03*
X003100Y040410D03*
X004600Y041410D03*
D43*
X011500Y036140D02*
X011500Y035480D01*
X012500Y035480D02*
X012500Y036140D01*
X013500Y036140D02*
X013500Y035480D01*
D44*
X009600Y032610D03*
X009600Y030610D03*
X007400Y030610D03*
X007400Y032610D03*
X005200Y032610D03*
X005200Y030610D03*
D45*
X006600Y029210D03*
X008100Y029210D03*
X038400Y040710D03*
X038400Y042210D03*
X038400Y045610D03*
X038400Y047110D03*
X038400Y050710D03*
X038400Y052210D03*
X038400Y055410D03*
X038400Y056910D03*
D46*
X016774Y036861D03*
X016026Y036861D03*
X016026Y035759D03*
X016400Y035759D03*
X016774Y035759D03*
D47*
X035932Y040341D03*
X036188Y040341D03*
X036444Y040341D03*
X036700Y040341D03*
X036956Y040341D03*
X037212Y040341D03*
X037468Y040341D03*
X037468Y042679D03*
X037212Y042679D03*
X036956Y042679D03*
X036700Y042679D03*
X036444Y042679D03*
X036188Y042679D03*
X035932Y042679D03*
X035932Y045341D03*
X036188Y045341D03*
X036444Y045341D03*
X036700Y045341D03*
X036956Y045341D03*
X037212Y045341D03*
X037468Y045341D03*
X037468Y047679D03*
X037212Y047679D03*
X036956Y047679D03*
X036700Y047679D03*
X036444Y047679D03*
X036188Y047679D03*
X035932Y047679D03*
X035932Y050341D03*
X036188Y050341D03*
X036444Y050341D03*
X036700Y050341D03*
X036956Y050341D03*
X037212Y050341D03*
X037468Y050341D03*
X037468Y052679D03*
X037212Y052679D03*
X036956Y052679D03*
X036700Y052679D03*
X036444Y052679D03*
X036188Y052679D03*
X035932Y052679D03*
X035932Y055341D03*
X036188Y055341D03*
X036444Y055341D03*
X036700Y055341D03*
X036956Y055341D03*
X037212Y055341D03*
X037468Y055341D03*
X037468Y057679D03*
X037212Y057679D03*
X036956Y057679D03*
X036700Y057679D03*
X036444Y057679D03*
X036188Y057679D03*
X035932Y057679D03*
D48*
X036700Y056510D03*
X036700Y051510D03*
X036700Y046510D03*
X036700Y041510D03*
D49*
X010700Y051644D03*
X010700Y053810D03*
D50*
X005894Y046110D03*
X004713Y044259D03*
X003531Y046110D03*
D51*
X015456Y028893D03*
X019944Y028893D03*
D52*
X019078Y029719D03*
X018094Y029719D03*
X017306Y029719D03*
X016322Y029719D03*
D53*
X017300Y029726D02*
X017306Y029719D01*
X017300Y029726D02*
X017300Y030260D01*
X017800Y030760D01*
X026450Y030760D01*
X026450Y030260D02*
X018200Y030260D01*
X018150Y030210D01*
X018150Y029776D01*
X018094Y029719D01*
X017500Y035210D02*
X017200Y035210D01*
X016900Y035210D01*
X016800Y035310D01*
X016800Y035733D01*
X016774Y035759D01*
X016400Y036310D02*
X016000Y036310D01*
X016000Y035785D01*
X016026Y035759D01*
X016400Y036310D02*
X016774Y036684D01*
X016774Y036861D01*
X017151Y036861D01*
X017200Y036910D01*
X017600Y036910D01*
X018100Y037210D01*
X017600Y036910D02*
X017600Y036444D01*
X017600Y035775D02*
X017600Y035310D01*
X017500Y035210D01*
X020700Y038194D02*
X020700Y038915D01*
X020700Y039505D02*
X020700Y040310D01*
X020200Y045010D02*
X019900Y045310D01*
X018700Y045310D01*
X018700Y048510D01*
X018980Y048740D01*
X022380Y048740D01*
X023280Y047890D01*
X023280Y046880D01*
X022768Y046880D01*
X022680Y046792D01*
X022680Y046468D01*
X022700Y046448D01*
X022700Y045310D01*
X021800Y045310D01*
X021700Y045210D01*
X021700Y045010D01*
X020200Y045010D01*
X020162Y045047D02*
X021700Y045047D01*
X021700Y045146D02*
X020064Y045146D01*
X019965Y045244D02*
X021735Y045244D01*
X022700Y045343D02*
X018700Y045343D01*
X018700Y045441D02*
X022700Y045441D01*
X022700Y045540D02*
X018700Y045540D01*
X018700Y045638D02*
X022700Y045638D01*
X022700Y045737D02*
X018700Y045737D01*
X018700Y045835D02*
X022700Y045835D01*
X022700Y045934D02*
X018700Y045934D01*
X018700Y046032D02*
X022700Y046032D01*
X022700Y046131D02*
X018700Y046131D01*
X018700Y046229D02*
X022700Y046229D01*
X022700Y046328D02*
X018700Y046328D01*
X018700Y046426D02*
X022700Y046426D01*
X022680Y046525D02*
X018700Y046525D01*
X018700Y046623D02*
X022680Y046623D01*
X022680Y046722D02*
X018700Y046722D01*
X018700Y046820D02*
X022708Y046820D01*
X023280Y046919D02*
X018700Y046919D01*
X018700Y047017D02*
X023280Y047017D01*
X023280Y047116D02*
X018700Y047116D01*
X018700Y047214D02*
X023280Y047214D01*
X023280Y047313D02*
X018700Y047313D01*
X018700Y047411D02*
X023280Y047411D01*
X023280Y047510D02*
X018700Y047510D01*
X018700Y047608D02*
X023280Y047608D01*
X023280Y047707D02*
X018700Y047707D01*
X018700Y047805D02*
X023280Y047805D01*
X023265Y047904D02*
X018700Y047904D01*
X018700Y048002D02*
X023161Y048002D01*
X023057Y048101D02*
X018700Y048101D01*
X018700Y048199D02*
X022952Y048199D01*
X022848Y048298D02*
X018700Y048298D01*
X018700Y048396D02*
X022744Y048396D01*
X022639Y048495D02*
X018700Y048495D01*
X018802Y048593D02*
X022535Y048593D01*
X022431Y048692D02*
X018922Y048692D01*
X015510Y054090D02*
X014706Y054090D01*
X014686Y053970D01*
X015510Y054090D02*
X016090Y054670D01*
X016090Y056420D01*
X016000Y056510D01*
X015450Y056510D01*
X015430Y056530D01*
X015240Y056720D01*
X014460Y056720D01*
X014440Y056740D01*
X013141Y056740D01*
X013141Y057724D02*
X014440Y057724D01*
X013141Y057724D02*
X010453Y057736D01*
X010100Y057410D01*
X009726Y057036D01*
X008300Y057036D01*
X008166Y056670D02*
X007466Y056670D01*
X007465Y056669D01*
X007290Y056669D01*
X007280Y056660D01*
X007280Y057310D01*
X008700Y057310D01*
X009500Y057010D01*
X009500Y053710D01*
X009520Y052530D01*
X011200Y052510D01*
X011800Y051910D01*
X011800Y050410D01*
X011500Y050010D01*
X009300Y050010D01*
X008600Y050710D01*
X008590Y056670D01*
X008169Y056667D01*
X008166Y056670D01*
X008100Y056510D02*
X008200Y056410D01*
X008200Y054724D01*
X007840Y054364D01*
X008230Y054010D02*
X007420Y054010D01*
X007310Y054120D01*
X007310Y055210D01*
X008000Y055900D01*
X008000Y056260D01*
X007960Y056300D01*
X007545Y056300D01*
X007532Y056313D01*
X007532Y056510D02*
X008100Y056510D01*
X008590Y056473D02*
X009500Y056473D01*
X009500Y056375D02*
X008590Y056375D01*
X008591Y056276D02*
X009500Y056276D01*
X009500Y056178D02*
X008591Y056178D01*
X008591Y056079D02*
X009500Y056079D01*
X009500Y055981D02*
X008591Y055981D01*
X008591Y055882D02*
X009500Y055882D01*
X009500Y055784D02*
X008591Y055784D01*
X008592Y055685D02*
X009500Y055685D01*
X009500Y055587D02*
X008592Y055587D01*
X008592Y055488D02*
X009500Y055488D01*
X009500Y055390D02*
X008592Y055390D01*
X008592Y055291D02*
X009500Y055291D01*
X009500Y055193D02*
X008592Y055193D01*
X008593Y055094D02*
X009500Y055094D01*
X009500Y054996D02*
X008593Y054996D01*
X008593Y054897D02*
X009500Y054897D01*
X009500Y054799D02*
X008593Y054799D01*
X008593Y054700D02*
X009500Y054700D01*
X009500Y054602D02*
X008593Y054602D01*
X008594Y054503D02*
X009500Y054503D01*
X009500Y054405D02*
X008594Y054405D01*
X008594Y054306D02*
X009500Y054306D01*
X009500Y054208D02*
X008594Y054208D01*
X008594Y054109D02*
X009500Y054109D01*
X009500Y054011D02*
X008594Y054011D01*
X008595Y053912D02*
X009500Y053912D01*
X009500Y053814D02*
X008595Y053814D01*
X008595Y053715D02*
X009500Y053715D01*
X009502Y053617D02*
X008595Y053617D01*
X008595Y053518D02*
X009503Y053518D01*
X009505Y053420D02*
X008595Y053420D01*
X008596Y053321D02*
X009507Y053321D01*
X009508Y053223D02*
X008596Y053223D01*
X008596Y053124D02*
X009510Y053124D01*
X009512Y053026D02*
X008596Y053026D01*
X008596Y052927D02*
X009513Y052927D01*
X009515Y052829D02*
X008596Y052829D01*
X008597Y052730D02*
X009517Y052730D01*
X009518Y052632D02*
X008597Y052632D01*
X008597Y052533D02*
X009520Y052533D01*
X009880Y052910D02*
X009960Y052830D01*
X013210Y052830D01*
X013220Y054500D01*
X012170Y055100D01*
X012190Y056840D01*
X011441Y056830D01*
X011441Y056537D01*
X011328Y056264D01*
X011119Y056056D01*
X010847Y055943D01*
X010553Y055943D01*
X010281Y056056D01*
X010072Y056264D01*
X009959Y056537D01*
X009959Y056811D01*
X009880Y056810D01*
X009880Y052910D01*
X009880Y052927D02*
X013211Y052927D01*
X013211Y053026D02*
X009880Y053026D01*
X009880Y053124D02*
X013212Y053124D01*
X013212Y053223D02*
X009880Y053223D01*
X009880Y053321D02*
X013213Y053321D01*
X013214Y053420D02*
X009880Y053420D01*
X009880Y053518D02*
X013214Y053518D01*
X013215Y053617D02*
X009880Y053617D01*
X009880Y053715D02*
X013215Y053715D01*
X013216Y053814D02*
X009880Y053814D01*
X009880Y053912D02*
X013216Y053912D01*
X013217Y054011D02*
X009880Y054011D01*
X009880Y054109D02*
X013218Y054109D01*
X013218Y054208D02*
X009880Y054208D01*
X009880Y054306D02*
X013219Y054306D01*
X013219Y054405D02*
X009880Y054405D01*
X009880Y054503D02*
X013214Y054503D01*
X013041Y054602D02*
X009880Y054602D01*
X009880Y054700D02*
X012869Y054700D01*
X012697Y054799D02*
X009880Y054799D01*
X009880Y054897D02*
X012524Y054897D01*
X012352Y054996D02*
X009880Y054996D01*
X009880Y055094D02*
X012180Y055094D01*
X012171Y055193D02*
X009880Y055193D01*
X009880Y055291D02*
X012172Y055291D01*
X012173Y055390D02*
X009880Y055390D01*
X009880Y055488D02*
X012174Y055488D01*
X012176Y055587D02*
X009880Y055587D01*
X009880Y055685D02*
X012177Y055685D01*
X012178Y055784D02*
X009880Y055784D01*
X009880Y055882D02*
X012179Y055882D01*
X012180Y055981D02*
X010938Y055981D01*
X011143Y056079D02*
X012181Y056079D01*
X012182Y056178D02*
X011241Y056178D01*
X011333Y056276D02*
X012184Y056276D01*
X012185Y056375D02*
X011374Y056375D01*
X011414Y056473D02*
X012186Y056473D01*
X012187Y056572D02*
X011441Y056572D01*
X011441Y056670D02*
X012188Y056670D01*
X012189Y056769D02*
X011441Y056769D01*
X010462Y055981D02*
X009880Y055981D01*
X009880Y056079D02*
X010257Y056079D01*
X010159Y056178D02*
X009880Y056178D01*
X009880Y056276D02*
X010067Y056276D01*
X010026Y056375D02*
X009880Y056375D01*
X009880Y056473D02*
X009986Y056473D01*
X009959Y056572D02*
X009880Y056572D01*
X009880Y056670D02*
X009959Y056670D01*
X009959Y056769D02*
X009880Y056769D01*
X009500Y056769D02*
X007280Y056769D01*
X007280Y056867D02*
X009500Y056867D01*
X009500Y056966D02*
X007280Y056966D01*
X007280Y057064D02*
X009354Y057064D01*
X009092Y057163D02*
X007280Y057163D01*
X007280Y057261D02*
X008829Y057261D01*
X009190Y057510D02*
X007400Y057510D01*
X007400Y057490D01*
X007205Y057490D01*
X007100Y057384D01*
X007100Y056734D01*
X007099Y056733D01*
X007100Y056659D01*
X007100Y056585D01*
X007101Y056585D01*
X007101Y056584D01*
X007153Y056532D01*
X007205Y056480D01*
X007205Y056013D01*
X007281Y055937D01*
X007323Y055937D01*
X007095Y055710D01*
X006200Y055710D01*
X006200Y056530D01*
X006215Y056530D01*
X006320Y056635D01*
X006370Y056685D01*
X006370Y057304D01*
X006265Y057410D01*
X006225Y057450D01*
X004400Y057450D01*
X003660Y057466D01*
X003660Y058058D01*
X003583Y058134D01*
X002885Y058134D01*
X002809Y058058D01*
X002809Y057485D01*
X002687Y057488D01*
X002734Y057603D01*
X002734Y057796D01*
X002661Y057974D01*
X002524Y058110D01*
X002346Y058184D01*
X002154Y058184D01*
X001976Y058110D01*
X001850Y057984D01*
X001850Y059156D01*
X009232Y059156D01*
X009240Y058980D01*
X009240Y057560D01*
X009190Y057510D01*
X009237Y057557D02*
X003660Y057557D01*
X003660Y057655D02*
X009240Y057655D01*
X009240Y057754D02*
X003660Y057754D01*
X003660Y057852D02*
X009240Y057852D01*
X009240Y057951D02*
X003660Y057951D01*
X003660Y058049D02*
X009240Y058049D01*
X009240Y058148D02*
X002432Y058148D01*
X002585Y058049D02*
X002809Y058049D01*
X002809Y057951D02*
X002670Y057951D01*
X002711Y057852D02*
X002809Y057852D01*
X002809Y057754D02*
X002734Y057754D01*
X002734Y057655D02*
X002809Y057655D01*
X002809Y057557D02*
X002715Y057557D01*
X002754Y057270D02*
X002820Y057270D01*
X002885Y057205D01*
X003583Y057205D01*
X003648Y057270D01*
X006150Y057270D01*
X006190Y057230D01*
X006190Y056760D01*
X006140Y056710D01*
X005440Y056710D01*
X005080Y056350D01*
X005080Y055330D01*
X005520Y054890D01*
X005520Y052790D01*
X005510Y052780D01*
X005510Y052720D01*
X005350Y052560D01*
X005350Y050810D01*
X005360Y050800D01*
X004180Y050800D01*
X003940Y051040D01*
X001850Y051040D01*
X001850Y052270D01*
X003720Y052270D01*
X004420Y053050D01*
X004420Y055750D01*
X003980Y056190D01*
X003980Y056830D01*
X003960Y056850D01*
X003893Y056850D01*
X003869Y056874D01*
X002974Y056874D01*
X002949Y056850D01*
X002754Y056850D01*
X002754Y057270D01*
X002754Y057261D02*
X002829Y057261D01*
X002754Y057163D02*
X006190Y057163D01*
X006190Y057064D02*
X002754Y057064D01*
X002754Y056966D02*
X006190Y056966D01*
X006190Y056867D02*
X003876Y056867D01*
X003980Y056769D02*
X006190Y056769D01*
X006370Y056769D02*
X007100Y056769D01*
X007100Y056867D02*
X006370Y056867D01*
X006370Y056966D02*
X007100Y056966D01*
X007100Y057064D02*
X006370Y057064D01*
X006370Y057163D02*
X007100Y057163D01*
X007100Y057261D02*
X006370Y057261D01*
X006314Y057360D02*
X007100Y057360D01*
X007174Y057458D02*
X004014Y057458D01*
X003640Y057261D02*
X006158Y057261D01*
X006355Y056670D02*
X007100Y056670D01*
X007113Y056572D02*
X006257Y056572D01*
X006200Y056473D02*
X007205Y056473D01*
X007205Y056375D02*
X006200Y056375D01*
X006200Y056276D02*
X007205Y056276D01*
X007205Y056178D02*
X006200Y056178D01*
X006200Y056079D02*
X007205Y056079D01*
X007237Y055981D02*
X006200Y055981D01*
X006200Y055882D02*
X007268Y055882D01*
X007170Y055784D02*
X006200Y055784D01*
X005897Y055732D02*
X005885Y055747D01*
X005876Y055765D01*
X005870Y055783D01*
X005868Y055803D01*
X005868Y056116D01*
X005836Y056300D02*
X005590Y056300D01*
X005547Y056257D01*
X005530Y056250D02*
X005529Y056249D01*
X005530Y056250D02*
X005539Y056252D01*
X005547Y056257D01*
X005500Y056178D02*
X005500Y055560D01*
X005936Y055124D01*
X005965Y055053D02*
X005965Y052110D01*
X005580Y052490D02*
X005701Y052611D01*
X005730Y052681D02*
X005730Y054990D01*
X005329Y055391D01*
X005300Y055461D02*
X005300Y056310D01*
X005471Y056481D01*
X005541Y056510D02*
X005868Y056510D01*
X005868Y056313D02*
X005859Y056306D01*
X005848Y056302D01*
X005836Y056300D01*
X005861Y056320D02*
X005868Y056313D01*
X005529Y056249D02*
X005517Y056234D01*
X005508Y056216D01*
X005502Y056198D01*
X005500Y056178D01*
X005470Y056481D02*
X005485Y056493D01*
X005503Y056502D01*
X005521Y056508D01*
X005541Y056510D01*
X005401Y056670D02*
X003980Y056670D01*
X003980Y056572D02*
X005302Y056572D01*
X005204Y056473D02*
X003980Y056473D01*
X003980Y056375D02*
X005105Y056375D01*
X005080Y056276D02*
X003980Y056276D01*
X003992Y056178D02*
X005080Y056178D01*
X005080Y056079D02*
X004090Y056079D01*
X004189Y055981D02*
X005080Y055981D01*
X005080Y055882D02*
X004287Y055882D01*
X004386Y055784D02*
X005080Y055784D01*
X005080Y055685D02*
X004420Y055685D01*
X004420Y055587D02*
X005080Y055587D01*
X005080Y055488D02*
X004420Y055488D01*
X004420Y055390D02*
X005080Y055390D01*
X005118Y055291D02*
X004420Y055291D01*
X004420Y055193D02*
X005217Y055193D01*
X005315Y055094D02*
X004420Y055094D01*
X004420Y054996D02*
X005414Y054996D01*
X005512Y054897D02*
X004420Y054897D01*
X004420Y054799D02*
X005520Y054799D01*
X005520Y054700D02*
X004420Y054700D01*
X004420Y054602D02*
X005520Y054602D01*
X005520Y054503D02*
X004420Y054503D01*
X004420Y054405D02*
X005520Y054405D01*
X005520Y054306D02*
X004420Y054306D01*
X004420Y054208D02*
X005520Y054208D01*
X005520Y054109D02*
X004420Y054109D01*
X004420Y054011D02*
X005520Y054011D01*
X005520Y053912D02*
X004420Y053912D01*
X004420Y053814D02*
X005520Y053814D01*
X005520Y053715D02*
X004420Y053715D01*
X004420Y053617D02*
X005520Y053617D01*
X005520Y053518D02*
X004420Y053518D01*
X004420Y053420D02*
X005520Y053420D01*
X005520Y053321D02*
X004420Y053321D01*
X004420Y053223D02*
X005520Y053223D01*
X005520Y053124D02*
X004420Y053124D01*
X004399Y053026D02*
X005520Y053026D01*
X005520Y052927D02*
X004310Y052927D01*
X004222Y052829D02*
X005520Y052829D01*
X005510Y052730D02*
X004133Y052730D01*
X004045Y052632D02*
X005422Y052632D01*
X005350Y052533D02*
X003957Y052533D01*
X003868Y052435D02*
X005350Y052435D01*
X005350Y052336D02*
X003780Y052336D01*
X003600Y052510D02*
X004190Y053240D01*
X004190Y055580D01*
X003880Y055940D01*
X003312Y055945D01*
X002974Y055945D01*
X002970Y055948D01*
X002754Y055950D01*
X002754Y055512D01*
X002676Y055433D01*
X002622Y055433D01*
X002661Y055395D01*
X002734Y055217D01*
X002734Y055024D01*
X002661Y054846D01*
X002524Y054710D01*
X002346Y054636D01*
X002154Y054636D01*
X001976Y054710D01*
X001850Y054836D01*
X001850Y052510D01*
X003600Y052510D01*
X003619Y052533D02*
X001850Y052533D01*
X001850Y052632D02*
X003699Y052632D01*
X003778Y052730D02*
X001850Y052730D01*
X001850Y052829D02*
X003858Y052829D01*
X003937Y052927D02*
X001850Y052927D01*
X001850Y053026D02*
X004017Y053026D01*
X004097Y053124D02*
X001850Y053124D01*
X001850Y053223D02*
X004176Y053223D01*
X004190Y053321D02*
X001850Y053321D01*
X001850Y053420D02*
X004190Y053420D01*
X004190Y053518D02*
X001850Y053518D01*
X001850Y053617D02*
X004190Y053617D01*
X004190Y053715D02*
X001850Y053715D01*
X001850Y053814D02*
X004190Y053814D01*
X004190Y053912D02*
X001850Y053912D01*
X001850Y054011D02*
X004190Y054011D01*
X004190Y054109D02*
X001850Y054109D01*
X001850Y054208D02*
X004190Y054208D01*
X004190Y054306D02*
X001850Y054306D01*
X001850Y054405D02*
X004190Y054405D01*
X004190Y054503D02*
X001850Y054503D01*
X001850Y054602D02*
X004190Y054602D01*
X004190Y054700D02*
X003598Y054700D01*
X003583Y054685D02*
X003660Y054762D01*
X003660Y055538D01*
X003583Y055615D01*
X002885Y055615D01*
X002809Y055538D01*
X002809Y054762D01*
X002885Y054685D01*
X003583Y054685D01*
X003660Y054799D02*
X004190Y054799D01*
X004190Y054897D02*
X003660Y054897D01*
X003660Y054996D02*
X004190Y054996D01*
X004190Y055094D02*
X003660Y055094D01*
X003660Y055193D02*
X004190Y055193D01*
X004190Y055291D02*
X003660Y055291D01*
X003660Y055390D02*
X004190Y055390D01*
X004190Y055488D02*
X003660Y055488D01*
X003611Y055587D02*
X004184Y055587D01*
X004099Y055685D02*
X002754Y055685D01*
X002754Y055587D02*
X002857Y055587D01*
X002809Y055488D02*
X002731Y055488D01*
X002663Y055390D02*
X002809Y055390D01*
X002809Y055291D02*
X002703Y055291D01*
X002734Y055193D02*
X002809Y055193D01*
X002809Y055094D02*
X002734Y055094D01*
X002723Y054996D02*
X002809Y054996D01*
X002809Y054897D02*
X002682Y054897D01*
X002613Y054799D02*
X002809Y054799D01*
X002870Y054700D02*
X002501Y054700D01*
X002754Y055784D02*
X004014Y055784D01*
X003929Y055882D02*
X002754Y055882D01*
X002754Y056867D02*
X002967Y056867D01*
X002068Y058148D02*
X001850Y058148D01*
X001850Y058246D02*
X009240Y058246D01*
X009240Y058345D02*
X001850Y058345D01*
X001850Y058443D02*
X009240Y058443D01*
X009240Y058542D02*
X001850Y058542D01*
X001850Y058640D02*
X009240Y058640D01*
X009240Y058739D02*
X001850Y058739D01*
X001850Y058837D02*
X009240Y058837D01*
X009240Y058936D02*
X001850Y058936D01*
X001850Y059034D02*
X009237Y059034D01*
X009233Y059133D02*
X001850Y059133D01*
X001850Y058049D02*
X001915Y058049D01*
X001850Y054799D02*
X001887Y054799D01*
X001850Y054700D02*
X001999Y054700D01*
X001850Y052238D02*
X005350Y052238D01*
X005350Y052139D02*
X001850Y052139D01*
X001850Y052041D02*
X005350Y052041D01*
X005350Y051942D02*
X001850Y051942D01*
X001850Y051844D02*
X005350Y051844D01*
X005350Y051745D02*
X001850Y051745D01*
X001850Y051647D02*
X005350Y051647D01*
X005350Y051548D02*
X001850Y051548D01*
X001850Y051450D02*
X005350Y051450D01*
X005350Y051351D02*
X001850Y051351D01*
X001850Y051253D02*
X005350Y051253D01*
X005350Y051154D02*
X001850Y051154D01*
X001850Y051056D02*
X005350Y051056D01*
X005350Y050957D02*
X004022Y050957D01*
X004121Y050859D02*
X005350Y050859D01*
X005300Y050810D02*
X004500Y050810D01*
X003800Y051510D01*
X003820Y050850D02*
X004100Y050580D01*
X005060Y050580D01*
X005420Y050220D01*
X005420Y049770D01*
X004880Y049230D01*
X002630Y049230D01*
X002270Y049590D01*
X002270Y050610D01*
X002530Y050850D01*
X003820Y050850D01*
X003913Y050760D02*
X002433Y050760D01*
X002326Y050662D02*
X004015Y050662D01*
X004933Y049283D02*
X002577Y049283D01*
X002478Y049381D02*
X005032Y049381D01*
X005130Y049480D02*
X002380Y049480D01*
X002281Y049578D02*
X005229Y049578D01*
X005327Y049677D02*
X002270Y049677D01*
X002270Y049775D02*
X005420Y049775D01*
X005420Y049874D02*
X002270Y049874D01*
X002270Y049972D02*
X005420Y049972D01*
X005420Y050071D02*
X002270Y050071D01*
X002270Y050169D02*
X005420Y050169D01*
X005372Y050268D02*
X002270Y050268D01*
X002270Y050366D02*
X005273Y050366D01*
X005175Y050465D02*
X002270Y050465D01*
X002270Y050563D02*
X005076Y050563D01*
X005300Y050810D02*
X005500Y050610D01*
X007800Y050610D01*
X007845Y050655D01*
X007845Y051110D01*
X007845Y050110D01*
X008320Y049840D02*
X007990Y049510D01*
X006200Y049510D01*
X005965Y049744D01*
X005965Y050110D01*
X005965Y051110D02*
X005640Y051110D01*
X005580Y051170D01*
X005580Y052490D01*
X005701Y052610D02*
X005713Y052625D01*
X005722Y052643D01*
X005728Y052661D01*
X005730Y052681D01*
X006460Y052920D02*
X006671Y053131D01*
X006700Y053201D02*
X006700Y053656D01*
X006700Y053201D02*
X006698Y053181D01*
X006692Y053163D01*
X006683Y053145D01*
X006671Y053130D01*
X007360Y052910D02*
X007431Y052981D01*
X007501Y053010D02*
X007700Y053010D01*
X007811Y053121D01*
X007840Y053191D02*
X007840Y053656D01*
X007840Y053191D02*
X007838Y053171D01*
X007832Y053153D01*
X007823Y053135D01*
X007811Y053120D01*
X007501Y053010D02*
X007481Y053008D01*
X007463Y053002D01*
X007445Y052993D01*
X007430Y052981D01*
X007255Y052110D02*
X006635Y052110D01*
X006635Y051110D02*
X007255Y051110D01*
X007845Y051110D02*
X007845Y052110D01*
X008598Y052139D02*
X011570Y052139D01*
X011472Y052238D02*
X008597Y052238D01*
X008597Y052336D02*
X011373Y052336D01*
X011275Y052435D02*
X008597Y052435D01*
X008598Y052041D02*
X011669Y052041D01*
X011767Y051942D02*
X008598Y051942D01*
X008598Y051844D02*
X011800Y051844D01*
X011800Y051745D02*
X008598Y051745D01*
X008598Y051647D02*
X011800Y051647D01*
X011800Y051548D02*
X008599Y051548D01*
X008599Y051450D02*
X011800Y051450D01*
X011800Y051351D02*
X008599Y051351D01*
X008599Y051253D02*
X011800Y051253D01*
X011800Y051154D02*
X008599Y051154D01*
X008599Y051056D02*
X011800Y051056D01*
X011800Y050957D02*
X008600Y050957D01*
X008600Y050859D02*
X011800Y050859D01*
X011800Y050760D02*
X008600Y050760D01*
X008648Y050662D02*
X011800Y050662D01*
X011800Y050563D02*
X008746Y050563D01*
X008845Y050465D02*
X011800Y050465D01*
X011767Y050366D02*
X008943Y050366D01*
X009042Y050268D02*
X011694Y050268D01*
X011620Y050169D02*
X009140Y050169D01*
X009239Y050071D02*
X011546Y050071D01*
X012874Y053970D02*
X012894Y055509D01*
X013141Y055756D01*
X014440Y055756D01*
X014930Y055265D01*
X015430Y055265D01*
X015430Y055934D02*
X015430Y056530D01*
X019200Y058010D02*
X019335Y058144D01*
X023800Y058144D01*
X024800Y057310D02*
X024800Y056120D01*
X025060Y056120D02*
X025060Y057830D01*
X026080Y056875D02*
X026080Y056120D01*
X025830Y056120D02*
X025830Y055540D01*
X025800Y055510D01*
X025320Y055530D02*
X025320Y056120D01*
X025320Y055530D02*
X025300Y055510D01*
X025300Y054610D02*
X025800Y054610D01*
X026080Y054330D01*
X026080Y053900D01*
X026080Y053330D01*
X025830Y053200D02*
X025830Y053900D01*
X025570Y053900D02*
X025570Y052680D01*
X025320Y053330D02*
X025320Y053900D01*
X025060Y053900D02*
X025060Y054370D01*
X025300Y054610D01*
X024800Y053900D02*
X024410Y053900D01*
X024400Y053910D01*
X026340Y053900D02*
X026340Y053470D01*
X026400Y053410D01*
X026600Y053410D02*
X026600Y053900D01*
X026535Y054675D02*
X026500Y054710D01*
X026535Y054675D02*
X027300Y054675D01*
X032100Y053110D02*
X032100Y044510D01*
X029300Y041710D01*
X029300Y039110D01*
X029500Y039410D02*
X029800Y039110D01*
X029500Y039410D02*
X029500Y041610D01*
X032300Y044410D01*
X032300Y048710D01*
X032600Y049110D01*
X032600Y049615D01*
X032600Y050205D02*
X032600Y050610D01*
X033800Y050563D02*
X035454Y050563D01*
X035500Y050610D02*
X035347Y050457D01*
X034956Y050457D01*
X034909Y050410D01*
X033800Y050410D01*
X033800Y053127D01*
X034797Y054124D01*
X034900Y054210D01*
X037314Y054210D01*
X037338Y054200D01*
X037462Y054200D01*
X037486Y054210D01*
X037700Y054210D01*
X037700Y053810D01*
X037186Y053810D01*
X037163Y053865D01*
X037076Y053953D01*
X036962Y054000D01*
X036838Y054000D01*
X036724Y053953D01*
X036637Y053865D01*
X036614Y053810D01*
X035986Y053810D01*
X035962Y053820D01*
X035838Y053820D01*
X035814Y053810D01*
X035600Y053810D01*
X035500Y053710D01*
X035500Y050610D01*
X035500Y050662D02*
X033800Y050662D01*
X033800Y050760D02*
X035500Y050760D01*
X035500Y050859D02*
X033800Y050859D01*
X033800Y050957D02*
X035500Y050957D01*
X035500Y051056D02*
X033800Y051056D01*
X033800Y051154D02*
X035500Y051154D01*
X035500Y051253D02*
X033800Y051253D01*
X033800Y051351D02*
X035500Y051351D01*
X035500Y051450D02*
X033800Y051450D01*
X033800Y051548D02*
X035500Y051548D01*
X035500Y051647D02*
X033800Y051647D01*
X033800Y051745D02*
X035500Y051745D01*
X035500Y051844D02*
X033800Y051844D01*
X033800Y051942D02*
X035500Y051942D01*
X035500Y052041D02*
X033800Y052041D01*
X033800Y052139D02*
X035500Y052139D01*
X035500Y052238D02*
X033800Y052238D01*
X033800Y052336D02*
X035500Y052336D01*
X035500Y052435D02*
X033800Y052435D01*
X033800Y052533D02*
X035500Y052533D01*
X035500Y052632D02*
X033800Y052632D01*
X033800Y052730D02*
X035500Y052730D01*
X035500Y052829D02*
X033800Y052829D01*
X033800Y052927D02*
X035500Y052927D01*
X035500Y053026D02*
X033800Y053026D01*
X033800Y053124D02*
X035500Y053124D01*
X035500Y053223D02*
X033896Y053223D01*
X033994Y053321D02*
X035500Y053321D01*
X035500Y053420D02*
X034093Y053420D01*
X034191Y053518D02*
X035500Y053518D01*
X035500Y053617D02*
X034290Y053617D01*
X034388Y053715D02*
X035506Y053715D01*
X035824Y053814D02*
X034487Y053814D01*
X034585Y053912D02*
X036684Y053912D01*
X036616Y053814D02*
X035976Y053814D01*
X035900Y053510D02*
X036188Y053222D01*
X036188Y052679D01*
X035932Y052679D02*
X035331Y052679D01*
X035300Y052710D01*
X036360Y053490D02*
X036444Y053366D01*
X036444Y052679D01*
X036700Y052679D02*
X036700Y053510D01*
X036900Y053690D01*
X037116Y053912D02*
X037700Y053912D01*
X037700Y053814D02*
X037184Y053814D01*
X037200Y053910D02*
X037200Y053610D01*
X036956Y053366D01*
X036956Y052679D01*
X037212Y052679D02*
X037212Y053322D01*
X037500Y053610D01*
X038100Y053610D01*
X038400Y053310D01*
X038400Y052210D01*
X038400Y050710D02*
X038031Y050341D01*
X037468Y050341D01*
X036956Y050341D02*
X036956Y049854D01*
X037200Y049610D01*
X036900Y049310D02*
X036700Y049510D01*
X036700Y050341D01*
X036444Y050341D02*
X036364Y049554D01*
X036100Y049210D01*
X034200Y049210D01*
X033900Y048910D01*
X033700Y048910D01*
X033700Y048710D01*
X033600Y048610D01*
X033600Y043110D01*
X034100Y042610D01*
X034100Y041210D01*
X034300Y041010D01*
X034100Y040810D01*
X034100Y038410D01*
X033200Y037510D01*
X030500Y037510D01*
X030400Y037710D02*
X033100Y037710D01*
X033900Y038510D01*
X033900Y042210D01*
X033900Y042510D01*
X033400Y043010D01*
X033400Y049110D01*
X033700Y049410D01*
X036000Y049410D01*
X036148Y049618D01*
X036188Y050341D01*
X035932Y050341D02*
X035932Y049842D01*
X035800Y049710D01*
X035600Y049910D01*
X035600Y050110D01*
X035235Y050110D01*
X035355Y050465D02*
X033800Y050465D01*
X034100Y050710D02*
X034200Y050610D01*
X034500Y050610D01*
X034565Y050544D01*
X034565Y050110D01*
X034565Y051544D01*
X034300Y051810D01*
X033600Y053210D02*
X033600Y049910D01*
X033700Y049810D01*
X033400Y049110D02*
X033400Y053310D01*
X034700Y054610D01*
X036100Y054610D01*
X036188Y054698D01*
X036188Y055341D01*
X035932Y055341D02*
X035932Y054842D01*
X035568Y054842D01*
X035500Y054910D01*
X035500Y055410D01*
X035500Y056710D01*
X035300Y056910D01*
X034895Y056910D01*
X034305Y056910D02*
X033900Y056910D01*
X034935Y055410D02*
X035500Y055410D01*
X035500Y054910D02*
X033800Y054910D01*
X032100Y053110D01*
X033600Y053210D02*
X034800Y054410D01*
X036200Y054410D01*
X036444Y054654D01*
X036444Y055341D01*
X036700Y055341D02*
X036700Y054610D01*
X036956Y054754D02*
X036956Y055341D01*
X037212Y055341D02*
X037212Y054722D01*
X037200Y054710D01*
X037400Y054510D01*
X037200Y054710D02*
X037000Y054710D01*
X036956Y054754D01*
X037319Y054208D02*
X034898Y054208D01*
X034782Y054109D02*
X037700Y054109D01*
X037700Y054011D02*
X034684Y054011D01*
X036200Y057710D02*
X036188Y057722D01*
X036188Y058122D01*
X036000Y058310D01*
X035800Y058310D01*
X036320Y058430D02*
X036444Y058266D01*
X036444Y057679D01*
X036700Y057679D02*
X036700Y058310D01*
X036800Y058450D01*
X036956Y058166D02*
X037300Y058510D01*
X037300Y058910D01*
X037600Y058510D02*
X038100Y058510D01*
X038400Y058210D01*
X038400Y056910D01*
X038400Y055410D02*
X038131Y055341D01*
X037468Y055341D01*
X037481Y054208D02*
X037700Y054208D01*
X039600Y052810D02*
X039600Y052144D01*
X040100Y052710D02*
X040300Y052510D01*
X040300Y052144D01*
X040100Y052710D02*
X040100Y052810D01*
X037700Y049510D02*
X037500Y049310D01*
X036900Y049310D01*
X036743Y049184D02*
X036375Y049184D01*
X036473Y049283D02*
X036489Y049283D01*
X036481Y049291D02*
X036524Y049247D01*
X036638Y049200D01*
X036727Y049200D01*
X036817Y049110D01*
X037583Y049110D01*
X037700Y049227D01*
X037700Y048810D01*
X037038Y048810D01*
X036976Y048873D01*
X036862Y048920D01*
X036738Y048920D01*
X036624Y048873D01*
X036562Y048810D01*
X036538Y048810D01*
X036476Y048873D01*
X036362Y048920D01*
X036238Y048920D01*
X036124Y048873D01*
X036062Y048810D01*
X035900Y048810D01*
X035790Y048700D01*
X035724Y048673D01*
X035637Y048585D01*
X035610Y048520D01*
X035500Y048410D01*
X035500Y045710D01*
X035300Y045510D01*
X033800Y045510D01*
X033800Y048410D01*
X034400Y049010D01*
X036032Y049010D01*
X036044Y049001D01*
X036113Y049010D01*
X036200Y049010D01*
X036481Y049291D01*
X036276Y049086D02*
X037700Y049086D01*
X037700Y049184D02*
X037657Y049184D01*
X037700Y049227D02*
X037700Y049227D01*
X037700Y048987D02*
X034378Y048987D01*
X034279Y048889D02*
X036164Y048889D01*
X036436Y048889D02*
X036664Y048889D01*
X036936Y048889D02*
X037700Y048889D01*
X037600Y048610D02*
X037212Y048222D01*
X037212Y047679D01*
X036956Y047679D02*
X036956Y048266D01*
X037300Y048610D01*
X037300Y048910D01*
X037600Y048610D02*
X038300Y048610D01*
X038400Y048510D01*
X038400Y047110D01*
X038400Y045610D02*
X038131Y045341D01*
X037468Y045341D01*
X037212Y045341D02*
X037212Y044722D01*
X037324Y044610D01*
X037500Y044610D01*
X037300Y044410D02*
X037600Y044110D01*
X037600Y043810D01*
X037300Y043810D01*
X037200Y043710D01*
X036951Y043710D01*
X036929Y043763D01*
X036853Y043839D01*
X036754Y043880D01*
X036646Y043880D01*
X036547Y043839D01*
X036471Y043763D01*
X036430Y043664D01*
X036430Y043648D01*
X036354Y043680D01*
X036246Y043680D01*
X036147Y043639D01*
X036071Y043563D01*
X036050Y043512D01*
X036029Y043563D01*
X035953Y043639D01*
X035854Y043680D01*
X035746Y043680D01*
X035647Y043639D01*
X035571Y043563D01*
X035530Y043464D01*
X035530Y043356D01*
X035571Y043257D01*
X035647Y043181D01*
X035700Y043159D01*
X035700Y043051D01*
X035700Y043049D01*
X035700Y042679D01*
X035700Y042679D01*
X035700Y042679D01*
X035700Y042679D01*
X035700Y042309D01*
X035700Y042308D01*
X035700Y041910D01*
X035600Y041810D01*
X034800Y041810D01*
X034700Y041910D01*
X034700Y042910D01*
X034200Y043410D01*
X034200Y043984D01*
X034226Y044010D01*
X036200Y044010D01*
X036600Y044410D01*
X036618Y044410D01*
X036647Y044381D01*
X036746Y044340D01*
X036854Y044340D01*
X036953Y044381D01*
X036982Y044410D01*
X037300Y044410D01*
X037352Y044358D02*
X036897Y044358D01*
X036703Y044358D02*
X036548Y044358D01*
X036450Y044259D02*
X037450Y044259D01*
X037549Y044161D02*
X036351Y044161D01*
X036253Y044062D02*
X037600Y044062D01*
X037600Y043964D02*
X034200Y043964D01*
X034200Y043865D02*
X036611Y043865D01*
X036475Y043767D02*
X034200Y043767D01*
X034200Y043668D02*
X035719Y043668D01*
X035881Y043668D02*
X036219Y043668D01*
X036381Y043668D02*
X036432Y043668D01*
X036700Y043610D02*
X036700Y042679D01*
X036444Y042679D02*
X036444Y043266D01*
X036300Y043410D01*
X036078Y043570D02*
X036022Y043570D01*
X035800Y043410D02*
X036188Y043122D01*
X036188Y042679D01*
X035932Y042679D02*
X035369Y042679D01*
X035300Y042610D01*
X035700Y042585D02*
X034700Y042585D01*
X034700Y042683D02*
X035700Y042683D01*
X035700Y042782D02*
X034700Y042782D01*
X034700Y042880D02*
X035700Y042880D01*
X035700Y042979D02*
X034631Y042979D01*
X034532Y043077D02*
X035700Y043077D01*
X035659Y043176D02*
X034434Y043176D01*
X034335Y043274D02*
X035564Y043274D01*
X035530Y043373D02*
X034237Y043373D01*
X034200Y043471D02*
X035533Y043471D01*
X035578Y043570D02*
X034200Y043570D01*
X034000Y043310D02*
X034500Y042810D01*
X034500Y041810D01*
X035000Y041210D01*
X034700Y041110D02*
X034300Y041510D01*
X034300Y042710D01*
X033800Y043210D01*
X033800Y044210D01*
X034000Y044410D01*
X036000Y044410D01*
X036200Y044610D01*
X036200Y045329D01*
X036188Y045341D01*
X035932Y045341D02*
X035932Y044742D01*
X035760Y044730D01*
X035560Y044730D01*
X035560Y044950D01*
X035400Y045110D01*
X035035Y045110D01*
X035330Y045540D02*
X033800Y045540D01*
X033800Y045638D02*
X035429Y045638D01*
X035500Y045737D02*
X033800Y045737D01*
X033800Y045835D02*
X035500Y045835D01*
X035500Y045934D02*
X033800Y045934D01*
X033800Y046032D02*
X035500Y046032D01*
X035500Y046131D02*
X033800Y046131D01*
X033800Y046229D02*
X035500Y046229D01*
X035500Y046328D02*
X033800Y046328D01*
X033800Y046426D02*
X035500Y046426D01*
X035500Y046525D02*
X033800Y046525D01*
X033800Y046623D02*
X035500Y046623D01*
X035500Y046722D02*
X033800Y046722D01*
X033800Y046820D02*
X035500Y046820D01*
X035500Y046919D02*
X033800Y046919D01*
X033800Y047017D02*
X035500Y047017D01*
X035500Y047116D02*
X033800Y047116D01*
X033800Y047214D02*
X035500Y047214D01*
X035500Y047313D02*
X033800Y047313D01*
X033800Y047411D02*
X035500Y047411D01*
X035500Y047510D02*
X033800Y047510D01*
X033800Y047608D02*
X035500Y047608D01*
X035500Y047707D02*
X033800Y047707D01*
X033800Y047805D02*
X035500Y047805D01*
X035500Y047904D02*
X033800Y047904D01*
X033800Y048002D02*
X035500Y048002D01*
X035500Y048101D02*
X033800Y048101D01*
X033800Y048199D02*
X035500Y048199D01*
X035500Y048298D02*
X033800Y048298D01*
X033800Y048396D02*
X035500Y048396D01*
X035585Y048495D02*
X033885Y048495D01*
X033984Y048593D02*
X035645Y048593D01*
X035771Y048692D02*
X034082Y048692D01*
X034181Y048790D02*
X035881Y048790D01*
X035900Y048410D02*
X036188Y048222D01*
X036188Y047679D01*
X035932Y047679D02*
X035431Y047679D01*
X035400Y047710D01*
X036444Y048366D02*
X036300Y048610D01*
X036444Y048366D02*
X036444Y047679D01*
X036700Y047679D02*
X036700Y048510D01*
X036800Y048610D01*
X036700Y045341D02*
X036700Y044710D01*
X036800Y044610D01*
X036444Y044554D02*
X036100Y044210D01*
X034200Y044210D01*
X034000Y044010D01*
X034000Y043310D01*
X034700Y042486D02*
X035700Y042486D01*
X035700Y042388D02*
X034700Y042388D01*
X034700Y042289D02*
X035700Y042289D01*
X035700Y042191D02*
X034700Y042191D01*
X034700Y042092D02*
X035700Y042092D01*
X035700Y041994D02*
X034700Y041994D01*
X034714Y041895D02*
X035686Y041895D01*
X035932Y040341D02*
X035932Y039742D01*
X035700Y039510D01*
X035500Y039510D01*
X035435Y039575D01*
X035100Y039975D01*
X034500Y039310D02*
X034300Y039510D01*
X034300Y040510D01*
X034700Y040910D01*
X034700Y041110D01*
X033900Y042210D02*
X033500Y041810D01*
X033300Y040710D02*
X032535Y040710D01*
X032535Y039710D02*
X033300Y039710D01*
X033300Y038710D02*
X032535Y038710D01*
X032735Y037110D02*
X033400Y037110D01*
X033600Y036910D01*
X034900Y038310D02*
X034900Y038910D01*
X035000Y039010D01*
X036200Y039010D01*
X036320Y039250D01*
X036444Y039254D01*
X036444Y040341D01*
X036188Y040341D02*
X036188Y039598D01*
X035800Y039210D01*
X034500Y039210D01*
X034500Y039310D01*
X035300Y038310D02*
X035800Y038810D01*
X036400Y038810D01*
X036650Y039060D01*
X036900Y038810D01*
X037400Y038810D01*
X037500Y038910D01*
X037200Y039210D02*
X037100Y039310D01*
X037100Y039710D01*
X036956Y039854D01*
X036956Y040341D01*
X037212Y040341D02*
X037212Y039898D01*
X037500Y039610D01*
X037468Y040341D02*
X038031Y040341D01*
X038400Y040710D01*
X038400Y042210D02*
X038400Y043410D01*
X038200Y043610D01*
X037500Y043610D01*
X037212Y043322D01*
X037212Y042679D01*
X036956Y042679D02*
X036956Y043466D01*
X037200Y043710D01*
X037257Y043767D02*
X036925Y043767D01*
X036789Y043865D02*
X037600Y043865D01*
X037200Y044710D02*
X037212Y044722D01*
X037200Y044710D02*
X036956Y044954D01*
X036956Y045341D01*
X036444Y045341D02*
X036444Y044554D01*
X034365Y045110D02*
X034000Y045110D01*
X034000Y045810D01*
X034300Y046810D01*
X034365Y045110D02*
X034200Y045110D01*
X032700Y045205D02*
X032700Y045610D01*
X032700Y044615D02*
X032700Y044410D01*
X032400Y044110D01*
X032300Y044010D01*
X029700Y041510D01*
X029700Y039610D01*
X030300Y039110D01*
X030500Y038310D02*
X029600Y038310D01*
X029400Y038110D01*
X028800Y038110D01*
X028400Y037710D01*
X027500Y037710D01*
X026600Y036810D01*
X026600Y032810D01*
X026800Y033010D02*
X026800Y036710D01*
X027600Y037510D01*
X028500Y037510D01*
X028900Y037910D01*
X029500Y037910D01*
X029600Y038010D01*
X030300Y038010D01*
X030600Y038210D02*
X030500Y038310D01*
X030600Y038210D02*
X030800Y038210D01*
X030700Y037110D02*
X030600Y037010D01*
X030700Y037110D02*
X030905Y037110D01*
X031495Y037110D02*
X032065Y037110D01*
X031580Y036174D02*
X031580Y035689D01*
X031550Y035660D01*
X029800Y037710D02*
X029000Y037710D01*
X028600Y037310D01*
X027700Y037310D01*
X027000Y036610D01*
X027000Y033210D01*
X027200Y033410D02*
X027200Y036510D01*
X027800Y037110D01*
X029000Y037110D01*
X029300Y037410D01*
X027500Y038110D02*
X026200Y036810D01*
X026200Y036110D01*
X026000Y035910D01*
X025335Y035910D01*
X025374Y034810D02*
X026100Y034810D01*
X024626Y034810D02*
X024100Y034810D01*
X024100Y035410D01*
X024100Y035710D01*
X024300Y035910D01*
X024665Y035910D01*
X028600Y030010D02*
X028200Y029710D01*
X028200Y029210D01*
X028600Y030010D02*
X031500Y030010D01*
X031700Y030610D01*
X031700Y031110D01*
X032000Y031110D02*
X032000Y030510D01*
X031700Y029810D01*
X029200Y029810D01*
X029200Y029210D01*
X030595Y031115D02*
X030795Y031115D01*
X031100Y030810D01*
X029300Y033510D02*
X028900Y033510D01*
X035300Y036910D02*
X035300Y038310D01*
X035700Y038210D02*
X035800Y038110D01*
X036205Y038110D01*
X036795Y038110D02*
X036795Y037415D01*
X036800Y037410D01*
X036650Y039060D02*
X036800Y039210D01*
X036800Y039710D01*
X036700Y039810D01*
X036700Y040341D01*
X039600Y041944D02*
X039600Y042710D01*
X040100Y042710D02*
X040100Y042610D01*
X040300Y042410D01*
X040300Y041944D01*
X040300Y047744D02*
X040300Y048010D01*
X040100Y048210D01*
X040100Y048310D01*
X039600Y048310D02*
X039600Y047744D01*
X039600Y056844D02*
X039600Y057410D01*
X040100Y057410D02*
X040100Y057310D01*
X040300Y057110D01*
X040300Y056844D01*
X037600Y058510D02*
X037212Y058122D01*
X037212Y057679D01*
X036956Y057679D02*
X036956Y058166D01*
X036700Y057679D02*
X036700Y057610D01*
X009500Y056670D02*
X007280Y056670D01*
X007280Y056660D02*
X007280Y056660D01*
X007532Y056116D02*
X007530Y056114D01*
X007530Y055890D01*
X006700Y055060D01*
X006700Y054364D01*
X005965Y055053D02*
X005963Y055073D01*
X005957Y055091D01*
X005948Y055109D01*
X005936Y055124D01*
X006230Y055400D02*
X005897Y055732D01*
X005300Y055461D02*
X005302Y055441D01*
X005308Y055423D01*
X005317Y055405D01*
X005329Y055390D01*
X008230Y054010D02*
X008320Y053920D01*
X008320Y049840D01*
X007255Y050110D02*
X006635Y050110D01*
X008590Y056572D02*
X009500Y056572D01*
D54*
X010270Y055490D03*
X010270Y055100D03*
X010670Y055100D03*
X010670Y055490D03*
X011070Y055490D03*
X011070Y055100D03*
X011470Y055100D03*
X011470Y055490D03*
X011470Y054700D03*
X011070Y054700D03*
X010670Y054700D03*
X010270Y054700D03*
X011570Y054100D03*
X011570Y053600D03*
X011570Y053600D03*
X011570Y053090D03*
X012100Y053080D03*
X012090Y053600D03*
X012100Y054090D03*
X012110Y054590D03*
X015200Y052010D03*
X015200Y051010D03*
X016200Y051010D03*
X016200Y050010D03*
X017200Y050010D03*
X017200Y051010D03*
X017200Y052010D03*
X017200Y053010D03*
X017200Y054010D03*
X017200Y055010D03*
X017200Y056010D03*
X017200Y057010D03*
X017200Y058010D03*
X018200Y058010D03*
X018200Y057010D03*
X018200Y056010D03*
X018200Y055010D03*
X018200Y054010D03*
X018200Y053110D03*
X018200Y052010D03*
X018200Y051010D03*
X019200Y052010D03*
X019200Y053010D03*
X019200Y054010D03*
X019200Y055010D03*
X019200Y056010D03*
X019200Y057010D03*
X019200Y058010D03*
X020200Y058010D03*
X020200Y057010D03*
X020200Y056010D03*
X020200Y055010D03*
X020200Y054010D03*
X021200Y056010D03*
X021200Y057010D03*
X021200Y058010D03*
X022200Y058010D03*
X022200Y057010D03*
X022200Y056010D03*
X023200Y056010D03*
X025540Y057650D03*
X026640Y057650D03*
X026780Y056830D03*
X027300Y055910D03*
X025800Y054610D03*
X025800Y051410D03*
X025800Y050810D03*
X025800Y050310D03*
X026400Y050310D03*
X026400Y050810D03*
X027400Y050810D03*
X027700Y049910D03*
X028200Y049910D03*
X028900Y049510D03*
X027700Y051810D03*
X025200Y051410D03*
X025200Y050810D03*
X025200Y050310D03*
X024600Y050810D03*
X024140Y048810D03*
X022500Y047310D03*
X022500Y046910D03*
X022500Y046510D03*
X021800Y046110D03*
X021400Y046110D03*
X021000Y046110D03*
X021200Y047310D03*
X021600Y047310D03*
X022000Y047310D03*
X023500Y045410D03*
X022200Y050010D03*
X022200Y050610D03*
X022200Y051210D03*
X022200Y051810D03*
X022200Y052410D03*
X021600Y051810D03*
X021600Y051210D03*
X021600Y050610D03*
X021600Y050010D03*
X016200Y052010D03*
X016200Y053010D03*
X007680Y057800D03*
X007680Y058300D03*
X007080Y058300D03*
X007080Y057800D03*
X006730Y057260D03*
X006740Y056790D03*
X006980Y056400D03*
X006980Y056000D03*
X006480Y056000D03*
X006480Y056400D03*
X006230Y055400D03*
X006480Y057800D03*
X006480Y058300D03*
X005860Y058300D03*
X005870Y057800D03*
X004100Y057820D03*
X004120Y058260D03*
X003650Y058320D03*
X003170Y058330D03*
X003900Y054980D03*
X003890Y054380D03*
X003790Y053590D03*
X003790Y053090D03*
X003290Y053090D03*
X003290Y053590D03*
X004000Y050110D03*
X004000Y049510D03*
X003400Y049510D03*
X002800Y049510D03*
X004600Y049510D03*
X004600Y050110D03*
X005200Y050110D03*
X006460Y052920D03*
X007360Y052910D03*
X018100Y037210D03*
X017200Y035210D03*
X019100Y034910D03*
X019700Y036310D03*
X024100Y035410D03*
X026100Y034810D03*
X027500Y035010D03*
X027500Y034110D03*
X028800Y035410D03*
X029300Y035410D03*
X029300Y033510D03*
X030100Y031010D03*
X030400Y030710D03*
X031100Y030810D03*
X032300Y030310D03*
X032000Y033010D03*
X032000Y034110D03*
X033400Y034110D03*
X033400Y032910D03*
X032650Y035820D03*
X032620Y036260D03*
X031550Y035660D03*
X030260Y036750D03*
X029800Y037710D03*
X030300Y038010D03*
X030800Y038210D03*
X030300Y039110D03*
X029800Y039110D03*
X029300Y039110D03*
X029300Y037410D03*
X031700Y038010D03*
X033300Y038710D03*
X033300Y039710D03*
X033300Y040710D03*
X034300Y041010D03*
X035000Y041210D03*
X034800Y042610D03*
X034800Y043110D03*
X035300Y043110D03*
X035300Y042610D03*
X035800Y043410D03*
X036300Y043410D03*
X036700Y043610D03*
X036800Y044610D03*
X037500Y044610D03*
X037000Y046210D03*
X036700Y046510D03*
X036400Y046710D03*
X036400Y046210D03*
X037000Y046710D03*
X036800Y048610D03*
X036300Y048610D03*
X035900Y048410D03*
X034900Y048010D03*
X034900Y047410D03*
X034900Y046810D03*
X034300Y046810D03*
X034300Y047410D03*
X034300Y048010D03*
X033700Y048910D03*
X033100Y048610D03*
X033700Y049810D03*
X032600Y049110D03*
X031600Y047910D03*
X031100Y047910D03*
X031100Y047410D03*
X031600Y047410D03*
X031600Y046910D03*
X031100Y046910D03*
X031100Y044810D03*
X031300Y044410D03*
X031600Y044810D03*
X030800Y044410D03*
X030800Y043910D03*
X032400Y044110D03*
X033100Y044310D03*
X032700Y045610D03*
X034400Y043610D03*
X034900Y043610D03*
X035560Y044730D03*
X036400Y041710D03*
X036700Y041510D03*
X037000Y041710D03*
X037000Y041210D03*
X036400Y041210D03*
X035500Y039510D03*
X036320Y039250D03*
X035700Y038210D03*
X034900Y038310D03*
X034500Y039210D03*
X035300Y036910D03*
X035300Y035610D03*
X034500Y035710D03*
X034200Y036410D03*
X033600Y036910D03*
X036800Y037410D03*
X037200Y039210D03*
X039600Y042710D03*
X040100Y042710D03*
X040100Y048310D03*
X039600Y048310D03*
X037200Y049610D03*
X036700Y049510D03*
X035800Y049710D03*
X036400Y051210D03*
X036700Y051510D03*
X036400Y051710D03*
X037000Y051710D03*
X037000Y051210D03*
X036360Y053490D03*
X035900Y053510D03*
X034900Y053010D03*
X034900Y052410D03*
X034900Y051810D03*
X034300Y051810D03*
X034300Y052410D03*
X034300Y053010D03*
X033900Y054410D03*
X033900Y056910D03*
X035800Y058310D03*
X036320Y058430D03*
X036800Y058450D03*
X037000Y056710D03*
X036700Y056510D03*
X036400Y056710D03*
X036400Y056210D03*
X037000Y056210D03*
X036700Y054610D03*
X037400Y054510D03*
X036900Y053690D03*
X039600Y052810D03*
X040100Y052810D03*
X040100Y057410D03*
X039600Y057410D03*
X032600Y050610D03*
X031600Y051910D03*
X031600Y052410D03*
X031600Y052910D03*
X031100Y052910D03*
X031100Y052410D03*
X031100Y051910D03*
X030600Y057710D03*
X030600Y058510D03*
X026450Y030760D03*
X026450Y030260D03*
D55*
X019456Y040565D02*
X010032Y040565D01*
X010103Y040517D02*
X019407Y040517D01*
X019359Y040468D02*
X010174Y040468D01*
X010245Y040420D02*
X019310Y040420D01*
X019262Y040371D02*
X010316Y040371D01*
X010388Y040323D02*
X019213Y040323D01*
X019165Y040274D02*
X010459Y040274D01*
X010530Y040226D02*
X019116Y040226D01*
X019100Y040210D02*
X010700Y040110D01*
X008500Y041610D01*
X007200Y041610D01*
X006400Y042410D01*
X006400Y044210D01*
X004700Y045910D01*
X004700Y047510D01*
X005400Y048210D01*
X007078Y048210D01*
X006907Y048039D01*
X006765Y047696D01*
X006765Y047324D01*
X006907Y046980D01*
X007170Y046717D01*
X007514Y046575D01*
X007886Y046575D01*
X008100Y046663D01*
X008100Y046510D01*
X008500Y046110D01*
X010200Y044510D01*
X018200Y044510D01*
X018600Y044810D01*
X021800Y044810D01*
X021800Y043790D01*
X022172Y043797D01*
X022227Y043743D01*
X022773Y043743D01*
X022882Y043851D01*
X022882Y044438D01*
X022810Y044510D01*
X022882Y044582D01*
X022882Y044748D01*
X023920Y044730D01*
X024700Y045510D01*
X024700Y046010D01*
X023820Y046010D01*
X023460Y046370D01*
X023460Y048510D01*
X023963Y048510D01*
X024071Y048465D01*
X024209Y048465D01*
X024317Y048510D01*
X030000Y048510D01*
X030000Y054810D01*
X030703Y055485D01*
X030870Y055317D01*
X031214Y055175D01*
X031586Y055175D01*
X031930Y055317D01*
X032193Y055580D01*
X032335Y055924D01*
X032335Y056296D01*
X032193Y056639D01*
X032052Y056780D01*
X032500Y057210D01*
X032800Y057510D01*
X032800Y059080D01*
X035220Y059080D01*
X035100Y058510D01*
X035100Y057410D01*
X034400Y057410D01*
X034400Y057252D01*
X034071Y057252D01*
X034043Y057224D01*
X033969Y057255D01*
X033831Y057255D01*
X033705Y057202D01*
X033608Y057105D01*
X033555Y056978D01*
X033555Y056841D01*
X033608Y056714D01*
X033705Y056617D01*
X033831Y056565D01*
X033969Y056565D01*
X034043Y056595D01*
X034071Y056567D01*
X034400Y056567D01*
X034400Y055210D01*
X033600Y055210D01*
X031900Y053310D01*
X031900Y053242D01*
X031865Y053207D01*
X031865Y053203D01*
X031862Y053200D01*
X031865Y053106D01*
X031865Y044607D01*
X030668Y043410D01*
X029018Y043410D01*
X029055Y043499D01*
X029055Y043720D01*
X028971Y043924D01*
X028814Y044080D01*
X028610Y044165D01*
X028390Y044165D01*
X028186Y044080D01*
X028029Y043924D01*
X027945Y043720D01*
X027945Y043499D01*
X027989Y043394D01*
X026700Y041510D01*
X020400Y041510D01*
X019100Y040210D01*
X019504Y040614D02*
X009961Y040614D01*
X009890Y040662D02*
X019553Y040662D01*
X019601Y040711D02*
X009818Y040711D01*
X009747Y040759D02*
X019650Y040759D01*
X019698Y040808D02*
X009676Y040808D01*
X009605Y040856D02*
X019747Y040856D01*
X019795Y040905D02*
X009534Y040905D01*
X009463Y040953D02*
X019844Y040953D01*
X019892Y041002D02*
X009392Y041002D01*
X009321Y041050D02*
X019941Y041050D01*
X019989Y041099D02*
X009249Y041099D01*
X009178Y041147D02*
X020038Y041147D01*
X020086Y041196D02*
X009107Y041196D01*
X009036Y041244D02*
X020135Y041244D01*
X020183Y041293D02*
X008965Y041293D01*
X008894Y041341D02*
X020232Y041341D01*
X020280Y041390D02*
X008823Y041390D01*
X008751Y041438D02*
X020329Y041438D01*
X020377Y041487D02*
X008680Y041487D01*
X008609Y041535D02*
X026717Y041535D01*
X026751Y041584D02*
X008538Y041584D01*
X007177Y041632D02*
X026784Y041632D01*
X026817Y041681D02*
X007129Y041681D01*
X007080Y041729D02*
X026850Y041729D01*
X026883Y041778D02*
X012693Y041778D01*
X012686Y041775D02*
X013030Y041917D01*
X013293Y042180D01*
X013435Y042524D01*
X013435Y042896D01*
X013293Y043239D01*
X013030Y043502D01*
X012686Y043645D01*
X012314Y043645D01*
X011970Y043502D01*
X011707Y043239D01*
X011565Y042896D01*
X011565Y042524D01*
X011707Y042180D01*
X011970Y041917D01*
X012314Y041775D01*
X012686Y041775D01*
X012810Y041826D02*
X026917Y041826D01*
X026950Y041875D02*
X012928Y041875D01*
X013036Y041923D02*
X026983Y041923D01*
X027016Y041972D02*
X013084Y041972D01*
X013133Y042020D02*
X027049Y042020D01*
X027083Y042069D02*
X013181Y042069D01*
X013230Y042117D02*
X027116Y042117D01*
X027149Y042166D02*
X013278Y042166D01*
X013307Y042214D02*
X027182Y042214D01*
X027215Y042263D02*
X013327Y042263D01*
X013347Y042311D02*
X027248Y042311D01*
X027282Y042360D02*
X013367Y042360D01*
X013387Y042408D02*
X027315Y042408D01*
X027348Y042457D02*
X013407Y042457D01*
X013427Y042505D02*
X027381Y042505D01*
X027414Y042554D02*
X013435Y042554D01*
X013435Y042602D02*
X027448Y042602D01*
X027481Y042651D02*
X013435Y042651D01*
X013435Y042699D02*
X027514Y042699D01*
X027547Y042748D02*
X013435Y042748D01*
X013435Y042796D02*
X027580Y042796D01*
X027613Y042845D02*
X013435Y042845D01*
X013435Y042893D02*
X027647Y042893D01*
X027680Y042942D02*
X013416Y042942D01*
X013396Y042990D02*
X027713Y042990D01*
X027746Y043039D02*
X013376Y043039D01*
X013356Y043087D02*
X027779Y043087D01*
X027813Y043136D02*
X013336Y043136D01*
X013315Y043184D02*
X027846Y043184D01*
X027879Y043233D02*
X013295Y043233D01*
X013251Y043281D02*
X027912Y043281D01*
X027945Y043330D02*
X013202Y043330D01*
X013154Y043378D02*
X027979Y043378D01*
X027975Y043427D02*
X013105Y043427D01*
X013057Y043475D02*
X027955Y043475D01*
X027945Y043524D02*
X012978Y043524D01*
X012861Y043572D02*
X027945Y043572D01*
X027945Y043621D02*
X012744Y043621D01*
X012256Y043621D02*
X006400Y043621D01*
X006400Y043669D02*
X027945Y043669D01*
X027945Y043718D02*
X006400Y043718D01*
X006400Y043766D02*
X022203Y043766D01*
X021800Y043815D02*
X006400Y043815D01*
X006400Y043863D02*
X021800Y043863D01*
X021800Y043912D02*
X006400Y043912D01*
X006400Y043960D02*
X021800Y043960D01*
X021800Y044009D02*
X006400Y044009D01*
X006400Y044057D02*
X021800Y044057D01*
X021800Y044106D02*
X006400Y044106D01*
X006400Y044154D02*
X021800Y044154D01*
X021800Y044203D02*
X006400Y044203D01*
X006358Y044251D02*
X021800Y044251D01*
X021800Y044300D02*
X006310Y044300D01*
X006261Y044348D02*
X021800Y044348D01*
X021800Y044397D02*
X006213Y044397D01*
X006164Y044445D02*
X021800Y044445D01*
X021800Y044494D02*
X006116Y044494D01*
X006067Y044542D02*
X010165Y044542D01*
X010114Y044591D02*
X006019Y044591D01*
X005970Y044639D02*
X010062Y044639D01*
X010011Y044688D02*
X005922Y044688D01*
X005873Y044736D02*
X009959Y044736D01*
X009908Y044785D02*
X005825Y044785D01*
X005776Y044833D02*
X009856Y044833D01*
X009805Y044882D02*
X005728Y044882D01*
X005679Y044930D02*
X009753Y044930D01*
X009702Y044979D02*
X005631Y044979D01*
X005582Y045027D02*
X009650Y045027D01*
X009599Y045076D02*
X005534Y045076D01*
X005485Y045124D02*
X009547Y045124D01*
X009495Y045173D02*
X005437Y045173D01*
X005388Y045221D02*
X009444Y045221D01*
X009392Y045270D02*
X005340Y045270D01*
X005291Y045318D02*
X009341Y045318D01*
X009289Y045367D02*
X005243Y045367D01*
X005194Y045415D02*
X009238Y045415D01*
X009186Y045464D02*
X005146Y045464D01*
X005097Y045512D02*
X009135Y045512D01*
X009083Y045561D02*
X005049Y045561D01*
X005000Y045609D02*
X009032Y045609D01*
X008980Y045658D02*
X004952Y045658D01*
X004903Y045706D02*
X008929Y045706D01*
X008877Y045755D02*
X004855Y045755D01*
X004806Y045803D02*
X008826Y045803D01*
X008774Y045852D02*
X004758Y045852D01*
X004709Y045900D02*
X008722Y045900D01*
X008671Y045949D02*
X004700Y045949D01*
X004700Y045997D02*
X008619Y045997D01*
X008568Y046046D02*
X004700Y046046D01*
X004700Y046094D02*
X008516Y046094D01*
X008467Y046143D02*
X004700Y046143D01*
X004700Y046191D02*
X008418Y046191D01*
X008370Y046240D02*
X004700Y046240D01*
X004700Y046288D02*
X008321Y046288D01*
X008273Y046337D02*
X004700Y046337D01*
X004700Y046385D02*
X008224Y046385D01*
X008176Y046434D02*
X004700Y046434D01*
X004700Y046482D02*
X008127Y046482D01*
X008100Y046531D02*
X004700Y046531D01*
X004700Y046579D02*
X007503Y046579D01*
X007386Y046628D02*
X004700Y046628D01*
X004700Y046676D02*
X007269Y046676D01*
X007163Y046725D02*
X004700Y046725D01*
X004700Y046773D02*
X007114Y046773D01*
X007066Y046822D02*
X004700Y046822D01*
X004700Y046870D02*
X007017Y046870D01*
X006969Y046919D02*
X004700Y046919D01*
X004700Y046967D02*
X006920Y046967D01*
X006893Y047016D02*
X004700Y047016D01*
X004700Y047064D02*
X006872Y047064D01*
X006852Y047113D02*
X004700Y047113D01*
X004700Y047161D02*
X006832Y047161D01*
X006812Y047210D02*
X004700Y047210D01*
X004700Y047258D02*
X006792Y047258D01*
X006772Y047307D02*
X004700Y047307D01*
X004700Y047355D02*
X006765Y047355D01*
X006765Y047404D02*
X004700Y047404D01*
X004700Y047452D02*
X006765Y047452D01*
X006765Y047501D02*
X004700Y047501D01*
X004740Y047549D02*
X006765Y047549D01*
X006765Y047598D02*
X004788Y047598D01*
X004837Y047646D02*
X006765Y047646D01*
X006765Y047695D02*
X004885Y047695D01*
X004934Y047743D02*
X006785Y047743D01*
X006805Y047792D02*
X004982Y047792D01*
X005031Y047840D02*
X006825Y047840D01*
X006845Y047889D02*
X005079Y047889D01*
X005128Y047937D02*
X006865Y047937D01*
X006885Y047986D02*
X005176Y047986D01*
X005225Y048034D02*
X006905Y048034D01*
X006951Y048083D02*
X005273Y048083D01*
X005322Y048131D02*
X006999Y048131D01*
X007048Y048180D02*
X005370Y048180D01*
X007897Y046579D02*
X008100Y046579D01*
X008100Y046628D02*
X008014Y046628D01*
X008540Y046670D02*
X008540Y047095D01*
X008635Y047324D01*
X008635Y047696D01*
X008540Y047925D01*
X008540Y049728D01*
X008555Y049743D01*
X008555Y050629D01*
X011840Y050370D01*
X011700Y050010D01*
X011700Y048510D01*
X017700Y048510D01*
X017700Y045010D01*
X010200Y045010D01*
X008540Y046670D01*
X008540Y046676D02*
X017700Y046676D01*
X017700Y046628D02*
X008582Y046628D01*
X008630Y046579D02*
X017700Y046579D01*
X017700Y046531D02*
X008679Y046531D01*
X008727Y046482D02*
X017700Y046482D01*
X017700Y046434D02*
X008776Y046434D01*
X008824Y046385D02*
X017700Y046385D01*
X017700Y046337D02*
X008873Y046337D01*
X008921Y046288D02*
X017700Y046288D01*
X017700Y046240D02*
X008970Y046240D01*
X009018Y046191D02*
X017700Y046191D01*
X017700Y046143D02*
X009067Y046143D01*
X009115Y046094D02*
X017700Y046094D01*
X017700Y046046D02*
X009164Y046046D01*
X009212Y045997D02*
X017700Y045997D01*
X017700Y045949D02*
X009261Y045949D01*
X009309Y045900D02*
X017700Y045900D01*
X017700Y045852D02*
X009358Y045852D01*
X009406Y045803D02*
X017700Y045803D01*
X017700Y045755D02*
X009455Y045755D01*
X009503Y045706D02*
X017700Y045706D01*
X017700Y045658D02*
X009552Y045658D01*
X009600Y045609D02*
X017700Y045609D01*
X017700Y045561D02*
X009649Y045561D01*
X009697Y045512D02*
X017700Y045512D01*
X017700Y045464D02*
X009746Y045464D01*
X009794Y045415D02*
X017700Y045415D01*
X017700Y045367D02*
X009843Y045367D01*
X009891Y045318D02*
X017700Y045318D01*
X017700Y045270D02*
X009940Y045270D01*
X009988Y045221D02*
X017700Y045221D01*
X017700Y045173D02*
X010037Y045173D01*
X010085Y045124D02*
X017700Y045124D01*
X017700Y045076D02*
X010134Y045076D01*
X010182Y045027D02*
X017700Y045027D01*
X018243Y044542D02*
X021800Y044542D01*
X021800Y044591D02*
X018308Y044591D01*
X018373Y044639D02*
X021800Y044639D01*
X021800Y044688D02*
X018437Y044688D01*
X018502Y044736D02*
X021800Y044736D01*
X021800Y044785D02*
X018567Y044785D01*
X017700Y046725D02*
X008540Y046725D01*
X008540Y046773D02*
X017700Y046773D01*
X017700Y046822D02*
X008540Y046822D01*
X008540Y046870D02*
X017700Y046870D01*
X017700Y046919D02*
X008540Y046919D01*
X008540Y046967D02*
X017700Y046967D01*
X017700Y047016D02*
X008540Y047016D01*
X008540Y047064D02*
X017700Y047064D01*
X017700Y047113D02*
X008548Y047113D01*
X008568Y047161D02*
X017700Y047161D01*
X017700Y047210D02*
X008588Y047210D01*
X008608Y047258D02*
X017700Y047258D01*
X017700Y047307D02*
X008628Y047307D01*
X008635Y047355D02*
X017700Y047355D01*
X017700Y047404D02*
X008635Y047404D01*
X008635Y047452D02*
X017700Y047452D01*
X017700Y047501D02*
X008635Y047501D01*
X008635Y047549D02*
X017700Y047549D01*
X017700Y047598D02*
X008635Y047598D01*
X008635Y047646D02*
X017700Y047646D01*
X017700Y047695D02*
X008635Y047695D01*
X008615Y047743D02*
X017700Y047743D01*
X017700Y047792D02*
X008595Y047792D01*
X008575Y047840D02*
X017700Y047840D01*
X017700Y047889D02*
X008555Y047889D01*
X008540Y047937D02*
X017700Y047937D01*
X017700Y047986D02*
X008540Y047986D01*
X008540Y048034D02*
X017700Y048034D01*
X017700Y048083D02*
X008540Y048083D01*
X008540Y048131D02*
X017700Y048131D01*
X017700Y048180D02*
X008540Y048180D01*
X008540Y048228D02*
X017700Y048228D01*
X017700Y048277D02*
X008540Y048277D01*
X008540Y048325D02*
X017700Y048325D01*
X017700Y048374D02*
X008540Y048374D01*
X008540Y048422D02*
X017700Y048422D01*
X017700Y048471D02*
X008540Y048471D01*
X008540Y048519D02*
X011700Y048519D01*
X011700Y048568D02*
X008540Y048568D01*
X008540Y048616D02*
X011700Y048616D01*
X011700Y048665D02*
X008540Y048665D01*
X008540Y048713D02*
X011700Y048713D01*
X011700Y048762D02*
X008540Y048762D01*
X008540Y048810D02*
X011700Y048810D01*
X011700Y048859D02*
X008540Y048859D01*
X008540Y048907D02*
X011700Y048907D01*
X011700Y048956D02*
X008540Y048956D01*
X008540Y049004D02*
X011700Y049004D01*
X011700Y049053D02*
X008540Y049053D01*
X008540Y049101D02*
X011700Y049101D01*
X011700Y049150D02*
X008540Y049150D01*
X008540Y049198D02*
X011700Y049198D01*
X011700Y049247D02*
X008540Y049247D01*
X008540Y049295D02*
X011700Y049295D01*
X011700Y049344D02*
X008540Y049344D01*
X008540Y049392D02*
X011700Y049392D01*
X011700Y049441D02*
X008540Y049441D01*
X008540Y049489D02*
X011700Y049489D01*
X011700Y049538D02*
X008540Y049538D01*
X008540Y049586D02*
X011700Y049586D01*
X011700Y049635D02*
X008540Y049635D01*
X008540Y049683D02*
X011700Y049683D01*
X011700Y049732D02*
X008544Y049732D01*
X008555Y049780D02*
X011700Y049780D01*
X011700Y049829D02*
X008555Y049829D01*
X008555Y049877D02*
X011700Y049877D01*
X011700Y049926D02*
X008555Y049926D01*
X008555Y049974D02*
X011700Y049974D01*
X011705Y050023D02*
X008555Y050023D01*
X008555Y050071D02*
X011724Y050071D01*
X011743Y050120D02*
X008555Y050120D01*
X008555Y050168D02*
X011762Y050168D01*
X011781Y050217D02*
X008555Y050217D01*
X008555Y050265D02*
X011799Y050265D01*
X011818Y050314D02*
X008555Y050314D01*
X008555Y050362D02*
X011837Y050362D01*
X012200Y050362D02*
X018553Y050362D01*
X018504Y050314D02*
X012200Y050314D01*
X012200Y050265D02*
X018456Y050265D01*
X018407Y050217D02*
X012200Y050217D01*
X012200Y050168D02*
X018359Y050168D01*
X018310Y050120D02*
X012200Y050120D01*
X012200Y050071D02*
X018262Y050071D01*
X018213Y050023D02*
X012200Y050023D01*
X012200Y049974D02*
X018165Y049974D01*
X018116Y049926D02*
X012200Y049926D01*
X012200Y049877D02*
X018068Y049877D01*
X018019Y049829D02*
X012200Y049829D01*
X012200Y049780D02*
X017971Y049780D01*
X017922Y049732D02*
X012200Y049732D01*
X012200Y049683D02*
X017874Y049683D01*
X017825Y049635D02*
X012200Y049635D01*
X012200Y049586D02*
X017777Y049586D01*
X017728Y049538D02*
X012200Y049538D01*
X012200Y049489D02*
X017680Y049489D01*
X017631Y049441D02*
X012200Y049441D01*
X012200Y049392D02*
X017583Y049392D01*
X017534Y049344D02*
X012200Y049344D01*
X012200Y049295D02*
X017486Y049295D01*
X017437Y049247D02*
X012200Y049247D01*
X012200Y049198D02*
X017389Y049198D01*
X017340Y049150D02*
X012200Y049150D01*
X012200Y049101D02*
X017292Y049101D01*
X017243Y049053D02*
X012200Y049053D01*
X012200Y049010D02*
X012200Y052010D01*
X012700Y052510D01*
X014300Y052510D01*
X016300Y054510D01*
X016300Y058510D01*
X023100Y058510D01*
X023300Y058310D01*
X023300Y056810D01*
X024500Y056810D01*
X024400Y056710D01*
X024400Y055310D01*
X024100Y055010D01*
X024100Y054510D01*
X021300Y054510D01*
X020200Y053410D01*
X020200Y052010D01*
X017200Y049010D01*
X012200Y049010D01*
X012200Y050411D02*
X018601Y050411D01*
X018650Y050459D02*
X012200Y050459D01*
X012200Y050508D02*
X018698Y050508D01*
X018747Y050556D02*
X012200Y050556D01*
X012200Y050605D02*
X018795Y050605D01*
X018844Y050653D02*
X012200Y050653D01*
X012200Y050702D02*
X018892Y050702D01*
X018941Y050750D02*
X012200Y050750D01*
X012200Y050799D02*
X018989Y050799D01*
X019038Y050847D02*
X012200Y050847D01*
X012200Y050896D02*
X019086Y050896D01*
X019135Y050944D02*
X012200Y050944D01*
X012200Y050993D02*
X019183Y050993D01*
X019232Y051041D02*
X012200Y051041D01*
X012200Y051090D02*
X019280Y051090D01*
X019329Y051138D02*
X012200Y051138D01*
X012200Y051187D02*
X019377Y051187D01*
X019426Y051235D02*
X012200Y051235D01*
X012200Y051284D02*
X019474Y051284D01*
X019523Y051332D02*
X012200Y051332D01*
X012200Y051381D02*
X019571Y051381D01*
X019620Y051429D02*
X012200Y051429D01*
X012200Y051478D02*
X019668Y051478D01*
X019717Y051526D02*
X012200Y051526D01*
X012200Y051575D02*
X019765Y051575D01*
X019814Y051623D02*
X012200Y051623D01*
X012200Y051672D02*
X019862Y051672D01*
X019911Y051720D02*
X012200Y051720D01*
X012200Y051769D02*
X019959Y051769D01*
X020008Y051817D02*
X012200Y051817D01*
X012200Y051866D02*
X020056Y051866D01*
X020105Y051914D02*
X012200Y051914D01*
X012200Y051963D02*
X020153Y051963D01*
X020200Y052011D02*
X012202Y052011D01*
X012250Y052060D02*
X020200Y052060D01*
X020200Y052108D02*
X012299Y052108D01*
X012347Y052157D02*
X020200Y052157D01*
X020200Y052205D02*
X012396Y052205D01*
X012444Y052254D02*
X020200Y052254D01*
X020200Y052302D02*
X012493Y052302D01*
X012541Y052351D02*
X020200Y052351D01*
X020200Y052399D02*
X012590Y052399D01*
X012638Y052448D02*
X020200Y052448D01*
X020200Y052496D02*
X012687Y052496D01*
X011318Y050411D02*
X008555Y050411D01*
X008555Y050459D02*
X010703Y050459D01*
X010087Y050508D02*
X008555Y050508D01*
X008555Y050556D02*
X009471Y050556D01*
X008856Y050605D02*
X008555Y050605D01*
X006400Y043572D02*
X012139Y043572D01*
X012022Y043524D02*
X006400Y043524D01*
X006400Y043475D02*
X011943Y043475D01*
X011895Y043427D02*
X006400Y043427D01*
X006400Y043378D02*
X011846Y043378D01*
X011798Y043330D02*
X006400Y043330D01*
X006400Y043281D02*
X011749Y043281D01*
X011705Y043233D02*
X006400Y043233D01*
X006400Y043184D02*
X011685Y043184D01*
X011664Y043136D02*
X006400Y043136D01*
X006400Y043087D02*
X011644Y043087D01*
X011624Y043039D02*
X006400Y043039D01*
X006400Y042990D02*
X011604Y042990D01*
X011584Y042942D02*
X006400Y042942D01*
X006400Y042893D02*
X011565Y042893D01*
X011565Y042845D02*
X006400Y042845D01*
X006400Y042796D02*
X011565Y042796D01*
X011565Y042748D02*
X006400Y042748D01*
X006400Y042699D02*
X011565Y042699D01*
X011565Y042651D02*
X006400Y042651D01*
X006400Y042602D02*
X011565Y042602D01*
X011565Y042554D02*
X006400Y042554D01*
X006400Y042505D02*
X011573Y042505D01*
X011593Y042457D02*
X006400Y042457D01*
X006401Y042408D02*
X011613Y042408D01*
X011633Y042360D02*
X006450Y042360D01*
X006498Y042311D02*
X011653Y042311D01*
X011673Y042263D02*
X006547Y042263D01*
X006595Y042214D02*
X011693Y042214D01*
X011722Y042166D02*
X006644Y042166D01*
X006692Y042117D02*
X011770Y042117D01*
X011819Y042069D02*
X006741Y042069D01*
X006789Y042020D02*
X011867Y042020D01*
X011916Y041972D02*
X006838Y041972D01*
X006886Y041923D02*
X011964Y041923D01*
X012072Y041875D02*
X006935Y041875D01*
X006983Y041826D02*
X012190Y041826D01*
X012307Y041778D02*
X007032Y041778D01*
X010601Y040177D02*
X016375Y040177D01*
X012301Y040129D02*
X010672Y040129D01*
X014335Y052545D02*
X020200Y052545D01*
X020200Y052593D02*
X014384Y052593D01*
X014432Y052642D02*
X020200Y052642D01*
X020200Y052690D02*
X014481Y052690D01*
X014529Y052739D02*
X020200Y052739D01*
X020200Y052787D02*
X014578Y052787D01*
X014626Y052836D02*
X020200Y052836D01*
X020200Y052884D02*
X014675Y052884D01*
X014723Y052933D02*
X020200Y052933D01*
X020200Y052981D02*
X014772Y052981D01*
X014820Y053030D02*
X020200Y053030D01*
X020200Y053078D02*
X014869Y053078D01*
X014917Y053127D02*
X020200Y053127D01*
X020200Y053175D02*
X014966Y053175D01*
X015014Y053224D02*
X020200Y053224D01*
X020200Y053272D02*
X015063Y053272D01*
X015111Y053321D02*
X020200Y053321D01*
X020200Y053369D02*
X015160Y053369D01*
X015208Y053418D02*
X020208Y053418D01*
X020257Y053466D02*
X015257Y053466D01*
X015305Y053515D02*
X020305Y053515D01*
X020354Y053563D02*
X015354Y053563D01*
X015402Y053612D02*
X020402Y053612D01*
X020451Y053660D02*
X015451Y053660D01*
X015499Y053709D02*
X020499Y053709D01*
X020548Y053757D02*
X015548Y053757D01*
X015596Y053806D02*
X020596Y053806D01*
X020645Y053854D02*
X015645Y053854D01*
X015693Y053903D02*
X020693Y053903D01*
X020742Y053951D02*
X015742Y053951D01*
X015790Y054000D02*
X020790Y054000D01*
X020839Y054048D02*
X015839Y054048D01*
X015887Y054097D02*
X020887Y054097D01*
X020936Y054145D02*
X015936Y054145D01*
X015984Y054194D02*
X020984Y054194D01*
X021033Y054242D02*
X016033Y054242D01*
X016081Y054291D02*
X021081Y054291D01*
X021130Y054339D02*
X016130Y054339D01*
X016178Y054388D02*
X021178Y054388D01*
X021227Y054436D02*
X016227Y054436D01*
X016275Y054485D02*
X021275Y054485D01*
X023300Y056813D02*
X016300Y056813D01*
X016300Y056861D02*
X023300Y056861D01*
X023300Y056910D02*
X016300Y056910D01*
X016300Y056958D02*
X023300Y056958D01*
X023300Y057007D02*
X016300Y057007D01*
X016300Y057055D02*
X023300Y057055D01*
X023300Y057104D02*
X016300Y057104D01*
X016300Y057152D02*
X023300Y057152D01*
X023300Y057201D02*
X016300Y057201D01*
X016300Y057249D02*
X023300Y057249D01*
X023300Y057298D02*
X016300Y057298D01*
X016300Y057346D02*
X023300Y057346D01*
X023300Y057395D02*
X016300Y057395D01*
X016300Y057443D02*
X023300Y057443D01*
X023300Y057492D02*
X016300Y057492D01*
X016300Y057540D02*
X023300Y057540D01*
X023300Y057589D02*
X016300Y057589D01*
X016300Y057637D02*
X023300Y057637D01*
X023300Y057686D02*
X016300Y057686D01*
X016300Y057734D02*
X023300Y057734D01*
X023300Y057783D02*
X016300Y057783D01*
X016300Y057831D02*
X023300Y057831D01*
X023300Y057880D02*
X016300Y057880D01*
X016300Y057928D02*
X023300Y057928D01*
X023300Y057977D02*
X016300Y057977D01*
X016300Y058025D02*
X023300Y058025D01*
X023300Y058074D02*
X016300Y058074D01*
X016300Y058122D02*
X023300Y058122D01*
X023300Y058171D02*
X016300Y058171D01*
X016300Y058219D02*
X023300Y058219D01*
X023300Y058268D02*
X016300Y058268D01*
X016300Y058316D02*
X023293Y058316D01*
X023245Y058365D02*
X016300Y058365D01*
X016300Y058413D02*
X023196Y058413D01*
X023148Y058462D02*
X016300Y058462D01*
X016300Y056764D02*
X024455Y056764D01*
X024406Y056716D02*
X016300Y056716D01*
X016300Y056667D02*
X024400Y056667D01*
X024400Y056619D02*
X016300Y056619D01*
X016300Y056570D02*
X024400Y056570D01*
X024400Y056522D02*
X016300Y056522D01*
X016300Y056473D02*
X024400Y056473D01*
X024400Y056425D02*
X016300Y056425D01*
X016300Y056376D02*
X024400Y056376D01*
X024400Y056328D02*
X016300Y056328D01*
X016300Y056279D02*
X024400Y056279D01*
X024400Y056231D02*
X016300Y056231D01*
X016300Y056182D02*
X024400Y056182D01*
X024400Y056134D02*
X016300Y056134D01*
X016300Y056085D02*
X024400Y056085D01*
X024400Y056037D02*
X016300Y056037D01*
X016300Y055988D02*
X024400Y055988D01*
X024400Y055940D02*
X016300Y055940D01*
X016300Y055891D02*
X024400Y055891D01*
X024400Y055843D02*
X016300Y055843D01*
X016300Y055794D02*
X024400Y055794D01*
X024400Y055746D02*
X016300Y055746D01*
X016300Y055697D02*
X024400Y055697D01*
X024400Y055649D02*
X016300Y055649D01*
X016300Y055600D02*
X024400Y055600D01*
X024400Y055552D02*
X016300Y055552D01*
X016300Y055503D02*
X024400Y055503D01*
X024400Y055455D02*
X016300Y055455D01*
X016300Y055406D02*
X024400Y055406D01*
X024400Y055358D02*
X016300Y055358D01*
X016300Y055309D02*
X024400Y055309D01*
X024351Y055261D02*
X016300Y055261D01*
X016300Y055212D02*
X024303Y055212D01*
X024254Y055164D02*
X016300Y055164D01*
X016300Y055115D02*
X024206Y055115D01*
X024157Y055067D02*
X016300Y055067D01*
X016300Y055018D02*
X024109Y055018D01*
X024100Y054970D02*
X016300Y054970D01*
X016300Y054921D02*
X024100Y054921D01*
X024100Y054873D02*
X016300Y054873D01*
X016300Y054824D02*
X024100Y054824D01*
X024100Y054776D02*
X016300Y054776D01*
X016300Y054727D02*
X024100Y054727D01*
X024100Y054679D02*
X016300Y054679D01*
X016300Y054630D02*
X024100Y054630D01*
X024100Y054582D02*
X016300Y054582D01*
X016300Y054533D02*
X024100Y054533D01*
X024057Y048471D02*
X023460Y048471D01*
X023460Y048422D02*
X031865Y048422D01*
X031865Y048374D02*
X023460Y048374D01*
X023460Y048325D02*
X031865Y048325D01*
X031865Y048277D02*
X023460Y048277D01*
X023460Y048228D02*
X031865Y048228D01*
X031865Y048180D02*
X023460Y048180D01*
X023460Y048131D02*
X031865Y048131D01*
X031865Y048083D02*
X023460Y048083D01*
X023460Y048034D02*
X031865Y048034D01*
X031865Y047986D02*
X023460Y047986D01*
X023460Y047937D02*
X031865Y047937D01*
X031865Y047889D02*
X023460Y047889D01*
X023460Y047840D02*
X031865Y047840D01*
X031865Y047792D02*
X023460Y047792D01*
X023460Y047743D02*
X031865Y047743D01*
X031865Y047695D02*
X023460Y047695D01*
X023460Y047646D02*
X031865Y047646D01*
X031865Y047598D02*
X023460Y047598D01*
X023460Y047549D02*
X031865Y047549D01*
X031865Y047501D02*
X023460Y047501D01*
X023460Y047452D02*
X031865Y047452D01*
X031865Y047404D02*
X023460Y047404D01*
X023460Y047355D02*
X031865Y047355D01*
X031865Y047307D02*
X023460Y047307D01*
X023460Y047258D02*
X031865Y047258D01*
X031865Y047210D02*
X023460Y047210D01*
X023460Y047161D02*
X031865Y047161D01*
X031865Y047113D02*
X023460Y047113D01*
X023460Y047064D02*
X031865Y047064D01*
X031865Y047016D02*
X023460Y047016D01*
X023460Y046967D02*
X031865Y046967D01*
X031865Y046919D02*
X023460Y046919D01*
X023460Y046870D02*
X031865Y046870D01*
X031865Y046822D02*
X023460Y046822D01*
X023460Y046773D02*
X031865Y046773D01*
X031865Y046725D02*
X023460Y046725D01*
X023460Y046676D02*
X031865Y046676D01*
X031865Y046628D02*
X023460Y046628D01*
X023460Y046579D02*
X031865Y046579D01*
X031865Y046531D02*
X023460Y046531D01*
X023460Y046482D02*
X031865Y046482D01*
X031865Y046434D02*
X023460Y046434D01*
X023460Y046385D02*
X031865Y046385D01*
X031865Y046337D02*
X023493Y046337D01*
X023541Y046288D02*
X031865Y046288D01*
X031865Y046240D02*
X023590Y046240D01*
X023638Y046191D02*
X031865Y046191D01*
X031865Y046143D02*
X023687Y046143D01*
X023735Y046094D02*
X031865Y046094D01*
X031865Y046046D02*
X023784Y046046D01*
X024700Y045997D02*
X031865Y045997D01*
X031865Y045949D02*
X024700Y045949D01*
X024700Y045900D02*
X031865Y045900D01*
X031865Y045852D02*
X024700Y045852D01*
X024700Y045803D02*
X031865Y045803D01*
X031865Y045755D02*
X024700Y045755D01*
X024700Y045706D02*
X031865Y045706D01*
X031865Y045658D02*
X024700Y045658D01*
X024700Y045609D02*
X031865Y045609D01*
X031865Y045561D02*
X024700Y045561D01*
X024700Y045512D02*
X031865Y045512D01*
X031865Y045464D02*
X024654Y045464D01*
X024606Y045415D02*
X031865Y045415D01*
X031865Y045367D02*
X024557Y045367D01*
X024509Y045318D02*
X031865Y045318D01*
X031865Y045270D02*
X024460Y045270D01*
X024412Y045221D02*
X031865Y045221D01*
X031865Y045173D02*
X024363Y045173D01*
X024315Y045124D02*
X031865Y045124D01*
X031865Y045076D02*
X024266Y045076D01*
X024218Y045027D02*
X031865Y045027D01*
X031865Y044979D02*
X024169Y044979D01*
X024121Y044930D02*
X031865Y044930D01*
X031865Y044882D02*
X024072Y044882D01*
X024024Y044833D02*
X031865Y044833D01*
X031865Y044785D02*
X023975Y044785D01*
X023927Y044736D02*
X031865Y044736D01*
X031865Y044688D02*
X022882Y044688D01*
X022882Y044736D02*
X023551Y044736D01*
X022882Y044639D02*
X031865Y044639D01*
X031849Y044591D02*
X022882Y044591D01*
X022842Y044542D02*
X031800Y044542D01*
X031752Y044494D02*
X022826Y044494D01*
X022874Y044445D02*
X031703Y044445D01*
X031655Y044397D02*
X022882Y044397D01*
X022882Y044348D02*
X031606Y044348D01*
X031558Y044300D02*
X022882Y044300D01*
X022882Y044251D02*
X031509Y044251D01*
X031461Y044203D02*
X022882Y044203D01*
X022882Y044154D02*
X028364Y044154D01*
X028247Y044106D02*
X022882Y044106D01*
X022882Y044057D02*
X028163Y044057D01*
X028114Y044009D02*
X022882Y044009D01*
X022882Y043960D02*
X028066Y043960D01*
X028024Y043912D02*
X022882Y043912D01*
X022882Y043863D02*
X028004Y043863D01*
X027984Y043815D02*
X022845Y043815D01*
X022797Y043766D02*
X027964Y043766D01*
X028636Y044154D02*
X031412Y044154D01*
X031364Y044106D02*
X028753Y044106D01*
X028837Y044057D02*
X031315Y044057D01*
X031267Y044009D02*
X028886Y044009D01*
X028934Y043960D02*
X031218Y043960D01*
X031170Y043912D02*
X028976Y043912D01*
X028996Y043863D02*
X031121Y043863D01*
X031073Y043815D02*
X029016Y043815D01*
X029036Y043766D02*
X031024Y043766D01*
X030976Y043718D02*
X029055Y043718D01*
X029055Y043669D02*
X030927Y043669D01*
X030879Y043621D02*
X029055Y043621D01*
X029055Y043572D02*
X030830Y043572D01*
X030782Y043524D02*
X029055Y043524D01*
X029045Y043475D02*
X030733Y043475D01*
X030685Y043427D02*
X029025Y043427D01*
X030000Y048519D02*
X031865Y048519D01*
X031865Y048471D02*
X024223Y048471D01*
X030000Y048568D02*
X031865Y048568D01*
X031865Y048616D02*
X030000Y048616D01*
X030000Y048665D02*
X031865Y048665D01*
X031865Y048713D02*
X030000Y048713D01*
X030000Y048762D02*
X031865Y048762D01*
X031865Y048810D02*
X030000Y048810D01*
X030000Y048859D02*
X031865Y048859D01*
X031865Y048907D02*
X030000Y048907D01*
X030000Y048956D02*
X031865Y048956D01*
X031865Y049004D02*
X030000Y049004D01*
X030000Y049053D02*
X031865Y049053D01*
X031865Y049101D02*
X030000Y049101D01*
X030000Y049150D02*
X031865Y049150D01*
X031865Y049198D02*
X030000Y049198D01*
X030000Y049247D02*
X031865Y049247D01*
X031865Y049295D02*
X030000Y049295D01*
X030000Y049344D02*
X031865Y049344D01*
X031865Y049392D02*
X030000Y049392D01*
X030000Y049441D02*
X031865Y049441D01*
X031865Y049489D02*
X030000Y049489D01*
X030000Y049538D02*
X031865Y049538D01*
X031865Y049586D02*
X030000Y049586D01*
X030000Y049635D02*
X031865Y049635D01*
X031865Y049683D02*
X030000Y049683D01*
X030000Y049732D02*
X031865Y049732D01*
X031865Y049780D02*
X030000Y049780D01*
X030000Y049829D02*
X031865Y049829D01*
X031865Y049877D02*
X030000Y049877D01*
X030000Y049926D02*
X031865Y049926D01*
X031865Y049974D02*
X030000Y049974D01*
X030000Y050023D02*
X031865Y050023D01*
X031865Y050071D02*
X030000Y050071D01*
X030000Y050120D02*
X031865Y050120D01*
X031865Y050168D02*
X030000Y050168D01*
X030000Y050217D02*
X031865Y050217D01*
X031865Y050265D02*
X030000Y050265D01*
X030000Y050314D02*
X031865Y050314D01*
X031865Y050362D02*
X030000Y050362D01*
X030000Y050411D02*
X031865Y050411D01*
X031865Y050459D02*
X030000Y050459D01*
X030000Y050508D02*
X031865Y050508D01*
X031865Y050556D02*
X030000Y050556D01*
X030000Y050605D02*
X031865Y050605D01*
X031865Y050653D02*
X030000Y050653D01*
X030000Y050702D02*
X031865Y050702D01*
X031865Y050750D02*
X030000Y050750D01*
X030000Y050799D02*
X031865Y050799D01*
X031865Y050847D02*
X030000Y050847D01*
X030000Y050896D02*
X031865Y050896D01*
X031865Y050944D02*
X030000Y050944D01*
X030000Y050993D02*
X031865Y050993D01*
X031865Y051041D02*
X030000Y051041D01*
X030000Y051090D02*
X031865Y051090D01*
X031865Y051138D02*
X030000Y051138D01*
X030000Y051187D02*
X031865Y051187D01*
X031865Y051235D02*
X030000Y051235D01*
X030000Y051284D02*
X031865Y051284D01*
X031865Y051332D02*
X030000Y051332D01*
X030000Y051381D02*
X031865Y051381D01*
X031865Y051429D02*
X030000Y051429D01*
X030000Y051478D02*
X031865Y051478D01*
X031865Y051526D02*
X030000Y051526D01*
X030000Y051575D02*
X031865Y051575D01*
X031865Y051623D02*
X030000Y051623D01*
X030000Y051672D02*
X031865Y051672D01*
X031865Y051720D02*
X030000Y051720D01*
X030000Y051769D02*
X031865Y051769D01*
X031865Y051817D02*
X030000Y051817D01*
X030000Y051866D02*
X031865Y051866D01*
X031865Y051914D02*
X030000Y051914D01*
X030000Y051963D02*
X031865Y051963D01*
X031865Y052011D02*
X030000Y052011D01*
X030000Y052060D02*
X031865Y052060D01*
X031865Y052108D02*
X030000Y052108D01*
X030000Y052157D02*
X031865Y052157D01*
X031865Y052205D02*
X030000Y052205D01*
X030000Y052254D02*
X031865Y052254D01*
X031865Y052302D02*
X030000Y052302D01*
X030000Y052351D02*
X031865Y052351D01*
X031865Y052399D02*
X030000Y052399D01*
X030000Y052448D02*
X031865Y052448D01*
X031865Y052496D02*
X030000Y052496D01*
X030000Y052545D02*
X031865Y052545D01*
X031865Y052593D02*
X030000Y052593D01*
X030000Y052642D02*
X031865Y052642D01*
X031865Y052690D02*
X030000Y052690D01*
X030000Y052739D02*
X031865Y052739D01*
X031865Y052787D02*
X030000Y052787D01*
X030000Y052836D02*
X031865Y052836D01*
X031865Y052884D02*
X030000Y052884D01*
X030000Y052933D02*
X031865Y052933D01*
X031865Y052981D02*
X030000Y052981D01*
X030000Y053030D02*
X031865Y053030D01*
X031865Y053078D02*
X030000Y053078D01*
X030000Y053127D02*
X031864Y053127D01*
X031863Y053175D02*
X030000Y053175D01*
X030000Y053224D02*
X031882Y053224D01*
X031900Y053272D02*
X030000Y053272D01*
X030000Y053321D02*
X031910Y053321D01*
X031953Y053369D02*
X030000Y053369D01*
X030000Y053418D02*
X031997Y053418D01*
X032040Y053466D02*
X030000Y053466D01*
X030000Y053515D02*
X032084Y053515D01*
X032127Y053563D02*
X030000Y053563D01*
X030000Y053612D02*
X032170Y053612D01*
X032214Y053660D02*
X030000Y053660D01*
X030000Y053709D02*
X032257Y053709D01*
X032301Y053757D02*
X030000Y053757D01*
X030000Y053806D02*
X032344Y053806D01*
X032387Y053854D02*
X030000Y053854D01*
X030000Y053903D02*
X032431Y053903D01*
X032474Y053951D02*
X030000Y053951D01*
X030000Y054000D02*
X032517Y054000D01*
X032561Y054048D02*
X030000Y054048D01*
X030000Y054097D02*
X032604Y054097D01*
X032648Y054145D02*
X030000Y054145D01*
X030000Y054194D02*
X032691Y054194D01*
X032734Y054242D02*
X030000Y054242D01*
X030000Y054291D02*
X032778Y054291D01*
X032821Y054339D02*
X030000Y054339D01*
X030000Y054388D02*
X032865Y054388D01*
X032908Y054436D02*
X030000Y054436D01*
X030000Y054485D02*
X032951Y054485D01*
X032995Y054533D02*
X030000Y054533D01*
X030000Y054582D02*
X033038Y054582D01*
X033082Y054630D02*
X030000Y054630D01*
X030000Y054679D02*
X033125Y054679D01*
X033168Y054727D02*
X030000Y054727D01*
X030000Y054776D02*
X033212Y054776D01*
X033255Y054824D02*
X030015Y054824D01*
X030066Y054873D02*
X033299Y054873D01*
X033342Y054921D02*
X030116Y054921D01*
X030167Y054970D02*
X033385Y054970D01*
X033429Y055018D02*
X030217Y055018D01*
X030268Y055067D02*
X033472Y055067D01*
X033516Y055115D02*
X030318Y055115D01*
X030369Y055164D02*
X033559Y055164D01*
X034400Y055212D02*
X031677Y055212D01*
X031794Y055261D02*
X034400Y055261D01*
X034400Y055309D02*
X031911Y055309D01*
X031970Y055358D02*
X034400Y055358D01*
X034400Y055406D02*
X032019Y055406D01*
X032067Y055455D02*
X034400Y055455D01*
X034400Y055503D02*
X032116Y055503D01*
X032164Y055552D02*
X034400Y055552D01*
X034400Y055600D02*
X032201Y055600D01*
X032221Y055649D02*
X034400Y055649D01*
X034400Y055697D02*
X032241Y055697D01*
X032261Y055746D02*
X034400Y055746D01*
X034400Y055794D02*
X032281Y055794D01*
X032301Y055843D02*
X034400Y055843D01*
X034400Y055891D02*
X032322Y055891D01*
X032335Y055940D02*
X034400Y055940D01*
X034400Y055988D02*
X032335Y055988D01*
X032335Y056037D02*
X034400Y056037D01*
X034400Y056085D02*
X032335Y056085D01*
X032335Y056134D02*
X034400Y056134D01*
X034400Y056182D02*
X032335Y056182D01*
X032335Y056231D02*
X034400Y056231D01*
X034400Y056279D02*
X032335Y056279D01*
X032322Y056328D02*
X034400Y056328D01*
X034400Y056376D02*
X032302Y056376D01*
X032281Y056425D02*
X034400Y056425D01*
X034400Y056473D02*
X032261Y056473D01*
X032241Y056522D02*
X034400Y056522D01*
X034067Y056570D02*
X033982Y056570D01*
X033818Y056570D02*
X032221Y056570D01*
X032201Y056619D02*
X033703Y056619D01*
X033654Y056667D02*
X032165Y056667D01*
X032116Y056716D02*
X033607Y056716D01*
X033587Y056764D02*
X032068Y056764D01*
X032087Y056813D02*
X033567Y056813D01*
X033555Y056861D02*
X032137Y056861D01*
X032188Y056910D02*
X033555Y056910D01*
X033555Y056958D02*
X032238Y056958D01*
X032289Y057007D02*
X033567Y057007D01*
X033587Y057055D02*
X032339Y057055D01*
X032390Y057104D02*
X033607Y057104D01*
X033655Y057152D02*
X032440Y057152D01*
X032491Y057201D02*
X033703Y057201D01*
X033818Y057249D02*
X032540Y057249D01*
X032588Y057298D02*
X034400Y057298D01*
X034400Y057346D02*
X032637Y057346D01*
X032685Y057395D02*
X034400Y057395D01*
X034068Y057249D02*
X033982Y057249D01*
X035100Y057443D02*
X032734Y057443D01*
X032782Y057492D02*
X035100Y057492D01*
X035100Y057540D02*
X032800Y057540D01*
X032800Y057589D02*
X035100Y057589D01*
X035100Y057637D02*
X032800Y057637D01*
X032800Y057686D02*
X035100Y057686D01*
X035100Y057734D02*
X032800Y057734D01*
X032800Y057783D02*
X035100Y057783D01*
X035100Y057831D02*
X032800Y057831D01*
X032800Y057880D02*
X035100Y057880D01*
X035100Y057928D02*
X032800Y057928D01*
X032800Y057977D02*
X035100Y057977D01*
X035100Y058025D02*
X032800Y058025D01*
X032800Y058074D02*
X035100Y058074D01*
X035100Y058122D02*
X032800Y058122D01*
X032800Y058171D02*
X035100Y058171D01*
X035100Y058219D02*
X032800Y058219D01*
X032800Y058268D02*
X035100Y058268D01*
X035100Y058316D02*
X032800Y058316D01*
X032800Y058365D02*
X035100Y058365D01*
X035100Y058413D02*
X032800Y058413D01*
X032800Y058462D02*
X035100Y058462D01*
X035100Y058510D02*
X032800Y058510D01*
X032800Y058559D02*
X035110Y058559D01*
X035121Y058607D02*
X032800Y058607D01*
X032800Y058656D02*
X035131Y058656D01*
X035141Y058704D02*
X032800Y058704D01*
X032800Y058753D02*
X035151Y058753D01*
X035161Y058801D02*
X032800Y058801D01*
X032800Y058850D02*
X035172Y058850D01*
X035182Y058899D02*
X032800Y058899D01*
X032800Y058947D02*
X035192Y058947D01*
X035202Y058996D02*
X032800Y058996D01*
X032800Y059044D02*
X035212Y059044D01*
X031123Y055212D02*
X030419Y055212D01*
X030470Y055261D02*
X031006Y055261D01*
X030889Y055309D02*
X030520Y055309D01*
X030571Y055358D02*
X030830Y055358D01*
X030781Y055406D02*
X030621Y055406D01*
X030672Y055455D02*
X030733Y055455D01*
D56*
X030200Y055410D02*
X030200Y057110D01*
X030100Y057210D01*
X029700Y057210D01*
X029700Y057610D01*
X029235Y057610D01*
X029300Y057610D01*
X029700Y057610D02*
X029700Y058310D01*
X029600Y058410D01*
X025100Y058410D01*
X024500Y057810D01*
X024500Y057470D01*
X023805Y057470D01*
X023800Y057475D01*
X024500Y057470D02*
X024640Y057470D01*
X024800Y057310D01*
X025060Y057830D02*
X025340Y058110D01*
X027100Y058110D01*
X027265Y057944D01*
X027265Y057610D01*
X027265Y057310D01*
X027260Y057304D01*
X027260Y056850D01*
X027500Y056610D01*
X027965Y056610D01*
X027717Y056233D02*
X027780Y056170D01*
X027780Y055510D01*
X027760Y055490D01*
X026980Y055490D01*
X026860Y055610D01*
X026860Y056430D01*
X026820Y056470D01*
X026340Y056470D01*
X026349Y056479D01*
X026351Y056479D01*
X026457Y056584D01*
X026457Y057166D01*
X026420Y057203D01*
X026420Y057290D01*
X026340Y057370D01*
X025700Y057370D01*
X025800Y057270D01*
X025800Y057263D01*
X025703Y057166D01*
X025703Y056630D01*
X025685Y056630D01*
X025580Y056524D01*
X025580Y056510D01*
X025570Y056510D01*
X025570Y056524D01*
X025465Y056630D01*
X025300Y056630D01*
X025300Y057670D01*
X025460Y057830D01*
X026780Y057830D01*
X026780Y057310D01*
X026940Y057150D01*
X026940Y056730D01*
X027380Y056290D01*
X027617Y056290D01*
X027674Y056233D01*
X027717Y056233D01*
X027768Y056181D02*
X026860Y056181D01*
X026860Y056023D02*
X027780Y056023D01*
X027780Y055864D02*
X026860Y055864D01*
X026860Y055706D02*
X027780Y055706D01*
X027780Y055547D02*
X026922Y055547D01*
X027300Y055344D02*
X027300Y055910D01*
X027300Y056110D01*
X026700Y056710D01*
X026600Y056610D01*
X026600Y056510D01*
X026400Y056510D01*
X026340Y056450D01*
X026340Y056120D01*
X026600Y056120D02*
X026600Y056510D01*
X026457Y056657D02*
X027013Y056657D01*
X026940Y056815D02*
X026457Y056815D01*
X026457Y056974D02*
X026940Y056974D01*
X026940Y057132D02*
X026457Y057132D01*
X026419Y057291D02*
X026799Y057291D01*
X026780Y057449D02*
X025300Y057449D01*
X025300Y057291D02*
X025779Y057291D01*
X025703Y057132D02*
X025300Y057132D01*
X025300Y056974D02*
X025703Y056974D01*
X025703Y056815D02*
X025300Y056815D01*
X025300Y056657D02*
X025703Y056657D01*
X025570Y056120D02*
X025570Y057480D01*
X025600Y057510D01*
X026045Y057510D01*
X026080Y057544D01*
X026780Y057608D02*
X025300Y057608D01*
X025397Y057766D02*
X026780Y057766D01*
X027171Y056498D02*
X026371Y056498D01*
X026860Y056340D02*
X027330Y056340D01*
X028300Y055710D02*
X028300Y055344D01*
X028300Y055510D01*
X028300Y055710D02*
X028500Y055910D01*
X029080Y055910D01*
X029240Y056070D01*
X029595Y056070D01*
X029600Y056075D01*
X029600Y056744D02*
X029600Y057110D01*
X029500Y057210D01*
X029200Y057210D01*
X029100Y057110D01*
X029100Y056610D01*
X028635Y056610D01*
X028565Y057610D02*
X027935Y057610D01*
X029300Y055344D02*
X030135Y055344D01*
X030200Y055410D01*
X029300Y054675D02*
X028300Y054675D01*
X028300Y051310D01*
X027900Y050910D01*
X029400Y050910D01*
X030000Y050310D01*
X030000Y048364D01*
X029746Y048110D01*
X029080Y048276D01*
X028896Y047976D01*
X027700Y048080D01*
X028929Y047109D01*
X025960Y047019D01*
X025100Y048810D02*
X024551Y049633D01*
X024551Y049790D01*
X024434Y049907D01*
X024369Y049907D01*
X024300Y050010D01*
X023500Y050010D01*
X023500Y051310D01*
X023600Y051410D01*
X024800Y051410D01*
X025100Y051710D01*
X025100Y052310D01*
X024262Y052310D01*
X024165Y052407D01*
X023566Y052407D01*
X023469Y052310D01*
X023000Y052310D01*
X022600Y051910D01*
X022600Y051641D01*
X022503Y051544D01*
X022503Y050945D01*
X022538Y050910D01*
X022503Y050875D01*
X022503Y050276D01*
X022600Y050179D01*
X022600Y049710D01*
X022800Y049510D01*
X022300Y049010D01*
X021620Y049010D01*
X021620Y049463D01*
X021600Y049483D01*
X021600Y049546D01*
X021557Y049648D01*
X021540Y049666D01*
X021540Y049670D01*
X021000Y050210D01*
X021000Y051210D01*
X021300Y051510D01*
X021300Y052610D01*
X021900Y053210D01*
X024200Y053210D01*
X024400Y053010D01*
X025600Y053010D01*
X025600Y052110D01*
X027088Y050621D01*
X027095Y050606D01*
X027196Y050505D01*
X027212Y050498D01*
X027600Y050110D01*
X029600Y050110D01*
X029600Y048810D01*
X025100Y048810D01*
X025046Y048890D02*
X029600Y048890D01*
X029600Y049049D02*
X024941Y049049D01*
X024835Y049207D02*
X029600Y049207D01*
X029600Y049366D02*
X024729Y049366D01*
X024624Y049524D02*
X029600Y049524D01*
X029600Y049683D02*
X024551Y049683D01*
X024499Y049841D02*
X029600Y049841D01*
X029600Y050000D02*
X024307Y050000D01*
X024593Y050317D02*
X027393Y050317D01*
X023500Y050317D01*
X023500Y050475D02*
X027234Y050475D01*
X024434Y050475D01*
X024400Y050510D02*
X024900Y050010D01*
X024900Y049710D01*
X025200Y049410D01*
X026200Y049410D01*
X026600Y049010D01*
X027400Y049010D01*
X027600Y049210D01*
X027600Y050110D01*
X026600Y051110D01*
X026200Y051110D01*
X025100Y052210D01*
X024735Y052210D01*
X024535Y052010D01*
X024400Y052060D02*
X025249Y052060D01*
X025100Y052060D02*
X025649Y052060D01*
X025600Y052219D02*
X025100Y052219D01*
X025100Y052210D02*
X025570Y052680D01*
X025600Y052694D02*
X021385Y052694D01*
X021300Y052536D02*
X025600Y052536D01*
X025600Y052377D02*
X024194Y052377D01*
X024400Y052210D02*
X025100Y052210D01*
X025100Y051902D02*
X025808Y051902D01*
X025966Y051743D02*
X025100Y051743D01*
X024975Y051585D02*
X026125Y051585D01*
X026283Y051426D02*
X024817Y051426D01*
X024400Y051426D02*
X025883Y051426D01*
X025725Y051585D02*
X024400Y051585D01*
X024400Y051743D02*
X025566Y051743D01*
X025408Y051902D02*
X024400Y051902D01*
X024400Y052210D02*
X024400Y050510D01*
X024400Y050634D02*
X027076Y050634D01*
X023500Y050634D01*
X023500Y050792D02*
X026917Y050792D01*
X024400Y050792D01*
X024400Y050951D02*
X026759Y050951D01*
X023500Y050951D01*
X023500Y051109D02*
X026600Y051109D01*
X024400Y051109D01*
X024400Y051268D02*
X026042Y051268D01*
X026442Y051268D02*
X023500Y051268D01*
X022900Y051244D02*
X022900Y051710D01*
X023200Y052010D01*
X023865Y052010D01*
X023537Y052377D02*
X021300Y052377D01*
X021300Y052219D02*
X022909Y052219D01*
X022751Y052060D02*
X021300Y052060D01*
X021300Y051902D02*
X022600Y051902D01*
X022600Y051743D02*
X021300Y051743D01*
X021300Y051585D02*
X022544Y051585D01*
X022503Y051426D02*
X021217Y051426D01*
X021058Y051268D02*
X022503Y051268D01*
X022503Y051109D02*
X021000Y051109D01*
X021000Y050951D02*
X022503Y050951D01*
X022503Y050792D02*
X021000Y050792D01*
X021000Y050634D02*
X022503Y050634D01*
X022503Y050475D02*
X021000Y050475D01*
X021000Y050317D02*
X022503Y050317D01*
X022600Y050158D02*
X021051Y050158D01*
X021210Y050000D02*
X022600Y050000D01*
X022600Y049841D02*
X021368Y049841D01*
X021527Y049683D02*
X022627Y049683D01*
X022785Y049524D02*
X021600Y049524D01*
X021620Y049366D02*
X022656Y049366D01*
X022498Y049207D02*
X021620Y049207D01*
X021620Y049049D02*
X022339Y049049D01*
X022778Y048388D02*
X021700Y048388D01*
X021320Y049180D02*
X021320Y049490D01*
X020700Y050110D01*
X020700Y051510D01*
X020900Y051710D01*
X020900Y052810D01*
X021600Y053510D01*
X024400Y053510D01*
X024600Y053310D01*
X025300Y053310D01*
X025320Y053330D01*
X025830Y053200D02*
X025900Y053130D01*
X025900Y052410D01*
X027400Y050910D01*
X027400Y050810D01*
X027900Y050910D02*
X026300Y052510D01*
X026300Y053110D01*
X026080Y053330D01*
X026400Y053410D02*
X026600Y053410D01*
X026600Y052710D01*
X027500Y051810D01*
X027700Y051810D01*
X027551Y050158D02*
X023500Y050158D01*
X023465Y049510D02*
X023200Y049510D01*
X022800Y049110D01*
X022800Y048410D01*
X022778Y048388D01*
X023200Y049510D02*
X022900Y049810D01*
X022900Y050575D01*
X024135Y049510D02*
X024140Y049504D01*
X024140Y048810D01*
X024927Y049683D02*
X027600Y049683D01*
X027600Y049841D02*
X024900Y049841D01*
X024900Y050000D02*
X027600Y050000D01*
X027551Y050158D02*
X024751Y050158D01*
X025085Y049524D02*
X027600Y049524D01*
X027600Y049366D02*
X026244Y049366D01*
X026402Y049207D02*
X027598Y049207D01*
X027439Y049049D02*
X026561Y049049D01*
X027670Y048280D02*
X027700Y048310D01*
X027670Y048280D02*
X027700Y048080D01*
X025600Y052853D02*
X021543Y052853D01*
X021702Y053011D02*
X024398Y053011D01*
X024240Y053170D02*
X021860Y053170D01*
X023030Y046630D02*
X023030Y045880D01*
X023500Y045410D01*
X025100Y039610D02*
X025600Y039610D01*
X026600Y039610D01*
X026600Y038964D01*
X026620Y038944D01*
X026600Y039610D02*
X027200Y039610D01*
X027500Y039310D01*
X027500Y038910D01*
X027800Y038610D01*
X028500Y038610D01*
X028600Y038710D01*
X031300Y038710D01*
X031300Y038410D01*
X031700Y038010D01*
X031865Y038710D02*
X031300Y038710D01*
X031300Y039610D01*
X031400Y039710D01*
X031800Y039710D01*
X031865Y039775D01*
X031900Y039810D01*
X031865Y039775D02*
X031865Y039710D01*
X031300Y039610D02*
X031300Y040710D01*
X031865Y040710D01*
X031865Y041810D02*
X031400Y041810D01*
X031300Y041710D01*
X031300Y042210D01*
X031800Y042710D01*
X033100Y042710D01*
X033100Y044310D01*
X033100Y048610D01*
X033100Y053610D01*
X033900Y054410D01*
X034265Y055410D02*
X034200Y055475D01*
X034200Y057510D02*
X034300Y057610D01*
X034500Y057610D01*
X034569Y057679D01*
X034900Y057679D01*
X035932Y057679D01*
X036700Y056510D02*
X037400Y056510D01*
X037468Y056578D01*
X037468Y057679D01*
X039600Y055710D02*
X039100Y055110D01*
X039100Y050010D01*
X039600Y050510D01*
X039600Y051475D01*
X040300Y051475D02*
X040300Y050510D01*
X040800Y050010D01*
X040800Y046110D01*
X040300Y046610D01*
X040300Y047075D01*
X040800Y046110D02*
X040800Y040110D01*
X040800Y040010D01*
X040100Y039510D01*
X040100Y037810D01*
X038100Y037810D02*
X038100Y039410D01*
X039100Y040110D01*
X039600Y040610D01*
X039600Y041275D01*
X039100Y040110D02*
X039100Y046110D01*
X039600Y046610D01*
X039600Y047075D01*
X039100Y046110D02*
X039100Y050010D01*
X040800Y050010D02*
X040800Y055210D01*
X040300Y055710D01*
X040300Y056175D01*
X039600Y056175D02*
X039600Y055710D01*
X037468Y052679D02*
X037468Y051578D01*
X037400Y051510D01*
X036700Y051510D01*
X037468Y047679D02*
X037468Y046578D01*
X037400Y046510D01*
X036700Y046510D01*
X035300Y042610D02*
X035500Y042410D01*
X035500Y040910D01*
X035235Y040644D01*
X035100Y040644D01*
X033600Y036910D02*
X033200Y036510D01*
X033100Y036610D01*
X031400Y036610D01*
X031383Y036593D02*
X030802Y036593D01*
X030792Y036602D01*
X032000Y035510D02*
X032000Y034310D01*
X032000Y034110D01*
X032000Y033010D01*
X032000Y032910D01*
X032000Y032410D01*
X031950Y032360D01*
X031800Y032210D01*
X030600Y032210D01*
X030595Y032205D02*
X029305Y032205D01*
X028900Y032610D01*
X028900Y033510D01*
X028900Y033610D01*
X026000Y037110D02*
X026600Y037710D01*
X026600Y038176D01*
X026620Y038196D01*
X027500Y038110D02*
X027500Y038910D01*
X028500Y038610D02*
X028500Y039610D01*
X028500Y040610D01*
X026000Y037110D02*
X025600Y037110D01*
X025600Y037780D01*
X025600Y037110D02*
X025300Y037110D01*
X024806Y037604D01*
X024240Y037604D01*
X024240Y038510D02*
X024800Y038510D01*
X024900Y038610D01*
X024900Y039410D01*
X025100Y039610D01*
X025600Y039610D02*
X025600Y039010D01*
X031300Y040710D02*
X031300Y041710D01*
X033200Y036510D02*
X033165Y036475D01*
X033165Y035910D01*
X032650Y035910D01*
X032650Y035820D01*
X032310Y035820D01*
X032000Y035510D01*
X040300Y040610D02*
X040800Y040110D01*
X040300Y040610D02*
X040300Y041275D01*
X031926Y057710D02*
X030600Y057710D01*
X030600Y058510D02*
X031965Y058510D01*
X029700Y057210D02*
X029600Y057110D01*
X017200Y048510D02*
X017200Y048410D01*
X016520Y047730D01*
X016490Y047090D01*
X013780Y051529D02*
X013780Y053970D01*
X015800Y037410D02*
X015700Y037310D01*
X015700Y037010D01*
X015235Y037010D01*
X014565Y037010D02*
X012000Y037010D01*
X011500Y036710D01*
X011500Y035810D01*
X014900Y035310D02*
X015700Y035310D01*
X015900Y035110D01*
X016400Y035110D01*
X016400Y035759D01*
X015900Y035110D02*
X016000Y035010D01*
X016000Y034544D01*
X016000Y033875D02*
X016000Y033410D01*
X015900Y033310D01*
X014900Y033310D01*
X016026Y036861D02*
X016026Y037384D01*
X016000Y037410D01*
X015800Y037410D01*
D57*
X016400Y035110D02*
X016762Y034748D01*
X016762Y033692D01*
X019000Y036110D01*
X019000Y041710D01*
X020000Y042710D01*
X020700Y043410D01*
X022500Y043475D02*
X024240Y041735D01*
X024240Y037604D02*
X024240Y036850D01*
X020700Y036860D02*
X020700Y037525D01*
X017200Y048510D02*
X020500Y051810D01*
X020500Y053110D01*
X021300Y053910D01*
X024300Y053910D01*
X024400Y054010D01*
X024400Y054810D01*
X025100Y055510D01*
X025300Y055510D01*
X025320Y055530D02*
X025340Y055510D01*
X025800Y055510D01*
X025830Y055540D02*
X025830Y055380D01*
X026500Y054710D01*
X024400Y053910D02*
X024300Y053910D01*
X034900Y057679D02*
X035000Y057779D01*
X035000Y058510D01*
D58*
X037212Y050341D02*
X037212Y049922D01*
X037288Y049922D01*
X037700Y049510D01*
X037468Y042679D02*
X037468Y041710D01*
X037000Y041710D01*
X037500Y039610D02*
X037500Y038910D01*
X039000Y035610D02*
X035300Y035610D01*
X034880Y035212D02*
X034922Y035170D01*
X038530Y035170D01*
X038700Y035000D01*
X038700Y034010D01*
X038600Y033310D02*
X038700Y033210D01*
X038700Y031710D01*
X037700Y031710D02*
X037700Y033010D01*
X037600Y033110D01*
X034100Y033110D01*
X033792Y033418D01*
X032564Y033418D01*
X032564Y033615D02*
X033895Y033615D01*
X034200Y033310D01*
X038600Y033310D01*
X039300Y033510D02*
X039700Y033110D01*
X039700Y031710D01*
X039300Y033510D02*
X034300Y033510D01*
X033998Y033811D01*
X032564Y033811D01*
X032564Y034008D02*
X033298Y034008D01*
X033400Y034110D01*
X033789Y033221D02*
X034100Y032910D01*
X036500Y032910D01*
X036700Y032710D01*
X036700Y031710D01*
X035700Y031710D02*
X035700Y032610D01*
X035600Y032710D01*
X033900Y032710D01*
X033820Y032630D01*
X032564Y032630D01*
X032564Y032433D02*
X034376Y032433D01*
X034700Y031710D01*
X034000Y031410D02*
X034000Y030410D01*
X033900Y030310D01*
X033535Y030310D01*
X033535Y029644D01*
X033100Y029210D01*
X032200Y029210D01*
X032300Y030310D02*
X032865Y030310D01*
X032865Y031510D02*
X032500Y031510D01*
X032200Y031810D01*
X032200Y032110D01*
X031950Y032360D01*
X032083Y032827D02*
X032000Y032910D01*
X032083Y032827D02*
X032564Y032827D01*
X032564Y033024D02*
X033286Y033024D01*
X033400Y032910D01*
X033789Y033221D02*
X032564Y033221D01*
X032564Y034205D02*
X032105Y034205D01*
X032000Y034310D01*
X032564Y034402D02*
X034308Y034402D01*
X034700Y034010D01*
X034880Y035179D02*
X034880Y035212D01*
X034900Y037310D01*
X034900Y038310D01*
X034500Y039210D02*
X034500Y035710D01*
X034500Y035610D01*
X034276Y035386D01*
X032564Y035386D01*
X032564Y035189D02*
X034880Y035179D01*
X035611Y034599D02*
X035700Y034510D01*
X035700Y034010D01*
X035611Y034599D02*
X032564Y034599D01*
X032564Y034796D02*
X036514Y034796D01*
X036700Y034610D01*
X036700Y034010D01*
X037517Y034993D02*
X037700Y034810D01*
X037700Y034010D01*
X037517Y034993D02*
X032564Y034993D01*
X032480Y036180D02*
X032280Y036180D01*
X032480Y036180D02*
X032560Y036260D01*
X032620Y036260D01*
X032050Y036210D02*
X032050Y036174D01*
X031776Y036174D01*
X031383Y036174D02*
X031383Y036593D01*
X031400Y036610D01*
X031186Y036174D02*
X031186Y035596D01*
X031000Y035410D01*
X029300Y035410D01*
X028900Y035710D02*
X028800Y035610D01*
X028800Y035410D01*
X028900Y035710D02*
X030900Y035710D01*
X030989Y035799D01*
X030989Y036174D01*
X030792Y036174D02*
X030792Y036602D01*
X030800Y036610D01*
X030595Y037005D02*
X030600Y037010D01*
X030595Y037005D02*
X030595Y036174D01*
X030202Y036174D02*
X030202Y036511D01*
X030260Y036750D01*
X029808Y036678D02*
X030500Y037510D01*
X030400Y037710D02*
X029611Y036721D01*
X029611Y036174D01*
X029808Y036174D02*
X029808Y036678D01*
X028698Y033811D02*
X028900Y033610D01*
X028698Y033811D02*
X028036Y033811D01*
X028036Y034008D02*
X027602Y034008D01*
X027500Y034110D01*
X027200Y033410D02*
X027389Y033221D01*
X028036Y033221D01*
X028036Y033024D02*
X027186Y033024D01*
X027000Y033210D01*
X026800Y033010D02*
X026983Y032827D01*
X028036Y032827D01*
X028036Y032630D02*
X026780Y032630D01*
X026600Y032810D01*
X026200Y032310D02*
X027400Y032310D01*
X027700Y032010D01*
X028800Y032010D01*
X028824Y031986D01*
X028824Y031646D01*
X029020Y031646D02*
X029020Y031230D01*
X029000Y031210D01*
X028100Y031210D01*
X027200Y032110D01*
X025200Y032110D01*
X025000Y032310D01*
X025000Y033710D01*
X026000Y033710D02*
X026000Y032510D01*
X026200Y032310D01*
X027100Y031910D02*
X028000Y031010D01*
X029200Y031010D01*
X029217Y031027D01*
X029217Y031646D01*
X029414Y031646D02*
X029414Y030924D01*
X029300Y030810D01*
X028000Y030810D01*
X027100Y031710D01*
X023600Y031710D01*
X023000Y032310D01*
X023000Y033710D01*
X022000Y033710D02*
X022000Y032710D01*
X022600Y032010D01*
X023100Y031510D01*
X027000Y031510D01*
X027900Y030610D01*
X029500Y030610D01*
X029611Y030721D01*
X029611Y031646D01*
X029800Y031638D02*
X029800Y030510D01*
X029700Y030410D01*
X027800Y030410D01*
X026900Y031310D01*
X022800Y031310D01*
X022300Y031810D01*
X021300Y032910D01*
X021000Y032910D01*
X021000Y033710D01*
X024000Y033710D02*
X024000Y032010D01*
X024100Y031910D01*
X027100Y031910D01*
X027517Y034993D02*
X027500Y035010D01*
X027517Y034993D02*
X028036Y034993D01*
X029808Y031646D02*
X029800Y031638D01*
X030000Y031641D02*
X030005Y031646D01*
X030000Y031641D02*
X030000Y031250D01*
X030100Y031150D01*
X030100Y031010D01*
X030398Y030708D02*
X030398Y031646D01*
X030595Y031646D02*
X030595Y032205D01*
X030600Y032210D01*
X030595Y031646D02*
X030595Y031115D01*
X031580Y031230D02*
X031700Y031110D01*
X031580Y031230D02*
X031580Y031646D01*
X031776Y031646D02*
X031776Y031333D01*
X032000Y031110D01*
X033535Y031510D02*
X033900Y031510D01*
X034000Y031410D01*
X034100Y035910D02*
X033835Y035910D01*
X034100Y035910D02*
X034200Y036010D01*
X034200Y036410D01*
X033500Y041810D02*
X032535Y041810D01*
X039000Y035610D02*
X039700Y034910D01*
X039700Y034010D01*
X022500Y044144D02*
X022500Y044875D01*
D59*
X024200Y040310D02*
X020700Y040310D01*
X020200Y040310D01*
X019700Y039810D01*
X019700Y036810D01*
X019700Y036310D01*
X019700Y035810D01*
X019100Y035210D01*
X019100Y034910D01*
X020700Y035310D02*
X016350Y030960D01*
X016350Y029747D01*
X016322Y029719D01*
X020700Y035310D02*
X020700Y036860D01*
X024240Y036850D01*
X024240Y038510D02*
X021760Y038510D01*
X024200Y039310D02*
X024200Y040310D01*
X035000Y058510D02*
X035300Y058910D01*
X037300Y058910D01*
D60*
X012500Y035810D02*
X012500Y034410D01*
X012400Y034310D01*
X009600Y034310D01*
X009300Y034610D01*
X009300Y035310D01*
X008700Y035910D01*
X006100Y035910D01*
X004600Y034410D02*
X004600Y033210D01*
X005200Y032610D01*
X004100Y031510D01*
X004100Y029750D01*
X004700Y029210D01*
X006600Y029210D01*
X007400Y032610D02*
X005200Y032610D01*
X007400Y032610D02*
X009600Y032610D01*
X003100Y040410D02*
X003100Y041510D01*
X004300Y042710D01*
X006900Y042710D01*
X008000Y043810D01*
X007900Y043810D01*
X005600Y046110D01*
X005894Y046110D01*
M02*
