%
M48
M72
T01C0.0200
T02C0.0320
T03C0.0354
T04C0.0394
T05C0.0400
T06C0.0440
T07C0.0472
T08C0.0600
T09C0.0709
T10C0.0984
T11C0.1180
T12C0.1181
T13C0.1500
%
T01
X17200Y35210
X18100Y37210
X19100Y34910
X19700Y36310
X24100Y35410
X26100Y34810
X27500Y35010
X27500Y34110
X28800Y35410
X29300Y35410
X29300Y33510
X30100Y31010
X30400Y30710
X31100Y30810
X32300Y30310
X32000Y33010
X32000Y34110
X33400Y34110
X33400Y32910
X32650Y35820
X32620Y36260
X31550Y35660
X30260Y36750
X29800Y37710
X30300Y38010
X30800Y38210
X30300Y39110
X29800Y39110
X29300Y39110
X29300Y37410
X31700Y38010
X33300Y38710
X33300Y39710
X33300Y40710
X34300Y41010
X35000Y41210
X34800Y42610
X34800Y43110
X35300Y43110
X35300Y42610
X35800Y43410
X36300Y43410
X36700Y43610
X36800Y44610
X37500Y44610
X37000Y46210
X36700Y46510
X36400Y46710
X36400Y46210
X37000Y46710
X36800Y48610
X36300Y48610
X35900Y48410
X34900Y48010
X34900Y47410
X34900Y46810
X34300Y46810
X34300Y47410
X34300Y48010
X33700Y48910
X33100Y48610
X33700Y49810
X32600Y49110
X31600Y47910
X31100Y47910
X31100Y47410
X31600Y47410
X31600Y46910
X31100Y46910
X31100Y44810
X31300Y44410
X31600Y44810
X30800Y44410
X30800Y43910
X32400Y44110
X33100Y44310
X32700Y45610
X34400Y43610
X34900Y43610
X35560Y44730
X36400Y41710
X36700Y41510
X37000Y41710
X37000Y41210
X36400Y41210
X35500Y39510
X36320Y39250
X35700Y38210
X34900Y38310
X34500Y39210
X35300Y36910
X35300Y35610
X34500Y35710
X34200Y36410
X33600Y36910
X36800Y37410
X37200Y39210
X39600Y42710
X40100Y42710
X40100Y48310
X39600Y48310
X37200Y49610
X36700Y49510
X35800Y49710
X36400Y51210
X36700Y51510
X36400Y51710
X37000Y51710
X37000Y51210
X36360Y53490
X35900Y53510
X34900Y53010
X34900Y52410
X34900Y51810
X34300Y51810
X34300Y52410
X34300Y53010
X33900Y54410
X33900Y56910
X35800Y58310
X36320Y58430
X36800Y58450
X37000Y56710
X36700Y56510
X36400Y56710
X36400Y56210
X37000Y56210
X36700Y54610
X37400Y54510
X36900Y53690
X39600Y52810
X40100Y52810
X40100Y57410
X39600Y57410
X32600Y50610
X31600Y51910
X31600Y52410
X31600Y52910
X31100Y52910
X31100Y52410
X31100Y51910
X28900Y49510
X28200Y49910
X27700Y49910
X27400Y50810
X27700Y51810
X26400Y50810
X26400Y50310
X25800Y50310
X25800Y50810
X25800Y51410
X25200Y51410
X25200Y50810
X25200Y50310
X24600Y50810
X24140Y48810
X22500Y47310
X22500Y46910
X22500Y46510
X21800Y46110
X21400Y46110
X21000Y46110
X21200Y47310
X21600Y47310
X22000Y47310
X23500Y45410
X22200Y50010
X22200Y50610
X22200Y51210
X22200Y51810
X22200Y52410
X21600Y51810
X21600Y51210
X21600Y50610
X21600Y50010
X19200Y52010
X19200Y53010
X19200Y54010
X19200Y55010
X19200Y56010
X19200Y57010
X19200Y58010
X20200Y58010
X20200Y57010
X20200Y56010
X20200Y55010
X20200Y54010
X21200Y56010
X21200Y57010
X21200Y58010
X22200Y58010
X22200Y57010
X22200Y56010
X23200Y56010
X25540Y57650
X26640Y57650
X26780Y56830
X27300Y55910
X25800Y54610
X30600Y57710
X30600Y58510
X18200Y58010
X17200Y58010
X17200Y57010
X17200Y56010
X18200Y56010
X18200Y57010
X18200Y55010
X18200Y54010
X18200Y53110
X18200Y52010
X17200Y52010
X17200Y53010
X17200Y54010
X17200Y55010
X16200Y53010
X16200Y52010
X16200Y51010
X16200Y50010
X17200Y50010
X17200Y51010
X18200Y51010
X15200Y51010
X15200Y52010
X12100Y53080
X12090Y53600
X12100Y54090
X12110Y54590
X11470Y54700
X11470Y55100
X11470Y55490
X11070Y55490
X11070Y55100
X10670Y55100
X10670Y55490
X10270Y55490
X10270Y55100
X10270Y54700
X10670Y54700
X11070Y54700
X11570Y54100
X11570Y53600
X11570Y53600
X11570Y53090
X7680Y57800
X7680Y58300
X7080Y58300
X7080Y57800
X6730Y57260
X6740Y56790
X6980Y56400
X6980Y56000
X6480Y56000
X6480Y56400
X6230Y55400
X6480Y57800
X6480Y58300
X5860Y58300
X5870Y57800
X4100Y57820
X4120Y58260
X3650Y58320
X3170Y58330
X3900Y54980
X3890Y54380
X3790Y53590
X3790Y53090
X3290Y53090
X3290Y53590
X4000Y50110
X4000Y49510
X3400Y49510
X2800Y49510
X4600Y49510
X4600Y50110
X5200Y50110
X6460Y52920
X7360Y52910
X26450Y30760
X26450Y30260
T02
X9600Y30610
X9600Y32610
X7400Y32610
X7400Y30610
X5200Y30610
X5200Y32610
T03
X13141Y55756
X13141Y56740
X13141Y57724
X14440Y57724
X14440Y56740
X14440Y55756
T04
X4600Y41410
X3100Y40410
X6100Y35910
X4600Y34410
X3200Y50510
X3200Y51510
X16322Y29719
X17306Y29719
X18094Y29719
X19078Y29719
T05
X21000Y33710
X22000Y33710
X23000Y33710
X24000Y33710
X25000Y33710
X26000Y33710
X28200Y29210
X29200Y29210
X30200Y29210
X31200Y29210
X32200Y29210
X34700Y31710
X35700Y31710
X36700Y31710
X37700Y31710
X38700Y31710
X39700Y31710
X39700Y34010
X38700Y34010
X37700Y34010
X36700Y34010
X35700Y34010
X34700Y34010
X38100Y37810
X39100Y37810
X40100Y37810
X28500Y38610
X28500Y39610
X28500Y40610
X28500Y41610
X28500Y42610
X28500Y43610
X28500Y44610
X28500Y45610
X28500Y46610
X14900Y35310
X14900Y34310
X14900Y33310
T06
X13500Y35810
X12500Y35810
X11500Y35810
T07
X16814Y28893
X18586Y28893
X2250Y55120
X2250Y57699
T08
X6600Y29210
X8100Y29210
X38400Y40710
X38400Y42210
X38400Y45610
X38400Y47110
X38400Y50710
X38400Y52210
X38400Y55410
X38400Y56910
T09
X10700Y53810
X10700Y51644
T10
X15456Y28893
X19944Y28893
T11
X5894Y46110
X4713Y44259
X3531Y46110
T12
X10700Y56684
T13
X7700Y47510
X12500Y42710
X12700Y29510
X31400Y56110
X38700Y29510
M30
